ISO-10303-21;
HEADER;
FILE_DESCRIPTION (( 'STEP AP214' ),
    '1' );
FILE_NAME ('??18650???_???.STEP',
    '2025-11-16T06:36:26',
    ( '' ),
    ( '' ),
    'SwSTEP 2.0',
    'SolidWorks 2024',
    '' );
FILE_SCHEMA (( 'AUTOMOTIVE_DESIGN' ));
ENDSEC;

DATA;
#1 = LINE ( 'NONE', #409, #15 ) ;
#2 = AXIS2_PLACEMENT_3D ( 'NONE', #637, #830, #223 ) ;
#3 = ORIENTED_EDGE ( 'NONE', *, *, #880, .T. ) ;
#4 = CARTESIAN_POINT ( 'NONE',  ( 3.000000000000000444, -13.09999999999999432, -34.50000000000000000 ) ) ;
#5 = DIRECTION ( 'NONE',  ( -0.000000000000000000, -0.000000000000000000, -1.000000000000000000 ) ) ;
#6 = ORIENTED_EDGE ( 'NONE', *, *, #47, .F. ) ;
#7 = DIRECTION ( 'NONE',  ( -0.000000000000000000, -0.000000000000000000, -1.000000000000000000 ) ) ;
#8 = CARTESIAN_POINT ( 'NONE',  ( 4.900000000000001243, -7.899999999999997691, -36.50000000000000000 ) ) ;
#9 = DIRECTION ( 'NONE',  ( -0.000000000000000000, 0.000000000000000000, -1.000000000000000000 ) ) ;
#10 = EDGE_CURVE ( 'NONE', #88, #554, #647, .T. ) ;
#11 = ORIENTED_EDGE ( 'NONE', *, *, #539, .F. ) ;
#12 = FACE_OUTER_BOUND ( 'NONE', #498, .T. ) ;
#13 = CARTESIAN_POINT ( 'NONE',  ( 0.000000000000000000, -21.50833024919770864, -34.50000000000000000 ) ) ;
#14 = LINE ( 'NONE', #368, #190 ) ;
#15 = VECTOR ( 'NONE', #411, 1000.000000000000000 ) ;
#16 = EDGE_CURVE ( 'NONE', #876, #334, #846, .T. ) ;
#17 = VECTOR ( 'NONE', #692, 1000.000000000000000 ) ;
#18 = ORIENTED_EDGE ( 'NONE', *, *, #751, .T. ) ;
#19 = DIRECTION ( 'NONE',  ( -0.000000000000000000, 1.000000000000000000, 0.000000000000000000 ) ) ;
#20 = LINE ( 'NONE', #234, #253 ) ;
#21 = ORIENTED_EDGE ( 'NONE', *, *, #262, .T. ) ;
#22 = VERTEX_POINT ( 'NONE', #146 ) ;
#23 = DIRECTION ( 'NONE',  ( -0.000000000000000000, -0.000000000000000000, -1.000000000000000000 ) ) ;
#24 = ADVANCED_FACE ( 'NONE', ( #841 ), #151, .F. ) ;
#25 = CARTESIAN_POINT ( 'NONE',  ( 0.000000000000000000, -2.899999999999992362, -36.50000000000000000 ) ) ;
#26 = VERTEX_POINT ( 'NONE', #79 ) ;
#27 = EDGE_LOOP ( 'NONE', ( #103, #559, #348, #85 ) ) ;
#28 =( LENGTH_UNIT ( ) NAMED_UNIT ( * ) SI_UNIT ( .MILLI., .METRE. ) );
#29 = ADVANCED_FACE ( 'NONE', ( #567 ), #298, .F. ) ;
#30 = ORIENTED_EDGE ( 'NONE', *, *, #178, .T. ) ;
#31 = VECTOR ( 'NONE', #263, 1000.000000000000000 ) ;
#32 = VECTOR ( 'NONE', #19, 1000.000000000000000 ) ;
#33 = VERTEX_POINT ( 'NONE', #291 ) ;
#34 = CARTESIAN_POINT ( 'NONE',  ( 9.100000000000003197, -13.09999999999999432, -34.29999999999999716 ) ) ;
#35 = SURFACE_STYLE_USAGE ( .BOTH. , #649 ) ;
#36 = LINE ( 'NONE', #455, #842 ) ;
#37 = VERTEX_POINT ( 'NONE', #373 ) ;
#38 = PLANE ( 'NONE',  #576 ) ;
#39 = LINE ( 'NONE', #320, #31 ) ;
#40 = ORIENTED_EDGE ( 'NONE', *, *, #806, .T. ) ;
#41 = PLANE ( 'NONE',  #352 ) ;
#42 = CARTESIAN_POINT ( 'NONE',  ( 2.999999999999990674, -21.05947814115403816, -32.50000000000000000 ) ) ;
#43 = EDGE_CURVE ( 'NONE', #152, #597, #697, .T. ) ;
#44 = EDGE_LOOP ( 'NONE', ( #788, #30, #799, #752 ) ) ;
#45 = CARTESIAN_POINT ( 'NONE',  ( -3.000000000000000000, 0.000000000000000000, -32.50000000000000000 ) ) ;
#46 = VECTOR ( 'NONE', #584, 1000.000000000000000 ) ;
#47 = EDGE_CURVE ( 'NONE', #207, #586, #14, .T. ) ;
#48 = VECTOR ( 'NONE', #471, 1000.000000000000000 ) ;
#49 = PLANE ( 'NONE',  #143 ) ;
#50 = ORIENTED_EDGE ( 'NONE', *, *, #204, .T. ) ;
#51 = EDGE_CURVE ( 'NONE', #299, #22, #501, .T. ) ;
#52 = CYLINDRICAL_SURFACE ( 'NONE', #673, 10.25000000000000711 ) ;
#53 = EDGE_LOOP ( 'NONE', ( #807, #160, #267, #396, #254, #6, #526, #11 ) ) ;
#54 = DIRECTION ( 'NONE',  ( 1.000000000000000000, 0.000000000000000000, 0.000000000000000000 ) ) ;
#55 = EDGE_CURVE ( 'NONE', #698, #155, #798, .T. ) ;
#56 = CARTESIAN_POINT ( 'NONE',  ( 11.51230429347179296, 15.72653030454611311, -32.50000000000000000 ) ) ;
#57 = ORIENTED_EDGE ( 'NONE', *, *, #771, .F. ) ;
#58 = LINE ( 'NONE', #881, #48 ) ;
#59 = AXIS2_PLACEMENT_3D ( 'NONE', #878, #273, #677 ) ;
#60 = VECTOR ( 'NONE', #72, 1000.000000000000000 ) ;
#61 = DIRECTION ( 'NONE',  ( -0.000000000000000000, -0.000000000000000000, -1.000000000000000000 ) ) ;
#62 = EDGE_CURVE ( 'NONE', #37, #124, #433, .T. ) ;
#63 = ORIENTED_EDGE ( 'NONE', *, *, #613, .T. ) ;
#64 = CARTESIAN_POINT ( 'NONE',  ( 9.100000000000003197, 0.000000000000000000, -36.50000000000000000 ) ) ;
#65 = DIRECTION ( 'NONE',  ( 1.734723475976808327E-16, 0.000000000000000000, 1.000000000000000000 ) ) ;
#66 = EDGE_CURVE ( 'NONE', #156, #833, #39, .T. ) ;
#67 = APPLICATION_PROTOCOL_DEFINITION ( 'draft international standard', 'automotive_design', 1998, #389 ) ;
#68 = CARTESIAN_POINT ( 'NONE',  ( -3.000000000000000444, -13.09999999999999432, -34.29999999999999716 ) ) ;
#69 = CARTESIAN_POINT ( 'NONE',  ( 9.750000000000000000, 5.629165124598869419, -36.50000000000000000 ) ) ;
#70 = EDGE_CURVE ( 'NONE', #554, #98, #650, .T. ) ;
#71 = EDGE_LOOP ( 'NONE', ( #120, #636, #516, #735, #713, #441, #550, #57 ) ) ;
#72 = DIRECTION ( 'NONE',  ( 1.000000000000000000, 0.000000000000000000, 0.000000000000000000 ) ) ;
#73 = CIRCLE ( 'NONE', #476, 10.25000000000000711 ) ;
#74 = CARTESIAN_POINT ( 'NONE',  ( -11.51230429347180184, 15.72653030454610956, 23.28742955583319585 ) ) ;
#75 = AXIS2_PLACEMENT_3D ( 'NONE', #488, #360, #81 ) ;
#76 = ORIENTED_EDGE ( 'NONE', *, *, #55, .F. ) ;
#77 = DIRECTION ( 'NONE',  ( 0.000000000000000000, 1.000000000000000000, 0.000000000000000000 ) ) ;
#78 = CARTESIAN_POINT ( 'NONE',  ( 9.100000000000003197, -2.899999999999990585, -34.29999999999999716 ) ) ;
#79 = CARTESIAN_POINT ( 'NONE',  ( 8.876760388790486900, -16.38333024919771219, -32.50000000000000000 ) ) ;
#80 = ORIENTED_EDGE ( 'NONE', *, *, #404, .F. ) ;
#81 = DIRECTION ( 'NONE',  ( 1.000000000000000000, 0.000000000000000000, 0.000000000000000000 ) ) ;
#82 = DIRECTION ( 'NONE',  ( 0.000000000000000000, 0.000000000000000000, 1.000000000000000000 ) ) ;
#83 = EDGE_CURVE ( 'NONE', #403, #416, #406, .T. ) ;
#84 = CARTESIAN_POINT ( 'NONE',  ( 2.999999999999990674, -21.05947814115403816, 23.28742955583319585 ) ) ;
#85 = ORIENTED_EDGE ( 'NONE', *, *, #62, .T. ) ;
#86 = CARTESIAN_POINT ( 'NONE',  ( -4.900000000000001243, -2.899999999999992362, -36.50000000000000000 ) ) ;
#87 = DIRECTION ( 'NONE',  ( -0.000000000000000000, -0.000000000000000000, -1.000000000000000000 ) ) ;
#88 = VERTEX_POINT ( 'NONE', #459 ) ;
#89 = CLOSED_SHELL ( 'NONE', ( #369, #386, #448, #599, #851, #823, #185, #224, #835, #305, #868, #167, #875, #121, #275, #588, #437, #642, #654, #792, #678, #818, #379, #29, #24, #784 ) ) ;
#90 = VECTOR ( 'NONE', #329, 1000.000000000000000 ) ;
#91 = ORIENTED_EDGE ( 'NONE', *, *, #137, .T. ) ;
#92 = PLANE ( 'NONE',  #732 ) ;
#93 = DIRECTION ( 'NONE',  ( -0.000000000000000000, -0.000000000000000000, -1.000000000000000000 ) ) ;
#94 = DIRECTION ( 'NONE',  ( 1.000000000000000000, 0.000000000000000000, 0.000000000000000000 ) ) ;
#95 = ORIENTED_EDGE ( 'NONE', *, *, #669, .F. ) ;
#96 = DIRECTION ( 'NONE',  ( 1.000000000000000000, 0.000000000000000000, 0.000000000000000000 ) ) ;
#97 = LINE ( 'NONE', #25, #591 ) ;
#98 = VERTEX_POINT ( 'NONE', #390 ) ;
#99 = ORIENTED_EDGE ( 'NONE', *, *, #248, .F. ) ;
#100 = DIRECTION ( 'NONE',  ( 0.000000000000000000, -0.000000000000000000, 1.000000000000000000 ) ) ;
#101 = DIRECTION ( 'NONE',  ( 1.000000000000000000, 0.000000000000000000, 1.734723475976808327E-16 ) ) ;
#102 = AXIS2_PLACEMENT_3D ( 'NONE', #209, #536, #65 ) ;
#103 = ORIENTED_EDGE ( 'NONE', *, *, #137, .F. ) ;
#104 = FACE_OUTER_BOUND ( 'NONE', #44, .T. ) ;
#105 =( LENGTH_UNIT ( ) NAMED_UNIT ( * ) SI_UNIT ( .MILLI., .METRE. ) );
#106 = DIRECTION ( 'NONE',  ( 1.000000000000000000, 0.000000000000000000, 0.000000000000000000 ) ) ;
#107 = VERTEX_POINT ( 'NONE', #392 ) ;
#108 = LINE ( 'NONE', #849, #687 ) ;
#109 =( NAMED_UNIT ( * ) SI_UNIT ( $, .STERADIAN. ) SOLID_ANGLE_UNIT ( ) );
#110 = CARTESIAN_POINT ( 'NONE',  ( -9.100000000000004974, -2.899999999999992362, -34.29999999999999716 ) ) ;
#111 = EDGE_CURVE ( 'NONE', #707, #833, #667, .T. ) ;
#112 = EDGE_CURVE ( 'NONE', #186, #141, #450, .T. ) ;
#113 = ORIENTED_EDGE ( 'NONE', *, *, #863, .F. ) ;
#114 = DIRECTION ( 'NONE',  ( 0.1719321261923696664, -0.9851087980436329383, 0.000000000000000000 ) ) ;
#115 = DIRECTION ( 'NONE',  ( -0.000000000000000000, 0.000000000000000000, 1.000000000000000000 ) ) ;
#116 = VECTOR ( 'NONE', #620, 1000.000000000000000 ) ;
#117 = EDGE_LOOP ( 'NONE', ( #782, #534, #865, #824, #322, #755, #763, #487 ) ) ;
#118 = AXIS2_PLACEMENT_3D ( 'NONE', #279, #681, #803 ) ;
#119 = FACE_OUTER_BOUND ( 'NONE', #327, .T. ) ;
#120 = ORIENTED_EDGE ( 'NONE', *, *, #761, .F. ) ;
#121 = ADVANCED_FACE ( 'NONE', ( #119 ), #251, .F. ) ;
#122 = LINE ( 'NONE', #64, #326 ) ;
#123 = FACE_OUTER_BOUND ( 'NONE', #117, .T. ) ;
#124 = VERTEX_POINT ( 'NONE', #850 ) ;
#125 = FACE_OUTER_BOUND ( 'NONE', #53, .T. ) ;
#126 = EDGE_CURVE ( 'NONE', #738, #156, #722, .T. ) ;
#127 = LINE ( 'NONE', #354, #504 ) ;
#128 = VERTEX_POINT ( 'NONE', #180 ) ;
#129 = ORIENTED_EDGE ( 'NONE', *, *, #548, .T. ) ;
#130 = CARTESIAN_POINT ( 'NONE',  ( -2.999999999999990674, -21.05947814115403816, 23.28742955583319585 ) ) ;
#131 = VECTOR ( 'NONE', #612, 1000.000000000000000 ) ;
#132 = AXIS2_PLACEMENT_3D ( 'NONE', #517, #523, #100 ) ;
#133 = PLANE ( 'NONE',  #236 ) ;
#134 = PLANE ( 'NONE',  #561 ) ;
#135 = LINE ( 'NONE', #543, #131 ) ;
#136 = EDGE_CURVE ( 'NONE', #537, #222, #716, .T. ) ;
#137 = EDGE_CURVE ( 'NONE', #416, #124, #36, .T. ) ;
#138 = VERTEX_POINT ( 'NONE', #726 ) ;
#139 = PLANE ( 'NONE',  #175 ) ;
#140 = CARTESIAN_POINT ( 'NONE',  ( 0.000000000000000000, -7.899999999999997691, -36.50000000000000000 ) ) ;
#141 = VERTEX_POINT ( 'NONE', #333 ) ;
#142 = DIRECTION ( 'NONE',  ( -0.000000000000000000, 1.000000000000000000, -0.000000000000000000 ) ) ;
#143 = AXIS2_PLACEMENT_3D ( 'NONE', #330, #325, #590 ) ;
#144 = DIRECTION ( 'NONE',  ( -1.734723475976808327E-16, 0.000000000000000000, 1.000000000000000000 ) ) ;
#145 = VECTOR ( 'NONE', #7, 1000.000000000000000 ) ;
#146 = CARTESIAN_POINT ( 'NONE',  ( 2.043305466773872592, 17.37916512459886675, -36.50000000000000000 ) ) ;
#147 = EDGE_LOOP ( 'NONE', ( #621, #671, #502, #577 ) ) ;
#148 = FACE_OUTER_BOUND ( 'NONE', #244, .T. ) ;
#149 = EDGE_CURVE ( 'NONE', #529, #597, #546, .T. ) ;
#150 = CARTESIAN_POINT ( 'NONE',  ( -9.100000000000004974, -2.899999999999992362, -36.50000000000000000 ) ) ;
#151 = PLANE ( 'NONE',  #159 ) ;
#152 = VERTEX_POINT ( 'NONE', #42 ) ;
#153 = CARTESIAN_POINT ( 'NONE',  ( 2.043305466773872592, 17.37916512459886675, 23.28742955583319585 ) ) ;
#154 = LINE ( 'NONE', #700, #17 ) ;
#155 = VERTEX_POINT ( 'NONE', #110 ) ;
#156 = VERTEX_POINT ( 'NONE', #398 ) ;
#157 = LINE ( 'NONE', #228, #775 ) ;
#158 = CARTESIAN_POINT ( 'NONE',  ( 0.000000000000000000, -11.25833024919771042, 23.28742955583319585 ) ) ;
#159 = AXIS2_PLACEMENT_3D ( 'NONE', #496, #491, #832 ) ;
#160 = ORIENTED_EDGE ( 'NONE', *, *, #494, .T. ) ;
#161 = PRODUCT_RELATED_PRODUCT_CATEGORY ( 'part', '', ( #611 ) ) ;
#162 = VECTOR ( 'NONE', #208, 1000.000000000000000 ) ;
#163 = ORIENTED_EDGE ( 'NONE', *, *, #429, .F. ) ;
#164 = DIRECTION ( 'NONE',  ( 0.000000000000000000, 0.000000000000000000, 1.000000000000000000 ) ) ;
#165 = DIRECTION ( 'NONE',  ( 1.000000000000000000, 0.000000000000000000, -0.000000000000000000 ) ) ;
#166 = EDGE_LOOP ( 'NONE', ( #578, #668, #226, #852 ) ) ;
#167 = ADVANCED_FACE ( 'NONE', ( #657 ), #49, .T. ) ;
#168 = ORIENTED_EDGE ( 'NONE', *, *, #624, .T. ) ;
#169 = CARTESIAN_POINT ( 'NONE',  ( 0.000000000000000000, 17.37916512459886675, -32.50000000000000000 ) ) ;
#170 = DIRECTION ( 'NONE',  ( 1.734723475976808327E-16, 0.000000000000000000, -1.000000000000000000 ) ) ;
#171 = VERTEX_POINT ( 'NONE', #265 ) ;
#172 = DIRECTION ( 'NONE',  ( -0.000000000000000000, -0.000000000000000000, -1.000000000000000000 ) ) ;
#173 = FILL_AREA_STYLE_COLOUR ( '', #533 ) ;
#174 = CARTESIAN_POINT ( 'NONE',  ( 13.75176038879049401, -7.939582562299420943, -36.50000000000000000 ) ) ;
#175 = AXIS2_PLACEMENT_3D ( 'NONE', #884, #202, #343 ) ;
#176 = ORIENTED_EDGE ( 'NONE', *, *, #742, .F. ) ;
#177 = DIRECTION ( 'NONE',  ( -0.000000000000000000, 0.000000000000000000, 1.000000000000000000 ) ) ;
#178 = EDGE_CURVE ( 'NONE', #592, #299, #596, .T. ) ;
#179 = LINE ( 'NONE', #725, #674 ) ;
#180 = CARTESIAN_POINT ( 'NONE',  ( -18.62676038879049756, 0.5041651245988703067, -36.50000000000000000 ) ) ;
#181 = ORIENTED_EDGE ( 'NONE', *, *, #669, .T. ) ;
#182 = PLANE ( 'NONE',  #452 ) ;
#183 = CARTESIAN_POINT ( 'NONE',  ( -18.62676038879049756, 0.5041651245988703067, 23.28742955583319585 ) ) ;
#184 = CARTESIAN_POINT ( 'NONE',  ( 3.003942801751141367, 17.21150402987469263, -32.50000000000000000 ) ) ;
#185 = ADVANCED_FACE ( 'NONE', ( #462 ), #52, .T. ) ;
#186 = VERTEX_POINT ( 'NONE', #515 ) ;
#187 = DIRECTION ( 'NONE',  ( -0.000000000000000000, -0.000000000000000000, -1.000000000000000000 ) ) ;
#188 = CARTESIAN_POINT ( 'NONE',  ( -9.100000000000004974, 0.000000000000000000, -34.29999999999999716 ) ) ;
#189 = EDGE_CURVE ( 'NONE', #403, #37, #787, .T. ) ;
#190 = VECTOR ( 'NONE', #838, 1000.000000000000000 ) ;
#191 = VERTEX_POINT ( 'NONE', #747 ) ;
#192 = AXIS2_PLACEMENT_3D ( 'NONE', #446, #579, #795 ) ;
#193 = CARTESIAN_POINT ( 'NONE',  ( -9.100000000000004974, -2.899999999999992362, -34.29999999999999716 ) ) ;
#194 = DIRECTION ( 'NONE',  ( -0.000000000000000000, 0.000000000000000000, 1.000000000000000000 ) ) ;
#195 = ORIENTED_EDGE ( 'NONE', *, *, #614, .T. ) ;
#196 = CARTESIAN_POINT ( 'NONE',  ( -2.043305466773872592, 17.37916512459886675, -32.50000000000000000 ) ) ;
#197 = LINE ( 'NONE', #482, #719 ) ;
#198 = VERTEX_POINT ( 'NONE', #414 ) ;
#199 = LINE ( 'NONE', #736, #418 ) ;
#200 = FACE_OUTER_BOUND ( 'NONE', #27, .T. ) ;
#201 = ORIENTED_EDGE ( 'NONE', *, *, #16, .F. ) ;
#202 = DIRECTION ( 'NONE',  ( 0.000000000000000000, -1.000000000000000000, 0.000000000000000000 ) ) ;
#203 = VECTOR ( 'NONE', #247, 1000.000000000000000 ) ;
#204 = EDGE_CURVE ( 'NONE', #592, #403, #531, .T. ) ;
#205 = LINE ( 'NONE', #602, #871 ) ;
#206 = EDGE_CURVE ( 'NONE', #331, #683, #135, .T. ) ;
#207 = VERTEX_POINT ( 'NONE', #685 ) ;
#208 = DIRECTION ( 'NONE',  ( 1.000000000000000000, 0.000000000000000000, 0.000000000000000000 ) ) ;
#209 = CARTESIAN_POINT ( 'NONE',  ( -2.999999999999994227, -21.50833024919770864, 5.204170427930414381E-16 ) ) ;
#210 = EDGE_CURVE ( 'NONE', #152, #26, #449, .T. ) ;
#211 = EDGE_LOOP ( 'NONE', ( #465, #767, #358, #772, #689, #626, #176, #337, #749 ) ) ;
#212 = FACE_OUTER_BOUND ( 'NONE', #426, .T. ) ;
#213 = LINE ( 'NONE', #821, #252 ) ;
#214 = EDGE_LOOP ( 'NONE', ( #288, #618, #113, #802 ) ) ;
#215 = EDGE_CURVE ( 'NONE', #222, #198, #1, .T. ) ;
#216 = VERTEX_POINT ( 'NONE', #277 ) ;
#217 = DIRECTION ( 'NONE',  ( -0.000000000000000000, 0.000000000000000000, 1.000000000000000000 ) ) ;
#218 = VECTOR ( 'NONE', #873, 1000.000000000000000 ) ;
#219 = CARTESIAN_POINT ( 'NONE',  ( 2.999999999999994227, -7.899999999999997691, 5.204170427930414381E-16 ) ) ;
#220 = AXIS2_PLACEMENT_3D ( 'NONE', #484, #217, #777 ) ;
#221 = ORIENTED_EDGE ( 'NONE', *, *, #512, .F. ) ;
#222 = VERTEX_POINT ( 'NONE', #56 ) ;
#223 = DIRECTION ( 'NONE',  ( -1.000000000000000000, 0.000000000000000000, -0.000000000000000000 ) ) ;
#224 = ADVANCED_FACE ( 'NONE', ( #813 ), #133, .F. ) ;
#225 = PLANE ( 'NONE',  #633 ) ;
#226 = ORIENTED_EDGE ( 'NONE', *, *, #595, .T. ) ;
#227 = ORIENTED_EDGE ( 'NONE', *, *, #136, .F. ) ;
#228 = CARTESIAN_POINT ( 'NONE',  ( 0.000000000000000000, -13.09999999999999432, -36.50000000000000000 ) ) ;
#229 = PLANE ( 'NONE',  #367 ) ;
#230 = ORIENTED_EDGE ( 'NONE', *, *, #748, .F. ) ;
#231 = PRODUCT_DEFINITION_CONTEXT ( 'detailed design', #797, 'design' ) ;
#232 = ORIENTED_EDGE ( 'NONE', *, *, #395, .F. ) ;
#233 = CARTESIAN_POINT ( 'NONE',  ( 3.000000000000000000, 16.87916512459887031, -32.50000000000000000 ) ) ;
#234 = CARTESIAN_POINT ( 'NONE',  ( 0.000000000000000000, -7.899999999999997691, -34.50000000000000000 ) ) ;
#235 = EDGE_CURVE ( 'NONE', #833, #331, #270, .T. ) ;
#236 = AXIS2_PLACEMENT_3D ( 'NONE', #340, #549, #344 ) ;
#237 = DIRECTION ( 'NONE',  ( 1.000000000000000000, 0.000000000000000000, 0.000000000000000000 ) ) ;
#238 = AXIS2_PLACEMENT_3D ( 'NONE', #300, #503, #690 ) ;
#239 = EDGE_CURVE ( 'NONE', #738, #707, #127, .T. ) ;
#240 = ORIENTED_EDGE ( 'NONE', *, *, #508, .T. ) ;
#241 = LINE ( 'NONE', #710, #477 ) ;
#242 = CARTESIAN_POINT ( 'NONE',  ( -3.000000000000000444, -21.05947814115403816, -34.50000000000000000 ) ) ;
#243 = ORIENTED_EDGE ( 'NONE', *, *, #613, .F. ) ;
#244 = EDGE_LOOP ( 'NONE', ( #703, #430, #374, #303 ) ) ;
#245 = FACE_OUTER_BOUND ( 'NONE', #211, .T. ) ;
#246 = DIRECTION ( 'NONE',  ( 1.000000000000000000, 0.000000000000000000, 0.000000000000000000 ) ) ;
#247 = DIRECTION ( 'NONE',  ( 0.000000000000000000, 1.000000000000000000, 0.000000000000000000 ) ) ;
#248 = EDGE_CURVE ( 'NONE', #529, #207, #205, .T. ) ;
#249 = VERTEX_POINT ( 'NONE', #817 ) ;
#250 = DIRECTION ( 'NONE',  ( 1.000000000000000000, -0.000000000000000000, 0.000000000000000000 ) ) ;
#251 = PLANE ( 'NONE',  #702 ) ;
#252 = VECTOR ( 'NONE', #485, 1000.000000000000000 ) ;
#253 = VECTOR ( 'NONE', #696, 1000.000000000000000 ) ;
#254 = ORIENTED_EDGE ( 'NONE', *, *, #350, .F. ) ;
#255 = DIRECTION ( 'NONE',  ( -0.000000000000000000, -0.000000000000000000, -1.000000000000000000 ) ) ;
#256 = DIRECTION ( 'NONE',  ( -0.000000000000000000, -0.000000000000000000, -1.000000000000000000 ) ) ;
#257 = EDGE_CURVE ( 'NONE', #98, #198, #73, .T. ) ;
#258 = DIRECTION ( 'NONE',  ( 0.9851087980436328273, -0.1719321261923694166, 0.000000000000000000 ) ) ;
#259 = ORIENTED_EDGE ( 'NONE', *, *, #708, .F. ) ;
#260 = CARTESIAN_POINT ( 'NONE',  ( -8.876760388790499334, -16.38333024919770509, 23.28742955583319585 ) ) ;
#261 = LINE ( 'NONE', #594, #90 ) ;
#262 = EDGE_CURVE ( 'NONE', #416, #334, #575, .T. ) ;
#263 = DIRECTION ( 'NONE',  ( -0.000000000000000000, -0.000000000000000000, -1.000000000000000000 ) ) ;
#264 = ORIENTED_EDGE ( 'NONE', *, *, #111, .T. ) ;
#265 = CARTESIAN_POINT ( 'NONE',  ( -3.000000000000000444, -7.899999999999997691, -34.29999999999999716 ) ) ;
#266 = VECTOR ( 'NONE', #444, 1000.000000000000000 ) ;
#267 = ORIENTED_EDGE ( 'NONE', *, *, #761, .T. ) ;
#268 = PRESENTATION_LAYER_ASSIGNMENT (  '', '', ( #648 ) ) ;
#269 = DIRECTION ( 'NONE',  ( -1.734723475976808080E-16, 0.000000000000000000, 1.000000000000000000 ) ) ;
#270 = LINE ( 'NONE', #140, #116 ) ;
#271 = ORIENTED_EDGE ( 'NONE', *, *, #126, .T. ) ;
#272 = CARTESIAN_POINT ( 'NONE',  ( 8.876760388790492229, -16.38333024919771219, -36.50000000000000000 ) ) ;
#273 = DIRECTION ( 'NONE',  ( -0.000000000000000000, -0.000000000000000000, -1.000000000000000000 ) ) ;
#274 = ORIENTED_EDGE ( 'NONE', *, *, #350, .T. ) ;
#275 = ADVANCED_FACE ( 'NONE', ( #123 ), #402, .F. ) ;
#276 = CARTESIAN_POINT ( 'NONE',  ( 0.000000000000000000, -13.09999999999999432, -34.29999999999999716 ) ) ;
#277 = CARTESIAN_POINT ( 'NONE',  ( 18.62676038879049401, 0.5041651245988520991, -32.50000000000000000 ) ) ;
#278 = ORIENTED_EDGE ( 'NONE', *, *, #10, .T. ) ;
#279 = CARTESIAN_POINT ( 'NONE',  ( 0.000000000000000000, 0.000000000000000000, -32.50000000000000000 ) ) ;
#280 = VECTOR ( 'NONE', #432, 1000.000000000000000 ) ;
#281 = CIRCLE ( 'NONE', #451, 10.24999999999999822 ) ;
#282 = EDGE_CURVE ( 'NONE', #809, #431, #335, .T. ) ;
#283 = DIRECTION ( 'NONE',  ( 1.000000000000000000, 0.000000000000000000, 0.000000000000000000 ) ) ;
#284 = ORIENTED_EDGE ( 'NONE', *, *, #262, .F. ) ;
#285 = CARTESIAN_POINT ( 'NONE',  ( 0.000000000000000000, -7.899999999999997691, -34.29999999999999716 ) ) ;
#286 = CYLINDRICAL_SURFACE ( 'NONE', #757, 10.24999999999999822 ) ;
#287 = EDGE_CURVE ( 'NONE', #26, #554, #197, .T. ) ;
#288 = ORIENTED_EDGE ( 'NONE', *, *, #862, .T. ) ;
#289 = DIRECTION ( 'NONE',  ( 1.000000000000000000, 0.000000000000000000, -0.000000000000000000 ) ) ;
#290 = LINE ( 'NONE', #219, #872 ) ;
#291 = CARTESIAN_POINT ( 'NONE',  ( -3.000000000000000444, -7.899999999999997691, -34.50000000000000000 ) ) ;
#292 = EDGE_CURVE ( 'NONE', #299, #37, #608, .T. ) ;
#293 = EDGE_LOOP ( 'NONE', ( #815, #438, #95, #63 ) ) ;
#294 = PLANE ( 'NONE',  #2 ) ;
#295 = AXIS2_PLACEMENT_3D ( 'NONE', #737, #479, #670 ) ;
#296 = CARTESIAN_POINT ( 'NONE',  ( -18.62676038879049756, 0.5041651245988685304, -32.50000000000000000 ) ) ;
#297 = VECTOR ( 'NONE', #659, 1000.000000000000000 ) ;
#298 = PLANE ( 'NONE',  #744 ) ;
#299 = VERTEX_POINT ( 'NONE', #346 ) ;
#300 = CARTESIAN_POINT ( 'NONE',  ( 0.000000000000000000, 0.000000000000000000, -34.29999999999999716 ) ) ;
#301 = DIRECTION ( 'NONE',  ( -0.000000000000000000, 1.000000000000000000, -0.000000000000000000 ) ) ;
#302 = EDGE_LOOP ( 'NONE', ( #442, #40, #829, #569 ) ) ;
#303 = ORIENTED_EDGE ( 'NONE', *, *, #321, .T. ) ;
#304 = CARTESIAN_POINT ( 'NONE',  ( -4.900000000000001243, -2.899999999999992362, -34.29999999999999716 ) ) ;
#305 = ADVANCED_FACE ( 'NONE', ( #200 ), #615, .T. ) ;
#306 = DIRECTION ( 'NONE',  ( -0.000000000000000000, 1.000000000000000000, -0.000000000000000000 ) ) ;
#307 = EDGE_CURVE ( 'NONE', #171, #33, #541, .T. ) ;
#308 = CARTESIAN_POINT ( 'NONE',  ( 0.000000000000000000, -11.25833024919771042, -36.50000000000000000 ) ) ;
#309 = ORIENTED_EDGE ( 'NONE', *, *, #558, .T. ) ;
#310 = DIRECTION ( 'NONE',  ( 0.9851087980436328273, -0.1719321261923694166, 0.000000000000000000 ) ) ;
#311 = CARTESIAN_POINT ( 'NONE',  ( -0.000000000000000000, 16.87916512459887031, -32.50000000000000000 ) ) ;
#312 = VECTOR ( 'NONE', #362, 1000.000000000000000 ) ;
#313 = DIRECTION ( 'NONE',  ( -0.000000000000000000, 0.000000000000000000, 1.000000000000000000 ) ) ;
#314 = ORIENTED_EDGE ( 'NONE', *, *, #720, .F. ) ;
#315 = FACE_OUTER_BOUND ( 'NONE', #848, .T. ) ;
#316 = CARTESIAN_POINT ( 'NONE',  ( 9.750000000000000000, 5.629165124598869419, 23.28742955583319585 ) ) ;
#317 = EDGE_CURVE ( 'NONE', #597, #723, #743, .T. ) ;
#318 = ORIENTED_EDGE ( 'NONE', *, *, #771, .T. ) ;
#319 = FACE_OUTER_BOUND ( 'NONE', #461, .T. ) ;
#320 = CARTESIAN_POINT ( 'NONE',  ( -4.900000000000001243, -7.899999999999997691, -34.29999999999999716 ) ) ;
#321 = EDGE_CURVE ( 'NONE', #473, #138, #213, .T. ) ;
#322 = ORIENTED_EDGE ( 'NONE', *, *, #810, .T. ) ;
#323 = CARTESIAN_POINT ( 'NONE',  ( 0.000000000000000000, -21.50833024919770864, -34.50000000000000000 ) ) ;
#324 = CARTESIAN_POINT ( 'NONE',  ( 9.100000000000003197, -13.09999999999999432, -34.29999999999999716 ) ) ;
#325 = DIRECTION ( 'NONE',  ( 0.000000000000000000, 1.000000000000000000, 0.000000000000000000 ) ) ;
#326 = VECTOR ( 'NONE', #676, 1000.000000000000000 ) ;
#327 = EDGE_LOOP ( 'NONE', ( #730, #759, #776, #399, #855, #483, #391, #768 ) ) ;
#328 = PLANE ( 'NONE',  #132 ) ;
#329 = DIRECTION ( 'NONE',  ( 1.734723475976808327E-16, 0.000000000000000000, -1.000000000000000000 ) ) ;
#330 = CARTESIAN_POINT ( 'NONE',  ( 0.000000000000000000, 17.37916512459886675, 23.28742955583319585 ) ) ;
#331 = VERTEX_POINT ( 'NONE', #8 ) ;
#332 = DIRECTION ( 'NONE',  ( 0.000000000000000000, 0.000000000000000000, 1.000000000000000000 ) ) ;
#333 = CARTESIAN_POINT ( 'NONE',  ( 4.900000000000001243, -2.899999999999990585, -34.29999999999999716 ) ) ;
#334 = VERTEX_POINT ( 'NONE', #296 ) ;
#335 = LINE ( 'NONE', #672, #218 ) ;
#336 = VECTOR ( 'NONE', #740, 1000.000000000000114 ) ;
#337 = ORIENTED_EDGE ( 'NONE', *, *, #62, .F. ) ;
#338 =( GEOMETRIC_REPRESENTATION_CONTEXT ( 3 ) GLOBAL_UNCERTAINTY_ASSIGNED_CONTEXT ( ( #497 ) ) GLOBAL_UNIT_ASSIGNED_CONTEXT ( ( #105, #518, #109 ) ) REPRESENTATION_CONTEXT ( 'NONE', 'WORKASPACE' ) );
#339 = LINE ( 'NONE', #607, #162 ) ;
#340 = CARTESIAN_POINT ( 'NONE',  ( 13.75176038879049401, -7.939582562299420943, 23.28742955583319585 ) ) ;
#341 = EDGE_CURVE ( 'NONE', #207, #723, #366, .T. ) ;
#342 = EDGE_LOOP ( 'NONE', ( #822, #553, #717, #827, #227, #629, #50, #547, #21, #201, #168, #564, #240 ) ) ;
#343 = DIRECTION ( 'NONE',  ( 0.000000000000000000, -0.000000000000000000, -1.000000000000000000 ) ) ;
#344 = DIRECTION ( 'NONE',  ( -0.4999999999999997780, -0.8660254037844387076, 0.000000000000000000 ) ) ;
#345 = FACE_OUTER_BOUND ( 'NONE', #387, .T. ) ;
#346 = CARTESIAN_POINT ( 'NONE',  ( -2.043305466773872592, 17.37916512459886675, -36.50000000000000000 ) ) ;
#347 = VECTOR ( 'NONE', #864, 1000.000000000000000 ) ;
#348 = ORIENTED_EDGE ( 'NONE', *, *, #189, .T. ) ;
#349 = CARTESIAN_POINT ( 'NONE',  ( 9.100000000000003197, 0.000000000000000000, -34.29999999999999716 ) ) ;
#350 = EDGE_CURVE ( 'NONE', #586, #698, #154, .T. ) ;
#351 = VECTOR ( 'NONE', #142, 1000.000000000000000 ) ;
#352 = AXIS2_PLACEMENT_3D ( 'NONE', #323, #164, #582 ) ;
#353 = PRODUCT_DEFINITION_SHAPE ( 'NONE', 'NONE',  #715 ) ;
#354 = CARTESIAN_POINT ( 'NONE',  ( -4.900000000000001243, -2.899999999999992362, -34.29999999999999716 ) ) ;
#355 = VERTEX_POINT ( 'NONE', #428 ) ;
#356 = LINE ( 'NONE', #423, #351 ) ;
#357 = FACE_OUTER_BOUND ( 'NONE', #147, .T. ) ;
#358 = ORIENTED_EDGE ( 'NONE', *, *, #257, .F. ) ;
#359 = ORIENTED_EDGE ( 'NONE', *, *, #691, .T. ) ;
#360 = DIRECTION ( 'NONE',  ( -0.000000000000000000, 0.000000000000000000, 1.000000000000000000 ) ) ;
#361 = CARTESIAN_POINT ( 'NONE',  ( -3.000000000000000444, 16.87916512459887031, -34.50000000000000000 ) ) ;
#362 = DIRECTION ( 'NONE',  ( -0.000000000000000000, -0.000000000000000000, -1.000000000000000000 ) ) ;
#363 = ORIENTED_EDGE ( 'NONE', *, *, #317, .T. ) ;
#364 = CARTESIAN_POINT ( 'NONE',  ( 18.62676038879049045, 0.5041651245988546526, 23.28742955583319585 ) ) ;
#365 = VECTOR ( 'NONE', #882, 1000.000000000000227 ) ;
#366 = LINE ( 'NONE', #754, #589 ) ;
#367 = AXIS2_PLACEMENT_3D ( 'NONE', #500, #440, #770 ) ;
#368 = CARTESIAN_POINT ( 'NONE',  ( -2.999999999999994227, -13.09999999999999432, 5.204170427930414381E-16 ) ) ;
#369 = ADVANCED_FACE ( 'NONE', ( #375 ), #506, .T. ) ;
#370 = ORIENTED_EDGE ( 'NONE', *, *, #235, .T. ) ;
#371 = LINE ( 'NONE', #153, #297 ) ;
#372 = LINE ( 'NONE', #831, #814 ) ;
#373 = CARTESIAN_POINT ( 'NONE',  ( -11.51230429347180184, 15.72653030454610956, -36.50000000000000000 ) ) ;
#374 = ORIENTED_EDGE ( 'NONE', *, *, #773, .F. ) ;
#375 = FACE_OUTER_BOUND ( 'NONE', #609, .T. ) ;
#376 = ORIENTED_EDGE ( 'NONE', *, *, #742, .T. ) ;
#377 = ORIENTED_EDGE ( 'NONE', *, *, #624, .F. ) ;
#378 = PLANE ( 'NONE',  #192 ) ;
#379 = ADVANCED_FACE ( 'NONE', ( #357 ), #225, .F. ) ;
#380 = DIRECTION ( 'NONE',  ( -0.000000000000000000, 0.000000000000000000, 1.000000000000000000 ) ) ;
#381 = MECHANICAL_DESIGN_GEOMETRIC_PRESENTATION_REPRESENTATION (  '', ( #648 ), #338 ) ;
#382 = PRODUCT_DEFINITION_FORMATION_WITH_SPECIFIED_SOURCE ( 'ANY', '', #611, .NOT_KNOWN. ) ;
#383 = ORIENTED_EDGE ( 'NONE', *, *, #837, .T. ) ;
#384 = PLANE ( 'NONE',  #758 ) ;
#385 = DIRECTION ( 'NONE',  ( 0.000000000000000000, 1.000000000000000000, 0.000000000000000000 ) ) ;
#386 = ADVANCED_FACE ( 'NONE', ( #566 ), #623, .T. ) ;
#387 = EDGE_LOOP ( 'NONE', ( #18, #781, #507, #879, #631, #844 ) ) ;
#388 = DIRECTION ( 'NONE',  ( 0.9851087980436328273, 0.1719321261923696387, 0.000000000000000000 ) ) ;
#389 = APPLICATION_CONTEXT ( 'automotive_design' ) ;
#390 = CARTESIAN_POINT ( 'NONE',  ( 18.62676038879049045, 0.5041651245988546526, -36.50000000000000000 ) ) ;
#391 = ORIENTED_EDGE ( 'NONE', *, *, #679, .T. ) ;
#392 = CARTESIAN_POINT ( 'NONE',  ( -2.999999999999991562, -21.05947814115403816, -32.50000000000000000 ) ) ;
#393 = VECTOR ( 'NONE', #258, 1000.000000000000114 ) ;
#394 = VECTOR ( 'NONE', #820, 1000.000000000000000 ) ;
#395 = EDGE_CURVE ( 'NONE', #355, #249, #290, .T. ) ;
#396 = ORIENTED_EDGE ( 'NONE', *, *, #880, .F. ) ;
#397 = VECTOR ( 'NONE', #255, 1000.000000000000000 ) ;
#398 = CARTESIAN_POINT ( 'NONE',  ( -4.900000000000001243, -7.899999999999997691, -34.29999999999999716 ) ) ;
#399 = ORIENTED_EDGE ( 'NONE', *, *, #539, .T. ) ;
#400 =( NAMED_UNIT ( * ) SI_UNIT ( $, .STERADIAN. ) SOLID_ANGLE_UNIT ( ) );
#401 = CARTESIAN_POINT ( 'NONE',  ( 0.000000000000000000, -11.25833024919771042, -32.50000000000000000 ) ) ;
#402 = PLANE ( 'NONE',  #102 ) ;
#403 = VERTEX_POINT ( 'NONE', #634 ) ;
#404 = EDGE_CURVE ( 'NONE', #355, #33, #20, .T. ) ;
#405 = DIRECTION ( 'NONE',  ( -0.000000000000000000, 1.000000000000000000, -0.000000000000000000 ) ) ;
#406 = CIRCLE ( 'NONE', #630, 10.24999999999999822 ) ;
#407 = ORIENTED_EDGE ( 'NONE', *, *, #341, .F. ) ;
#408 = VECTOR ( 'NONE', #443, 1000.000000000000000 ) ;
#409 = CARTESIAN_POINT ( 'NONE',  ( 11.51230429347179296, 15.72653030454611311, 23.28742955583319585 ) ) ;
#410 = DIRECTION ( 'NONE',  ( 0.000000000000000000, 0.000000000000000000, 1.000000000000000000 ) ) ;
#411 = DIRECTION ( 'NONE',  ( -0.000000000000000000, -0.000000000000000000, -1.000000000000000000 ) ) ;
#412 = VERTEX_POINT ( 'NONE', #361 ) ;
#413 = DIRECTION ( 'NONE',  ( -1.000000000000000000, 0.000000000000000000, 0.000000000000000000 ) ) ;
#414 = CARTESIAN_POINT ( 'NONE',  ( 11.51230429347179296, 15.72653030454611311, -36.50000000000000000 ) ) ;
#415 = AXIS2_PLACEMENT_3D ( 'NONE', #729, #380, #653 ) ;
#416 = VERTEX_POINT ( 'NONE', #836 ) ;
#417 = DIRECTION ( 'NONE',  ( -0.000000000000000000, 0.000000000000000000, -1.000000000000000000 ) ) ;
#418 = VECTOR ( 'NONE', #746, 1000.000000000000000 ) ;
#419 = EDGE_CURVE ( 'NONE', #33, #412, #420, .T. ) ;
#420 = LINE ( 'NONE', #562, #663 ) ;
#421 = ORIENTED_EDGE ( 'NONE', *, *, #532, .T. ) ;
#422 = EDGE_LOOP ( 'NONE', ( #264, #694, #651, #635 ) ) ;
#423 = CARTESIAN_POINT ( 'NONE',  ( 3.000000000000000444, -21.50833024919770864, -34.50000000000000000 ) ) ;
#424 = DIRECTION ( 'NONE',  ( -1.000000000000000000, 0.000000000000000000, 0.000000000000000000 ) ) ;
#425 = DIRECTION ( 'NONE',  ( 1.000000000000000000, 0.000000000000000000, -0.000000000000000000 ) ) ;
#426 = EDGE_LOOP ( 'NONE', ( #318, #243, #76, #3 ) ) ;
#427 = CARTESIAN_POINT ( 'NONE',  ( 0.000000000000000000, -2.899999999999992362, -34.29999999999999716 ) ) ;
#428 = CARTESIAN_POINT ( 'NONE',  ( 3.000000000000000444, -7.899999999999997691, -34.50000000000000000 ) ) ;
#429 = EDGE_CURVE ( 'NONE', #26, #216, #780, .T. ) ;
#430 = ORIENTED_EDGE ( 'NONE', *, *, #494, .F. ) ;
#431 = VERTEX_POINT ( 'NONE', #840 ) ;
#432 = DIRECTION ( 'NONE',  ( 1.000000000000000000, 0.000000000000000000, 0.000000000000000000 ) ) ;
#433 = CIRCLE ( 'NONE', #415, 10.24999999999999822 ) ;
#434 = DIRECTION ( 'NONE',  ( 0.000000000000000000, 0.000000000000000000, 1.000000000000000000 ) ) ;
#435 = VECTOR ( 'NONE', #269, 1000.000000000000000 ) ;
#436 = VERTEX_POINT ( 'NONE', #150 ) ;
#437 = ADVANCED_FACE ( 'NONE', ( #706 ), #229, .F. ) ;
#438 = ORIENTED_EDGE ( 'NONE', *, *, #239, .F. ) ;
#439 = CARTESIAN_POINT ( 'NONE',  ( 3.003942801751141367, 17.21150402987469263, -36.50000000000000000 ) ) ;
#440 = DIRECTION ( 'NONE',  ( 0.000000000000000000, 1.000000000000000000, 0.000000000000000000 ) ) ;
#441 = ORIENTED_EDGE ( 'NONE', *, *, #111, .F. ) ;
#442 = ORIENTED_EDGE ( 'NONE', *, *, #178, .F. ) ;
#443 = DIRECTION ( 'NONE',  ( 0.000000000000000000, -1.000000000000000000, 0.000000000000000000 ) ) ;
#444 = DIRECTION ( 'NONE',  ( 0.000000000000000000, -1.000000000000000000, 0.000000000000000000 ) ) ;
#445 = ORIENTED_EDGE ( 'NONE', *, *, #43, .T. ) ;
#446 = CARTESIAN_POINT ( 'NONE',  ( -13.75176038879049756, -7.939582562299417390, 23.28742955583319585 ) ) ;
#447 = PRESENTATION_STYLE_ASSIGNMENT (( #35 ) ) ;
#448 = ADVANCED_FACE ( 'NONE', ( #628 ), #286, .T. ) ;
#449 = CIRCLE ( 'NONE', #463, 10.24999999999999822 ) ;
#450 = LINE ( 'NONE', #854, #203 ) ;
#451 = AXIS2_PLACEMENT_3D ( 'NONE', #401, #877, #540 ) ;
#452 = AXIS2_PLACEMENT_3D ( 'NONE', #853, #177, #457 ) ;
#453 = ORIENTED_EDGE ( 'NONE', *, *, #210, .F. ) ;
#454 = LINE ( 'NONE', #45, #408 ) ;
#455 = CARTESIAN_POINT ( 'NONE',  ( -20.00000000000000711, 5.629165124598875636, 23.28742955583319585 ) ) ;
#456 = ORIENTED_EDGE ( 'NONE', *, *, #404, .T. ) ;
#457 = DIRECTION ( 'NONE',  ( 1.000000000000000000, 0.000000000000000000, 0.000000000000000000 ) ) ;
#458 = LINE ( 'NONE', #130, #705 ) ;
#459 = CARTESIAN_POINT ( 'NONE',  ( -8.876760388790499334, -16.38333024919770509, -36.50000000000000000 ) ) ;
#460 = EDGE_CURVE ( 'NONE', #88, #128, #372, .T. ) ;
#461 = EDGE_LOOP ( 'NONE', ( #407, #99, #492, #363 ) ) ;
#462 = FACE_OUTER_BOUND ( 'NONE', #645, .T. ) ;
#463 = AXIS2_PLACEMENT_3D ( 'NONE', #682, #808, #283 ) ;
#464 = CIRCLE ( 'NONE', #75, 10.25000000000000711 ) ;
#465 = ORIENTED_EDGE ( 'NONE', *, *, #51, .T. ) ;
#466 = ADVANCED_BREP_SHAPE_REPRESENTATION ( '\X2\4e098054\X0\18650\X2\75356c6076d2\X0\_\X2\4e3b4f5376d6\X0\', ( #544, #779 ), #688 ) ;
#467 = DIRECTION ( 'NONE',  ( -0.000000000000000000, -0.000000000000000000, -1.000000000000000000 ) ) ;
#468 = DIRECTION ( 'NONE',  ( 1.000000000000000000, 0.000000000000000000, 0.000000000000000000 ) ) ;
#469 = ORIENTED_EDGE ( 'NONE', *, *, #857, .T. ) ;
#470 = EDGE_CURVE ( 'NONE', #436, #707, #97, .T. ) ;
#471 = DIRECTION ( 'NONE',  ( -1.734723475976808080E-16, 0.000000000000000000, -1.000000000000000000 ) ) ;
#472 = DIRECTION ( 'NONE',  ( -0.000000000000000000, -0.000000000000000000, -1.000000000000000000 ) ) ;
#473 = VERTEX_POINT ( 'NONE', #78 ) ;
#474 = CARTESIAN_POINT ( 'NONE',  ( 3.000000000000000444, -21.05947814115403816, -34.50000000000000000 ) ) ;
#475 = DIRECTION ( 'NONE',  ( -1.734723475976808327E-16, 0.000000000000000000, -1.000000000000000000 ) ) ;
#476 = AXIS2_PLACEMENT_3D ( 'NONE', #69, #194, #468 ) ;
#477 = VECTOR ( 'NONE', #728, 1000.000000000000000 ) ;
#478 = DIRECTION ( 'NONE',  ( 0.000000000000000000, -0.000000000000000000, -1.000000000000000000 ) ) ;
#479 = DIRECTION ( 'NONE',  ( -0.000000000000000000, 0.000000000000000000, 1.000000000000000000 ) ) ;
#480 = ORIENTED_EDGE ( 'NONE', *, *, #136, .T. ) ;
#481 = LINE ( 'NONE', #193, #617 ) ;
#482 = CARTESIAN_POINT ( 'NONE',  ( 8.876760388790492229, -16.38333024919771219, 23.28742955583319585 ) ) ;
#483 = ORIENTED_EDGE ( 'NONE', *, *, #43, .F. ) ;
#484 = CARTESIAN_POINT ( 'NONE',  ( -9.750000000000008882, 5.629165124598875636, -36.50000000000000000 ) ) ;
#485 = DIRECTION ( 'NONE',  ( -0.000000000000000000, -0.000000000000000000, -1.000000000000000000 ) ) ;
#486 = ORIENTED_EDGE ( 'NONE', *, *, #307, .F. ) ;
#487 = ORIENTED_EDGE ( 'NONE', *, *, #47, .T. ) ;
#488 = CARTESIAN_POINT ( 'NONE',  ( 9.750000000000000000, 5.629165124598869419, -32.50000000000000000 ) ) ;
#489 = AXIS2_PLACEMENT_3D ( 'NONE', #349, #289, #417 ) ;
#490 = DIRECTION ( 'NONE',  ( 0.4999999999999997780, 0.8660254037844387076, 0.000000000000000000 ) ) ;
#491 = DIRECTION ( 'NONE',  ( 0.000000000000000000, 1.000000000000000000, 0.000000000000000000 ) ) ;
#492 = ORIENTED_EDGE ( 'NONE', *, *, #149, .T. ) ;
#493 = PLANE ( 'NONE',  #238 ) ;
#494 = EDGE_CURVE ( 'NONE', #809, #640, #638, .T. ) ;
#495 = DIRECTION ( 'NONE',  ( -0.4999999999999995559, 0.8660254037844389297, 0.000000000000000000 ) ) ;
#496 = CARTESIAN_POINT ( 'NONE',  ( 0.000000000000000000, -2.899999999999992362, -34.29999999999999716 ) ) ;
#497 = UNCERTAINTY_MEASURE_WITH_UNIT (LENGTH_MEASURE( 1.000000000000000082E-05 ), #105, 'distance_accuracy_value', 'NONE');
#498 = EDGE_LOOP ( 'NONE', ( #383, #274, #712, #181, #271, #195 ) ) ;
#499 = LINE ( 'NONE', #839, #721 ) ;
#500 = CARTESIAN_POINT ( 'NONE',  ( 0.000000000000000000, -7.899999999999997691, -34.29999999999999716 ) ) ;
#501 = LINE ( 'NONE', #639, #603 ) ;
#502 = ORIENTED_EDGE ( 'NONE', *, *, #112, .F. ) ;
#503 = DIRECTION ( 'NONE',  ( 0.000000000000000000, 0.000000000000000000, -1.000000000000000000 ) ) ;
#504 = VECTOR ( 'NONE', #5, 1000.000000000000000 ) ;
#505 = VECTOR ( 'NONE', #187, 1000.000000000000000 ) ;
#506 = CYLINDRICAL_SURFACE ( 'NONE', #858, 10.24999999999999822 ) ;
#507 = ORIENTED_EDGE ( 'NONE', *, *, #112, .T. ) ;
#508 = EDGE_CURVE ( 'NONE', #727, #709, #524, .T. ) ;
#509 = EDGE_LOOP ( 'NONE', ( #80, #359, #309, #522 ) ) ;
#510 = SURFACE_STYLE_FILL_AREA ( #583 ) ;
#511 = DIRECTION ( 'NONE',  ( -0.4999999999999995559, 0.8660254037844389297, -0.000000000000000000 ) ) ;
#512 = EDGE_CURVE ( 'NONE', #186, #331, #179, .T. ) ;
#513 = EDGE_LOOP ( 'NONE', ( #163, #794, #819, #259 ) ) ;
#514 = LINE ( 'NONE', #260, #778 ) ;
#515 = CARTESIAN_POINT ( 'NONE',  ( 4.900000000000001243, -7.899999999999997691, -34.29999999999999716 ) ) ;
#516 = ORIENTED_EDGE ( 'NONE', *, *, #862, .F. ) ;
#517 = CARTESIAN_POINT ( 'NONE',  ( 0.000000000000000000, -2.899999999999990585, -34.29999999999999716 ) ) ;
#518 =( NAMED_UNIT ( * ) PLANE_ANGLE_UNIT ( ) SI_UNIT ( $, .RADIAN. ) );
#519 = VECTOR ( 'NONE', #301, 1000.000000000000000 ) ;
#520 = DIRECTION ( 'NONE',  ( 0.000000000000000000, -1.000000000000000000, 0.000000000000000000 ) ) ;
#521 = VECTOR ( 'NONE', #256, 1000.000000000000000 ) ;
#522 = ORIENTED_EDGE ( 'NONE', *, *, #419, .F. ) ;
#523 = DIRECTION ( 'NONE',  ( 0.000000000000000000, 1.000000000000000000, 0.000000000000000000 ) ) ;
#524 = LINE ( 'NONE', #311, #745 ) ;
#525 = CARTESIAN_POINT ( 'NONE',  ( -9.750000000000008882, 5.629165124598875636, -32.50000000000000000 ) ) ;
#526 = ORIENTED_EDGE ( 'NONE', *, *, #341, .T. ) ;
#527 = CARTESIAN_POINT ( 'NONE',  ( 0.000000000000000000, -2.899999999999990585, -34.29999999999999716 ) ) ;
#528 = DIRECTION ( 'NONE',  ( 0.000000000000000000, 0.000000000000000000, 1.000000000000000000 ) ) ;
#529 = VERTEX_POINT ( 'NONE', #242 ) ;
#530 = PRODUCT_CONTEXT ( 'NONE', #389, 'mechanical' ) ;
#531 = LINE ( 'NONE', #805, #365 ) ;
#532 = EDGE_CURVE ( 'NONE', #334, #128, #786, .T. ) ;
#533 = COLOUR_RGB ( '',0.7921568627450980005, 0.8196078431372548767, 0.9333333333333333481 ) ;
#534 = ORIENTED_EDGE ( 'NONE', *, *, #307, .T. ) ;
#535 = PLANE ( 'NONE',  #118 ) ;
#536 = DIRECTION ( 'NONE',  ( -1.000000000000000000, 0.000000000000000000, 1.734723475976808327E-16 ) ) ;
#537 = VERTEX_POINT ( 'NONE', #660 ) ;
#538 = SHAPE_DEFINITION_REPRESENTATION ( #353, #466 ) ;
#539 = EDGE_CURVE ( 'NONE', #431, #723, #261, .T. ) ;
#540 = DIRECTION ( 'NONE',  ( 1.000000000000000000, 0.000000000000000000, 0.000000000000000000 ) ) ;
#541 = LINE ( 'NONE', #811, #790 ) ;
#542 = DIRECTION ( 'NONE',  ( 0.000000000000000000, -1.000000000000000000, 0.000000000000000000 ) ) ;
#543 = CARTESIAN_POINT ( 'NONE',  ( 4.900000000000001243, 0.000000000000000000, -36.50000000000000000 ) ) ;
#544 = MANIFOLD_SOLID_BREP ( 'Cut-Extrude2', #89 ) ;
#545 = VECTOR ( 'NONE', #511, 1000.000000000000000 ) ;
#546 = CIRCLE ( 'NONE', #756, 10.24999999999999822 ) ;
#547 = ORIENTED_EDGE ( 'NONE', *, *, #83, .T. ) ;
#548 = EDGE_CURVE ( 'NONE', #529, #107, #458, .T. ) ;
#549 = DIRECTION ( 'NONE',  ( -0.8660254037844388186, 0.4999999999999998335, 0.000000000000000000 ) ) ;
#550 = ORIENTED_EDGE ( 'NONE', *, *, #470, .F. ) ;
#551 = CARTESIAN_POINT ( 'NONE',  ( 3.000000000000000444, -21.50833024919770864, -34.29999999999999716 ) ) ;
#552 = CARTESIAN_POINT ( 'NONE',  ( 3.000000000000000444, -21.50833024919770864, -34.50000000000000000 ) ) ;
#553 = ORIENTED_EDGE ( 'NONE', *, *, #210, .T. ) ;
#554 = VERTEX_POINT ( 'NONE', #272 ) ;
#555 = CARTESIAN_POINT ( 'NONE',  ( -9.100000000000004974, 0.000000000000000000, -34.29999999999999716 ) ) ;
#556 = CARTESIAN_POINT ( 'NONE',  ( 13.75176038879049401, -7.939582562299420943, -32.50000000000000000 ) ) ;
#557 = VERTEX_POINT ( 'NONE', #870 ) ;
#558 = EDGE_CURVE ( 'NONE', #191, #412, #199, .T. ) ;
#559 = ORIENTED_EDGE ( 'NONE', *, *, #83, .F. ) ;
#560 = CARTESIAN_POINT ( 'NONE',  ( -3.000000000000000000, 16.87916512459887031, -32.50000000000000000 ) ) ;
#561 = AXIS2_PLACEMENT_3D ( 'NONE', #276, #542, #478 ) ;
#562 = CARTESIAN_POINT ( 'NONE',  ( -3.000000000000000444, -21.50833024919770864, -34.50000000000000000 ) ) ;
#563 = EDGE_LOOP ( 'NONE', ( #701, #480, #658, #860 ) ) ;
#564 = ORIENTED_EDGE ( 'NONE', *, *, #810, .F. ) ;
#565 = LINE ( 'NONE', #704, #804 ) ;
#566 = FACE_OUTER_BOUND ( 'NONE', #509, .T. ) ;
#567 = FACE_OUTER_BOUND ( 'NONE', #422, .T. ) ;
#568 = UNCERTAINTY_MEASURE_WITH_UNIT (LENGTH_MEASURE( 1.000000000000000082E-05 ), #28, 'distance_accuracy_value', 'NONE');
#569 = ORIENTED_EDGE ( 'NONE', *, *, #51, .F. ) ;
#570 = DIRECTION ( 'NONE',  ( -1.000000000000000000, 0.000000000000000000, 0.000000000000000000 ) ) ;
#571 = CARTESIAN_POINT ( 'NONE',  ( 4.900000000000001243, 0.000000000000000000, -34.29999999999999716 ) ) ;
#572 = CARTESIAN_POINT ( 'NONE',  ( -13.75176038879049756, -7.939582562299417390, -32.50000000000000000 ) ) ;
#573 = ORIENTED_EDGE ( 'NONE', *, *, #614, .F. ) ;
#574 = DIRECTION ( 'NONE',  ( 0.1719321261923694444, 0.9851087980436329383, -0.000000000000000000 ) ) ;
#575 = CIRCLE ( 'NONE', #295, 10.24999999999999822 ) ;
#576 = AXIS2_PLACEMENT_3D ( 'NONE', #656, #574, #785 ) ;
#577 = ORIENTED_EDGE ( 'NONE', *, *, #512, .T. ) ;
#578 = ORIENTED_EDGE ( 'NONE', *, *, #605, .T. ) ;
#579 = DIRECTION ( 'NONE',  ( -0.8660254037844389297, -0.4999999999999995559, 0.000000000000000000 ) ) ;
#580 = DIRECTION ( 'NONE',  ( -1.000000000000000000, 0.000000000000000000, 0.000000000000000000 ) ) ;
#581 = EDGE_LOOP ( 'NONE', ( #664, #129, #377, #469, #278, #655, #453, #445 ) ) ;
#582 = DIRECTION ( 'NONE',  ( 1.000000000000000000, 0.000000000000000000, -0.000000000000000000 ) ) ;
#583 = FILL_AREA_STYLE ('',( #173 ) ) ;
#584 = DIRECTION ( 'NONE',  ( 0.4999999999999998335, 0.8660254037844387076, 0.000000000000000000 ) ) ;
#585 = EDGE_CURVE ( 'NONE', #138, #640, #122, .T. ) ;
#586 = VERTEX_POINT ( 'NONE', #68 ) ;
#587 = CARTESIAN_POINT ( 'NONE',  ( -8.876760388790497558, -16.38333024919770509, -32.50000000000000000 ) ) ;
#588 = ADVANCED_FACE ( 'NONE', ( #816 ), #139, .T. ) ;
#589 = VECTOR ( 'NONE', #826, 1000.000000000000000 ) ;
#590 = DIRECTION ( 'NONE',  ( 0.000000000000000000, -0.000000000000000000, 1.000000000000000000 ) ) ;
#591 = VECTOR ( 'NONE', #643, 1000.000000000000000 ) ;
#592 = VERTEX_POINT ( 'NONE', #196 ) ;
#593 = FACE_BOUND ( 'NONE', #71, .T. ) ;
#594 = CARTESIAN_POINT ( 'NONE',  ( 2.999999999999994227, -13.09999999999999432, 5.204170427930414381E-16 ) ) ;
#595 = EDGE_CURVE ( 'NONE', #191, #709, #610, .T. ) ;
#596 = LINE ( 'NONE', #800, #347 ) ;
#597 = VERTEX_POINT ( 'NONE', #474 ) ;
#598 = CARTESIAN_POINT ( 'NONE',  ( 2.999999999999994227, 16.87916512459887031, 5.204170427930414381E-16 ) ) ;
#599 = ADVANCED_FACE ( 'NONE', ( #666 ), #535, .T. ) ;
#600 = DIRECTION ( 'NONE',  ( -0.000000000000000000, -0.000000000000000000, -1.000000000000000000 ) ) ;
#601 = ORIENTED_EDGE ( 'NONE', *, *, #532, .F. ) ;
#602 = CARTESIAN_POINT ( 'NONE',  ( -3.000000000000000444, -21.50833024919770864, -34.50000000000000000 ) ) ;
#603 = VECTOR ( 'NONE', #237, 1000.000000000000000 ) ;
#604 = CIRCLE ( 'NONE', #220, 10.24999999999999822 ) ;
#605 = EDGE_CURVE ( 'NONE', #727, #412, #58, .T. ) ;
#606 = ORIENTED_EDGE ( 'NONE', *, *, #66, .T. ) ;
#607 = CARTESIAN_POINT ( 'NONE',  ( 0.000000000000000000, -7.899999999999997691, -34.29999999999999716 ) ) ;
#608 = LINE ( 'NONE', #750, #336 ) ;
#609 = EDGE_LOOP ( 'NONE', ( #284, #91, #376, #601 ) ) ;
#610 = LINE ( 'NONE', #598, #435 ) ;
#611 = PRODUCT ( '\X2\4e098054\X0\18650\X2\75356c6076d2\X0\_\X2\4e3b4f5376d6\X0\', '\X2\4e098054\X0\18650\X2\75356c6076d2\X0\_\X2\4e3b4f5376d6\X0\', '', ( #530 ) ) ;
#612 = DIRECTION ( 'NONE',  ( 0.000000000000000000, 1.000000000000000000, 0.000000000000000000 ) ) ;
#613 = EDGE_CURVE ( 'NONE', #155, #436, #481, .T. ) ;
#614 = EDGE_CURVE ( 'NONE', #156, #171, #339, .T. ) ;
#615 = CYLINDRICAL_SURFACE ( 'NONE', #59, 10.24999999999999822 ) ;
#616 = VECTOR ( 'NONE', #61, 1000.000000000000000 ) ;
#617 = VECTOR ( 'NONE', #467, 1000.000000000000000 ) ;
#618 = ORIENTED_EDGE ( 'NONE', *, *, #321, .F. ) ;
#619 = PLANE ( 'NONE',  #489 ) ;
#620 = DIRECTION ( 'NONE',  ( 1.000000000000000000, 0.000000000000000000, 0.000000000000000000 ) ) ;
#621 = ORIENTED_EDGE ( 'NONE', *, *, #206, .T. ) ;
#622 = CARTESIAN_POINT ( 'NONE',  ( 9.100000000000003197, 0.000000000000000000, -34.29999999999999716 ) ) ;
#623 = PLANE ( 'NONE',  #843 ) ;
#624 = EDGE_CURVE ( 'NONE', #876, #107, #281, .T. ) ;
#625 = CARTESIAN_POINT ( 'NONE',  ( -4.900000000000001243, 0.000000000000000000, -34.29999999999999716 ) ) ;
#626 = ORIENTED_EDGE ( 'NONE', *, *, #460, .T. ) ;
#627 = LINE ( 'NONE', #551, #32 ) ;
#628 = FACE_OUTER_BOUND ( 'NONE', #581, .T. ) ;
#629 = ORIENTED_EDGE ( 'NONE', *, *, #806, .F. ) ;
#630 = AXIS2_PLACEMENT_3D ( 'NONE', #525, #115, #733 ) ;
#631 = ORIENTED_EDGE ( 'NONE', *, *, #773, .T. ) ;
#632 = LINE ( 'NONE', #699, #661 ) ;
#633 = AXIS2_PLACEMENT_3D ( 'NONE', #571, #762, #82 ) ;
#634 = CARTESIAN_POINT ( 'NONE',  ( -11.51230429347180184, 15.72653030454610956, -32.50000000000000000 ) ) ;
#635 = ORIENTED_EDGE ( 'NONE', *, *, #239, .T. ) ;
#636 = ORIENTED_EDGE ( 'NONE', *, *, #585, .F. ) ;
#637 = CARTESIAN_POINT ( 'NONE',  ( 0.000000000000000000, 0.000000000000000000, -34.29999999999999716 ) ) ;
#638 = LINE ( 'NONE', #324, #521 ) ;
#639 = CARTESIAN_POINT ( 'NONE',  ( -0.000000000000000000, 17.37916512459886675, -36.50000000000000000 ) ) ;
#640 = VERTEX_POINT ( 'NONE', #739 ) ;
#641 = DIRECTION ( 'NONE',  ( 0.000000000000000000, -1.000000000000000000, 0.000000000000000000 ) ) ;
#642 = ADVANCED_FACE ( 'NONE', ( #125 ), #134, .F. ) ;
#643 = DIRECTION ( 'NONE',  ( 1.000000000000000000, 0.000000000000000000, 0.000000000000000000 ) ) ;
#644 = ORIENTED_EDGE ( 'NONE', *, *, #257, .T. ) ;
#645 = EDGE_LOOP ( 'NONE', ( #314, #869, #644, #741 ) ) ;
#646 = LINE ( 'NONE', #169, #791 ) ;
#647 = CIRCLE ( 'NONE', #686, 10.24999999999999822 ) ;
#648 = STYLED_ITEM ( 'NONE', ( #447 ), #544 ) ;
#649 = SURFACE_SIDE_STYLE ('',( #510 ) ) ;
#650 = LINE ( 'NONE', #174, #46 ) ;
#651 = ORIENTED_EDGE ( 'NONE', *, *, #126, .F. ) ;
#652 = CARTESIAN_POINT ( 'NONE',  ( -3.003942801751145808, 17.21150402987469263, 23.28742955583319585 ) ) ;
#653 = DIRECTION ( 'NONE',  ( 1.000000000000000000, 0.000000000000000000, 0.000000000000000000 ) ) ;
#654 = ADVANCED_FACE ( 'NONE', ( #345 ), #493, .T. ) ;
#655 = ORIENTED_EDGE ( 'NONE', *, *, #287, .F. ) ;
#656 = CARTESIAN_POINT ( 'NONE',  ( 3.003942801751141367, 17.21150402987469263, 23.28742955583319585 ) ) ;
#657 = FACE_OUTER_BOUND ( 'NONE', #302, .T. ) ;
#658 = ORIENTED_EDGE ( 'NONE', *, *, #215, .T. ) ;
#659 = DIRECTION ( 'NONE',  ( -0.000000000000000000, -0.000000000000000000, -1.000000000000000000 ) ) ;
#660 = CARTESIAN_POINT ( 'NONE',  ( 2.043305466773872592, 17.37916512459886675, -32.50000000000000000 ) ) ;
#661 = VECTOR ( 'NONE', #765, 1000.000000000000000 ) ;
#662 = CARTESIAN_POINT ( 'NONE',  ( 0.000000000000000000, -11.25833024919771042, -34.50000000000000000 ) ) ;
#663 = VECTOR ( 'NONE', #306, 1000.000000000000000 ) ;
#664 = ORIENTED_EDGE ( 'NONE', *, *, #149, .F. ) ;
#665 = EDGE_CURVE ( 'NONE', #141, #683, #565, .T. ) ;
#666 = FACE_OUTER_BOUND ( 'NONE', #342, .T. ) ;
#667 = LINE ( 'NONE', #859, #731 ) ;
#668 = ORIENTED_EDGE ( 'NONE', *, *, #558, .F. ) ;
#669 = EDGE_CURVE ( 'NONE', #155, #738, #684, .T. ) ;
#670 = DIRECTION ( 'NONE',  ( 1.000000000000000000, 0.000000000000000000, 0.000000000000000000 ) ) ;
#671 = ORIENTED_EDGE ( 'NONE', *, *, #665, .F. ) ;
#672 = CARTESIAN_POINT ( 'NONE',  ( 0.000000000000000000, -13.09999999999999432, -34.29999999999999716 ) ) ;
#673 = AXIS2_PLACEMENT_3D ( 'NONE', #316, #600, #580 ) ;
#674 = VECTOR ( 'NONE', #796, 1000.000000000000000 ) ;
#675 = ORIENTED_EDGE ( 'NONE', *, *, #16, .T. ) ;
#676 = DIRECTION ( 'NONE',  ( 0.000000000000000000, -1.000000000000000000, 0.000000000000000000 ) ) ;
#677 = DIRECTION ( 'NONE',  ( -1.000000000000000000, 0.000000000000000000, 0.000000000000000000 ) ) ;
#678 = ADVANCED_FACE ( 'NONE', ( #148 ), #619, .F. ) ;
#679 = EDGE_CURVE ( 'NONE', #152, #709, #632, .T. ) ;
#680 = APPLICATION_PROTOCOL_DEFINITION ( 'draft international standard', 'automotive_design', 1998, #797 ) ;
#681 = DIRECTION ( 'NONE',  ( -0.000000000000000000, 0.000000000000000000, 1.000000000000000000 ) ) ;
#682 = CARTESIAN_POINT ( 'NONE',  ( 0.000000000000000000, -11.25833024919771042, -32.50000000000000000 ) ) ;
#683 = VERTEX_POINT ( 'NONE', #834 ) ;
#684 = LINE ( 'NONE', #427, #60 ) ;
#685 = CARTESIAN_POINT ( 'NONE',  ( -3.000000000000000444, -13.09999999999999432, -34.50000000000000000 ) ) ;
#686 = AXIS2_PLACEMENT_3D ( 'NONE', #308, #313, #94 ) ;
#687 = VECTOR ( 'NONE', #641, 1000.000000000000000 ) ;
#688 =( GEOMETRIC_REPRESENTATION_CONTEXT ( 3 ) GLOBAL_UNCERTAINTY_ASSIGNED_CONTEXT ( ( #568 ) ) GLOBAL_UNIT_ASSIGNED_CONTEXT ( ( #28, #866, #400 ) ) REPRESENTATION_CONTEXT ( 'NONE', 'WORKASPACE' ) );
#689 = ORIENTED_EDGE ( 'NONE', *, *, #10, .F. ) ;
#690 = DIRECTION ( 'NONE',  ( -1.000000000000000000, 0.000000000000000000, -0.000000000000000000 ) ) ;
#691 = EDGE_CURVE ( 'NONE', #355, #191, #356, .T. ) ;
#692 = DIRECTION ( 'NONE',  ( -1.000000000000000000, 0.000000000000000000, 0.000000000000000000 ) ) ;
#693 = ORIENTED_EDGE ( 'NONE', *, *, #857, .F. ) ;
#694 = ORIENTED_EDGE ( 'NONE', *, *, #66, .F. ) ;
#695 = LINE ( 'NONE', #364, #145 ) ;
#696 = DIRECTION ( 'NONE',  ( -1.000000000000000000, 0.000000000000000000, 0.000000000000000000 ) ) ;
#697 = LINE ( 'NONE', #84, #312 ) ;
#698 = VERTEX_POINT ( 'NONE', #760 ) ;
#699 = CARTESIAN_POINT ( 'NONE',  ( 3.000000000000000000, 0.000000000000000000, -32.50000000000000000 ) ) ;
#700 = CARTESIAN_POINT ( 'NONE',  ( 0.000000000000000000, -13.09999999999999432, -34.29999999999999716 ) ) ;
#701 = ORIENTED_EDGE ( 'NONE', *, *, #801, .F. ) ;
#702 = AXIS2_PLACEMENT_3D ( 'NONE', #793, #101, #170 ) ;
#703 = ORIENTED_EDGE ( 'NONE', *, *, #585, .T. ) ;
#704 = CARTESIAN_POINT ( 'NONE',  ( 4.900000000000001243, -2.899999999999990585, -34.29999999999999716 ) ) ;
#705 = VECTOR ( 'NONE', #410, 1000.000000000000000 ) ;
#706 = FACE_OUTER_BOUND ( 'NONE', #883, .T. ) ;
#707 = VERTEX_POINT ( 'NONE', #86 ) ;
#708 = EDGE_CURVE ( 'NONE', #216, #98, #695, .T. ) ;
#709 = VERTEX_POINT ( 'NONE', #233 ) ;
#710 = CARTESIAN_POINT ( 'NONE',  ( 0.000000000000000000, -2.899999999999990585, -36.50000000000000000 ) ) ;
#711 = DIRECTION ( 'NONE',  ( -1.000000000000000000, 0.000000000000000000, 0.000000000000000000 ) ) ;
#712 = ORIENTED_EDGE ( 'NONE', *, *, #55, .T. ) ;
#713 = ORIENTED_EDGE ( 'NONE', *, *, #235, .F. ) ;
#714 = FACE_OUTER_BOUND ( 'NONE', #214, .T. ) ;
#715 = PRODUCT_DEFINITION ( 'UNKNOWN', '', #382, #231 ) ;
#716 = LINE ( 'NONE', #184, #393 ) ;
#717 = ORIENTED_EDGE ( 'NONE', *, *, #429, .T. ) ;
#718 = LINE ( 'NONE', #527, #874 ) ;
#719 = VECTOR ( 'NONE', #472, 1000.000000000000000 ) ;
#720 = EDGE_CURVE ( 'NONE', #216, #222, #464, .T. ) ;
#721 = VECTOR ( 'NONE', #77, 1000.000000000000000 ) ;
#722 = LINE ( 'NONE', #867, #266 ) ;
#723 = VERTEX_POINT ( 'NONE', #4 ) ;
#724 = CARTESIAN_POINT ( 'NONE',  ( -4.900000000000001243, -7.899999999999997691, -36.50000000000000000 ) ) ;
#725 = CARTESIAN_POINT ( 'NONE',  ( 4.900000000000001243, -7.899999999999997691, -34.29999999999999716 ) ) ;
#726 = CARTESIAN_POINT ( 'NONE',  ( 9.100000000000003197, -2.899999999999990585, -36.50000000000000000 ) ) ;
#727 = VERTEX_POINT ( 'NONE', #560 ) ;
#728 = DIRECTION ( 'NONE',  ( 1.000000000000000000, 0.000000000000000000, 0.000000000000000000 ) ) ;
#729 = CARTESIAN_POINT ( 'NONE',  ( -9.750000000000008882, 5.629165124598875636, -36.50000000000000000 ) ) ;
#730 = ORIENTED_EDGE ( 'NONE', *, *, #691, .F. ) ;
#731 = VECTOR ( 'NONE', #520, 1000.000000000000000 ) ;
#732 = AXIS2_PLACEMENT_3D ( 'NONE', #555, #413, #825 ) ;
#733 = DIRECTION ( 'NONE',  ( 1.000000000000000000, 0.000000000000000000, 0.000000000000000000 ) ) ;
#734 = VECTOR ( 'NONE', #310, 1000.000000000000114 ) ;
#735 = ORIENTED_EDGE ( 'NONE', *, *, #206, .F. ) ;
#736 = CARTESIAN_POINT ( 'NONE',  ( 0.000000000000000000, 16.87916512459887031, -34.50000000000000000 ) ) ;
#737 = CARTESIAN_POINT ( 'NONE',  ( -9.750000000000008882, 5.629165124598875636, -32.50000000000000000 ) ) ;
#738 = VERTEX_POINT ( 'NONE', #304 ) ;
#739 = CARTESIAN_POINT ( 'NONE',  ( 9.100000000000003197, -13.09999999999999609, -36.50000000000000000 ) ) ;
#740 = DIRECTION ( 'NONE',  ( -0.9851087980436328273, -0.1719321261923696664, 0.000000000000000000 ) ) ;
#741 = ORIENTED_EDGE ( 'NONE', *, *, #215, .F. ) ;
#742 = EDGE_CURVE ( 'NONE', #124, #128, #604, .T. ) ;
#743 = LINE ( 'NONE', #552, #519 ) ;
#744 = AXIS2_PLACEMENT_3D ( 'NONE', #625, #425, #9 ) ;
#745 = VECTOR ( 'NONE', #246, 1000.000000000000000 ) ;
#746 = DIRECTION ( 'NONE',  ( -1.000000000000000000, 0.000000000000000000, 0.000000000000000000 ) ) ;
#747 = CARTESIAN_POINT ( 'NONE',  ( 3.000000000000000444, 16.87916512459887031, -34.50000000000000000 ) ) ;
#748 = EDGE_CURVE ( 'NONE', #249, #186, #753, .T. ) ;
#749 = ORIENTED_EDGE ( 'NONE', *, *, #292, .F. ) ;
#750 = CARTESIAN_POINT ( 'NONE',  ( -3.003942801751145808, 17.21150402987469263, -36.50000000000000000 ) ) ;
#751 = EDGE_CURVE ( 'NONE', #431, #249, #627, .T. ) ;
#752 = ORIENTED_EDGE ( 'NONE', *, *, #189, .F. ) ;
#753 = LINE ( 'NONE', #285, #280 ) ;
#754 = CARTESIAN_POINT ( 'NONE',  ( 0.000000000000000000, -13.09999999999999432, -34.50000000000000000 ) ) ;
#755 = ORIENTED_EDGE ( 'NONE', *, *, #548, .F. ) ;
#756 = AXIS2_PLACEMENT_3D ( 'NONE', #662, #528, #106 ) ;
#757 = AXIS2_PLACEMENT_3D ( 'NONE', #158, #93, #424 ) ;
#758 = AXIS2_PLACEMENT_3D ( 'NONE', #652, #114, #388 ) ;
#759 = ORIENTED_EDGE ( 'NONE', *, *, #395, .T. ) ;
#760 = CARTESIAN_POINT ( 'NONE',  ( -9.100000000000004974, -13.09999999999999432, -34.29999999999999716 ) ) ;
#761 = EDGE_CURVE ( 'NONE', #640, #557, #157, .T. ) ;
#762 = DIRECTION ( 'NONE',  ( -1.000000000000000000, 0.000000000000000000, 0.000000000000000000 ) ) ;
#763 = ORIENTED_EDGE ( 'NONE', *, *, #248, .T. ) ;
#764 = ORIENTED_EDGE ( 'NONE', *, *, #460, .F. ) ;
#765 = DIRECTION ( 'NONE',  ( 0.000000000000000000, 1.000000000000000000, -0.000000000000000000 ) ) ;
#766 = CARTESIAN_POINT ( 'NONE',  ( -9.750000000000008882, 5.629165124598875636, 23.28742955583319585 ) ) ;
#767 = ORIENTED_EDGE ( 'NONE', *, *, #847, .T. ) ;
#768 = ORIENTED_EDGE ( 'NONE', *, *, #595, .F. ) ;
#769 = LINE ( 'NONE', #622, #394 ) ;
#770 = DIRECTION ( 'NONE',  ( 0.000000000000000000, -0.000000000000000000, 1.000000000000000000 ) ) ;
#771 = EDGE_CURVE ( 'NONE', #557, #436, #499, .T. ) ;
#772 = ORIENTED_EDGE ( 'NONE', *, *, #70, .F. ) ;
#773 = EDGE_CURVE ( 'NONE', #473, #809, #769, .T. ) ;
#774 = VECTOR ( 'NONE', #385, 1000.000000000000000 ) ;
#775 = VECTOR ( 'NONE', #570, 1000.000000000000000 ) ;
#776 = ORIENTED_EDGE ( 'NONE', *, *, #751, .F. ) ;
#777 = DIRECTION ( 'NONE',  ( 1.000000000000000000, 0.000000000000000000, 0.000000000000000000 ) ) ;
#778 = VECTOR ( 'NONE', #172, 1000.000000000000000 ) ;
#779 = AXIS2_PLACEMENT_3D ( 'NONE', #812, #332, #54 ) ;
#780 = LINE ( 'NONE', #556, #828 ) ;
#781 = ORIENTED_EDGE ( 'NONE', *, *, #748, .T. ) ;
#782 = ORIENTED_EDGE ( 'NONE', *, *, #837, .F. ) ;
#783 = DIRECTION ( 'NONE',  ( -0.000000000000000000, -0.000000000000000000, -1.000000000000000000 ) ) ;
#784 = ADVANCED_FACE ( 'NONE', ( #212 ), #92, .F. ) ;
#785 = DIRECTION ( 'NONE',  ( -0.9851087980436328273, 0.1719321261923694166, 0.000000000000000000 ) ) ;
#786 = LINE ( 'NONE', #183, #505 ) ;
#787 = LINE ( 'NONE', #74, #616 ) ;
#788 = ORIENTED_EDGE ( 'NONE', *, *, #204, .F. ) ;
#789 = FACE_OUTER_BOUND ( 'NONE', #563, .T. ) ;
#790 = VECTOR ( 'NONE', #475, 1000.000000000000000 ) ;
#791 = VECTOR ( 'NONE', #250, 1000.000000000000000 ) ;
#792 = ADVANCED_FACE ( 'NONE', ( #12 ), #294, .T. ) ;
#793 = CARTESIAN_POINT ( 'NONE',  ( 2.999999999999994227, -21.50833024919770864, 5.204170427930414381E-16 ) ) ;
#794 = ORIENTED_EDGE ( 'NONE', *, *, #287, .T. ) ;
#795 = DIRECTION ( 'NONE',  ( 0.4999999999999995559, -0.8660254037844389297, 0.000000000000000000 ) ) ;
#796 = DIRECTION ( 'NONE',  ( -0.000000000000000000, -0.000000000000000000, -1.000000000000000000 ) ) ;
#797 = APPLICATION_CONTEXT ( 'automotive_design' ) ;
#798 = LINE ( 'NONE', #188, #774 ) ;
#799 = ORIENTED_EDGE ( 'NONE', *, *, #292, .T. ) ;
#800 = CARTESIAN_POINT ( 'NONE',  ( -2.043305466773872592, 17.37916512459886675, 23.28742955583319585 ) ) ;
#801 = EDGE_CURVE ( 'NONE', #537, #22, #371, .T. ) ;
#802 = ORIENTED_EDGE ( 'NONE', *, *, #665, .T. ) ;
#803 = DIRECTION ( 'NONE',  ( 1.000000000000000000, 0.000000000000000000, 0.000000000000000000 ) ) ;
#804 = VECTOR ( 'NONE', #23, 1000.000000000000000 ) ;
#805 = CARTESIAN_POINT ( 'NONE',  ( -3.003942801751145808, 17.21150402987469263, -32.50000000000000000 ) ) ;
#806 = EDGE_CURVE ( 'NONE', #592, #537, #646, .T. ) ;
#807 = ORIENTED_EDGE ( 'NONE', *, *, #282, .F. ) ;
#808 = DIRECTION ( 'NONE',  ( -0.000000000000000000, 0.000000000000000000, 1.000000000000000000 ) ) ;
#809 = VERTEX_POINT ( 'NONE', #34 ) ;
#810 = EDGE_CURVE ( 'NONE', #727, #107, #454, .T. ) ;
#811 = CARTESIAN_POINT ( 'NONE',  ( -2.999999999999994227, -7.899999999999997691, 5.204170427930414381E-16 ) ) ;
#812 = CARTESIAN_POINT ( 'NONE',  ( 0.000000000000000000, 0.000000000000000000, 0.000000000000000000 ) ) ;
#813 = FACE_OUTER_BOUND ( 'NONE', #513, .T. ) ;
#814 = VECTOR ( 'NONE', #495, 1000.000000000000000 ) ;
#815 = ORIENTED_EDGE ( 'NONE', *, *, #470, .T. ) ;
#816 = FACE_OUTER_BOUND ( 'NONE', #166, .T. ) ;
#817 = CARTESIAN_POINT ( 'NONE',  ( 3.000000000000000444, -7.899999999999997691, -34.29999999999999716 ) ) ;
#818 = ADVANCED_FACE ( 'NONE', ( #714 ), #328, .F. ) ;
#819 = ORIENTED_EDGE ( 'NONE', *, *, #70, .T. ) ;
#820 = DIRECTION ( 'NONE',  ( 0.000000000000000000, -1.000000000000000000, 0.000000000000000000 ) ) ;
#821 = CARTESIAN_POINT ( 'NONE',  ( 9.100000000000003197, -2.899999999999990585, -34.29999999999999716 ) ) ;
#822 = ORIENTED_EDGE ( 'NONE', *, *, #679, .F. ) ;
#823 = ADVANCED_FACE ( 'NONE', ( #789 ), #38, .T. ) ;
#824 = ORIENTED_EDGE ( 'NONE', *, *, #605, .F. ) ;
#825 = DIRECTION ( 'NONE',  ( 0.000000000000000000, 0.000000000000000000, 1.000000000000000000 ) ) ;
#826 = DIRECTION ( 'NONE',  ( 1.000000000000000000, 0.000000000000000000, -0.000000000000000000 ) ) ;
#827 = ORIENTED_EDGE ( 'NONE', *, *, #720, .T. ) ;
#828 = VECTOR ( 'NONE', #490, 1000.000000000000114 ) ;
#829 = ORIENTED_EDGE ( 'NONE', *, *, #801, .T. ) ;
#830 = DIRECTION ( 'NONE',  ( 0.000000000000000000, 0.000000000000000000, -1.000000000000000000 ) ) ;
#831 = CARTESIAN_POINT ( 'NONE',  ( -13.75176038879049756, -7.939582562299417390, -36.50000000000000000 ) ) ;
#832 = DIRECTION ( 'NONE',  ( 0.000000000000000000, -0.000000000000000000, 1.000000000000000000 ) ) ;
#833 = VERTEX_POINT ( 'NONE', #724 ) ;
#834 = CARTESIAN_POINT ( 'NONE',  ( 4.900000000000001243, -2.899999999999990585, -36.50000000000000000 ) ) ;
#835 = ADVANCED_FACE ( 'NONE', ( #315 ), #378, .T. ) ;
#836 = CARTESIAN_POINT ( 'NONE',  ( -20.00000000000000711, 5.629165124598875636, -32.50000000000000000 ) ) ;
#837 = EDGE_CURVE ( 'NONE', #171, #586, #108, .T. ) ;
#838 = DIRECTION ( 'NONE',  ( 1.734723475976808327E-16, 0.000000000000000000, 1.000000000000000000 ) ) ;
#839 = CARTESIAN_POINT ( 'NONE',  ( -9.100000000000004974, 0.000000000000000000, -36.50000000000000000 ) ) ;
#840 = CARTESIAN_POINT ( 'NONE',  ( 3.000000000000000444, -13.09999999999999432, -34.29999999999999716 ) ) ;
#841 = FACE_OUTER_BOUND ( 'NONE', #293, .T. ) ;
#842 = VECTOR ( 'NONE', #783, 1000.000000000000000 ) ;
#843 = AXIS2_PLACEMENT_3D ( 'NONE', #13, #434, #165 ) ;
#844 = ORIENTED_EDGE ( 'NONE', *, *, #282, .T. ) ;
#845 = LINE ( 'NONE', #856, #397 ) ;
#846 = LINE ( 'NONE', #572, #545 ) ;
#847 = EDGE_CURVE ( 'NONE', #22, #198, #861, .T. ) ;
#848 = EDGE_LOOP ( 'NONE', ( #693, #675, #421, #764 ) ) ;
#849 = CARTESIAN_POINT ( 'NONE',  ( -3.000000000000000444, -21.50833024919770864, -34.29999999999999716 ) ) ;
#850 = CARTESIAN_POINT ( 'NONE',  ( -20.00000000000000711, 5.629165124598875636, -36.50000000000000000 ) ) ;
#851 = ADVANCED_FACE ( 'NONE', ( #593, #245 ), #182, .F. ) ;
#852 = ORIENTED_EDGE ( 'NONE', *, *, #508, .F. ) ;
#853 = CARTESIAN_POINT ( 'NONE',  ( 9.750000000000000000, 5.629165124598869419, -36.50000000000000000 ) ) ;
#854 = CARTESIAN_POINT ( 'NONE',  ( 4.900000000000001243, 0.000000000000000000, -34.29999999999999716 ) ) ;
#855 = ORIENTED_EDGE ( 'NONE', *, *, #317, .F. ) ;
#856 = CARTESIAN_POINT ( 'NONE',  ( -9.100000000000004974, -13.09999999999999432, -34.29999999999999716 ) ) ;
#857 = EDGE_CURVE ( 'NONE', #876, #88, #514, .T. ) ;
#858 = AXIS2_PLACEMENT_3D ( 'NONE', #766, #87, #711 ) ;
#859 = CARTESIAN_POINT ( 'NONE',  ( -4.900000000000001243, 0.000000000000000000, -36.50000000000000000 ) ) ;
#860 = ORIENTED_EDGE ( 'NONE', *, *, #847, .F. ) ;
#861 = LINE ( 'NONE', #439, #734 ) ;
#862 = EDGE_CURVE ( 'NONE', #683, #138, #241, .T. ) ;
#863 = EDGE_CURVE ( 'NONE', #141, #473, #718, .T. ) ;
#864 = DIRECTION ( 'NONE',  ( -0.000000000000000000, -0.000000000000000000, -1.000000000000000000 ) ) ;
#865 = ORIENTED_EDGE ( 'NONE', *, *, #419, .T. ) ;
#866 =( NAMED_UNIT ( * ) PLANE_ANGLE_UNIT ( ) SI_UNIT ( $, .RADIAN. ) );
#867 = CARTESIAN_POINT ( 'NONE',  ( -4.900000000000001243, 0.000000000000000000, -34.29999999999999716 ) ) ;
#868 = ADVANCED_FACE ( 'NONE', ( #104 ), #384, .F. ) ;
#869 = ORIENTED_EDGE ( 'NONE', *, *, #708, .T. ) ;
#870 = CARTESIAN_POINT ( 'NONE',  ( -9.100000000000004974, -13.09999999999999432, -36.50000000000000000 ) ) ;
#871 = VECTOR ( 'NONE', #405, 1000.000000000000000 ) ;
#872 = VECTOR ( 'NONE', #144, 1000.000000000000000 ) ;
#873 = DIRECTION ( 'NONE',  ( -1.000000000000000000, 0.000000000000000000, 0.000000000000000000 ) ) ;
#874 = VECTOR ( 'NONE', #96, 1000.000000000000000 ) ;
#875 = ADVANCED_FACE ( 'NONE', ( #319 ), #41, .T. ) ;
#876 = VERTEX_POINT ( 'NONE', #587 ) ;
#877 = DIRECTION ( 'NONE',  ( -0.000000000000000000, 0.000000000000000000, 1.000000000000000000 ) ) ;
#878 = CARTESIAN_POINT ( 'NONE',  ( -9.750000000000008882, 5.629165124598875636, 23.28742955583319585 ) ) ;
#879 = ORIENTED_EDGE ( 'NONE', *, *, #863, .T. ) ;
#880 = EDGE_CURVE ( 'NONE', #698, #557, #845, .T. ) ;
#881 = CARTESIAN_POINT ( 'NONE',  ( -2.999999999999994227, 16.87916512459887031, 5.204170427930414381E-16 ) ) ;
#882 = DIRECTION ( 'NONE',  ( -0.9851087980436328273, -0.1719321261923696387, 0.000000000000000000 ) ) ;
#883 = EDGE_LOOP ( 'NONE', ( #456, #486, #573, #606, #370, #221, #230, #232 ) ) ;
#884 = CARTESIAN_POINT ( 'NONE',  ( 0.000000000000000000, 16.87916512459887031, -92.28742955583321361 ) ) ;
ENDSEC;
END-ISO-10303-21;
