ISO-10303-21;
HEADER;
FILE_DESCRIPTION (( 'STEP AP214' ),
    '1' );
FILE_NAME ('ÈýÁª18650µç³ØºÐ_¿Ç',
    '2025-11-17T07:18:52',
    ( '' ),
    ( '' ),
    'SwSTEP 2.0',
    'SolidWorks 2024',
    '' );
FILE_SCHEMA (( 'AUTOMOTIVE_DESIGN' ));
ENDSEC;

DATA;
#1 = ORIENTED_EDGE ( 'NONE', *, *, #475, .F. ) ;
#2 = CARTESIAN_POINT ( 'NONE',  ( 0.000000000000000000, -2.899999999999990585, -34.49999999999999289 ) ) ;
#3 = DIRECTION ( 'NONE',  ( -0.000000000000000000, 0.000000000000000000, 1.000000000000000000 ) ) ;
#4 = DIRECTION ( 'NONE',  ( 0.000000000000000000, 0.000000000000000000, 1.000000000000000000 ) ) ;
#5 = AXIS2_PLACEMENT_3D ( 'NONE', #889, #82, #271 ) ;
#6 = CARTESIAN_POINT ( 'NONE',  ( 2.038752742121657135, 16.48384433252370229, -32.50000000000000000 ) ) ;
#7 = EDGE_CURVE ( 'NONE', #461, #137, #833, .T. ) ;
#8 = ORIENTED_EDGE ( 'NONE', *, *, #265, .F. ) ;
#9 =( NAMED_UNIT ( * ) SI_UNIT ( $, .STERADIAN. ) SOLID_ANGLE_UNIT ( ) );
#10 = CARTESIAN_POINT ( 'NONE',  ( -4.900000000000001243, -7.899999999999997691, -36.50000000000000000 ) ) ;
#11 = VERTEX_POINT ( 'NONE', #590 ) ;
#12 = LINE ( 'NONE', #2, #962 ) ;
#13 = CARTESIAN_POINT ( 'NONE',  ( 0.000000000000000000, -2.899999999999990585, -34.49999999999999289 ) ) ;
#14 = CARTESIAN_POINT ( 'NONE',  ( 3.000000000000000000, -19.98075937545794645, -33.30000000000000426 ) ) ;
#15 = CARTESIAN_POINT ( 'NONE',  ( -2.299999999999999822, -20.96965511460289378, -33.30000000000000426 ) ) ;
#16 = CARTESIAN_POINT ( 'NONE',  ( 9.100000000000003197, -2.899999999999990585, -36.50000000000000000 ) ) ;
#17 = ORIENTED_EDGE ( 'NONE', *, *, #118, .F. ) ;
#18 = LINE ( 'NONE', #207, #547 ) ;
#19 = VECTOR ( 'NONE', #1081, 1000.000000000000000 ) ;
#20 = CIRCLE ( 'NONE', #1102, 10.00000000000000000 ) ;
#21 = AXIS2_PLACEMENT_3D ( 'NONE', #1084, #470, #892 ) ;
#22 = ORIENTED_EDGE ( 'NONE', *, *, #45, .F. ) ;
#23 = CARTESIAN_POINT ( 'NONE',  ( 3.000000000000000000, 15.28482755730146359, -33.30000000000000426 ) ) ;
#24 = EDGE_CURVE ( 'NONE', #801, #164, #596, .T. ) ;
#25 = CARTESIAN_POINT ( 'NONE',  ( -3.000000000000000000, -20.16792712793570885, -33.30000001331271164 ) ) ;
#26 = CARTESIAN_POINT ( 'NONE',  ( 18.16025403784438552, 0.4848275573014699247, 21.57252788819830158 ) ) ;
#27 = ORIENTED_EDGE ( 'NONE', *, *, #513, .F. ) ;
#28 = CARTESIAN_POINT ( 'NONE',  ( 3.000000000000000444, -21.38391703313471481, -34.33857933656527450 ) ) ;
#29 = ORIENTED_EDGE ( 'NONE', *, *, #108, .F. ) ;
#30 = CARTESIAN_POINT ( 'NONE',  ( 0.000000000000000000, -10.96965511460289910, -32.50000000000000000 ) ) ;
#31 = ADVANCED_FACE ( 'NONE', ( #1101 ), #398, .F. ) ;
#32 = DIRECTION ( 'NONE',  ( 0.4999999999999994449, 0.8660254037844389297, 0.000000000000000000 ) ) ;
#33 = EDGE_LOOP ( 'NONE', ( #327, #477, #762, #64 ) ) ;
#34 = DIRECTION ( 'NONE',  ( 0.9924380449678599225, -0.1227465962883371453, 0.000000000000000000 ) ) ;
#35 = ORIENTED_EDGE ( 'NONE', *, *, #581, .F. ) ;
#36 = CARTESIAN_POINT ( 'NONE',  ( -3.000000000000000000, -20.37631842886033340, -34.23129216200188552 ) ) ;
#37 = LINE ( 'NONE', #560, #133 ) ;
#38 = CIRCLE ( 'NONE', #813, 9.299999999999995381 ) ;
#39 = EDGE_LOOP ( 'NONE', ( #92, #1094, #757, #987 ) ) ;
#40 = EDGE_CURVE ( 'NONE', #137, #1118, #479, .T. ) ;
#41 = CARTESIAN_POINT ( 'NONE',  ( 2.277572514051728891, -20.08007619703166924, -34.00000000000000000 ) ) ;
#42 = AXIS2_PLACEMENT_3D ( 'NONE', #208, #910, #120 ) ;
#43 = CARTESIAN_POINT ( 'NONE',  ( 3.000000000000001332, -20.50904712877235525, -33.53372403081650077 ) ) ;
#44 = CARTESIAN_POINT ( 'NONE',  ( -2.196206733182621385, -20.48050555866414157, -34.17132914455894621 ) ) ;
#45 = EDGE_CURVE ( 'NONE', #302, #811, #851, .T. ) ;
#46 = FACE_OUTER_BOUND ( 'NONE', #493, .T. ) ;
#47 = ORIENTED_EDGE ( 'NONE', *, *, #317, .F. ) ;
#48 = DIRECTION ( 'NONE',  ( -1.734723475976808080E-16, 0.000000000000000000, -1.000000000000000000 ) ) ;
#49 = EDGE_LOOP ( 'NONE', ( #840, #983, #47, #877 ) ) ;
#50 = CARTESIAN_POINT ( 'NONE',  ( -3.000000000000000444, -21.22988409820161948, -33.99802895994987750 ) ) ;
#51 = VERTEX_POINT ( 'NONE', #1120 ) ;
#52 = CARTESIAN_POINT ( 'NONE',  ( 3.000000000000000444, -21.22988409820175093, -33.99802895994983487 ) ) ;
#53 = CARTESIAN_POINT ( 'NONE',  ( 2.149532710280373848, -20.73589846235102740, -34.70000000000000284 ) ) ;
#54 = ADVANCED_FACE ( 'NONE', ( #1024 ), #710, .F. ) ;
#55 = CARTESIAN_POINT ( 'NONE',  ( -2.177212077405191071, -20.58188226721060943, -34.27181340005267174 ) ) ;
#56 = CARTESIAN_POINT ( 'NONE',  ( -3.000000000000000444, 15.28482755730146359, -34.00000000000000000 ) ) ;
#57 = ORIENTED_EDGE ( 'NONE', *, *, #259, .F. ) ;
#58 = DIRECTION ( 'NONE',  ( -0.000000000000000000, -0.000000000000000000, -1.000000000000000000 ) ) ;
#59 = EDGE_CURVE ( 'NONE', #51, #1126, #866, .T. ) ;
#60 = CYLINDRICAL_SURFACE ( 'NONE', #155, 0.6999999999999992895 ) ;
#61 = VECTOR ( 'NONE', #759, 1000.000000000000000 ) ;
#62 = CARTESIAN_POINT ( 'NONE',  ( -2.999999999999834799, -20.46698483988082629, -34.36342652959991284 ) ) ;
#63 = LINE ( 'NONE', #417, #320 ) ;
#64 = ORIENTED_EDGE ( 'NONE', *, *, #1027, .T. ) ;
#65 = CARTESIAN_POINT ( 'NONE',  ( 0.000000000000000000, 0.000000000000000000, -34.49999999999999289 ) ) ;
#66 = LINE ( 'NONE', #688, #697 ) ;
#67 = CARTESIAN_POINT ( 'NONE',  ( 0.000000000000000000, -2.899999999999990585, -36.50000000000000000 ) ) ;
#68 = CYLINDRICAL_SURFACE ( 'NONE', #451, 0.6999999999999992895 ) ;
#69 = ORIENTED_EDGE ( 'NONE', *, *, #744, .F. ) ;
#70 = PLANE ( 'NONE',  #507 ) ;
#71 = DIRECTION ( 'NONE',  ( 1.000000000000000000, 0.000000000000000000, 0.000000000000000000 ) ) ;
#72 = CARTESIAN_POINT ( 'NONE',  ( -2.162841869122490657, -20.66088429960719353, -34.39063949246788354 ) ) ;
#73 = CARTESIAN_POINT ( 'NONE',  ( -2.299999999999999822, -20.96965511460289378, -34.00000000000000000 ) ) ;
#74 = EDGE_LOOP ( 'NONE', ( #1, #366, #196, #538 ) ) ;
#75 = PLANE ( 'NONE',  #301 ) ;
#76 = EDGE_CURVE ( 'NONE', #864, #738, #638, .T. ) ;
#77 =( LENGTH_UNIT ( ) NAMED_UNIT ( * ) SI_UNIT ( .MILLI., .METRE. ) );
#78 = AXIS2_PLACEMENT_3D ( 'NONE', #1053, #1063, #1059 ) ;
#79 = DIRECTION ( 'NONE',  ( 0.000000000000000000, 0.000000000000000000, 1.000000000000000000 ) ) ;
#80 = CIRCLE ( 'NONE', #535, 10.00000000000000000 ) ;
#81 = ORIENTED_EDGE ( 'NONE', *, *, #988, .F. ) ;
#82 = DIRECTION ( 'NONE',  ( 0.1227465962883373812, -0.9924380449678599225, 0.000000000000000000 ) ) ;
#83 = ORIENTED_EDGE ( 'NONE', *, *, #1027, .F. ) ;
#84 = DIRECTION ( 'NONE',  ( 0.4999999999999995559, -0.8660254037844388186, 0.000000000000000000 ) ) ;
#85 = SURFACE_SIDE_STYLE ('',( #1037 ) ) ;
#86 = DIRECTION ( 'NONE',  ( -1.000000000000000000, 0.000000000000000000, 0.000000000000000000 ) ) ;
#87 = PLANE ( 'NONE',  #96 ) ;
#88 = CARTESIAN_POINT ( 'NONE',  ( 3.000000000000000000, 0.000000000000000000, -32.50000000000000000 ) ) ;
#89 = MANIFOLD_SOLID_BREP ( 'Fillet2', #869 ) ;
#90 = EDGE_CURVE ( 'NONE', #302, #550, #775, .T. ) ;
#91 = CARTESIAN_POINT ( 'NONE',  ( 0.000000000000000000, 16.48482755730146110, 21.57252788819830158 ) ) ;
#92 = ORIENTED_EDGE ( 'NONE', *, *, #212, .T. ) ;
#93 = DIRECTION ( 'NONE',  ( -0.000000000000000000, 0.000000000000000000, 1.000000000000000000 ) ) ;
#94 = AXIS2_PLACEMENT_3D ( 'NONE', #257, #860, #71 ) ;
#95 = CARTESIAN_POINT ( 'NONE',  ( 9.500000000000000000, 5.484827557301462875, -36.50000000000000000 ) ) ;
#96 = AXIS2_PLACEMENT_3D ( 'NONE', #101, #788, #549 ) ;
#97 = ADVANCED_FACE ( 'NONE', ( #262 ), #246, .F. ) ;
#98 = CARTESIAN_POINT ( 'NONE',  ( -2.299999999999999822, 15.28482755730146359, -33.30000000000000426 ) ) ;
#99 = DIRECTION ( 'NONE',  ( 1.000000000000000000, 0.000000000000000000, 0.000000000000000000 ) ) ;
#100 = EDGE_CURVE ( 'NONE', #1118, #491, #973, .T. ) ;
#101 = CARTESIAN_POINT ( 'NONE',  ( 2.999999999999994227, -20.96965511460289378, 5.204170427930414381E-16 ) ) ;
#102 = CARTESIAN_POINT ( 'NONE',  ( 2.999999999999990674, -20.50904712877235170, -32.50000000000000000 ) ) ;
#103 = ORIENTED_EDGE ( 'NONE', *, *, #76, .F. ) ;
#104 = PLANE ( 'NONE',  #1066 ) ;
#105 = EDGE_CURVE ( 'NONE', #164, #676, #339, .T. ) ;
#106 = CARTESIAN_POINT ( 'NONE',  ( -4.900000000000001243, 0.000000000000000000, -34.49999999999999289 ) ) ;
#107 = EDGE_CURVE ( 'NONE', #809, #552, #539, .T. ) ;
#108 = EDGE_CURVE ( 'NONE', #198, #752, #66, .T. ) ;
#109 = ORIENTED_EDGE ( 'NONE', *, *, #351, .F. ) ;
#110 = FACE_OUTER_BOUND ( 'NONE', #393, .T. ) ;
#111 = VECTOR ( 'NONE', #623, 1000.000000000000000 ) ;
#112 = DIRECTION ( 'NONE',  ( -0.000000000000000000, -0.000000000000000000, -1.000000000000000000 ) ) ;
#113 = VECTOR ( 'NONE', #637, 1000.000000000000000 ) ;
#114 = ORIENTED_EDGE ( 'NONE', *, *, #380, .T. ) ;
#115 = EDGE_CURVE ( 'NONE', #672, #1086, #606, .T. ) ;
#116 = CARTESIAN_POINT ( 'NONE',  ( 2.203677491088947615, -20.44149073297072761, -34.14174868616015601 ) ) ;
#117 = ORIENTED_EDGE ( 'NONE', *, *, #1046, .T. ) ;
#118 = EDGE_CURVE ( 'NONE', #936, #198, #426, .T. ) ;
#119 = CARTESIAN_POINT ( 'NONE',  ( -2.038752742121661576, 16.48384433252370229, -36.50000000000000000 ) ) ;
#120 = DIRECTION ( 'NONE',  ( -0.9924380449678599225, 0.1227465962883371453, 0.000000000000000000 ) ) ;
#121 = ORIENTED_EDGE ( 'NONE', *, *, #669, .F. ) ;
#122 = DIRECTION ( 'NONE',  ( 1.000000000000000000, 0.000000000000000000, -0.000000000000000000 ) ) ;
#123 = ORIENTED_EDGE ( 'NONE', *, *, #100, .F. ) ;
#124 = CARTESIAN_POINT ( 'NONE',  ( -3.000000000000000000, -20.69855923973658562, -33.48243139869739338 ) ) ;
#125 = ADVANCED_FACE ( 'NONE', ( #439 ), #60, .F. ) ;
#126 = LINE ( 'NONE', #220, #264 ) ;
#127 = ORIENTED_EDGE ( 'NONE', *, *, #650, .T. ) ;
#128 = CARTESIAN_POINT ( 'NONE',  ( 2.256515352777626493, -20.17861100616055836, -34.01772064607414592 ) ) ;
#129 = CARTESIAN_POINT ( 'NONE',  ( 2.781258572223310743, -20.57549113075917191, -34.02047355331833955 ) ) ;
#130 = LINE ( 'NONE', #653, #680 ) ;
#131 = CARTESIAN_POINT ( 'NONE',  ( 2.299999999999999378, -19.98075937545794289, -34.00000000000000000 ) ) ;
#132 = VECTOR ( 'NONE', #1042, 999.9999999999998863 ) ;
#133 = VECTOR ( 'NONE', #32, 1000.000000000000114 ) ;
#134 = VERTEX_POINT ( 'NONE', #328 ) ;
#135 = CARTESIAN_POINT ( 'NONE',  ( 3.000000000000000000, -20.85521795965561509, -33.58349737401418622 ) ) ;
#136 = VECTOR ( 'NONE', #138, 1000.000000000000000 ) ;
#137 = VERTEX_POINT ( 'NONE', #23 ) ;
#138 = DIRECTION ( 'NONE',  ( 1.000000000000000000, 0.000000000000000000, 0.000000000000000000 ) ) ;
#139 = CARTESIAN_POINT ( 'NONE',  ( -2.038752742121661576, 16.48384433252370229, -32.50000000000000000 ) ) ;
#140 = ORIENTED_EDGE ( 'NONE', *, *, #380, .F. ) ;
#141 = CARTESIAN_POINT ( 'NONE',  ( 2.177212077405217272, -20.58188226721054193, -34.27181340005257937 ) ) ;
#142 = CARTESIAN_POINT ( 'NONE',  ( 2.999999999999990674, -20.50904712877235170, -33.39727565978194690 ) ) ;
#143 = CARTESIAN_POINT ( 'NONE',  ( -2.149373156722532041, -20.73680802545273494, -34.61366504429132362 ) ) ;
#144 = LINE ( 'NONE', #56, #886 ) ;
#145 = ADVANCED_FACE ( 'NONE', ( #718 ), #967, .F. ) ;
#146 = ORIENTED_EDGE ( 'NONE', *, *, #40, .T. ) ;
#147 = DIRECTION ( 'NONE',  ( -1.000000000000000000, 0.000000000000000000, 0.000000000000000000 ) ) ;
#148 = EDGE_CURVE ( 'NONE', #999, #746, #356, .T. ) ;
#149 = ORIENTED_EDGE ( 'NONE', *, *, #238, .F. ) ;
#150 = ADVANCED_FACE ( 'NONE', ( #273 ), #652, .F. ) ;
#151 = CARTESIAN_POINT ( 'NONE',  ( 2.300000000000010036, 15.28482755730146359, -90.57252788819830869 ) ) ;
#152 = CYLINDRICAL_SURFACE ( 'NONE', #463, 10.00000000000000000 ) ;
#153 = ORIENTED_EDGE ( 'NONE', *, *, #107, .T. ) ;
#154 = DIRECTION ( 'NONE',  ( 0.000000000000000000, 0.000000000000000000, 1.000000000000000000 ) ) ;
#155 = AXIS2_PLACEMENT_3D ( 'NONE', #414, #771, #1108 ) ;
#156 = SURFACE_STYLE_USAGE ( .BOTH. , #85 ) ;
#157 = VECTOR ( 'NONE', #915, 1000.000000000000000 ) ;
#158 = EDGE_CURVE ( 'NONE', #550, #1004, #557, .T. ) ;
#159 = DIRECTION ( 'NONE',  ( -0.000000000000000000, 0.000000000000000000, 1.000000000000000000 ) ) ;
#160 = CARTESIAN_POINT ( 'NONE',  ( 10.72746596288336818, 15.40920800698005699, -36.50000000000000000 ) ) ;
#161 = ORIENTED_EDGE ( 'NONE', *, *, #480, .T. ) ;
#162 = CARTESIAN_POINT ( 'NONE',  ( 0.000000000000000000, -10.96965511460289910, -34.70000000000000284 ) ) ;
#163 = LINE ( 'NONE', #689, #323 ) ;
#164 = VERTEX_POINT ( 'NONE', #443 ) ;
#165 = CARTESIAN_POINT ( 'NONE',  ( -2.149532710280375181, -20.73589846235103096, -34.50519991322408941 ) ) ;
#166 = ADVANCED_FACE ( 'NONE', ( #377 ), #1071, .F. ) ;
#167 = DIRECTION ( 'NONE',  ( -0.000000000000000000, -0.000000000000000000, -1.000000000000000000 ) ) ;
#168 = CARTESIAN_POINT ( 'NONE',  ( 0.000000000000000000, 0.000000000000000000, 0.000000000000000000 ) ) ;
#169 = CARTESIAN_POINT ( 'NONE',  ( 9.100000000000003197, -2.899999999999990585, -34.49999999999999289 ) ) ;
#170 = EDGE_LOOP ( 'NONE', ( #789, #670, #919, #681 ) ) ;
#171 = CARTESIAN_POINT ( 'NONE',  ( -2.149532710280373848, -20.73589846235102740, -34.70000000000000284 ) ) ;
#172 = AXIS2_PLACEMENT_3D ( 'NONE', #640, #3, #367 ) ;
#173 = AXIS2_PLACEMENT_3D ( 'NONE', #1003, #824, #986 ) ;
#174 = DIRECTION ( 'NONE',  ( 0.000000000000000000, 0.000000000000000000, 1.000000000000000000 ) ) ;
#175 = DIRECTION ( 'NONE',  ( 0.000000000000000000, 1.000000000000000000, 0.000000000000000000 ) ) ;
#176 = DIRECTION ( 'NONE',  ( 0.000000000000000000, -0.000000000000000000, 1.000000000000000000 ) ) ;
#177 = EDGE_CURVE ( 'NONE', #951, #558, #245, .T. ) ;
#178 = CARTESIAN_POINT ( 'NONE',  ( -9.100000000000004974, -13.09999999999999432, -36.50000000000000000 ) ) ;
#179 = ADVANCED_FACE ( 'NONE', ( #800, #882 ), #805, .F. ) ;
#180 = DIRECTION ( 'NONE',  ( 0.000000000000000000, 1.000000000000000000, 0.000000000000000000 ) ) ;
#181 = CARTESIAN_POINT ( 'NONE',  ( 0.000000000000000000, -10.96965511460289910, -34.70000000000000284 ) ) ;
#182 = ORIENTED_EDGE ( 'NONE', *, *, #115, .T. ) ;
#183 = VERTEX_POINT ( 'NONE', #102 ) ;
#184 = CARTESIAN_POINT ( 'NONE',  ( -9.500000000000000000, 5.484827557301462875, 21.57252788819830158 ) ) ;
#185 = AXIS2_PLACEMENT_3D ( 'NONE', #349, #709, #594 ) ;
#186 = FACE_OUTER_BOUND ( 'NONE', #1054, .T. ) ;
#187 = VECTOR ( 'NONE', #249, 1000.000000000000000 ) ;
#188 = EDGE_LOOP ( 'NONE', ( #499, #593, #719, #541 ) ) ;
#189 = CARTESIAN_POINT ( 'NONE',  ( -9.100000000000004974, -13.09999999999999432, -34.49999999999999289 ) ) ;
#190 = ORIENTED_EDGE ( 'NONE', *, *, #395, .T. ) ;
#191 = CARTESIAN_POINT ( 'NONE',  ( 9.100000000000003197, -13.09999999999999432, -36.50000000000000000 ) ) ;
#192 = EDGE_CURVE ( 'NONE', #997, #382, #989, .T. ) ;
#193 = ORIENTED_EDGE ( 'NONE', *, *, #107, .F. ) ;
#194 = FACE_OUTER_BOUND ( 'NONE', #39, .T. ) ;
#195 = FACE_OUTER_BOUND ( 'NONE', #701, .T. ) ;
#196 = ORIENTED_EDGE ( 'NONE', *, *, #959, .T. ) ;
#197 = DIRECTION ( 'NONE',  ( 1.734723475976808080E-16, -0.000000000000000000, 1.000000000000000000 ) ) ;
#198 = VERTEX_POINT ( 'NONE', #189 ) ;
#199 = CARTESIAN_POINT ( 'NONE',  ( 0.000000000000000000, -13.09999999999999432, -34.49999999999999289 ) ) ;
#200 = AXIS2_PLACEMENT_3D ( 'NONE', #808, #93, #646 ) ;
#201 = CARTESIAN_POINT ( 'NONE',  ( -2.258611211768170257, -20.16875410191902418, -34.01575119312148132 ) ) ;
#202 = ORIENTED_EDGE ( 'NONE', *, *, #599, .F. ) ;
#203 = LINE ( 'NONE', #917, #19 ) ;
#204 = ORIENTED_EDGE ( 'NONE', *, *, #495, .T. ) ;
#205 = EDGE_CURVE ( 'NONE', #997, #735, #781, .T. ) ;
#206 = ADVANCED_FACE ( 'NONE', ( #970 ), #878, .T. ) ;
#207 = CARTESIAN_POINT ( 'NONE',  ( -4.900000000000001243, -2.899999999999992362, -34.49999999999999289 ) ) ;
#208 = CARTESIAN_POINT ( 'NONE',  ( 2.038752742121657135, 16.48384433252370229, 21.57252788819830158 ) ) ;
#209 = ORIENTED_EDGE ( 'NONE', *, *, #666, .T. ) ;
#210 = CARTESIAN_POINT ( 'NONE',  ( 2.999999999999980016, -20.37631842886048616, -34.23129216200155156 ) ) ;
#211 = ORIENTED_EDGE ( 'NONE', *, *, #925, .F. ) ;
#212 = EDGE_CURVE ( 'NONE', #752, #916, #1056, .T. ) ;
#213 = CARTESIAN_POINT ( 'NONE',  ( -2.299999999999998934, -19.98075937545794289, -34.00000000000000000 ) ) ;
#214 = LINE ( 'NONE', #139, #508 ) ;
#215 = VERTEX_POINT ( 'NONE', #16 ) ;
#216 = CARTESIAN_POINT ( 'NONE',  ( -18.16025403784438907, 0.4848275573014699247, -36.50000000000000000 ) ) ;
#217 = ORIENTED_EDGE ( 'NONE', *, *, #959, .F. ) ;
#218 = DIRECTION ( 'NONE',  ( 0.000000000000000000, -1.000000000000000000, 0.000000000000000000 ) ) ;
#219 = B_SPLINE_CURVE_WITH_KNOTS ( 'NONE', 3,
 ( #410, #428, #605, #498 ),
 .UNSPECIFIED., .F., .F.,
 ( 4, 4 ),
 ( 0.000000000000000000, 0.0005448701391926992835 ),
 .UNSPECIFIED. ) ;
#220 = CARTESIAN_POINT ( 'NONE',  ( 10.72746596288336818, 15.40920800698005699, 21.57252788819830158 ) ) ;
#221 = VECTOR ( 'NONE', #855, 1000.000000000000000 ) ;
#222 = CIRCLE ( 'NONE', #698, 0.6999999999999992895 ) ;
#223 = ORIENTED_EDGE ( 'NONE', *, *, #1127, .T. ) ;
#224 = CARTESIAN_POINT ( 'NONE',  ( 3.000000000000000444, -21.12385867219181890, -33.84362679831084364 ) ) ;
#225 = VECTOR ( 'NONE', #1019, 1000.000000000000000 ) ;
#226 = ORIENTED_EDGE ( 'NONE', *, *, #861, .T. ) ;
#227 = CARTESIAN_POINT ( 'NONE',  ( 2.149532710280373848, -20.73589846235102740, -34.50519991322410362 ) ) ;
#228 = DIRECTION ( 'NONE',  ( 1.000000000000000000, 0.000000000000000000, 0.000000000000000000 ) ) ;
#229 = ORIENTED_EDGE ( 'NONE', *, *, #90, .F. ) ;
#230 = EDGE_CURVE ( 'NONE', #1004, #651, #901, .T. ) ;
#231 = CARTESIAN_POINT ( 'NONE',  ( -2.531344364998433072, -20.64551343883322687, -34.33083689299036934 ) ) ;
#232 = APPLICATION_CONTEXT ( 'automotive_design' ) ;
#233 = CARTESIAN_POINT ( 'NONE',  ( 3.000000000000000000, -20.96965511460289378, -33.30000000000000426 ) ) ;
#234 = LINE ( 'NONE', #776, #1103 ) ;
#235 = DIRECTION ( 'NONE',  ( -1.000000000000000000, 0.000000000000000000, 0.000000000000000000 ) ) ;
#236 = ORIENTED_EDGE ( 'NONE', *, *, #158, .T. ) ;
#237 = DIRECTION ( 'NONE',  ( 1.000000000000000000, 0.000000000000000000, -0.000000000000000000 ) ) ;
#238 = EDGE_CURVE ( 'NONE', #419, #134, #545, .T. ) ;
#239 = DIRECTION ( 'NONE',  ( 1.000000000000000000, -0.000000000000000000, 0.000000000000000000 ) ) ;
#240 = CARTESIAN_POINT ( 'NONE',  ( 2.030803114957136390, 16.48482755730146110, -36.50000000000000000 ) ) ;
#241 = DIRECTION ( 'NONE',  ( 0.000000000000000000, 0.000000000000000000, 1.000000000000000000 ) ) ;
#242 = VERTEX_POINT ( 'NONE', #657 ) ;
#243 = EDGE_CURVE ( 'NONE', #382, #854, #1000, .T. ) ;
#244 = DIRECTION ( 'NONE',  ( -0.000000000000000000, -0.000000000000000000, -1.000000000000000000 ) ) ;
#245 = CIRCLE ( 'NONE', #172, 9.999999999999996447 ) ;
#246 = PLANE ( 'NONE',  #319 ) ;
#247 = VECTOR ( 'NONE', #961, 1000.000000000000000 ) ;
#248 = CARTESIAN_POINT ( 'NONE',  ( -4.900000000000001243, -2.899999999999992362, -34.49999999999999289 ) ) ;
#249 = DIRECTION ( 'NONE',  ( -0.000000000000000000, -0.000000000000000000, -1.000000000000000000 ) ) ;
#250 = VERTEX_POINT ( 'NONE', #671 ) ;
#251 = CARTESIAN_POINT ( 'NONE',  ( -2.781261579319895372, -20.57549025157023337, -34.02046923191161198 ) ) ;
#252 = EDGE_CURVE ( 'NONE', #198, #573, #203, .T. ) ;
#253 = CARTESIAN_POINT ( 'NONE',  ( -2.299999999999999822, 15.28482755730146359, -32.50000000000000000 ) ) ;
#254 = DIRECTION ( 'NONE',  ( -0.000000000000000000, -0.000000000000000000, -1.000000000000000000 ) ) ;
#255 = VERTEX_POINT ( 'NONE', #216 ) ;
#256 = DIRECTION ( 'NONE',  ( 0.000000000000000000, 0.000000000000000000, 1.000000000000000000 ) ) ;
#257 = CARTESIAN_POINT ( 'NONE',  ( -9.500000000000000000, 5.484827557301462875, -32.50000000000000000 ) ) ;
#258 = CARTESIAN_POINT ( 'NONE',  ( 3.000000000000000000, -19.98075937545794645, -33.30000000000000426 ) ) ;
#259 = EDGE_CURVE ( 'NONE', #304, #735, #675, .T. ) ;
#260 = CARTESIAN_POINT ( 'NONE',  ( -8.660254037844385522, -15.96965511460289200, -32.50000000000000000 ) ) ;
#261 = ADVANCED_FACE ( 'NONE', ( #468 ), #867, .F. ) ;
#262 = FACE_OUTER_BOUND ( 'NONE', #33, .T. ) ;
#263 = AXIS2_PLACEMENT_3D ( 'NONE', #425, #510, #704 ) ;
#264 = VECTOR ( 'NONE', #585, 1000.000000000000000 ) ;
#265 = EDGE_CURVE ( 'NONE', #137, #419, #582, .T. ) ;
#266 = DIRECTION ( 'NONE',  ( 1.000000000000000000, 0.000000000000000000, 0.000000000000000000 ) ) ;
#267 = ORIENTED_EDGE ( 'NONE', *, *, #890, .F. ) ;
#268 = ADVANCED_FACE ( 'NONE', ( #874 ), #75, .T. ) ;
#269 = B_SPLINE_CURVE_WITH_KNOTS ( 'NONE', 3,
 ( #171, #438, #231, #251, #1022, #430, #1036, #420 ),
 .UNSPECIFIED., .F., .F.,
 ( 4, 2, 2, 4 ),
 ( -5.291503631340973336E-06, 0.0008017769576334323259, 0.001205311188265817575, 0.001608845418898203041 ),
 .UNSPECIFIED. ) ;
#270 = DIRECTION ( 'NONE',  ( 0.000000000000000000, -0.000000000000000000, -1.000000000000000000 ) ) ;
#271 = DIRECTION ( 'NONE',  ( 0.9924380449678599225, 0.1227465962883373812, 0.000000000000000000 ) ) ;
#272 = EDGE_LOOP ( 'NONE', ( #204, #514, #375, #1107 ) ) ;
#273 = FACE_OUTER_BOUND ( 'NONE', #447, .T. ) ;
#274 = DIRECTION ( 'NONE',  ( -0.000000000000000000, 0.000000000000000000, 1.000000000000000000 ) ) ;
#275 = UNCERTAINTY_MEASURE_WITH_UNIT (LENGTH_MEASURE( 1.000000000000000082E-05 ), #440, 'distance_accuracy_value', 'NONE');
#276 = ADVANCED_FACE ( 'NONE', ( #859 ), #865, .T. ) ;
#277 = EDGE_LOOP ( 'NONE', ( #717, #360, #57, #555 ) ) ;
#278 = DIRECTION ( 'NONE',  ( 1.000000000000000000, 0.000000000000000000, -0.000000000000000000 ) ) ;
#279 = AXIS2_PLACEMENT_3D ( 'NONE', #98, #551, #814 ) ;
#280 = CIRCLE ( 'NONE', #299, 0.7000000000000000666 ) ;
#281 = VECTOR ( 'NONE', #944, 1000.000000000000000 ) ;
#282 = ADVANCED_FACE ( 'NONE', ( #1113 ), #70, .T. ) ;
#283 = DIRECTION ( 'NONE',  ( 0.000000000000000000, 0.000000000000000000, 1.000000000000000000 ) ) ;
#284 = VECTOR ( 'NONE', #1068, 1000.000000000000000 ) ;
#285 = PRODUCT_RELATED_PRODUCT_CATEGORY ( 'part', '', ( #629 ) ) ;
#286 = ORIENTED_EDGE ( 'NONE', *, *, #351, .T. ) ;
#287 = DIRECTION ( 'NONE',  ( 0.000000000000000000, -1.000000000000000000, 0.000000000000000000 ) ) ;
#288 = VERTEX_POINT ( 'NONE', #849 ) ;
#289 = FACE_OUTER_BOUND ( 'NONE', #632, .T. ) ;
#290 = EDGE_CURVE ( 'NONE', #676, #827, #269, .T. ) ;
#291 = DIRECTION ( 'NONE',  ( 1.000000000000000000, 0.000000000000000000, 0.000000000000000000 ) ) ;
#292 = EDGE_LOOP ( 'NONE', ( #109, #35, #848, #1132, #634, #674, #658, #683 ) ) ;
#293 = DIRECTION ( 'NONE',  ( 1.000000000000000000, 0.000000000000000000, 0.000000000000000000 ) ) ;
#294 = PLANE ( 'NONE',  #21 ) ;
#295 = LINE ( 'NONE', #1007, #373 ) ;
#296 = ORIENTED_EDGE ( 'NONE', *, *, #385, .F. ) ;
#297 = CARTESIAN_POINT ( 'NONE',  ( 2.299999999999999822, 15.28482755730146359, -33.30000000000000426 ) ) ;
#298 = ORIENTED_EDGE ( 'NONE', *, *, #353, .T. ) ;
#299 = AXIS2_PLACEMENT_3D ( 'NONE', #253, #270, #1044 ) ;
#300 = CARTESIAN_POINT ( 'NONE',  ( -3.000000000000000444, -20.08183610936429986, -34.02282492417479887 ) ) ;
#301 = AXIS2_PLACEMENT_3D ( 'NONE', #530, #616, #237 ) ;
#302 = VERTEX_POINT ( 'NONE', #790 ) ;
#303 = CIRCLE ( 'NONE', #78, 9.999999999999994671 ) ;
#304 = VERTEX_POINT ( 'NONE', #786 ) ;
#305 = CARTESIAN_POINT ( 'NONE',  ( 3.000000000000000000, -20.08183610936417196, -34.02282492417484150 ) ) ;
#306 = CARTESIAN_POINT ( 'NONE',  ( -2.999999999999994227, -20.96965511460289378, 5.204170427930414381E-16 ) ) ;
#307 = EDGE_LOOP ( 'NONE', ( #343, #755, #639, #1075 ) ) ;
#308 = EDGE_LOOP ( 'NONE', ( #121, #406, #1112, #416, #1041 ) ) ;
#309 = CARTESIAN_POINT ( 'NONE',  ( 2.152749081810517051, -20.71738535027653327, -34.51928966840385726 ) ) ;
#310 = EDGE_CURVE ( 'NONE', #906, #738, #344, .T. ) ;
#311 = ORIENTED_EDGE ( 'NONE', *, *, #158, .F. ) ;
#312 = CARTESIAN_POINT ( 'NONE',  ( -2.256515352777651362, -20.17861100616033809, -34.01772064607406065 ) ) ;
#313 = DIRECTION ( 'NONE',  ( -1.000000000000000000, 0.000000000000000000, 0.000000000000000000 ) ) ;
#314 = ORIENTED_EDGE ( 'NONE', *, *, #290, .F. ) ;
#315 = EDGE_LOOP ( 'NONE', ( #378, #516, #897, #924 ) ) ;
#316 = DIRECTION ( 'NONE',  ( 1.000000000000000000, 0.000000000000000000, 0.000000000000000000 ) ) ;
#317 = EDGE_CURVE ( 'NONE', #11, #491, #38, .T. ) ;
#318 = DIRECTION ( 'NONE',  ( -0.000000000000000000, -0.000000000000000000, -1.000000000000000000 ) ) ;
#319 = AXIS2_PLACEMENT_3D ( 'NONE', #617, #953, #176 ) ;
#320 = VECTOR ( 'NONE', #943, 1000.000000000000000 ) ;
#321 = ORIENTED_EDGE ( 'NONE', *, *, #744, .T. ) ;
#322 = CARTESIAN_POINT ( 'NONE',  ( 2.228415109094649349, -20.31598860233900083, -34.06988369533674188 ) ) ;
#323 = VECTOR ( 'NONE', #422, 1000.000000000000000 ) ;
#324 = DIRECTION ( 'NONE',  ( 1.734723475976808080E-16, 0.000000000000000000, 1.000000000000000000 ) ) ;
#325 = CARTESIAN_POINT ( 'NONE',  ( 2.299999999999999378, -19.98075937545794289, -34.00000000000000000 ) ) ;
#326 = LINE ( 'NONE', #1034, #784 ) ;
#327 = ORIENTED_EDGE ( 'NONE', *, *, #1043, .T. ) ;
#328 = CARTESIAN_POINT ( 'NONE',  ( 2.299999999999999822, 15.98482755730146110, -33.30000000000000426 ) ) ;
#329 = LINE ( 'NONE', #928, #817 ) ;
#330 = CARTESIAN_POINT ( 'NONE',  ( -0.000000000000000000, 15.98482755730146110, -32.50000000000000000 ) ) ;
#331 = ORIENTED_EDGE ( 'NONE', *, *, #487, .F. ) ;
#332 = CARTESIAN_POINT ( 'NONE',  ( 8.660254037844383745, -15.96965511460289200, 21.57252788819830158 ) ) ;
#333 = ADVANCED_FACE ( 'NONE', ( #692 ), #1128, .F. ) ;
#334 = DIRECTION ( 'NONE',  ( 1.000000000000000000, 0.000000000000000000, 0.000000000000000000 ) ) ;
#335 = CARTESIAN_POINT ( 'NONE',  ( -3.000000000000161204, -20.51132006535862828, -34.46643810354843396 ) ) ;
#336 = CARTESIAN_POINT ( 'NONE',  ( 9.100000000000003197, 0.000000000000000000, -34.49999999999999289 ) ) ;
#337 = ORIENTED_EDGE ( 'NONE', *, *, #543, .F. ) ;
#338 = CARTESIAN_POINT ( 'NONE',  ( 0.000000000000000000, -10.96965511460289910, 21.57252788819830158 ) ) ;
#339 = CIRCLE ( 'NONE', #1079, 9.999999999999994671 ) ;
#340 = CARTESIAN_POINT ( 'NONE',  ( 0.000000000000000000, -2.899999999999992362, -34.49999999999999289 ) ) ;
#341 = DIRECTION ( 'NONE',  ( 0.000000000000000000, 1.000000000000000000, 0.000000000000000000 ) ) ;
#342 = LINE ( 'NONE', #330, #660 ) ;
#343 = ORIENTED_EDGE ( 'NONE', *, *, #642, .F. ) ;
#344 = LINE ( 'NONE', #332, #565 ) ;
#345 = DIRECTION ( 'NONE',  ( 0.000000000000000000, -0.000000000000000000, 1.000000000000000000 ) ) ;
#346 = ADVANCED_FACE ( 'NONE', ( #413 ), #956, .F. ) ;
#347 = DIRECTION ( 'NONE',  ( 1.000000000000000000, 0.000000000000000000, 0.000000000000000000 ) ) ;
#348 = ORIENTED_EDGE ( 'NONE', *, *, #945, .F. ) ;
#349 = CARTESIAN_POINT ( 'NONE',  ( 9.100000000000003197, 0.000000000000000000, -34.49999999999999289 ) ) ;
#350 = CARTESIAN_POINT ( 'NONE',  ( -2.030803114957182576, 16.48482755730146110, 21.57252788819830158 ) ) ;
#351 = EDGE_CURVE ( 'NONE', #838, #752, #931, .T. ) ;
#352 = DIRECTION ( 'NONE',  ( 1.000000000000000000, 0.000000000000000000, 0.000000000000000000 ) ) ;
#353 = EDGE_CURVE ( 'NONE', #1061, #1126, #609, .T. ) ;
#354 = PLANE ( 'NONE',  #641 ) ;
#355 = DIRECTION ( 'NONE',  ( 1.000000000000000000, 0.000000000000000000, 0.000000000000000000 ) ) ;
#356 = LINE ( 'NONE', #726, #392 ) ;
#357 = VECTOR ( 'NONE', #293, 1000.000000000000000 ) ;
#358 = VECTOR ( 'NONE', #556, 1000.000000000000000 ) ;
#359 = DIRECTION ( 'NONE',  ( -1.000000000000000000, -4.956352788505162676E-15, 0.000000000000000000 ) ) ;
#360 = ORIENTED_EDGE ( 'NONE', *, *, #205, .T. ) ;
#361 = PRODUCT_DEFINITION_CONTEXT ( 'detailed design', #232, 'design' ) ;
#362 = DIRECTION ( 'NONE',  ( 0.9924380449678599225, -0.1227465962883371453, 0.000000000000000000 ) ) ;
#363 = DIRECTION ( 'NONE',  ( -1.000000000000000000, 0.000000000000000000, 0.000000000000000000 ) ) ;
#364 = ORIENTED_EDGE ( 'NONE', *, *, #395, .F. ) ;
#365 = DIRECTION ( 'NONE',  ( 1.000000000000000000, 0.000000000000000000, 0.000000000000000000 ) ) ;
#366 = ORIENTED_EDGE ( 'NONE', *, *, #90, .T. ) ;
#367 = DIRECTION ( 'NONE',  ( 1.000000000000000000, 0.000000000000000000, 0.000000000000000000 ) ) ;
#368 = ORIENTED_EDGE ( 'NONE', *, *, #612, .F. ) ;
#369 = CARTESIAN_POINT ( 'NONE',  ( 3.000000000000000000, -20.33896390887408501, -33.33219648862046114 ) ) ;
#370 = DIRECTION ( 'NONE',  ( 0.000000000000000000, 1.000000000000000000, -0.000000000000000000 ) ) ;
#371 = ADVANCED_FACE ( 'NONE', ( #601 ), #778, .T. ) ;
#372 = VECTOR ( 'NONE', #544, 1000.000000000000000 ) ;
#373 = VECTOR ( 'NONE', #112, 1000.000000000000000 ) ;
#374 = CARTESIAN_POINT ( 'NONE',  ( -9.100000000000004974, -2.899999999999992362, -36.50000000000000000 ) ) ;
#375 = ORIENTED_EDGE ( 'NONE', *, *, #480, .F. ) ;
#376 = ORIENTED_EDGE ( 'NONE', *, *, #783, .F. ) ;
#377 = FACE_OUTER_BOUND ( 'NONE', #453, .T. ) ;
#378 = ORIENTED_EDGE ( 'NONE', *, *, #317, .T. ) ;
#379 = DIRECTION ( 'NONE',  ( -0.000000000000000000, -0.000000000000000000, -1.000000000000000000 ) ) ;
#380 = EDGE_CURVE ( 'NONE', #183, #461, #1119, .T. ) ;
#381 = CARTESIAN_POINT ( 'NONE',  ( -2.299999999999999378, -19.98075937545794289, -34.00000000000000000 ) ) ;
#382 = VERTEX_POINT ( 'NONE', #460 ) ;
#383 = CARTESIAN_POINT ( 'NONE',  ( 3.000000000000000444, -21.41947048620170335, -34.71333305150138671 ) ) ;
#384 = EDGE_LOOP ( 'NONE', ( #390, #654, #608, #1005, #686, #69, #820, #467, #600, #656 ) ) ;
#385 = EDGE_CURVE ( 'NONE', #51, #250, #12, .T. ) ;
#386 = CARTESIAN_POINT ( 'NONE',  ( 8.660254037844380193, -15.96965511460289200, -32.50000000000000000 ) ) ;
#387 = CARTESIAN_POINT ( 'NONE',  ( 0.000000000000000000, -2.899999999999992362, -34.49999999999999289 ) ) ;
#388 = ORIENTED_EDGE ( 'NONE', *, *, #7, .F. ) ;
#389 = CARTESIAN_POINT ( 'NONE',  ( 2.299999999999998934, -19.98075937545794289, -34.00000000000000000 ) ) ;
#390 = ORIENTED_EDGE ( 'NONE', *, *, #630, .T. ) ;
#391 = CARTESIAN_POINT ( 'NONE',  ( -2.299999999999999822, 15.28482755730146359, -33.30000000000000426 ) ) ;
#392 = VECTOR ( 'NONE', #287, 1000.000000000000000 ) ;
#393 = EDGE_LOOP ( 'NONE', ( #314, #774, #975, #368 ) ) ;
#394 = FACE_OUTER_BOUND ( 'NONE', #546, .T. ) ;
#395 = EDGE_CURVE ( 'NONE', #811, #558, #448, .T. ) ;
#396 = VERTEX_POINT ( 'NONE', #1055 ) ;
#397 = CARTESIAN_POINT ( 'NONE',  ( 3.000000000000020872, -20.31629764419487216, -34.17050206345967212 ) ) ;
#398 = PLANE ( 'NONE',  #747 ) ;
#399 = DIRECTION ( 'NONE',  ( -0.000000000000000000, -0.000000000000000000, -1.000000000000000000 ) ) ;
#400 = CARTESIAN_POINT ( 'NONE',  ( -18.16025403784438907, 0.4848275573014699247, 21.57252788819830158 ) ) ;
#401 = ORIENTED_EDGE ( 'NONE', *, *, #310, .T. ) ;
#402 = CARTESIAN_POINT ( 'NONE',  ( 3.000000000000000000, -20.16792712793571596, -33.30000001331271164 ) ) ;
#403 = VERTEX_POINT ( 'NONE', #662 ) ;
#404 = CARTESIAN_POINT ( 'NONE',  ( -3.000000000000000444, -20.54869626175621633, -34.70484125915947970 ) ) ;
#405 = LINE ( 'NONE', #73, #61 ) ;
#406 = ORIENTED_EDGE ( 'NONE', *, *, #612, .T. ) ;
#407 = CARTESIAN_POINT ( 'NONE',  ( 2.999999999999878320, -20.44816179443800053, -34.32990129981355665 ) ) ;
#408 = ORIENTED_EDGE ( 'NONE', *, *, #455, .T. ) ;
#409 = CARTESIAN_POINT ( 'NONE',  ( -2.167107637944949872, -20.63717182424904095, -34.34901447907770233 ) ) ;
#410 = CARTESIAN_POINT ( 'NONE',  ( -2.999999999999990674, -20.50904712877235170, -33.39727565978194690 ) ) ;
#411 = VECTOR ( 'NONE', #527, 1000.000000000000000 ) ;
#412 = ORIENTED_EDGE ( 'NONE', *, *, #945, .T. ) ;
#413 = FACE_OUTER_BOUND ( 'NONE', #188, .T. ) ;
#414 = CARTESIAN_POINT ( 'NONE',  ( 0.000000000000000000, 15.28482755730146359, -33.30000000000000426 ) ) ;
#415 = LINE ( 'NONE', #504, #465 ) ;
#416 = ORIENTED_EDGE ( 'NONE', *, *, #192, .T. ) ;
#417 = CARTESIAN_POINT ( 'NONE',  ( -4.900000000000001243, 0.000000000000000000, -36.50000000000000000 ) ) ;
#418 = ADVANCED_FACE ( 'NONE', ( #394 ), #905, .T. ) ;
#419 = VERTEX_POINT ( 'NONE', #829 ) ;
#420 = CARTESIAN_POINT ( 'NONE',  ( -2.999999999999990674, -20.50904712877235170, -33.39727565978194690 ) ) ;
#421 = FILL_AREA_STYLE ('',( #534 ) ) ;
#422 = DIRECTION ( 'NONE',  ( 0.4999999999999995004, 0.8660254037844389297, 0.000000000000000000 ) ) ;
#423 = FACE_OUTER_BOUND ( 'NONE', #472, .T. ) ;
#424 = ORIENTED_EDGE ( 'NONE', *, *, #1106, .T. ) ;
#425 = CARTESIAN_POINT ( 'NONE',  ( -2.299999999999999822, 15.28482755730146359, -33.30000000000000426 ) ) ;
#426 = LINE ( 'NONE', #779, #111 ) ;
#427 = FACE_OUTER_BOUND ( 'NONE', #277, .T. ) ;
#428 = CARTESIAN_POINT ( 'NONE',  ( -3.000000000000000000, -20.33939837374273196, -33.33236272849742932 ) ) ;
#429 = ORIENTED_EDGE ( 'NONE', *, *, #948, .T. ) ;
#430 = CARTESIAN_POINT ( 'NONE',  ( -2.965312775814448631, -20.52005822410078295, -33.66606794801970182 ) ) ;
#431 = VECTOR ( 'NONE', #197, 1000.000000000000000 ) ;
#432 = EDGE_CURVE ( 'NONE', #936, #838, #295, .T. ) ;
#433 = AXIS2_PLACEMENT_3D ( 'NONE', #1085, #842, #923 ) ;
#434 = DIRECTION ( 'NONE',  ( -0.000000000000000000, 1.000000000000000000, 4.956352788505168198E-15 ) ) ;
#435 = AXIS2_PLACEMENT_3D ( 'NONE', #1123, #700, #583 ) ;
#436 = DIRECTION ( 'NONE',  ( 0.000000000000000000, -0.000000000000000000, 1.000000000000000000 ) ) ;
#437 = ORIENTED_EDGE ( 'NONE', *, *, #1057, .F. ) ;
#438 = CARTESIAN_POINT ( 'NONE',  ( -2.332254152011624004, -20.69568179951712139, -34.50668995407673378 ) ) ;
#439 = FACE_OUTER_BOUND ( 'NONE', #307, .T. ) ;
#440 =( LENGTH_UNIT ( ) NAMED_UNIT ( * ) SI_UNIT ( .MILLI., .METRE. ) );
#441 = CARTESIAN_POINT ( 'NONE',  ( 2.999999999999990674, -20.50904712877235170, -33.39727565978194690 ) ) ;
#442 = ORIENTED_EDGE ( 'NONE', *, *, #644, .T. ) ;
#443 = CARTESIAN_POINT ( 'NONE',  ( 2.149532710280373848, -20.73589846235102740, -34.70000000000000284 ) ) ;
#444 = PRODUCT_DEFINITION_SHAPE ( 'NONE', 'NONE',  #505 ) ;
#445 = B_SPLINE_CURVE_WITH_KNOTS ( 'NONE', 3,
 ( #852, #227, #597, #591, #922, #1110, #1025, #325 ),
 .UNSPECIFIED., .F., .F.,
 ( 4, 2, 2, 4 ),
 ( 0.000000000000000000, 0.0005811467882901240898, 0.0008717201824351831531, 0.001162293576580242325 ),
 .UNSPECIFIED. ) ;
#446 = CARTESIAN_POINT ( 'NONE',  ( -2.299999999999999822, 15.98482755730146110, -33.30000000000000426 ) ) ;
#447 = EDGE_LOOP ( 'NONE', ( #127, #83, #663, #226 ) ) ;
#448 = LINE ( 'NONE', #6, #1122 ) ;
#449 = DIRECTION ( 'NONE',  ( -0.000000000000000000, 0.000000000000000000, -1.000000000000000000 ) ) ;
#450 =( GEOMETRIC_REPRESENTATION_CONTEXT ( 3 ) GLOBAL_UNCERTAINTY_ASSIGNED_CONTEXT ( ( #985 ) ) GLOBAL_UNIT_ASSIGNED_CONTEXT ( ( #77, #1030, #611 ) ) REPRESENTATION_CONTEXT ( 'NONE', 'WORKASPACE' ) );
#451 = AXIS2_PLACEMENT_3D ( 'NONE', #847, #929, #241 ) ;
#452 = DIRECTION ( 'NONE',  ( 1.734723475976808080E-16, -0.000000000000000000, -1.000000000000000000 ) ) ;
#453 = EDGE_LOOP ( 'NONE', ( #117, #1008, #296, #870 ) ) ;
#454 = EDGE_CURVE ( 'NONE', #738, #396, #37, .T. ) ;
#455 = EDGE_CURVE ( 'NONE', #558, #651, #126, .T. ) ;
#456 = FACE_OUTER_BOUND ( 'NONE', #665, .T. ) ;
#457 = ADVANCED_FACE ( 'NONE', ( #46 ), #471, .F. ) ;
#458 = CARTESIAN_POINT ( 'NONE',  ( -9.100000000000004974, 0.000000000000000000, -36.50000000000000000 ) ) ;
#459 = LINE ( 'NONE', #810, #963 ) ;
#460 = CARTESIAN_POINT ( 'NONE',  ( -3.000000000000000000, 15.28482755730146359, -32.50000000000000000 ) ) ;
#461 = VERTEX_POINT ( 'NONE', #749 ) ;
#462 = VECTOR ( 'NONE', #147, 1000.000000000000000 ) ;
#463 = AXIS2_PLACEMENT_3D ( 'NONE', #696, #318, #235 ) ;
#464 = CARTESIAN_POINT ( 'NONE',  ( -3.000000000000000000, -19.98075937545794645, -33.30000000000000426 ) ) ;
#465 = VECTOR ( 'NONE', #341, 1000.000000000000000 ) ;
#466 = CARTESIAN_POINT ( 'NONE',  ( 4.900000000000001243, -7.899999999999997691, -34.49999999999999289 ) ) ;
#467 = ORIENTED_EDGE ( 'NONE', *, *, #76, .T. ) ;
#468 = FACE_OUTER_BOUND ( 'NONE', #170, .T. ) ;
#469 = ADVANCED_FACE ( 'NONE', ( #732 ), #492, .T. ) ;
#470 = DIRECTION ( 'NONE',  ( -1.000000000000000000, 0.000000000000000000, 0.000000000000000000 ) ) ;
#471 = PLANE ( 'NONE',  #173 ) ;
#472 = EDGE_LOOP ( 'NONE', ( #913, #337, #123, #1088 ) ) ;
#473 = CARTESIAN_POINT ( 'NONE',  ( 2.196206733182624049, -20.48050555866412736, -34.17132914455893200 ) ) ;
#474 = EDGE_LOOP ( 'NONE', ( #348, #888, #1039, #578 ) ) ;
#475 = EDGE_CURVE ( 'NONE', #302, #672, #214, .T. ) ;
#476 = CARTESIAN_POINT ( 'NONE',  ( -2.203677491088989804, -20.44149073297077379, -34.14174868616019154 ) ) ;
#477 = ORIENTED_EDGE ( 'NONE', *, *, #644, .F. ) ;
#478 = CARTESIAN_POINT ( 'NONE',  ( 3.000000000000024869, -20.51132006535846841, -34.46643810354778026 ) ) ;
#479 = LINE ( 'NONE', #233, #960 ) ;
#480 = EDGE_CURVE ( 'NONE', #573, #999, #577, .T. ) ;
#481 = AXIS2_PLACEMENT_3D ( 'NONE', #106, #278, #449 ) ;
#482 = CARTESIAN_POINT ( 'NONE',  ( -8.660254037844387298, -15.96965511460289200, -36.50000000000000000 ) ) ;
#483 = AXIS2_PLACEMENT_3D ( 'NONE', #95, #1135, #347 ) ;
#484 = LINE ( 'NONE', #400, #678 ) ;
#485 = AXIS2_PLACEMENT_3D ( 'NONE', #998, #823, #828 ) ;
#486 = ORIENTED_EDGE ( 'NONE', *, *, #500, .T. ) ;
#487 = EDGE_CURVE ( 'NONE', #552, #255, #484, .T. ) ;
#488 = CARTESIAN_POINT ( 'NONE',  ( 3.000000000001451284, -20.54913839301267231, -34.63740346888747723 ) ) ;
#489 = EDGE_LOOP ( 'NONE', ( #437, #769, #388, #900 ) ) ;
#490 = CARTESIAN_POINT ( 'NONE',  ( -2.152749081810484633, -20.71738535027626682, -34.51928966840322488 ) ) ;
#491 = VERTEX_POINT ( 'NONE', #131 ) ;
#492 = PLANE ( 'NONE',  #433 ) ;
#493 = EDGE_LOOP ( 'NONE', ( #708, #401, #615, #27 ) ) ;
#494 = CARTESIAN_POINT ( 'NONE',  ( 2.299999999999999822, 15.28482755730146359, -33.30000000000000426 ) ) ;
#495 = EDGE_CURVE ( 'NONE', #916, #288, #1069, .T. ) ;
#496 = ORIENTED_EDGE ( 'NONE', *, *, #177, .F. ) ;
#497 = DIRECTION ( 'NONE',  ( -0.000000000000000000, -0.000000000000000000, -1.000000000000000000 ) ) ;
#498 = CARTESIAN_POINT ( 'NONE',  ( -3.000000000000000000, -19.98075937545794645, -33.30000000000000426 ) ) ;
#499 = ORIENTED_EDGE ( 'NONE', *, *, #581, .T. ) ;
#500 = EDGE_CURVE ( 'NONE', #735, #134, #742, .T. ) ;
#501 = DIRECTION ( 'NONE',  ( -1.000000000000000000, 0.000000000000000000, -0.000000000000000000 ) ) ;
#502 = ORIENTED_EDGE ( 'NONE', *, *, #787, .T. ) ;
#503 = ADVANCED_FACE ( 'NONE', ( #195 ), #1091, .F. ) ;
#504 = CARTESIAN_POINT ( 'NONE',  ( 4.900000000000001243, 0.000000000000000000, -34.49999999999999289 ) ) ;
#505 = PRODUCT_DEFINITION ( 'UNKNOWN', '', #812, #361 ) ;
#506 = CARTESIAN_POINT ( 'NONE',  ( 9.100000000000003197, 0.000000000000000000, -36.50000000000000000 ) ) ;
#507 = AXIS2_PLACEMENT_3D ( 'NONE', #937, #523, #84 ) ;
#508 = VECTOR ( 'NONE', #668, 1000.000000000000114 ) ;
#509 = VERTEX_POINT ( 'NONE', #466 ) ;
#510 = DIRECTION ( 'NONE',  ( 0.000000000000000000, 1.000000000000000000, 0.000000000000000000 ) ) ;
#511 = APPLICATION_CONTEXT ( 'automotive_design' ) ;
#512 = LINE ( 'NONE', #846, #136 ) ;
#513 = EDGE_CURVE ( 'NONE', #951, #396, #819, .T. ) ;
#514 = ORIENTED_EDGE ( 'NONE', *, *, #861, .F. ) ;
#515 = LINE ( 'NONE', #506, #1012 ) ;
#516 = ORIENTED_EDGE ( 'NONE', *, *, #543, .T. ) ;
#517 = CARTESIAN_POINT ( 'NONE',  ( 4.900000000000001243, 0.000000000000000000, -36.50000000000000000 ) ) ;
#518 = DIRECTION ( 'NONE',  ( -0.000000000000000000, -0.000000000000000000, -1.000000000000000000 ) ) ;
#519 = CARTESIAN_POINT ( 'NONE',  ( -9.500000000000000000, 5.484827557301462875, -36.50000000000000000 ) ) ;
#520 = EDGE_CURVE ( 'NONE', #11, #676, #768, .T. ) ;
#521 = CARTESIAN_POINT ( 'NONE',  ( 2.299999999999999822, 15.98482755730146110, -32.50000000000000000 ) ) ;
#522 = ORIENTED_EDGE ( 'NONE', *, *, #730, .T. ) ;
#523 = DIRECTION ( 'NONE',  ( -0.8660254037844389297, -0.4999999999999996114, 0.000000000000000000 ) ) ;
#524 = CARTESIAN_POINT ( 'NONE',  ( 0.000000000000000000, 16.48482755730146110, -32.50000000000000000 ) ) ;
#525 =( NAMED_UNIT ( * ) PLANE_ANGLE_UNIT ( ) SI_UNIT ( $, .RADIAN. ) );
#526 = EDGE_LOOP ( 'NONE', ( #376, #149, #8 ) ) ;
#527 = DIRECTION ( 'NONE',  ( -0.000000000000000000, -0.000000000000000000, -1.000000000000000000 ) ) ;
#528 = AXIS2_PLACEMENT_3D ( 'NONE', #184, #883, #86 ) ;
#529 = ORIENTED_EDGE ( 'NONE', *, *, #59, .F. ) ;
#530 = CARTESIAN_POINT ( 'NONE',  ( 0.000000000000000000, -20.96965511460289378, -34.00000000000000000 ) ) ;
#531 = AXIS2_PLACEMENT_3D ( 'NONE', #699, #434, #946 ) ;
#532 = AXIS2_PLACEMENT_3D ( 'NONE', #181, #4, #365 ) ;
#533 = EDGE_CURVE ( 'NONE', #672, #403, #1105, .T. ) ;
#534 = FILL_AREA_STYLE_COLOUR ( '', #659 ) ;
#535 = AXIS2_PLACEMENT_3D ( 'NONE', #519, #159, #316 ) ;
#536 = CARTESIAN_POINT ( 'NONE',  ( 2.299999999999999822, 15.28482755730146359, -32.50000000000000000 ) ) ;
#537 = PLANE ( 'NONE',  #5 ) ;
#538 = ORIENTED_EDGE ( 'NONE', *, *, #533, .F. ) ;
#539 = LINE ( 'NONE', #705, #132 ) ;
#540 = FACE_OUTER_BOUND ( 'NONE', #74, .T. ) ;
#541 = ORIENTED_EDGE ( 'NONE', *, *, #587, .T. ) ;
#542 = CARTESIAN_POINT ( 'NONE',  ( -0.000000000000000000, 16.48482755730146110, -36.50000000000000000 ) ) ;
#543 = EDGE_CURVE ( 'NONE', #491, #419, #619, .T. ) ;
#544 = DIRECTION ( 'NONE',  ( 0.000000000000000000, 1.000000000000000000, 0.000000000000000000 ) ) ;
#545 = CIRCLE ( 'NONE', #1010, 0.6999999999999992895 ) ;
#546 = EDGE_LOOP ( 'NONE', ( #211, #190, #408, #933 ) ) ;
#547 = VECTOR ( 'NONE', #399, 1000.000000000000000 ) ;
#548 = LINE ( 'NONE', #880, #729 ) ;
#549 = DIRECTION ( 'NONE',  ( 1.734723475976808080E-16, 0.000000000000000000, -1.000000000000000000 ) ) ;
#550 = VERTEX_POINT ( 'NONE', #1015 ) ;
#551 = DIRECTION ( 'NONE',  ( -1.734723475976808080E-16, 0.000000000000000000, -1.000000000000000000 ) ) ;
#552 = VERTEX_POINT ( 'NONE', #1111 ) ;
#553 = LINE ( 'NONE', #625, #247 ) ;
#554 = EDGE_CURVE ( 'NONE', #304, #571, #342, .T. ) ;
#555 = ORIENTED_EDGE ( 'NONE', *, *, #1117, .F. ) ;
#556 = DIRECTION ( 'NONE',  ( 0.000000000000000000, 1.000000000000000000, -0.000000000000000000 ) ) ;
#557 = LINE ( 'NONE', #542, #357 ) ;
#558 = VERTEX_POINT ( 'NONE', #702 ) ;
#559 = CARTESIAN_POINT ( 'NONE',  ( 18.16025403784438552, 0.4848275573014699247, -32.50000000000000000 ) ) ;
#560 = CARTESIAN_POINT ( 'NONE',  ( 13.41025403784438375, -7.742413778650709233, -36.50000000000000000 ) ) ;
#561 = ORIENTED_EDGE ( 'NONE', *, *, #1089, .T. ) ;
#562 = CARTESIAN_POINT ( 'NONE',  ( 2.038752742121657135, 16.48384433252370229, -36.50000000000000000 ) ) ;
#563 = ADVANCED_FACE ( 'NONE', ( #773 ), #152, .T. ) ;
#564 = EDGE_LOOP ( 'NONE', ( #140, #981, #1097, #1080, #364, #22, #740, #182, #502, #193, #321, #893, #1072, #722, #223 ) ) ;
#565 = VECTOR ( 'NONE', #58, 1000.000000000000000 ) ;
#566 = VECTOR ( 'NONE', #649, 1000.000000000000000 ) ;
#567 = CARTESIAN_POINT ( 'NONE',  ( -2.219752960244537832, -20.35939134027798403, -34.09121570019571124 ) ) ;
#568 = CARTESIAN_POINT ( 'NONE',  ( -2.278608819048118850, -20.07548706924601589, -33.99999999999999289 ) ) ;
#569 = ORIENTED_EDGE ( 'NONE', *, *, #432, .T. ) ;
#570 = CARTESIAN_POINT ( 'NONE',  ( 3.000000000000121236, -20.40290690400986762, -34.26390267105858101 ) ) ;
#571 = VERTEX_POINT ( 'NONE', #521 ) ;
#572 = DIRECTION ( 'NONE',  ( -0.000000000000000000, 0.000000000000000000, 1.000000000000000000 ) ) ;
#573 = VERTEX_POINT ( 'NONE', #685 ) ;
#574 = CARTESIAN_POINT ( 'NONE',  ( 2.999999999999976463, -20.46698483988065931, -34.36342652960021837 ) ) ;
#575 = CARTESIAN_POINT ( 'NONE',  ( 2.965312220840456092, -20.52005840101685763, -33.66607004097507883 ) ) ;
#576 = CARTESIAN_POINT ( 'NONE',  ( -2.277572514051875885, -20.08007619703187885, -34.00000000000000000 ) ) ;
#577 = LINE ( 'NONE', #387, #157 ) ;
#578 = ORIENTED_EDGE ( 'NONE', *, *, #890, .T. ) ;
#579 = CARTESIAN_POINT ( 'NONE',  ( -3.000000000000000000, 0.000000000000000000, -32.50000000000000000 ) ) ;
#580 = EDGE_LOOP ( 'NONE', ( #496, #723, #522, #911 ) ) ;
#581 = EDGE_CURVE ( 'NONE', #215, #838, #515, .T. ) ;
#582 = CIRCLE ( 'NONE', #918, 0.6999999999999992895 ) ;
#583 = DIRECTION ( 'NONE',  ( -1.000000000000000000, 0.000000000000000000, 0.000000000000000000 ) ) ;
#584 = CIRCLE ( 'NONE', #996, 0.7000000000000000666 ) ;
#585 = DIRECTION ( 'NONE',  ( -0.000000000000000000, -0.000000000000000000, -1.000000000000000000 ) ) ;
#586 = AXIS2_PLACEMENT_3D ( 'NONE', #30, #572, #1073 ) ;
#587 = EDGE_CURVE ( 'NONE', #250, #215, #690, .T. ) ;
#588 = VERTEX_POINT ( 'NONE', #871 ) ;
#589 = DIRECTION ( 'NONE',  ( 0.000000000000000000, 0.000000000000000000, -1.000000000000000000 ) ) ;
#590 = CARTESIAN_POINT ( 'NONE',  ( -2.299999999999999378, -19.98075937545794289, -34.00000000000000000 ) ) ;
#591 = CARTESIAN_POINT ( 'NONE',  ( 2.205662445660535820, -20.43068070533037783, -34.12862653254089196 ) ) ;
#592 = DIRECTION ( 'NONE',  ( 0.000000000000000000, -1.000000000000000000, 0.000000000000000000 ) ) ;
#593 = ORIENTED_EDGE ( 'NONE', *, *, #432, .F. ) ;
#594 = DIRECTION ( 'NONE',  ( -0.000000000000000000, 0.000000000000000000, -1.000000000000000000 ) ) ;
#595 = DIRECTION ( 'NONE',  ( 0.000000000000000000, -1.000000000000000000, -0.000000000000000000 ) ) ;
#596 = B_SPLINE_CURVE_WITH_KNOTS ( 'NONE', 3,
 ( #142, #43, #575, #927, #129, #1083, #1018, #53 ),
 .UNSPECIFIED., .F., .F.,
 ( 4, 2, 2, 4 ),
 ( 4.336808689942017736E-19, 0.0004025725080544188686, 0.0008051450161088373036, 0.001610290032217690003 ),
 .UNSPECIFIED. ) ;
#597 = CARTESIAN_POINT ( 'NONE',  ( 2.165044894126935127, -20.64523960616864073, -34.31804599957547453 ) ) ;
#598 = DIRECTION ( 'NONE',  ( -1.000000000000000000, 0.000000000000000000, 0.000000000000000000 ) ) ;
#599 = EDGE_CURVE ( 'NONE', #588, #11, #405, .T. ) ;
#600 = ORIENTED_EDGE ( 'NONE', *, *, #310, .F. ) ;
#601 = FACE_OUTER_BOUND ( 'NONE', #384, .T. ) ;
#602 = DIRECTION ( 'NONE',  ( -0.000000000000000000, 0.000000000000000000, 1.000000000000000000 ) ) ;
#603 = CARTESIAN_POINT ( 'NONE',  ( -3.000000000000000000, -21.06377138985338959, -33.77261243075955832 ) ) ;
#604 = AXIS2_PLACEMENT_3D ( 'NONE', #536, #968, #99 ) ;
#605 = CARTESIAN_POINT ( 'NONE',  ( -3.000000000000000000, -20.16237128750797680, -33.30000000000000426 ) ) ;
#606 = CIRCLE ( 'NONE', #94, 10.00000000000000000 ) ;
#607 = CIRCLE ( 'NONE', #483, 9.999999999999996447 ) ;
#608 = ORIENTED_EDGE ( 'NONE', *, *, #105, .T. ) ;
#609 = LINE ( 'NONE', #517, #281 ) ;
#610 = EDGE_CURVE ( 'NONE', #250, #936, #857, .T. ) ;
#611 =( NAMED_UNIT ( * ) SI_UNIT ( $, .STERADIAN. ) SOLID_ANGLE_UNIT ( ) );
#612 = EDGE_CURVE ( 'NONE', #827, #1028, #219, .T. ) ;
#613 = CARTESIAN_POINT ( 'NONE',  ( -3.000000000000040856, -20.54913839301265455, -34.63740346888844357 ) ) ;
#614 = LINE ( 'NONE', #950, #113 ) ;
#615 = ORIENTED_EDGE ( 'NONE', *, *, #454, .T. ) ;
#616 = DIRECTION ( 'NONE',  ( 0.000000000000000000, 0.000000000000000000, 1.000000000000000000 ) ) ;
#617 = CARTESIAN_POINT ( 'NONE',  ( 0.000000000000000000, -7.899999999999997691, -34.49999999999999289 ) ) ;
#618 = CARTESIAN_POINT ( 'NONE',  ( 4.900000000000001243, -2.899999999999990585, -36.50000000000000000 ) ) ;
#619 = LINE ( 'NONE', #863, #902 ) ;
#620 = EDGE_CURVE ( 'NONE', #1028, #997, #777, .T. ) ;
#621 = EDGE_LOOP ( 'NONE', ( #229, #1058, #1115, #311 ) ) ;
#622 = DIRECTION ( 'NONE',  ( 1.000000000000000000, 0.000000000000000000, 0.000000000000000000 ) ) ;
#623 = DIRECTION ( 'NONE',  ( -1.000000000000000000, 0.000000000000000000, 0.000000000000000000 ) ) ;
#624 = FACE_OUTER_BOUND ( 'NONE', #807, .T. ) ;
#625 = CARTESIAN_POINT ( 'NONE',  ( -8.660254037844387298, -15.96965511460289200, 21.57252788819830158 ) ) ;
#626 = VECTOR ( 'NONE', #995, 1000.000000000000000 ) ;
#627 = AXIS2_PLACEMENT_3D ( 'NONE', #15, #370, #1045 ) ;
#628 = DIRECTION ( 'NONE',  ( -4.956352788505162676E-15, 1.000000000000000000, 0.000000000000000000 ) ) ;
#629 = PRODUCT ( '\X2\4e098054\X0\18650\X2\75356c6076d2\X0\_\X2\58f376d6\X0\', '\X2\4e098054\X0\18650\X2\75356c6076d2\X0\_\X2\58f376d6\X0\', '', ( #711 ) ) ;
#630 = EDGE_CURVE ( 'NONE', #183, #801, #326, .T. ) ;
#631 = CARTESIAN_POINT ( 'NONE',  ( 2.299999999999999822, 15.28482755730146359, -33.30000000000000426 ) ) ;
#632 = EDGE_LOOP ( 'NONE', ( #286, #29, #17, #569 ) ) ;
#633 = DIRECTION ( 'NONE',  ( 0.000000000000000000, -0.000000000000000000, 1.000000000000000000 ) ) ;
#634 = ORIENTED_EDGE ( 'NONE', *, *, #1043, .F. ) ;
#635 = ADVANCED_FACE ( 'NONE', ( #423 ), #68, .F. ) ;
#636 = CARTESIAN_POINT ( 'NONE',  ( 2.999999999999990674, -20.50904712877235170, -33.39727565978194690 ) ) ;
#637 = DIRECTION ( 'NONE',  ( -0.4999999999999996114, 0.8660254037844389297, 0.000000000000000000 ) ) ;
#638 = CIRCLE ( 'NONE', #725, 9.999999999999994671 ) ;
#639 = ORIENTED_EDGE ( 'NONE', *, *, #500, .F. ) ;
#640 = CARTESIAN_POINT ( 'NONE',  ( 9.500000000000000000, 5.484827557301462875, -32.50000000000000000 ) ) ;
#641 = AXIS2_PLACEMENT_3D ( 'NONE', #712, #1048, #266 ) ;
#642 = EDGE_CURVE ( 'NONE', #419, #588, #144, .T. ) ;
#643 = AXIS2_PLACEMENT_3D ( 'NONE', #151, #1033, #772 ) ;
#644 = EDGE_CURVE ( 'NONE', #509, #1061, #1020, .T. ) ;
#645 = CARTESIAN_POINT ( 'NONE',  ( 2.030803114957136390, 16.48482755730146110, -32.50000000000000000 ) ) ;
#646 = DIRECTION ( 'NONE',  ( 1.000000000000000000, 0.000000000000000000, 0.000000000000000000 ) ) ;
#647 = ORIENTED_EDGE ( 'NONE', *, *, #713, .F. ) ;
#648 = DIRECTION ( 'NONE',  ( 0.000000000000000000, -0.000000000000000000, -1.000000000000000000 ) ) ;
#649 = DIRECTION ( 'NONE',  ( 1.000000000000000000, -0.000000000000000000, -0.000000000000000000 ) ) ;
#650 = EDGE_CURVE ( 'NONE', #288, #703, #63, .T. ) ;
#651 = VERTEX_POINT ( 'NONE', #160 ) ;
#652 = PLANE ( 'NONE',  #481 ) ;
#653 = CARTESIAN_POINT ( 'NONE',  ( 0.000000000000000000, -7.899999999999997691, -34.49999999999999289 ) ) ;
#654 = ORIENTED_EDGE ( 'NONE', *, *, #24, .T. ) ;
#655 = DIRECTION ( 'NONE',  ( -0.000000000000000000, -0.000000000000000000, -1.000000000000000000 ) ) ;
#656 = ORIENTED_EDGE ( 'NONE', *, *, #894, .F. ) ;
#657 = CARTESIAN_POINT ( 'NONE',  ( -19.50000000000000000, 5.484827557301462875, -36.50000000000000000 ) ) ;
#658 = ORIENTED_EDGE ( 'NONE', *, *, #495, .F. ) ;
#659 = COLOUR_RGB ( '',0.7921568627450980005, 0.8196078431372548767, 0.9333333333333333481 ) ;
#660 = VECTOR ( 'NONE', #228, 1000.000000000000000 ) ;
#661 = CARTESIAN_POINT ( 'NONE',  ( -3.000000000000000000, -20.35462827469677549, -33.33544129639085440 ) ) ;
#662 = CARTESIAN_POINT ( 'NONE',  ( -10.72746596288337528, 15.40920800698006055, -36.50000000000000000 ) ) ;
#663 = ORIENTED_EDGE ( 'NONE', *, *, #148, .F. ) ;
#664 = CARTESIAN_POINT ( 'NONE',  ( 3.000000000000000000, -20.69855923973640444, -33.48243139869770602 ) ) ;
#665 = EDGE_LOOP ( 'NONE', ( #561, #733, #647, #202 ) ) ;
#666 = EDGE_CURVE ( 'NONE', #864, #255, #614, .T. ) ;
#667 = CARTESIAN_POINT ( 'NONE',  ( -3.000000000000000000, -20.28284475661743613, -34.14198454139289396 ) ) ;
#668 = DIRECTION ( 'NONE',  ( -0.9924380449678599225, -0.1227465962883373812, 0.000000000000000000 ) ) ;
#669 = EDGE_CURVE ( 'NONE', #827, #854, #881, .T. ) ;
#670 = ORIENTED_EDGE ( 'NONE', *, *, #1023, .F. ) ;
#671 = CARTESIAN_POINT ( 'NONE',  ( 9.100000000000003197, -2.899999999999990585, -34.49999999999999289 ) ) ;
#672 = VERTEX_POINT ( 'NONE', #724 ) ;
#673 = DIRECTION ( 'NONE',  ( 1.000000000000000000, 0.000000000000000000, 0.000000000000000000 ) ) ;
#674 = ORIENTED_EDGE ( 'NONE', *, *, #650, .F. ) ;
#675 = LINE ( 'NONE', #831, #993 ) ;
#676 = VERTEX_POINT ( 'NONE', #1131 ) ;
#677 = CARTESIAN_POINT ( 'NONE',  ( -3.000000000000000444, -21.41947048620170335, -34.71333305150146487 ) ) ;
#678 = VECTOR ( 'NONE', #655, 1000.000000000000000 ) ;
#679 = CARTESIAN_POINT ( 'NONE',  ( -2.221898433907990800, -20.34750737415923894, -34.08030328880135329 ) ) ;
#680 = VECTOR ( 'NONE', #673, 1000.000000000000000 ) ;
#681 = ORIENTED_EDGE ( 'NONE', *, *, #1106, .F. ) ;
#682 = CARTESIAN_POINT ( 'NONE',  ( 2.999999999999963585, -20.54058455513569470, -34.56910066808043780 ) ) ;
#683 = ORIENTED_EDGE ( 'NONE', *, *, #212, .F. ) ;
#684 = CARTESIAN_POINT ( 'NONE',  ( -3.000000000000000000, -19.98075937545794645, -33.30000000000000426 ) ) ;
#685 = CARTESIAN_POINT ( 'NONE',  ( -9.100000000000004974, -2.899999999999992362, -34.49999999999999289 ) ) ;
#686 = ORIENTED_EDGE ( 'NONE', *, *, #669, .T. ) ;
#687 = DIRECTION ( 'NONE',  ( -0.000000000000000000, 1.000000000000000000, 0.000000000000000000 ) ) ;
#688 = CARTESIAN_POINT ( 'NONE',  ( -9.100000000000004974, -13.09999999999999432, -34.49999999999999289 ) ) ;
#689 = CARTESIAN_POINT ( 'NONE',  ( 13.41025403784438375, -7.742413778650709233, -32.50000000000000000 ) ) ;
#690 = LINE ( 'NONE', #169, #411 ) ;
#691 = ORIENTED_EDGE ( 'NONE', *, *, #118, .T. ) ;
#692 = FACE_OUTER_BOUND ( 'NONE', #1021, .T. ) ;
#693 = ADVANCED_FACE ( 'NONE', ( #884 ), #876, .T. ) ;
#694 = CARTESIAN_POINT ( 'NONE',  ( 0.000000000000000000, -10.96965511460289910, -36.50000000000000000 ) ) ;
#695 = CARTESIAN_POINT ( 'NONE',  ( -3.000000000000000444, -21.38391703313473968, -34.33857933656533135 ) ) ;
#696 = CARTESIAN_POINT ( 'NONE',  ( -9.500000000000000000, 5.484827557301462875, 21.57252788819830158 ) ) ;
#697 = VECTOR ( 'NONE', #518, 1000.000000000000000 ) ;
#698 = AXIS2_PLACEMENT_3D ( 'NONE', #391, #741, #753 ) ;
#699 = CARTESIAN_POINT ( 'NONE',  ( 2.299999999999999822, -19.98075937545794645, -33.30000000000000426 ) ) ;
#700 = DIRECTION ( 'NONE',  ( -1.734723475976808080E-16, 0.000000000000000000, -1.000000000000000000 ) ) ;
#701 = EDGE_LOOP ( 'NONE', ( #298, #529, #81, #442 ) ) ;
#702 = CARTESIAN_POINT ( 'NONE',  ( 10.72746596288336818, 15.40920800698005699, -32.50000000000000000 ) ) ;
#703 = VERTEX_POINT ( 'NONE', #10 ) ;
#704 = DIRECTION ( 'NONE',  ( 1.000000000000000000, 0.000000000000000000, 0.000000000000000000 ) ) ;
#705 = CARTESIAN_POINT ( 'NONE',  ( -13.41025403784438730, -7.742413778650714562, -32.50000000000000000 ) ) ;
#706 = CARTESIAN_POINT ( 'NONE',  ( 3.000000000000000000, -20.16282587392566583, -33.30000000000000426 ) ) ;
#707 = FACE_OUTER_BOUND ( 'NONE', #49, .T. ) ;
#708 = ORIENTED_EDGE ( 'NONE', *, *, #1051, .F. ) ;
#709 = DIRECTION ( 'NONE',  ( 1.000000000000000000, 0.000000000000000000, -0.000000000000000000 ) ) ;
#710 = PLANE ( 'NONE',  #832 ) ;
#711 = PRODUCT_CONTEXT ( 'NONE', #511, 'mechanical' ) ;
#712 = CARTESIAN_POINT ( 'NONE',  ( 0.000000000000000000, 0.000000000000000000, -32.50000000000000000 ) ) ;
#713 = EDGE_CURVE ( 'NONE', #11, #1028, #584, .T. ) ;
#714 = VECTOR ( 'NONE', #1125, 1000.000000000000000 ) ;
#715 = CARTESIAN_POINT ( 'NONE',  ( -4.900000000000001243, -7.899999999999997691, -34.49999999999999289 ) ) ;
#716 = ADVANCED_FACE ( 'NONE', ( #707 ), #1065, .T. ) ;
#717 = ORIENTED_EDGE ( 'NONE', *, *, #192, .F. ) ;
#718 = FACE_OUTER_BOUND ( 'NONE', #526, .T. ) ;
#719 = ORIENTED_EDGE ( 'NONE', *, *, #610, .F. ) ;
#720 = SHAPE_DEFINITION_REPRESENTATION ( #444, #1067 ) ;
#721 = CARTESIAN_POINT ( 'NONE',  ( -2.299999999999999822, -19.98075937545794289, -33.30000000000000426 ) ) ;
#722 = ORIENTED_EDGE ( 'NONE', *, *, #554, .T. ) ;
#723 = ORIENTED_EDGE ( 'NONE', *, *, #513, .T. ) ;
#724 = CARTESIAN_POINT ( 'NONE',  ( -10.72746596288337528, 15.40920800698006055, -32.50000000000000000 ) ) ;
#725 = AXIS2_PLACEMENT_3D ( 'NONE', #694, #602, #334 ) ;
#726 = CARTESIAN_POINT ( 'NONE',  ( -4.900000000000001243, 0.000000000000000000, -34.49999999999999289 ) ) ;
#727 = VECTOR ( 'NONE', #283, 1000.000000000000000 ) ;
#728 = ORIENTED_EDGE ( 'NONE', *, *, #487, .T. ) ;
#729 = VECTOR ( 'NONE', #971, 1000.000000000000000 ) ;
#730 = EDGE_CURVE ( 'NONE', #396, #651, #607, .T. ) ;
#731 = CARTESIAN_POINT ( 'NONE',  ( 2.030803114957136390, 16.48482755730146110, 21.57252788819830158 ) ) ;
#732 = FACE_OUTER_BOUND ( 'NONE', #822, .T. ) ;
#733 = ORIENTED_EDGE ( 'NONE', *, *, #620, .F. ) ;
#734 = CARTESIAN_POINT ( 'NONE',  ( 9.500000000000000000, 5.484827557301462875, 21.57252788819830158 ) ) ;
#735 = VERTEX_POINT ( 'NONE', #446 ) ;
#736 = CARTESIAN_POINT ( 'NONE',  ( -3.000000000000000000, -20.61586119884388069, -33.43976738855221953 ) ) ;
#737 = DIRECTION ( 'NONE',  ( 0.000000000000000000, 0.000000000000000000, 1.000000000000000000 ) ) ;
#738 = VERTEX_POINT ( 'NONE', #966 ) ;
#739 = CARTESIAN_POINT ( 'NONE',  ( 3.000000000000000444, -20.54869626175621633, -34.70484125915945128 ) ) ;
#740 = ORIENTED_EDGE ( 'NONE', *, *, #475, .T. ) ;
#741 = DIRECTION ( 'NONE',  ( -1.000000000000000000, -0.000000000000000000, 0.000000000000000000 ) ) ;
#742 = LINE ( 'NONE', #754, #566 ) ;
#743 = ORIENTED_EDGE ( 'NONE', *, *, #610, .T. ) ;
#744 = EDGE_CURVE ( 'NONE', #809, #854, #303, .T. ) ;
#745 = CARTESIAN_POINT ( 'NONE',  ( 3.000000000000000000, -20.92978940404912436, -33.64265829009151076 ) ) ;
#746 = VERTEX_POINT ( 'NONE', #715 ) ;
#747 = AXIS2_PLACEMENT_3D ( 'NONE', #306, #1077, #324 ) ;
#748 = VECTOR ( 'NONE', #991, 1000.000000000000000 ) ;
#749 = CARTESIAN_POINT ( 'NONE',  ( 3.000000000000000000, 15.28482755730146359, -32.50000000000000000 ) ) ;
#750 = ORIENTED_EDGE ( 'NONE', *, *, #554, .F. ) ;
#751 = CARTESIAN_POINT ( 'NONE',  ( 2.219752960244584461, -20.35939134027800179, -34.09121570019572545 ) ) ;
#752 = VERTEX_POINT ( 'NONE', #178 ) ;
#753 = DIRECTION ( 'NONE',  ( 0.000000000000000000, 0.000000000000000000, -1.000000000000000000 ) ) ;
#754 = CARTESIAN_POINT ( 'NONE',  ( 3.000000000000000444, 15.98482755730146110, -33.30000000000000426 ) ) ;
#755 = ORIENTED_EDGE ( 'NONE', *, *, #238, .T. ) ;
#756 = CARTESIAN_POINT ( 'NONE',  ( 3.000000000000000000, -20.35462827469676128, -33.33544129639084019 ) ) ;
#757 = ORIENTED_EDGE ( 'NONE', *, *, #252, .F. ) ;
#758 = FACE_OUTER_BOUND ( 'NONE', #489, .T. ) ;
#759 = DIRECTION ( 'NONE',  ( -0.000000000000000000, -1.000000000000000000, 0.000000000000000000 ) ) ;
#760 = ORIENTED_EDGE ( 'NONE', *, *, #1031, .T. ) ;
#761 = CARTESIAN_POINT ( 'NONE',  ( 3.000000000000016875, -20.49868080994116681, -34.43179699227798807 ) ) ;
#762 = ORIENTED_EDGE ( 'NONE', *, *, #948, .F. ) ;
#763 = AXIS2_PLACEMENT_3D ( 'NONE', #734, #796, #363 ) ;
#764 = CARTESIAN_POINT ( 'NONE',  ( -2.999999999999857447, -20.44816179443785131, -34.32990129981357086 ) ) ;
#765 = B_SPLINE_CURVE_WITH_KNOTS ( 'NONE', 3,
 ( #14, #706, #369, #636 ),
 .UNSPECIFIED., .F., .F.,
 ( 4, 4 ),
 ( 0.000000000000000000, 0.0005371689718217123816 ),
 .UNSPECIFIED. ) ;
#766 = ADVANCED_FACE ( 'NONE', ( #540 ), #537, .F. ) ;
#767 = DIRECTION ( 'NONE',  ( -0.000000000000000000, -0.000000000000000000, -1.000000000000000000 ) ) ;
#768 = B_SPLINE_CURVE_WITH_KNOTS ( 'NONE', 3,
 ( #381, #568, #201, #679, #1116, #1040, #165, #782 ),
 .UNSPECIFIED., .F., .F.,
 ( 4, 2, 2, 4 ),
 ( 0.000000000000000000, 0.0002878361944100247811, 0.0005756723888200495623, 0.001151344777640104979 ),
 .UNSPECIFIED. ) ;
#769 = ORIENTED_EDGE ( 'NONE', *, *, #783, .T. ) ;
#770 = DIRECTION ( 'NONE',  ( -1.000000000000000000, 0.000000000000000000, 0.000000000000000000 ) ) ;
#771 = DIRECTION ( 'NONE',  ( 1.000000000000000000, 0.000000000000000000, -0.000000000000000000 ) ) ;
#772 = DIRECTION ( 'NONE',  ( 1.000000000000000000, 0.000000000000000000, 0.000000000000000000 ) ) ;
#773 = FACE_OUTER_BOUND ( 'NONE', #474, .T. ) ;
#774 = ORIENTED_EDGE ( 'NONE', *, *, #520, .F. ) ;
#775 = LINE ( 'NONE', #350, #221 ) ;
#776 = CARTESIAN_POINT ( 'NONE',  ( 2.300000000000010036, 15.98482755730146110, -90.57252788819830869 ) ) ;
#777 = LINE ( 'NONE', #1096, #714 ) ;
#778 = CYLINDRICAL_SURFACE ( 'NONE', #1049, 9.999999999999994671 ) ;
#779 = CARTESIAN_POINT ( 'NONE',  ( 0.000000000000000000, -13.09999999999999432, -34.49999999999999289 ) ) ;
#780 = CYLINDRICAL_SURFACE ( 'NONE', #435, 0.7000000000000000666 ) ;
#781 = CIRCLE ( 'NONE', #279, 0.7000000000000000666 ) ;
#782 = CARTESIAN_POINT ( 'NONE',  ( -2.149532710280373848, -20.73589846235102740, -34.70000000000000284 ) ) ;
#783 = EDGE_CURVE ( 'NONE', #134, #137, #974, .T. ) ;
#784 = VECTOR ( 'NONE', #767, 1000.000000000000000 ) ;
#785 = ORIENTED_EDGE ( 'NONE', *, *, #845, .F. ) ;
#786 = CARTESIAN_POINT ( 'NONE',  ( -2.299999999999999378, 15.98482755730146110, -32.50000000000000000 ) ) ;
#787 = EDGE_CURVE ( 'NONE', #1086, #552, #20, .T. ) ;
#788 = DIRECTION ( 'NONE',  ( 1.000000000000000000, 0.000000000000000000, 1.734723475976808080E-16 ) ) ;
#789 = ORIENTED_EDGE ( 'NONE', *, *, #100, .T. ) ;
#790 = CARTESIAN_POINT ( 'NONE',  ( -2.030803114957182576, 16.48482755730146110, -32.50000000000000000 ) ) ;
#791 = CARTESIAN_POINT ( 'NONE',  ( 4.900000000000001243, -2.899999999999990585, -34.49999999999999289 ) ) ;
#792 = CARTESIAN_POINT ( 'NONE',  ( -2.299999999999999822, 15.28482755730146359, -33.30000000000000426 ) ) ;
#793 = ADVANCED_FACE ( 'NONE', ( #186 ), #87, .F. ) ;
#794 = FACE_OUTER_BOUND ( 'NONE', #564, .T. ) ;
#795 = ORIENTED_EDGE ( 'NONE', *, *, #988, .T. ) ;
#796 = DIRECTION ( 'NONE',  ( -0.000000000000000000, -0.000000000000000000, -1.000000000000000000 ) ) ;
#797 = CARTESIAN_POINT ( 'NONE',  ( -2.999999999999990674, -20.50904712877235170, 21.57252788819830158 ) ) ;
#798 = AXIS2_PLACEMENT_3D ( 'NONE', #13, #976, #633 ) ;
#799 = AXIS2_PLACEMENT_3D ( 'NONE', #898, #313, #737 ) ;
#800 = FACE_BOUND ( 'NONE', #292, .T. ) ;
#801 = VERTEX_POINT ( 'NONE', #441 ) ;
#802 = CARTESIAN_POINT ( 'NONE',  ( -9.500000000000000000, 5.484827557301462875, -32.50000000000000000 ) ) ;
#803 = ADVANCED_FACE ( 'NONE', ( #456 ), #806, .F. ) ;
#804 = EDGE_LOOP ( 'NONE', ( #785, #153, #728, #994 ) ) ;
#805 = PLANE ( 'NONE',  #200 ) ;
#806 = CYLINDRICAL_SURFACE ( 'NONE', #627, 0.6999999999999992895 ) ;
#807 = EDGE_LOOP ( 'NONE', ( #1001, #412, #760, #331 ) ) ;
#808 = CARTESIAN_POINT ( 'NONE',  ( 9.500000000000000000, 5.484827557301462875, -36.50000000000000000 ) ) ;
#809 = VERTEX_POINT ( 'NONE', #260 ) ;
#810 = CARTESIAN_POINT ( 'NONE',  ( -19.50000000000000000, 5.484827557301462875, 21.57252788819830158 ) ) ;
#811 = VERTEX_POINT ( 'NONE', #645 ) ;
#812 = PRODUCT_DEFINITION_FORMATION_WITH_SPECIFIED_SOURCE ( 'ANY', '', #629, .NOT_KNOWN. ) ;
#813 = AXIS2_PLACEMENT_3D ( 'NONE', #1133, #154, #622 ) ;
#814 = DIRECTION ( 'NONE',  ( -1.000000000000000000, 0.000000000000000000, 0.000000000000000000 ) ) ;
#815 = VECTOR ( 'NONE', #291, 1000.000000000000000 ) ;
#816 = ORIENTED_EDGE ( 'NONE', *, *, #205, .F. ) ;
#817 = VECTOR ( 'NONE', #497, 1000.000000000000000 ) ;
#818 = LINE ( 'NONE', #119, #1013 ) ;
#819 = LINE ( 'NONE', #26, #748 ) ;
#820 = ORIENTED_EDGE ( 'NONE', *, *, #845, .T. ) ;
#821 = CARTESIAN_POINT ( 'NONE',  ( 2.162841869122477334, -20.66088429960704431, -34.39063949246752827 ) ) ;
#822 = EDGE_LOOP ( 'NONE', ( #750, #895, #486, #1016 ) ) ;
#823 = DIRECTION ( 'NONE',  ( -0.000000000000000000, 0.000000000000000000, 1.000000000000000000 ) ) ;
#824 = DIRECTION ( 'NONE',  ( -0.8660254037844389297, 0.4999999999999995004, 0.000000000000000000 ) ) ;
#825 = ORIENTED_EDGE ( 'NONE', *, *, #454, .F. ) ;
#826 = CARTESIAN_POINT ( 'NONE',  ( 3.000000000000000000, -19.98075937545794289, -34.00000000000000000 ) ) ;
#827 = VERTEX_POINT ( 'NONE', #978 ) ;
#828 = DIRECTION ( 'NONE',  ( 1.000000000000000000, 0.000000000000000000, 0.000000000000000000 ) ) ;
#829 = CARTESIAN_POINT ( 'NONE',  ( 2.300000000000000266, 15.28482755730146359, -34.00000000000000000 ) ) ;
#830 = EDGE_LOOP ( 'NONE', ( #743, #691, #844, #161, #949, #429, #795, #930 ) ) ;
#831 = CARTESIAN_POINT ( 'NONE',  ( -2.300000000000010036, 15.98482755730146110, -90.57252788819830869 ) ) ;
#832 = AXIS2_PLACEMENT_3D ( 'NONE', #340, #957, #345 ) ;
#833 = LINE ( 'NONE', #1011, #899 ) ;
#834 = PRESENTATION_LAYER_ASSIGNMENT (  '', '', ( #1100 ) ) ;
#835 = AXIS2_PLACEMENT_3D ( 'NONE', #91, #175, #436 ) ;
#836 = CARTESIAN_POINT ( 'NONE',  ( -2.228415109094632918, -20.31598860233912518, -34.06988369533679872 ) ) ;
#837 = CARTESIAN_POINT ( 'NONE',  ( 0.000000000000000000, -2.899999999999992362, -36.50000000000000000 ) ) ;
#838 = VERTEX_POINT ( 'NONE', #191 ) ;
#839 = CARTESIAN_POINT ( 'NONE',  ( 3.000000000000000444, -21.27540411891159522, -34.08127898505625808 ) ) ;
#840 = ORIENTED_EDGE ( 'NONE', *, *, #105, .F. ) ;
#841 = CARTESIAN_POINT ( 'NONE',  ( -3.000000000000000444, -21.12385867219200719, -33.84362679831088627 ) ) ;
#842 = DIRECTION ( 'NONE',  ( 0.000000000000000000, -1.000000000000000000, 0.000000000000000000 ) ) ;
#843 = CARTESIAN_POINT ( 'NONE',  ( 3.000000000000000000, -19.98075937545794645, -33.30000000000000426 ) ) ;
#844 = ORIENTED_EDGE ( 'NONE', *, *, #252, .T. ) ;
#845 = EDGE_CURVE ( 'NONE', #809, #864, #553, .T. ) ;
#846 = CARTESIAN_POINT ( 'NONE',  ( 0.000000000000000000, -7.899999999999997691, -36.50000000000000000 ) ) ;
#847 = CARTESIAN_POINT ( 'NONE',  ( 2.299999999999999822, -20.96965511460289378, -33.30000000000000426 ) ) ;
#848 = ORIENTED_EDGE ( 'NONE', *, *, #1046, .F. ) ;
#849 = CARTESIAN_POINT ( 'NONE',  ( -4.900000000000001243, -2.899999999999992362, -36.50000000000000000 ) ) ;
#850 = ADVANCED_FACE ( 'NONE', ( #794 ), #354, .T. ) ;
#851 = LINE ( 'NONE', #524, #1121 ) ;
#852 = CARTESIAN_POINT ( 'NONE',  ( 2.149532710280373848, -20.73589846235102740, -34.70000000000000284 ) ) ;
#853 = CARTESIAN_POINT ( 'NONE',  ( 4.900000000000001243, -7.899999999999997691, -34.49999999999999289 ) ) ;
#854 = VERTEX_POINT ( 'NONE', #1002 ) ;
#855 = DIRECTION ( 'NONE',  ( -0.000000000000000000, -0.000000000000000000, -1.000000000000000000 ) ) ;
#856 = LINE ( 'NONE', #67, #225 ) ;
#857 = LINE ( 'NONE', #336, #920 ) ;
#858 = ORIENTED_EDGE ( 'NONE', *, *, #1031, .F. ) ;
#859 = FACE_OUTER_BOUND ( 'NONE', #830, .T. ) ;
#860 = DIRECTION ( 'NONE',  ( -0.000000000000000000, 0.000000000000000000, 1.000000000000000000 ) ) ;
#861 = EDGE_CURVE ( 'NONE', #999, #288, #18, .T. ) ;
#862 = DIRECTION ( 'NONE',  ( -1.734723475976808080E-16, 0.000000000000000000, 1.000000000000000000 ) ) ;
#863 = CARTESIAN_POINT ( 'NONE',  ( 2.299999999999999822, -20.96965511460289378, -34.00000000000000000 ) ) ;
#864 = VERTEX_POINT ( 'NONE', #482 ) ;
#865 = PLANE ( 'NONE',  #1064 ) ;
#866 = LINE ( 'NONE', #791, #939 ) ;
#867 =( BOUNDED_SURFACE ( )  B_SPLINE_SURFACE ( 3, 2, ( 
 ( #843, #826, #389 ),
 ( #402, #305, #41 ),
 ( #756, #1093, #128 ),
 ( #907, #926, #322 ),
 ( #664, #397, #751 ),
 ( #135, #210, #116 ),
 ( #745, #570, #473 ),
 ( #1087, #407, #1009 ),
 ( #224, #574, #141 ),
 ( #52, #761, #912 ),
 ( #839, #478, #821 ),
 ( #28, #682, #309 ),
 ( #1098, #488, #1017 ),
 ( #383, #739, #1076 ) ),
 .UNSPECIFIED., .F., .F., .F. ) 
 B_SPLINE_SURFACE_WITH_KNOTS ( ( 4, 2, 2, 2, 2, 2, 4 ),
 ( 3, 3 ),
 ( 0.004613957212798150756, 0.005172349409311282481, 0.005451545507567848343, 0.005730741605824414206, 0.006009937704080980068, 0.006289133802337545931, 0.006847525998850678523 ),
 ( 0.000000000000000000, 1.000000000000000000 ),
 .UNSPECIFIED. ) 
 GEOMETRIC_REPRESENTATION_ITEM ( )  RATIONAL_B_SPLINE_SURFACE ( (
 ( 1.000000000000000000, 0.7071067811865471286, 1.000000000000000000),
 ( 1.000000000000000000, 0.6957750951348885549, 1.000000000000000000),
 ( 1.000000000000000000, 0.6848633421824460443, 1.000000000000000000),
 ( 1.000000000000000000, 0.6699944031853823923, 1.000000000000000000),
 ( 1.000000000000000000, 0.6653567053648006269, 1.000000000000000000),
 ( 1.000000000000000000, 0.6566712019122478150, 1.000000000000000000),
 ( 1.000000000000000000, 0.6525910959984122517, 1.000000000000000000),
 ( 1.000000000000000000, 0.6453284529924832036, 1.000000000000000000),
 ( 1.000000000000000000, 0.6421077070648328888, 1.000000000000000000),
 ( 1.000000000000000000, 0.6364627643993796546, 1.000000000000000000),
 ( 1.000000000000000000, 0.6340611318585054335, 1.000000000000000000),
 ( 1.000000000000000000, 0.6283591512358749354, 1.000000000000000000),
 ( 1.000000000000000000, 0.6264064533607975882, 1.000000000000000000),
 ( 1.000000000000000000, 0.6265202318385305613, 1.000000000000000000) ) ) 
 REPRESENTATION_ITEM ( '' )  SURFACE ( )  );
#868 = CARTESIAN_POINT ( 'NONE',  ( 4.900000000000001243, -7.899999999999997691, -36.50000000000000000 ) ) ;
#869 = CLOSED_SHELL ( 'NONE', ( #1109, #371, #850, #179, #418, #206, #457, #282, #563, #766, #693, #268, #793, #31, #469, #346, #166, #503, #97, #150, #54, #940, #932, #276, #716, #979, #125, #1060, #145, #635, #261, #333, #803, #977 ) ) ;
#870 = ORIENTED_EDGE ( 'NONE', *, *, #59, .T. ) ;
#871 = CARTESIAN_POINT ( 'NONE',  ( -2.299999999999999822, 15.28482755730146359, -34.00000000000000000 ) ) ;
#872 = CIRCLE ( 'NONE', #485, 10.00000000000000000 ) ;
#873 = AXIS2_PLACEMENT_3D ( 'NONE', #792, #958, #174 ) ;
#874 = FACE_OUTER_BOUND ( 'NONE', #315, .T. ) ;
#875 = DIRECTION ( 'NONE',  ( -0.000000000000000000, -0.000000000000000000, -1.000000000000000000 ) ) ;
#876 = PLANE ( 'NONE',  #835 ) ;
#877 = ORIENTED_EDGE ( 'NONE', *, *, #520, .T. ) ;
#878 = CYLINDRICAL_SURFACE ( 'NONE', #763, 9.999999999999994671 ) ;
#879 = EDGE_CURVE ( 'NONE', #735, #588, #222, .T. ) ;
#880 = CARTESIAN_POINT ( 'NONE',  ( -9.100000000000004974, -2.899999999999992362, -34.49999999999999289 ) ) ;
#881 = LINE ( 'NONE', #797, #727 ) ;
#882 = FACE_OUTER_BOUND ( 'NONE', #891, .T. ) ;
#883 = DIRECTION ( 'NONE',  ( -0.000000000000000000, -0.000000000000000000, -1.000000000000000000 ) ) ;
#884 = FACE_OUTER_BOUND ( 'NONE', #621, .T. ) ;
#885 = AXIS2_PLACEMENT_3D ( 'NONE', #1062, #180, #982 ) ;
#886 = VECTOR ( 'NONE', #598, 1000.000000000000000 ) ;
#887 = CARTESIAN_POINT ( 'NONE',  ( -2.999999999999994227, 15.28482755730146359, 5.204170427930414381E-16 ) ) ;
#888 = ORIENTED_EDGE ( 'NONE', *, *, #115, .F. ) ;
#889 = CARTESIAN_POINT ( 'NONE',  ( -2.038752742121661576, 16.48384433252370229, 21.57252788819830158 ) ) ;
#890 = EDGE_CURVE ( 'NONE', #403, #242, #872, .T. ) ;
#891 = EDGE_LOOP ( 'NONE', ( #236, #1050, #955, #825, #103, #209, #858, #267, #217 ) ) ;
#892 = DIRECTION ( 'NONE',  ( 0.000000000000000000, 0.000000000000000000, 1.000000000000000000 ) ) ;
#893 = ORIENTED_EDGE ( 'NONE', *, *, #243, .F. ) ;
#894 = EDGE_CURVE ( 'NONE', #183, #906, #1124, .T. ) ;
#895 = ORIENTED_EDGE ( 'NONE', *, *, #259, .T. ) ;
#896 = DIRECTION ( 'NONE',  ( -0.9924380449678599225, -0.1227465962883373812, 0.000000000000000000 ) ) ;
#897 = ORIENTED_EDGE ( 'NONE', *, *, #642, .T. ) ;
#898 = CARTESIAN_POINT ( 'NONE',  ( 4.900000000000001243, 0.000000000000000000, -34.49999999999999289 ) ) ;
#899 = VECTOR ( 'NONE', #908, 1000.000000000000000 ) ;
#900 = ORIENTED_EDGE ( 'NONE', *, *, #1127, .F. ) ;
#901 = LINE ( 'NONE', #562, #1032 ) ;
#902 = VECTOR ( 'NONE', #954, 1000.000000000000000 ) ;
#903 = ORIENTED_EDGE ( 'NONE', *, *, #630, .F. ) ;
#904 = CARTESIAN_POINT ( 'NONE',  ( -3.000000000000000000, -20.31629764419504625, -34.17050206345935948 ) ) ;
#905 = PLANE ( 'NONE',  #42 ) ;
#906 = VERTEX_POINT ( 'NONE', #386 ) ;
#907 = CARTESIAN_POINT ( 'NONE',  ( 3.000000000000000000, -20.61586119884385582, -33.43976738855220532 ) ) ;
#908 = DIRECTION ( 'NONE',  ( 1.734723475976808080E-16, -0.000000000000000000, -1.000000000000000000 ) ) ;
#909 = CARTESIAN_POINT ( 'NONE',  ( 9.100000000000003197, -13.09999999999999432, -34.49999999999999289 ) ) ;
#910 = DIRECTION ( 'NONE',  ( 0.1227465962883371453, 0.9924380449678599225, -0.000000000000000000 ) ) ;
#911 = ORIENTED_EDGE ( 'NONE', *, *, #455, .F. ) ;
#912 = CARTESIAN_POINT ( 'NONE',  ( 2.167107637944929444, -20.63717182424908003, -34.34901447907775207 ) ) ;
#913 = ORIENTED_EDGE ( 'NONE', *, *, #265, .T. ) ;
#914 = CARTESIAN_POINT ( 'NONE',  ( -3.000000000000000000, -20.85521795965548009, -33.58349737401452728 ) ) ;
#915 = DIRECTION ( 'NONE',  ( 1.000000000000000000, 0.000000000000000000, 0.000000000000000000 ) ) ;
#916 = VERTEX_POINT ( 'NONE', #374 ) ;
#917 = CARTESIAN_POINT ( 'NONE',  ( -9.100000000000004974, 0.000000000000000000, -34.49999999999999289 ) ) ;
#918 = AXIS2_PLACEMENT_3D ( 'NONE', #297, #687, #256 ) ;
#919 = ORIENTED_EDGE ( 'NONE', *, *, #24, .F. ) ;
#920 = VECTOR ( 'NONE', #1026, 1000.000000000000000 ) ;
#921 = CIRCLE ( 'NONE', #873, 0.6999999999999992895 ) ;
#922 = CARTESIAN_POINT ( 'NONE',  ( 2.221898433907990356, -20.34750737415922828, -34.08030328880133908 ) ) ;
#923 = DIRECTION ( 'NONE',  ( 0.000000000000000000, -0.000000000000000000, -1.000000000000000000 ) ) ;
#924 = ORIENTED_EDGE ( 'NONE', *, *, #599, .T. ) ;
#925 = EDGE_CURVE ( 'NONE', #811, #1004, #984, .T. ) ;
#926 = CARTESIAN_POINT ( 'NONE',  ( 3.000000000000000000, -20.28284475661742192, -34.14198454139256000 ) ) ;
#927 = CARTESIAN_POINT ( 'NONE',  ( 2.855736881980344588, -20.55339375675655944, -33.90940422862315984 ) ) ;
#928 = CARTESIAN_POINT ( 'NONE',  ( -4.900000000000001243, -7.899999999999997691, -34.49999999999999289 ) ) ;
#929 = DIRECTION ( 'NONE',  ( 0.000000000000000000, 1.000000000000000000, 0.000000000000000000 ) ) ;
#930 = ORIENTED_EDGE ( 'NONE', *, *, #385, .T. ) ;
#931 = LINE ( 'NONE', #1029, #462 ) ;
#932 = ADVANCED_FACE ( 'NONE', ( #289 ), #104, .F. ) ;
#933 = ORIENTED_EDGE ( 'NONE', *, *, #230, .F. ) ;
#934 = CARTESIAN_POINT ( 'NONE',  ( -2.183009875774282627, -20.55052361686847107, -34.23630621586658407 ) ) ;
#935 = CARTESIAN_POINT ( 'NONE',  ( -10.72746596288337528, 15.40920800698006055, 21.57252788819830158 ) ) ;
#936 = VERTEX_POINT ( 'NONE', #909 ) ;
#937 = CARTESIAN_POINT ( 'NONE',  ( -13.41025403784438730, -7.742413778650714562, 21.57252788819830158 ) ) ;
#938 = CIRCLE ( 'NONE', #604, 0.7000000000000000666 ) ;
#939 = VECTOR ( 'NONE', #875, 1000.000000000000000 ) ;
#940 = ADVANCED_FACE ( 'NONE', ( #194 ), #294, .F. ) ;
#941 = CARTESIAN_POINT ( 'NONE',  ( -3.000000000000159428, -20.49868080994100339, -34.43179699227832913 ) ) ;
#942 = VECTOR ( 'NONE', #254, 1000.000000000000000 ) ;
#943 = DIRECTION ( 'NONE',  ( 0.000000000000000000, -1.000000000000000000, 0.000000000000000000 ) ) ;
#944 = DIRECTION ( 'NONE',  ( 0.000000000000000000, 1.000000000000000000, 0.000000000000000000 ) ) ;
#945 = EDGE_CURVE ( 'NONE', #1086, #242, #459, .T. ) ;
#946 = DIRECTION ( 'NONE',  ( 0.000000000000000000, -4.956352788505168198E-15, 1.000000000000000000 ) ) ;
#947 = CARTESIAN_POINT ( 'NONE',  ( -3.000000000000000444, -21.27540411891161298, -34.08127898505630782 ) ) ;
#948 = EDGE_CURVE ( 'NONE', #746, #509, #130, .T. ) ;
#949 = ORIENTED_EDGE ( 'NONE', *, *, #148, .T. ) ;
#950 = CARTESIAN_POINT ( 'NONE',  ( -13.41025403784438730, -7.742413778650714562, -36.50000000000000000 ) ) ;
#951 = VERTEX_POINT ( 'NONE', #559 ) ;
#952 = DIRECTION ( 'NONE',  ( 0.000000000000000000, 0.000000000000000000, -1.000000000000000000 ) ) ;
#953 = DIRECTION ( 'NONE',  ( 0.000000000000000000, 1.000000000000000000, 0.000000000000000000 ) ) ;
#954 = DIRECTION ( 'NONE',  ( 0.000000000000000000, 1.000000000000000000, 0.000000000000000000 ) ) ;
#955 = ORIENTED_EDGE ( 'NONE', *, *, #730, .F. ) ;
#956 = PLANE ( 'NONE',  #185 ) ;
#957 = DIRECTION ( 'NONE',  ( 0.000000000000000000, 1.000000000000000000, 0.000000000000000000 ) ) ;
#958 = DIRECTION ( 'NONE',  ( 0.000000000000000000, 1.000000000000000000, 0.000000000000000000 ) ) ;
#959 = EDGE_CURVE ( 'NONE', #550, #403, #818, .T. ) ;
#960 = VECTOR ( 'NONE', #595, 1000.000000000000000 ) ;
#961 = DIRECTION ( 'NONE',  ( -0.000000000000000000, -0.000000000000000000, -1.000000000000000000 ) ) ;
#962 = VECTOR ( 'NONE', #355, 1000.000000000000000 ) ;
#963 = VECTOR ( 'NONE', #379, 1000.000000000000000 ) ;
#964 = PRESENTATION_STYLE_ASSIGNMENT (( #156 ) ) ;
#965 = CYLINDRICAL_SURFACE ( 'NONE', #528, 10.00000000000000000 ) ;
#966 = CARTESIAN_POINT ( 'NONE',  ( 8.660254037844383745, -15.96965511460289200, -36.50000000000000000 ) ) ;
#967 = SPHERICAL_SURFACE ( 'NONE', #885, 0.6999999999999999556 ) ;
#968 = DIRECTION ( 'NONE',  ( 0.000000000000000000, -0.000000000000000000, -1.000000000000000000 ) ) ;
#969 = DIRECTION ( 'NONE',  ( 1.000000000000000000, 0.000000000000000000, 0.000000000000000000 ) ) ;
#970 = FACE_OUTER_BOUND ( 'NONE', #580, .T. ) ;
#971 = DIRECTION ( 'NONE',  ( -0.000000000000000000, -0.000000000000000000, -1.000000000000000000 ) ) ;
#972 = DIRECTION ( 'NONE',  ( 1.000000000000000000, 0.000000000000000000, 0.000000000000000000 ) ) ;
#973 = CIRCLE ( 'NONE', #531, 0.6999999999999992895 ) ;
#974 = CIRCLE ( 'NONE', #1082, 0.7000000000000000666 ) ;
#975 = ORIENTED_EDGE ( 'NONE', *, *, #713, .T. ) ;
#976 = DIRECTION ( 'NONE',  ( 0.000000000000000000, 1.000000000000000000, 0.000000000000000000 ) ) ;
#977 = ADVANCED_FACE ( 'NONE', ( #110 ), #980, .F. ) ;
#978 = CARTESIAN_POINT ( 'NONE',  ( -2.999999999999990674, -20.50904712877235170, -33.39727565978194690 ) ) ;
#979 = ADVANCED_FACE ( 'NONE', ( #758 ), #1014, .F. ) ;
#980 =( BOUNDED_SURFACE ( )  B_SPLINE_SURFACE ( 3, 2, ( 
 ( #213, #1078, #464 ),
 ( #576, #300, #25 ),
 ( #312, #990, #661 ),
 ( #836, #667, #736 ),
 ( #567, #904, #124 ),
 ( #476, #36, #914 ),
 ( #44, #1090, #1006 ),
 ( #934, #764, #603 ),
 ( #55, #62, #841 ),
 ( #409, #941, #50 ),
 ( #72, #335, #947 ),
 ( #490, #1104, #695 ),
 ( #143, #613, #1114 ),
 ( #1038, #404, #677 ) ),
 .UNSPECIFIED., .F., .F., .F. ) 
 B_SPLINE_SURFACE_WITH_KNOTS ( ( 4, 2, 2, 2, 2, 2, 4 ),
 ( 3, 3 ),
 ( 0.004613957212798147287, 0.005172349409311298093, 0.005451545507567873497, 0.005730741605824448900, 0.006009937704081024304, 0.006289133802337599707, 0.006847525998850751382 ),
 ( 0.000000000000000000, 1.000000000000000000 ),
 .UNSPECIFIED. ) 
 GEOMETRIC_REPRESENTATION_ITEM ( )  RATIONAL_B_SPLINE_SURFACE ( (
 ( 1.000000000000000000, 0.7071067811865471286, 1.000000000000000000),
 ( 1.000000000000000000, 0.6957750951348814494, 1.000000000000000000),
 ( 1.000000000000000000, 0.6848633421824553702, 1.000000000000000000),
 ( 1.000000000000000000, 0.6699944031853756199, 1.000000000000000000),
 ( 1.000000000000000000, 0.6653567053647996277, 1.000000000000000000),
 ( 1.000000000000000000, 0.6566712019122465938, 1.000000000000000000),
 ( 1.000000000000000000, 0.6525910959984106974, 1.000000000000000000),
 ( 1.000000000000000000, 0.6453284529924814272, 1.000000000000000000),
 ( 1.000000000000000000, 0.6421077070649147123, 1.000000000000000000),
 ( 1.000000000000000000, 0.6364627643992949446, 1.000000000000000000),
 ( 1.000000000000000000, 0.6340611318584187250, 1.000000000000000000),
 ( 1.000000000000000000, 0.6283591512360515718, 1.000000000000000000),
 ( 1.000000000000000000, 0.6264064533606589213, 1.000000000000000000),
 ( 1.000000000000000000, 0.6265202318385305613, 1.000000000000000000) ) ) 
 REPRESENTATION_ITEM ( '' )  SURFACE ( )  );
#981 = ORIENTED_EDGE ( 'NONE', *, *, #894, .T. ) ;
#982 = DIRECTION ( 'NONE',  ( 1.000000000000000000, 0.000000000000000000, 0.000000000000000000 ) ) ;
#983 = ORIENTED_EDGE ( 'NONE', *, *, #1023, .T. ) ;
#984 = LINE ( 'NONE', #731, #284 ) ;
#985 = UNCERTAINTY_MEASURE_WITH_UNIT (LENGTH_MEASURE( 1.000000000000000082E-05 ), #77, 'distance_accuracy_value', 'NONE');
#986 = DIRECTION ( 'NONE',  ( -0.4999999999999995004, -0.8660254037844389297, 0.000000000000000000 ) ) ;
#987 = ORIENTED_EDGE ( 'NONE', *, *, #108, .T. ) ;
#988 = EDGE_CURVE ( 'NONE', #509, #51, #415, .T. ) ;
#989 = LINE ( 'NONE', #887, #431 ) ;
#990 = CARTESIAN_POINT ( 'NONE',  ( -3.000000000000000000, -20.17086459125549069, -34.06416162189620422 ) ) ;
#991 = DIRECTION ( 'NONE',  ( -0.000000000000000000, -0.000000000000000000, -1.000000000000000000 ) ) ;
#992 = AXIS2_PLACEMENT_3D ( 'NONE', #168, #79, #352 ) ;
#993 = VECTOR ( 'NONE', #48, 1000.000000000000000 ) ;
#994 = ORIENTED_EDGE ( 'NONE', *, *, #666, .F. ) ;
#995 = DIRECTION ( 'NONE',  ( 0.000000000000000000, -1.000000000000000000, 0.000000000000000000 ) ) ;
#996 = AXIS2_PLACEMENT_3D ( 'NONE', #721, #628, #359 ) ;
#997 = VERTEX_POINT ( 'NONE', #1095 ) ;
#998 = CARTESIAN_POINT ( 'NONE',  ( -9.500000000000000000, 5.484827557301462875, -36.50000000000000000 ) ) ;
#999 = VERTEX_POINT ( 'NONE', #248 ) ;
#1000 = LINE ( 'NONE', #579, #626 ) ;
#1001 = ORIENTED_EDGE ( 'NONE', *, *, #787, .F. ) ;
#1002 = CARTESIAN_POINT ( 'NONE',  ( -2.999999999999990674, -20.50904712877235170, -32.50000000000000000 ) ) ;
#1003 = CARTESIAN_POINT ( 'NONE',  ( 13.41025403784438375, -7.742413778650709233, 21.57252788819830158 ) ) ;
#1004 = VERTEX_POINT ( 'NONE', #240 ) ;
#1005 = ORIENTED_EDGE ( 'NONE', *, *, #290, .T. ) ;
#1006 = CARTESIAN_POINT ( 'NONE',  ( -3.000000000000000000, -20.92978940404914923, -33.64265829009153919 ) ) ;
#1007 = CARTESIAN_POINT ( 'NONE',  ( 9.100000000000003197, -13.09999999999999432, -34.49999999999999289 ) ) ;
#1008 = ORIENTED_EDGE ( 'NONE', *, *, #587, .F. ) ;
#1009 = CARTESIAN_POINT ( 'NONE',  ( 2.183009875774286179, -20.55052361686845686, -34.23630621586656986 ) ) ;
#1010 = AXIS2_PLACEMENT_3D ( 'NONE', #494, #122, #589 ) ;
#1011 = CARTESIAN_POINT ( 'NONE',  ( 2.999999999999994227, 15.28482755730146359, 5.204170427930414381E-16 ) ) ;
#1012 = VECTOR ( 'NONE', #592, 1000.000000000000000 ) ;
#1013 = VECTOR ( 'NONE', #896, 1000.000000000000000 ) ;
#1014 = CYLINDRICAL_SURFACE ( 'NONE', #643, 0.7000000000000000666 ) ;
#1015 = CARTESIAN_POINT ( 'NONE',  ( -2.030803114957182576, 16.48482755730146110, -36.50000000000000000 ) ) ;
#1016 = ORIENTED_EDGE ( 'NONE', *, *, #1057, .T. ) ;
#1017 = CARTESIAN_POINT ( 'NONE',  ( 2.149373156722405476, -20.73680802545276336, -34.61366504429076230 ) ) ;
#1018 = CARTESIAN_POINT ( 'NONE',  ( 2.331818681304962393, -20.69577764584148127, -34.50715066006151233 ) ) ;
#1019 = DIRECTION ( 'NONE',  ( 1.000000000000000000, 0.000000000000000000, 0.000000000000000000 ) ) ;
#1020 = LINE ( 'NONE', #853, #187 ) ;
#1021 = EDGE_LOOP ( 'NONE', ( #1035, #816, #1092 ) ) ;
#1022 = CARTESIAN_POINT ( 'NONE',  ( -2.855738909881079035, -20.55339314790213834, -33.90940058576289573 ) ) ;
#1023 = EDGE_CURVE ( 'NONE', #164, #491, #445, .T. ) ;
#1024 = FACE_OUTER_BOUND ( 'NONE', #272, .T. ) ;
#1025 = CARTESIAN_POINT ( 'NONE',  ( 2.278608819048119294, -20.07548706924601589, -34.00000000000001421 ) ) ;
#1026 = DIRECTION ( 'NONE',  ( 0.000000000000000000, -1.000000000000000000, 0.000000000000000000 ) ) ;
#1027 = EDGE_CURVE ( 'NONE', #746, #703, #329, .T. ) ;
#1028 = VERTEX_POINT ( 'NONE', #684 ) ;
#1029 = CARTESIAN_POINT ( 'NONE',  ( 0.000000000000000000, -13.09999999999999432, -36.50000000000000000 ) ) ;
#1030 =( NAMED_UNIT ( * ) PLANE_ANGLE_UNIT ( ) SI_UNIT ( $, .RADIAN. ) );
#1031 = EDGE_CURVE ( 'NONE', #242, #255, #80, .T. ) ;
#1032 = VECTOR ( 'NONE', #34, 1000.000000000000000 ) ;
#1033 = DIRECTION ( 'NONE',  ( -1.734723475976808080E-16, 0.000000000000000000, 1.000000000000000000 ) ) ;
#1034 = CARTESIAN_POINT ( 'NONE',  ( 2.999999999999990674, -20.50904712877235170, 21.57252788819830158 ) ) ;
#1035 = ORIENTED_EDGE ( 'NONE', *, *, #879, .F. ) ;
#1036 = CARTESIAN_POINT ( 'NONE',  ( -3.000000000000000444, -20.50904712877235170, -33.53372295870776298 ) ) ;
#1037 = SURFACE_STYLE_FILL_AREA ( #421 ) ;
#1038 = CARTESIAN_POINT ( 'NONE',  ( -2.149538641264209016, -20.73586465170217963, -34.70666652575073385 ) ) ;
#1039 = ORIENTED_EDGE ( 'NONE', *, *, #533, .T. ) ;
#1040 = CARTESIAN_POINT ( 'NONE',  ( -2.165044894126935127, -20.64523960616863718, -34.31804599957548163 ) ) ;
#1041 = ORIENTED_EDGE ( 'NONE', *, *, #243, .T. ) ;
#1042 = DIRECTION ( 'NONE',  ( -0.4999999999999996114, 0.8660254037844389297, -0.000000000000000000 ) ) ;
#1043 = EDGE_CURVE ( 'NONE', #703, #1061, #512, .T. ) ;
#1044 = DIRECTION ( 'NONE',  ( 1.000000000000000000, 0.000000000000000000, 0.000000000000000000 ) ) ;
#1045 = DIRECTION ( 'NONE',  ( 0.000000000000000000, 0.000000000000000000, 1.000000000000000000 ) ) ;
#1046 = EDGE_CURVE ( 'NONE', #1126, #215, #856, .T. ) ;
#1047 = MECHANICAL_DESIGN_GEOMETRIC_PRESENTATION_REPRESENTATION (  '', ( #1100 ), #450 ) ;
#1048 = DIRECTION ( 'NONE',  ( -0.000000000000000000, 0.000000000000000000, 1.000000000000000000 ) ) ;
#1049 = AXIS2_PLACEMENT_3D ( 'NONE', #338, #244, #770 ) ;
#1050 = ORIENTED_EDGE ( 'NONE', *, *, #230, .T. ) ;
#1051 = EDGE_CURVE ( 'NONE', #906, #951, #163, .T. ) ;
#1052 = CARTESIAN_POINT ( 'NONE',  ( -19.50000000000000000, 5.484827557301462875, -32.50000000000000000 ) ) ;
#1053 = CARTESIAN_POINT ( 'NONE',  ( 0.000000000000000000, -10.96965511460289910, -32.50000000000000000 ) ) ;
#1054 = EDGE_LOOP ( 'NONE', ( #146, #424, #903, #114, #1070 ) ) ;
#1055 = CARTESIAN_POINT ( 'NONE',  ( 18.16025403784438552, 0.4848275573014699247, -36.50000000000000000 ) ) ;
#1056 = LINE ( 'NONE', #458, #372 ) ;
#1057 = EDGE_CURVE ( 'NONE', #134, #571, #234, .T. ) ;
#1058 = ORIENTED_EDGE ( 'NONE', *, *, #45, .T. ) ;
#1059 = DIRECTION ( 'NONE',  ( 1.000000000000000000, 0.000000000000000000, 0.000000000000000000 ) ) ;
#1060 = ADVANCED_FACE ( 'NONE', ( #427 ), #780, .F. ) ;
#1061 = VERTEX_POINT ( 'NONE', #868 ) ;
#1062 = CARTESIAN_POINT ( 'NONE',  ( 2.299999999999999822, 15.28482755730146359, -33.30000000000000426 ) ) ;
#1063 = DIRECTION ( 'NONE',  ( -0.000000000000000000, 0.000000000000000000, 1.000000000000000000 ) ) ;
#1064 = AXIS2_PLACEMENT_3D ( 'NONE', #65, #952, #501 ) ;
#1065 = TOROIDAL_SURFACE ( 'NONE', #532, 9.299999999999995381, 0.6999999999999999556 ) ;
#1066 = AXIS2_PLACEMENT_3D ( 'NONE', #199, #218, #648 ) ;
#1067 = ADVANCED_BREP_SHAPE_REPRESENTATION ( '\X2\4e098054\X0\18650\X2\75356c6076d2\X0\_\X2\58f376d6\X0\', ( #89, #992 ), #1099 ) ;
#1068 = DIRECTION ( 'NONE',  ( -0.000000000000000000, -0.000000000000000000, -1.000000000000000000 ) ) ;
#1069 = LINE ( 'NONE', #837, #815 ) ;
#1070 = ORIENTED_EDGE ( 'NONE', *, *, #7, .T. ) ;
#1071 = PLANE ( 'NONE',  #798 ) ;
#1072 = ORIENTED_EDGE ( 'NONE', *, *, #1117, .T. ) ;
#1073 = DIRECTION ( 'NONE',  ( 1.000000000000000000, 0.000000000000000000, 0.000000000000000000 ) ) ;
#1074 = EDGE_CURVE ( 'NONE', #573, #916, #548, .T. ) ;
#1075 = ORIENTED_EDGE ( 'NONE', *, *, #879, .T. ) ;
#1076 = CARTESIAN_POINT ( 'NONE',  ( 2.149538641264209016, -20.73586465170217963, -34.70666652575069122 ) ) ;
#1077 = DIRECTION ( 'NONE',  ( -1.000000000000000000, 0.000000000000000000, 1.734723475976808080E-16 ) ) ;
#1078 = CARTESIAN_POINT ( 'NONE',  ( -3.000000000000000000, -19.98075937545794289, -34.00000000000000000 ) ) ;
#1079 = AXIS2_PLACEMENT_3D ( 'NONE', #162, #167, #1129 ) ;
#1080 = ORIENTED_EDGE ( 'NONE', *, *, #177, .T. ) ;
#1081 = DIRECTION ( 'NONE',  ( 0.000000000000000000, 1.000000000000000000, 0.000000000000000000 ) ) ;
#1082 = AXIS2_PLACEMENT_3D ( 'NONE', #631, #452, #969 ) ;
#1083 = CARTESIAN_POINT ( 'NONE',  ( 2.531338597110601274, -20.64551498162137833, -34.33084288208839752 ) ) ;
#1084 = CARTESIAN_POINT ( 'NONE',  ( -9.100000000000004974, 0.000000000000000000, -34.49999999999999289 ) ) ;
#1085 = CARTESIAN_POINT ( 'NONE',  ( 0.000000000000000000, 15.98482755730146110, -90.57252788819830869 ) ) ;
#1086 = VERTEX_POINT ( 'NONE', #1052 ) ;
#1087 = CARTESIAN_POINT ( 'NONE',  ( 3.000000000000000000, -21.06377138985336117, -33.77261243075952990 ) ) ;
#1088 = ORIENTED_EDGE ( 'NONE', *, *, #40, .F. ) ;
#1089 = EDGE_CURVE ( 'NONE', #588, #997, #921, .T. ) ;
#1090 = CARTESIAN_POINT ( 'NONE',  ( -3.000000000000140776, -20.40290690401003815, -34.26390267105858811 ) ) ;
#1091 = PLANE ( 'NONE',  #799 ) ;
#1092 = ORIENTED_EDGE ( 'NONE', *, *, #1089, .F. ) ;
#1093 = CARTESIAN_POINT ( 'NONE',  ( 2.999999999999999556, -20.17086459125548004, -34.06416162189684371 ) ) ;
#1094 = ORIENTED_EDGE ( 'NONE', *, *, #1074, .F. ) ;
#1095 = CARTESIAN_POINT ( 'NONE',  ( -3.000000000000000000, 15.28482755730146359, -33.30000000000000426 ) ) ;
#1096 = CARTESIAN_POINT ( 'NONE',  ( -3.000000000000000000, -20.96965511460289378, -33.30000000000000426 ) ) ;
#1097 = ORIENTED_EDGE ( 'NONE', *, *, #1051, .T. ) ;
#1098 = CARTESIAN_POINT ( 'NONE',  ( 3.000000000000000444, -21.42128438006845670, -34.52733046098194336 ) ) ;
#1099 =( GEOMETRIC_REPRESENTATION_CONTEXT ( 3 ) GLOBAL_UNCERTAINTY_ASSIGNED_CONTEXT ( ( #275 ) ) GLOBAL_UNIT_ASSIGNED_CONTEXT ( ( #440, #525, #9 ) ) REPRESENTATION_CONTEXT ( 'NONE', 'WORKASPACE' ) );
#1100 = STYLED_ITEM ( 'NONE', ( #964 ), #89 ) ;
#1101 = FACE_OUTER_BOUND ( 'NONE', #308, .T. ) ;
#1102 = AXIS2_PLACEMENT_3D ( 'NONE', #802, #274, #972 ) ;
#1103 = VECTOR ( 'NONE', #862, 1000.000000000000000 ) ;
#1104 = CARTESIAN_POINT ( 'NONE',  ( -2.999999999999675815, -20.54058455513537140, -34.56910066807914461 ) ) ;
#1105 = LINE ( 'NONE', #935, #942 ) ;
#1106 = EDGE_CURVE ( 'NONE', #1118, #801, #765, .T. ) ;
#1107 = ORIENTED_EDGE ( 'NONE', *, *, #1074, .T. ) ;
#1108 = DIRECTION ( 'NONE',  ( 0.000000000000000000, 0.000000000000000000, -1.000000000000000000 ) ) ;
#1109 = ADVANCED_FACE ( 'NONE', ( #624 ), #965, .T. ) ;
#1110 = CARTESIAN_POINT ( 'NONE',  ( 2.258611211768169813, -20.16875410191902773, -34.01575119312148843 ) ) ;
#1111 = CARTESIAN_POINT ( 'NONE',  ( -18.16025403784439263, 0.4848275573014699247, -32.50000000000000000 ) ) ;
#1112 = ORIENTED_EDGE ( 'NONE', *, *, #620, .T. ) ;
#1113 = FACE_OUTER_BOUND ( 'NONE', #804, .T. ) ;
#1114 = CARTESIAN_POINT ( 'NONE',  ( -3.000000000000000444, -21.42128438006714219, -34.52733046098199310 ) ) ;
#1115 = ORIENTED_EDGE ( 'NONE', *, *, #925, .T. ) ;
#1116 = CARTESIAN_POINT ( 'NONE',  ( -2.205662445660534932, -20.43068070533037783, -34.12862653254088485 ) ) ;
#1117 = EDGE_CURVE ( 'NONE', #382, #304, #280, .T. ) ;
#1118 = VERTEX_POINT ( 'NONE', #258 ) ;
#1119 = LINE ( 'NONE', #88, #358 ) ;
#1120 = CARTESIAN_POINT ( 'NONE',  ( 4.900000000000001243, -2.899999999999990585, -34.49999999999999289 ) ) ;
#1121 = VECTOR ( 'NONE', #239, 1000.000000000000000 ) ;
#1122 = VECTOR ( 'NONE', #362, 1000.000000000000114 ) ;
#1123 = CARTESIAN_POINT ( 'NONE',  ( -2.300000000000010036, 15.28482755730146359, -90.57252788819830869 ) ) ;
#1124 = CIRCLE ( 'NONE', #586, 9.999999999999994671 ) ;
#1125 = DIRECTION ( 'NONE',  ( 0.000000000000000000, 1.000000000000000000, -0.000000000000000000 ) ) ;
#1126 = VERTEX_POINT ( 'NONE', #618 ) ;
#1127 = EDGE_CURVE ( 'NONE', #571, #461, #938, .T. ) ;
#1128 = SPHERICAL_SURFACE ( 'NONE', #263, 0.6999999999999999556 ) ;
#1129 = DIRECTION ( 'NONE',  ( 1.000000000000000000, 0.000000000000000000, 0.000000000000000000 ) ) ;
#1130 = APPLICATION_PROTOCOL_DEFINITION ( 'draft international standard', 'automotive_design', 1998, #232 ) ;
#1131 = CARTESIAN_POINT ( 'NONE',  ( -2.149532710280373848, -20.73589846235102740, -34.70000000000000284 ) ) ;
#1132 = ORIENTED_EDGE ( 'NONE', *, *, #353, .F. ) ;
#1133 = CARTESIAN_POINT ( 'NONE',  ( 0.000000000000000000, -10.96965511460289910, -34.00000000000000000 ) ) ;
#1134 = APPLICATION_PROTOCOL_DEFINITION ( 'draft international standard', 'automotive_design', 1998, #511 ) ;
#1135 = DIRECTION ( 'NONE',  ( -0.000000000000000000, 0.000000000000000000, 1.000000000000000000 ) ) ;
ENDSEC;
END-ISO-10303-21;
