ISO-10303-21;
HEADER;
FILE_DESCRIPTION (( 'STEP AP214' ),
    '1' );
FILE_NAME ('TPUÂÖÌ¥.ST',
    '2025-11-18T01:27:33',
    ( '' ),
    ( '' ),
    'SwSTEP 2.0',
    'SolidWorks 2024',
    '' );
FILE_SCHEMA (( 'AUTOMOTIVE_DESIGN' ));
ENDSEC;

DATA;
#1 = CIRCLE ( 'NONE', #218, 33.99999999999995737 ) ;
#2 = CARTESIAN_POINT ( 'NONE',  ( 0.000000000000000000, 0.000000000000000000, 17.49999999999998934 ) ) ;
#3 = ORIENTED_EDGE ( 'NONE', *, *, #45, .F. ) ;
#4 = DIRECTION ( 'NONE',  ( 0.000000000000000000, 0.000000000000000000, -1.000000000000000000 ) ) ;
#5 = DIRECTION ( 'NONE',  ( 1.000000000000000000, 0.000000000000000000, 0.000000000000000000 ) ) ;
#6 = CARTESIAN_POINT ( 'NONE',  ( 0.000000000000000000, 0.000000000000000000, -31.99999999999997158 ) ) ;
#7 = CIRCLE ( 'NONE', #227, 32.50000000000002132 ) ;
#8 = EDGE_CURVE ( 'NONE', #376, #349, #365, .T. ) ;
#9 = CARTESIAN_POINT ( 'NONE',  ( 0.000000000000000000, 0.000000000000000000, -31.99999999999998579 ) ) ;
#10 = ORIENTED_EDGE ( 'NONE', *, *, #101, .F. ) ;
#11 = ORIENTED_EDGE ( 'NONE', *, *, #178, .T. ) ;
#12 = ORIENTED_EDGE ( 'NONE', *, *, #149, .F. ) ;
#13 = EDGE_CURVE ( 'NONE', #65, #96, #311, .T. ) ;
#14 = CIRCLE ( 'NONE', #30, 32.50000000000002132 ) ;
#15 = ORIENTED_EDGE ( 'NONE', *, *, #79, .T. ) ;
#16 = CARTESIAN_POINT ( 'NONE',  ( 0.000000000000000000, 0.000000000000000000, -32.50000000000000000 ) ) ;
#17 = DIRECTION ( 'NONE',  ( 0.7071067811865524577, 0.000000000000000000, 0.7071067811865426878 ) ) ;
#18 = DIRECTION ( 'NONE',  ( -1.000000000000000000, 0.000000000000000000, 0.000000000000000000 ) ) ;
#19 = DIRECTION ( 'NONE',  ( 0.7071067811865378028, 8.659560562354814529E-17, -0.7071067811865573427 ) ) ;
#20 = FACE_OUTER_BOUND ( 'NONE', #160, .T. ) ;
#21 = CONICAL_SURFACE ( 'NONE', #52, 32.00000000000000000, 0.7853981633974346233 ) ;
#22 = AXIS2_PLACEMENT_3D ( 'NONE', #9, #348, #248 ) ;
#23 = DIRECTION ( 'NONE',  ( 1.000000000000000000, 0.000000000000000000, 0.000000000000000000 ) ) ;
#24 = FACE_OUTER_BOUND ( 'NONE', #302, .T. ) ;
#25 = ORIENTED_EDGE ( 'NONE', *, *, #258, .T. ) ;
#26 = DIRECTION ( 'NONE',  ( -1.000000000000000000, 0.000000000000000000, 0.000000000000000000 ) ) ;
#27 = ORIENTED_EDGE ( 'NONE', *, *, #71, .T. ) ;
#28 = DIRECTION ( 'NONE',  ( 1.000000000000000000, 0.000000000000000000, 0.000000000000000000 ) ) ;
#29 = EDGE_CURVE ( 'NONE', #395, #225, #338, .T. ) ;
#30 = AXIS2_PLACEMENT_3D ( 'NONE', #370, #328, #31 ) ;
#31 = DIRECTION ( 'NONE',  ( 1.000000000000000000, 0.000000000000000000, 0.000000000000000000 ) ) ;
#32 = LINE ( 'NONE', #156, #369 ) ;
#33 = ORIENTED_EDGE ( 'NONE', *, *, #352, .T. ) ;
#34 = CARTESIAN_POINT ( 'NONE',  ( -34.49999999999999289, 4.225031457058367344E-15, -31.99999999999997158 ) ) ;
#35 = CARTESIAN_POINT ( 'NONE',  ( 0.000000000000000000, 0.000000000000000000, -31.99999999999997158 ) ) ;
#36 = AXIS2_PLACEMENT_3D ( 'NONE', #112, #234, #80 ) ;
#37 = APPLICATION_PROTOCOL_DEFINITION ( 'draft international standard', 'automotive_design', 1998, #55 ) ;
#38 = EDGE_LOOP ( 'NONE', ( #185, #43, #251, #286 ) ) ;
#39 =( NAMED_UNIT ( * ) SI_UNIT ( $, .STERADIAN. ) SOLID_ANGLE_UNIT ( ) );
#40 = ADVANCED_FACE ( 'NONE', ( #77 ), #323, .T. ) ;
#41 = ORIENTED_EDGE ( 'NONE', *, *, #29, .F. ) ;
#42 = DIRECTION ( 'NONE',  ( 1.000000000000000000, 0.000000000000000000, 0.000000000000000000 ) ) ;
#43 = ORIENTED_EDGE ( 'NONE', *, *, #127, .F. ) ;
#44 = AXIS2_PLACEMENT_3D ( 'NONE', #375, #97, #42 ) ;
#45 = EDGE_CURVE ( 'NONE', #345, #204, #47, .T. ) ;
#46 = PRODUCT_RELATED_PRODUCT_CATEGORY ( 'part', '', ( #171 ) ) ;
#47 = LINE ( 'NONE', #199, #325 ) ;
#48 = AXIS2_PLACEMENT_3D ( 'NONE', #355, #111, #70 ) ;
#49 = CARTESIAN_POINT ( 'NONE',  ( -34.49999999999999289, 4.225031457058367344E-15, -130.0807358037435506 ) ) ;
#50 = SURFACE_STYLE_USAGE ( .BOTH. , #357 ) ;
#51 = DIRECTION ( 'NONE',  ( 1.000000000000000000, 0.000000000000000000, 0.000000000000000000 ) ) ;
#52 = AXIS2_PLACEMENT_3D ( 'NONE', #259, #170, #18 ) ;
#53 = DIRECTION ( 'NONE',  ( 0.000000000000000000, 0.000000000000000000, 1.000000000000000000 ) ) ;
#54 = DIRECTION ( 'NONE',  ( 0.000000000000000000, 0.000000000000000000, 1.000000000000000000 ) ) ;
#55 = APPLICATION_CONTEXT ( 'automotive_design' ) ;
#56 = EDGE_LOOP ( 'NONE', ( #192, #256, #221, #385 ) ) ;
#57 = EDGE_CURVE ( 'NONE', #204, #96, #312, .T. ) ;
#58 = DIRECTION ( 'NONE',  ( 1.000000000000000000, 0.000000000000000000, 0.000000000000000000 ) ) ;
#59 = CIRCLE ( 'NONE', #330, 34.49999999999999289 ) ;
#60 = DIRECTION ( 'NONE',  ( 1.000000000000000000, 0.000000000000000000, 0.000000000000000000 ) ) ;
#61 = VECTOR ( 'NONE', #308, 1000.000000000000000 ) ;
#62 = ORIENTED_EDGE ( 'NONE', *, *, #57, .F. ) ;
#63 = DIRECTION ( 'NONE',  ( 0.000000000000000000, 0.000000000000000000, 1.000000000000000000 ) ) ;
#64 = CARTESIAN_POINT ( 'NONE',  ( 0.000000000000000000, 0.000000000000000000, 17.49999999999999645 ) ) ;
#65 = VERTEX_POINT ( 'NONE', #167 ) ;
#66 = CYLINDRICAL_SURFACE ( 'NONE', #44, 34.49999999999999289 ) ;
#67 = ORIENTED_EDGE ( 'NONE', *, *, #206, .T. ) ;
#68 = DIRECTION ( 'NONE',  ( -0.7071067811865524577, 8.659560562354994488E-17, 0.7071067811865426878 ) ) ;
#69 = ORIENTED_EDGE ( 'NONE', *, *, #201, .T. ) ;
#70 = DIRECTION ( 'NONE',  ( 1.000000000000000000, 0.000000000000000000, 0.000000000000000000 ) ) ;
#71 = EDGE_CURVE ( 'NONE', #349, #271, #327, .T. ) ;
#72 = FACE_BOUND ( 'NONE', #91, .T. ) ;
#73 = FILL_AREA_STYLE_COLOUR ( '', #253 ) ;
#74 = MANIFOLD_SOLID_BREP ( 'Chamfer1', #320 ) ;
#75 = AXIS2_PLACEMENT_3D ( 'NONE', #181, #205, #51 ) ;
#76 = ADVANCED_FACE ( 'NONE', ( #20 ), #21, .F. ) ;
#77 = FACE_OUTER_BOUND ( 'NONE', #287, .T. ) ;
#78 = CARTESIAN_POINT ( 'NONE',  ( 0.000000000000000000, 0.000000000000000000, -32.50000000000000000 ) ) ;
#79 = EDGE_CURVE ( 'NONE', #345, #319, #140, .T. ) ;
#80 = DIRECTION ( 'NONE',  ( 1.000000000000000000, 0.000000000000000000, 0.000000000000000000 ) ) ;
#81 = VECTOR ( 'NONE', #249, 1000.000000000000000 ) ;
#82 = AXIS2_PLACEMENT_3D ( 'NONE', #324, #274, #23 ) ;
#83 = AXIS2_PLACEMENT_3D ( 'NONE', #143, #270, #301 ) ;
#84 = CARTESIAN_POINT ( 'NONE',  ( 32.50000000000000000, 3.980102097228897837E-15, -32.50000000000000000 ) ) ;
#85 = ORIENTED_EDGE ( 'NONE', *, *, #115, .F. ) ;
#86 = CARTESIAN_POINT ( 'NONE',  ( -33.99999999999995737, 4.194415287079681980E-15, -32.50000000000000000 ) ) ;
#87 = ADVANCED_BREP_SHAPE_REPRESENTATION ( 'TPU\X2\8f6e80ce\X0\', ( #74, #382 ), #296 ) ;
#88 = DIRECTION ( 'NONE',  ( 1.000000000000000000, 0.000000000000000000, 0.000000000000000000 ) ) ;
#89 = ORIENTED_EDGE ( 'NONE', *, *, #196, .T. ) ;
#90 =( GEOMETRIC_REPRESENTATION_CONTEXT ( 3 ) GLOBAL_UNCERTAINTY_ASSIGNED_CONTEXT ( ( #371 ) ) GLOBAL_UNIT_ASSIGNED_CONTEXT ( ( #264, #197, #105 ) ) REPRESENTATION_CONTEXT ( 'NONE', 'WORKASPACE' ) );
#91 = EDGE_LOOP ( 'NONE', ( #374, #317 ) ) ;
#92 = CYLINDRICAL_SURFACE ( 'NONE', #141, 32.00000000000000000 ) ;
#93 = UNCERTAINTY_MEASURE_WITH_UNIT (LENGTH_MEASURE( 1.000000000000000082E-05 ), #318, 'distance_accuracy_value', 'NONE');
#94 = DIRECTION ( 'NONE',  ( 1.000000000000000000, 0.000000000000000000, 0.000000000000000000 ) ) ;
#95 = DIRECTION ( 'NONE',  ( -0.7071067811865573427, 8.659560562355054885E-17, 0.7071067811865378028 ) ) ;
#96 = VERTEX_POINT ( 'NONE', #393 ) ;
#97 = DIRECTION ( 'NONE',  ( 0.000000000000000000, 0.000000000000000000, 1.000000000000000000 ) ) ;
#98 = ORIENTED_EDGE ( 'NONE', *, *, #45, .T. ) ;
#99 = CIRCLE ( 'NONE', #304, 34.49999999999999289 ) ;
#100 = CONICAL_SURFACE ( 'NONE', #83, 33.99999999999995737, 0.7853981633974552734 ) ;
#101 = EDGE_CURVE ( 'NONE', #345, #65, #367, .T. ) ;
#102 = ORIENTED_EDGE ( 'NONE', *, *, #101, .T. ) ;
#103 = ORIENTED_EDGE ( 'NONE', *, *, #332, .F. ) ;
#104 = EDGE_CURVE ( 'NONE', #157, #376, #265, .T. ) ;
#105 =( NAMED_UNIT ( * ) SI_UNIT ( $, .STERADIAN. ) SOLID_ANGLE_UNIT ( ) );
#106 = VECTOR ( 'NONE', #255, 1000.000000000000000 ) ;
#107 = DIRECTION ( 'NONE',  ( -0.000000000000000000, 0.000000000000000000, 1.000000000000000000 ) ) ;
#108 = CARTESIAN_POINT ( 'NONE',  ( 33.99999999999998579, 4.163799117100999770E-15, 17.49999999999998934 ) ) ;
#109 = ADVANCED_FACE ( 'NONE', ( #193 ), #155, .F. ) ;
#110 = CARTESIAN_POINT ( 'NONE',  ( 0.000000000000000000, 0.000000000000000000, -130.0807358037435506 ) ) ;
#111 = DIRECTION ( 'NONE',  ( 0.000000000000000000, 0.000000000000000000, -1.000000000000000000 ) ) ;
#112 = CARTESIAN_POINT ( 'NONE',  ( 0.000000000000000000, 0.000000000000000000, -32.50000000000000000 ) ) ;
#113 = ORIENTED_EDGE ( 'NONE', *, *, #196, .F. ) ;
#114 = DIRECTION ( 'NONE',  ( 0.000000000000000000, 0.000000000000000000, -1.000000000000000000 ) ) ;
#115 = EDGE_CURVE ( 'NONE', #225, #158, #386, .T. ) ;
#116 = AXIS2_PLACEMENT_3D ( 'NONE', #110, #389, #359 ) ;
#117 = CARTESIAN_POINT ( 'NONE',  ( 33.99999999999995737, 0.000000000000000000, -32.50000000000000000 ) ) ;
#118 = DIRECTION ( 'NONE',  ( -0.000000000000000000, 0.000000000000000000, 1.000000000000000000 ) ) ;
#119 = EDGE_CURVE ( 'NONE', #158, #271, #198, .T. ) ;
#120 = CARTESIAN_POINT ( 'NONE',  ( 32.50000000000002132, 0.000000000000000000, 17.49999999999999645 ) ) ;
#121 = CARTESIAN_POINT ( 'NONE',  ( -32.00000000000000000, 3.918869757271530263E-15, -130.0807358037435506 ) ) ;
#122 = PRODUCT_DEFINITION_FORMATION_WITH_SPECIFIED_SOURCE ( 'ANY', '', #171, .NOT_KNOWN. ) ;
#123 = ORIENTED_EDGE ( 'NONE', *, *, #378, .F. ) ;
#124 = DIRECTION ( 'NONE',  ( 0.000000000000000000, 0.000000000000000000, -1.000000000000000000 ) ) ;
#125 = ORIENTED_EDGE ( 'NONE', *, *, #79, .F. ) ;
#126 = CARTESIAN_POINT ( 'NONE',  ( 0.000000000000000000, 0.000000000000000000, 0.000000000000000000 ) ) ;
#127 = EDGE_CURVE ( 'NONE', #157, #243, #1, .T. ) ;
#128 = EDGE_LOOP ( 'NONE', ( #217, #33 ) ) ;
#129 = CARTESIAN_POINT ( 'NONE',  ( 0.000000000000000000, 0.000000000000000000, -32.50000000000000000 ) ) ;
#130 = EDGE_LOOP ( 'NONE', ( #235, #364, #15, #67 ) ) ;
#131 = EDGE_LOOP ( 'NONE', ( #102, #314, #89, #125 ) ) ;
#132 = APPLICATION_CONTEXT ( 'automotive_design' ) ;
#133 = ADVANCED_FACE ( 'NONE', ( #229, #72 ), #195, .T. ) ;
#134 = PRESENTATION_STYLE_ASSIGNMENT (( #50 ) ) ;
#135 = DIRECTION ( 'NONE',  ( 0.000000000000000000, -0.000000000000000000, -1.000000000000000000 ) ) ;
#136 = CIRCLE ( 'NONE', #273, 32.00000000000000000 ) ;
#137 = AXIS2_PLACEMENT_3D ( 'NONE', #159, #124, #183 ) ;
#138 = DIRECTION ( 'NONE',  ( 0.000000000000000000, 0.000000000000000000, 1.000000000000000000 ) ) ;
#139 = CARTESIAN_POINT ( 'NONE',  ( 32.00000000000000000, 0.000000000000000000, -130.0807358037435506 ) ) ;
#140 = LINE ( 'NONE', #139, #347 ) ;
#141 = AXIS2_PLACEMENT_3D ( 'NONE', #310, #63, #216 ) ;
#142 = DIRECTION ( 'NONE',  ( 0.000000000000000000, 0.000000000000000000, -1.000000000000000000 ) ) ;
#143 = CARTESIAN_POINT ( 'NONE',  ( 0.000000000000000000, 0.000000000000000000, -32.50000000000000000 ) ) ;
#144 = PRODUCT_DEFINITION_CONTEXT ( 'detailed design', #132, 'design' ) ;
#145 = DIRECTION ( 'NONE',  ( 1.000000000000000000, 0.000000000000000000, 0.000000000000000000 ) ) ;
#146 = EDGE_LOOP ( 'NONE', ( #208, #11 ) ) ;
#147 = AXIS2_PLACEMENT_3D ( 'NONE', #305, #337, #145 ) ;
#148 = CARTESIAN_POINT ( 'NONE',  ( -34.49999999999999289, 4.225031457058367344E-15, 17.00000000000001421 ) ) ;
#149 = EDGE_CURVE ( 'NONE', #307, #309, #14, .T. ) ;
#150 = EDGE_LOOP ( 'NONE', ( #103, #182, #25, #334 ) ) ;
#151 = CARTESIAN_POINT ( 'NONE',  ( -32.00000000000000000, 3.918869757271530263E-15, 16.99999999999998579 ) ) ;
#152 = ORIENTED_EDGE ( 'NONE', *, *, #352, .F. ) ;
#153 = CARTESIAN_POINT ( 'NONE',  ( -33.99999999999997158, 0.000000000000000000, 17.49999999999999645 ) ) ;
#154 = ORIENTED_EDGE ( 'NONE', *, *, #266, .T. ) ;
#155 = CONICAL_SURFACE ( 'NONE', #210, 32.00000000000000000, 0.7853981633974621568 ) ;
#156 = CARTESIAN_POINT ( 'NONE',  ( -32.00000000000000000, 3.918869757271530263E-15, 16.99999999999998579 ) ) ;
#157 = VERTEX_POINT ( 'NONE', #117 ) ;
#158 = VERTEX_POINT ( 'NONE', #333 ) ;
#159 = CARTESIAN_POINT ( 'NONE',  ( 0.000000000000000000, 0.000000000000000000, 17.49999999999998934 ) ) ;
#160 = EDGE_LOOP ( 'NONE', ( #3, #123, #237, #62 ) ) ;
#161 = LINE ( 'NONE', #316, #106 ) ;
#162 = AXIS2_PLACEMENT_3D ( 'NONE', #64, #283, #379 ) ;
#163 = ORIENTED_EDGE ( 'NONE', *, *, #342, .F. ) ;
#164 = PRODUCT_DEFINITION ( 'UNKNOWN', '', #122, #144 ) ;
#165 = DIRECTION ( 'NONE',  ( 0.000000000000000000, 0.000000000000000000, 1.000000000000000000 ) ) ;
#166 = DIRECTION ( 'NONE',  ( 1.000000000000000000, 0.000000000000000000, 0.000000000000000000 ) ) ;
#167 = CARTESIAN_POINT ( 'NONE',  ( -32.00000000000000000, 3.918869757271530263E-15, -31.99999999999998579 ) ) ;
#168 = VECTOR ( 'NONE', #228, 1000.000000000000000 ) ;
#169 = CIRCLE ( 'NONE', #388, 33.99999999999995737 ) ;
#170 = DIRECTION ( 'NONE',  ( 0.000000000000000000, 0.000000000000000000, -1.000000000000000000 ) ) ;
#171 = PRODUCT ( 'TPU\X2\8f6e80ce\X0\', 'TPU\X2\8f6e80ce\X0\', '', ( #356 ) ) ;
#172 = FACE_OUTER_BOUND ( 'NONE', #38, .T. ) ;
#173 = CONICAL_SURFACE ( 'NONE', #245, 33.99999999999995737, 0.7853981633974552734 ) ;
#174 = DIRECTION ( 'NONE',  ( 1.000000000000000000, 0.000000000000000000, 0.000000000000000000 ) ) ;
#175 = VERTEX_POINT ( 'NONE', #151 ) ;
#176 = CARTESIAN_POINT ( 'NONE',  ( 0.000000000000000000, 0.000000000000000000, 16.99999999999998579 ) ) ;
#177 = EDGE_LOOP ( 'NONE', ( #154, #397 ) ) ;
#178 = EDGE_CURVE ( 'NONE', #225, #395, #262, .T. ) ;
#179 = DIRECTION ( 'NONE',  ( 0.000000000000000000, 0.000000000000000000, 1.000000000000000000 ) ) ;
#180 = AXIS2_PLACEMENT_3D ( 'NONE', #194, #230, #166 ) ;
#181 = CARTESIAN_POINT ( 'NONE',  ( 0.000000000000000000, 0.000000000000000000, 17.49999999999999645 ) ) ;
#182 = ORIENTED_EDGE ( 'NONE', *, *, #206, .F. ) ;
#183 = DIRECTION ( 'NONE',  ( -1.000000000000000000, 0.000000000000000000, 0.000000000000000000 ) ) ;
#184 = ADVANCED_FACE ( 'NONE', ( #172 ), #173, .T. ) ;
#185 = ORIENTED_EDGE ( 'NONE', *, *, #363, .F. ) ;
#186 = CARTESIAN_POINT ( 'NONE',  ( -32.50000000000002132, 3.980102097228900992E-15, 17.49999999999999645 ) ) ;
#187 = EDGE_LOOP ( 'NONE', ( #10, #98, #224, #257 ) ) ;
#188 = EDGE_LOOP ( 'NONE', ( #85, #41, #300, #368 ) ) ;
#189 = LINE ( 'NONE', #121, #61 ) ;
#190 = ORIENTED_EDGE ( 'NONE', *, *, #258, .F. ) ;
#191 = DIRECTION ( 'NONE',  ( 0.000000000000000000, 0.000000000000000000, 1.000000000000000000 ) ) ;
#192 = ORIENTED_EDGE ( 'NONE', *, *, #178, .F. ) ;
#193 = FACE_OUTER_BOUND ( 'NONE', #150, .T. ) ;
#194 = CARTESIAN_POINT ( 'NONE',  ( 0.000000000000000000, 0.000000000000000000, 17.00000000000001421 ) ) ;
#195 = PLANE ( 'NONE',  #82 ) ;
#196 = EDGE_CURVE ( 'NONE', #175, #319, #295, .T. ) ;
#197 =( NAMED_UNIT ( * ) PLANE_ANGLE_UNIT ( ) SI_UNIT ( $, .RADIAN. ) );
#198 = CIRCLE ( 'NONE', #180, 34.49999999999999289 ) ;
#199 = CARTESIAN_POINT ( 'NONE',  ( 32.00000000000000000, 3.918869757271530263E-15, -31.99999999999998579 ) ) ;
#200 = DIRECTION ( 'NONE',  ( 1.000000000000000000, 0.000000000000000000, 0.000000000000000000 ) ) ;
#201 = EDGE_CURVE ( 'NONE', #271, #158, #59, .T. ) ;
#202 = FACE_OUTER_BOUND ( 'NONE', #351, .T. ) ;
#203 = CARTESIAN_POINT ( 'NONE',  ( 0.000000000000000000, 0.000000000000000000, -31.99999999999998579 ) ) ;
#204 = VERTEX_POINT ( 'NONE', #84 ) ;
#205 = DIRECTION ( 'NONE',  ( -0.000000000000000000, 0.000000000000000000, 1.000000000000000000 ) ) ;
#206 = EDGE_CURVE ( 'NONE', #319, #175, #136, .T. ) ;
#207 = CARTESIAN_POINT ( 'NONE',  ( 0.000000000000000000, 0.000000000000000000, -130.0807358037435506 ) ) ;
#208 = ORIENTED_EDGE ( 'NONE', *, *, #29, .T. ) ;
#209 = STYLED_ITEM ( 'NONE', ( #134 ), #74 ) ;
#210 = AXIS2_PLACEMENT_3D ( 'NONE', #322, #165, #288 ) ;
#211 = DIRECTION ( 'NONE',  ( 0.000000000000000000, -0.000000000000000000, -1.000000000000000000 ) ) ;
#212 = ORIENTED_EDGE ( 'NONE', *, *, #8, .F. ) ;
#213 = CARTESIAN_POINT ( 'NONE',  ( -33.99999999999995737, 4.163799117100996615E-15, -32.50000000000000000 ) ) ;
#214 = EDGE_CURVE ( 'NONE', #349, #376, #99, .T. ) ;
#215 = ORIENTED_EDGE ( 'NONE', *, *, #332, .T. ) ;
#216 = DIRECTION ( 'NONE',  ( 1.000000000000000000, 0.000000000000000000, 0.000000000000000000 ) ) ;
#217 = ORIENTED_EDGE ( 'NONE', *, *, #127, .T. ) ;
#218 = AXIS2_PLACEMENT_3D ( 'NONE', #290, #135, #263 ) ;
#219 = DIRECTION ( 'NONE',  ( 1.000000000000000000, 0.000000000000000000, 0.000000000000000000 ) ) ;
#220 = AXIS2_PLACEMENT_3D ( 'NONE', #207, #191, #223 ) ;
#221 = ORIENTED_EDGE ( 'NONE', *, *, #201, .F. ) ;
#222 = ADVANCED_FACE ( 'NONE', ( #276 ), #360, .T. ) ;
#223 = DIRECTION ( 'NONE',  ( 1.000000000000000000, 0.000000000000000000, 0.000000000000000000 ) ) ;
#224 = ORIENTED_EDGE ( 'NONE', *, *, #266, .F. ) ;
#225 = VERTEX_POINT ( 'NONE', #236 ) ;
#226 = APPLICATION_PROTOCOL_DEFINITION ( 'draft international standard', 'automotive_design', 1998, #132 ) ;
#227 = AXIS2_PLACEMENT_3D ( 'NONE', #366, #335, #174 ) ;
#228 = DIRECTION ( 'NONE',  ( 0.7071067811865721087, 8.659560562355233611E-17, -0.7071067811865230368 ) ) ;
#229 = FACE_OUTER_BOUND ( 'NONE', #146, .T. ) ;
#230 = DIRECTION ( 'NONE',  ( 0.000000000000000000, 0.000000000000000000, -1.000000000000000000 ) ) ;
#231 = FILL_AREA_STYLE ('',( #73 ) ) ;
#232 = CONICAL_SURFACE ( 'NONE', #137, 33.99999999999998579, 0.7853981633974831400 ) ;
#233 = FACE_OUTER_BOUND ( 'NONE', #128, .T. ) ;
#234 = DIRECTION ( 'NONE',  ( -0.000000000000000000, 0.000000000000000000, 1.000000000000000000 ) ) ;
#235 = ORIENTED_EDGE ( 'NONE', *, *, #372, .F. ) ;
#236 = CARTESIAN_POINT ( 'NONE',  ( 33.99999999999997158, 4.194415287079682769E-15, 17.49999999999999645 ) ) ;
#237 = ORIENTED_EDGE ( 'NONE', *, *, #13, .T. ) ;
#238 = AXIS2_PLACEMENT_3D ( 'NONE', #2, #4, #26 ) ;
#239 = PRODUCT_DEFINITION_SHAPE ( 'NONE', 'NONE',  #164 ) ;
#240 = DIRECTION ( 'NONE',  ( 0.7071067811865573427, 0.000000000000000000, 0.7071067811865378028 ) ) ;
#241 = ADVANCED_FACE ( 'NONE', ( #272 ), #254, .F. ) ;
#242 = CYLINDRICAL_SURFACE ( 'NONE', #220, 32.00000000000000000 ) ;
#243 = VERTEX_POINT ( 'NONE', #86 ) ;
#244 = ORIENTED_EDGE ( 'NONE', *, *, #363, .T. ) ;
#245 = AXIS2_PLACEMENT_3D ( 'NONE', #268, #54, #60 ) ;
#246 = FACE_OUTER_BOUND ( 'NONE', #131, .T. ) ;
#247 = DIRECTION ( 'NONE',  ( 0.000000000000000000, 0.000000000000000000, 1.000000000000000000 ) ) ;
#248 = DIRECTION ( 'NONE',  ( 1.000000000000000000, 0.000000000000000000, 0.000000000000000000 ) ) ;
#249 = DIRECTION ( 'NONE',  ( -0.7071067811865378028, 0.000000000000000000, -0.7071067811865573427 ) ) ;
#250 = CARTESIAN_POINT ( 'NONE',  ( -33.99999999999998579, 0.000000000000000000, 17.49999999999998934 ) ) ;
#251 = ORIENTED_EDGE ( 'NONE', *, *, #104, .T. ) ;
#252 = MECHANICAL_DESIGN_GEOMETRIC_PRESENTATION_REPRESENTATION (  '', ( #209 ), #90 ) ;
#253 = COLOUR_RGB ( '',0.7921568627450980005, 0.8196078431372548767, 0.9333333333333333481 ) ;
#254 = CONICAL_SURFACE ( 'NONE', #354, 32.00000000000000000, 0.7853981633974346233 ) ;
#255 = DIRECTION ( 'NONE',  ( 0.000000000000000000, 0.000000000000000000, 1.000000000000000000 ) ) ;
#256 = ORIENTED_EDGE ( 'NONE', *, *, #115, .T. ) ;
#257 = ORIENTED_EDGE ( 'NONE', *, *, #13, .F. ) ;
#258 = EDGE_CURVE ( 'NONE', #319, #307, #399, .T. ) ;
#259 = CARTESIAN_POINT ( 'NONE',  ( 0.000000000000000000, 0.000000000000000000, -31.99999999999998579 ) ) ;
#260 = AXIS2_PLACEMENT_3D ( 'NONE', #35, #247, #94 ) ;
#261 = ADVANCED_FACE ( 'NONE', ( #233, #373 ), #361, .F. ) ;
#262 = CIRCLE ( 'NONE', #75, 33.99999999999997158 ) ;
#263 = DIRECTION ( 'NONE',  ( 1.000000000000000000, 0.000000000000000000, 0.000000000000000000 ) ) ;
#264 =( LENGTH_UNIT ( ) NAMED_UNIT ( * ) SI_UNIT ( .MILLI., .METRE. ) );
#265 = LINE ( 'NONE', #353, #321 ) ;
#266 = EDGE_CURVE ( 'NONE', #96, #204, #280, .T. ) ;
#267 = DIRECTION ( 'NONE',  ( 0.000000000000000000, 0.000000000000000000, 1.000000000000000000 ) ) ;
#268 = CARTESIAN_POINT ( 'NONE',  ( 0.000000000000000000, 0.000000000000000000, -32.50000000000000000 ) ) ;
#269 = ADVANCED_FACE ( 'NONE', ( #202 ), #303, .F. ) ;
#270 = DIRECTION ( 'NONE',  ( 0.000000000000000000, 0.000000000000000000, 1.000000000000000000 ) ) ;
#271 = VERTEX_POINT ( 'NONE', #148 ) ;
#272 = FACE_OUTER_BOUND ( 'NONE', #187, .T. ) ;
#273 = AXIS2_PLACEMENT_3D ( 'NONE', #176, #394, #58 ) ;
#274 = DIRECTION ( 'NONE',  ( -0.000000000000000000, 0.000000000000000000, 1.000000000000000000 ) ) ;
#275 = ORIENTED_EDGE ( 'NONE', *, *, #214, .T. ) ;
#276 = FACE_OUTER_BOUND ( 'NONE', #188, .T. ) ;
#277 = ORIENTED_EDGE ( 'NONE', *, *, #104, .F. ) ;
#278 = CARTESIAN_POINT ( 'NONE',  ( 32.00000000000000000, 0.000000000000000000, 16.99999999999998579 ) ) ;
#279 = ORIENTED_EDGE ( 'NONE', *, *, #71, .F. ) ;
#280 = CIRCLE ( 'NONE', #36, 32.50000000000000000 ) ;
#281 = VECTOR ( 'NONE', #350, 1000.000000000000000 ) ;
#282 = LINE ( 'NONE', #213, #326 ) ;
#283 = DIRECTION ( 'NONE',  ( -0.000000000000000000, 0.000000000000000000, 1.000000000000000000 ) ) ;
#284 = FACE_OUTER_BOUND ( 'NONE', #56, .T. ) ;
#285 = ORIENTED_EDGE ( 'NONE', *, *, #342, .T. ) ;
#286 = ORIENTED_EDGE ( 'NONE', *, *, #214, .F. ) ;
#287 = EDGE_LOOP ( 'NONE', ( #384, #27, #69, #163 ) ) ;
#288 = DIRECTION ( 'NONE',  ( 1.000000000000000000, 0.000000000000000000, 0.000000000000000000 ) ) ;
#289 = EDGE_CURVE ( 'NONE', #309, #307, #7, .T. ) ;
#290 = CARTESIAN_POINT ( 'NONE',  ( 0.000000000000000000, 0.000000000000000000, -32.50000000000000000 ) ) ;
#291 = ADVANCED_FACE ( 'NONE', ( #24 ), #100, .T. ) ;
#292 = ADVANCED_FACE ( 'NONE', ( #396 ), #242, .F. ) ;
#293 = SURFACE_STYLE_FILL_AREA ( #231 ) ;
#294 = CARTESIAN_POINT ( 'NONE',  ( 0.000000000000000000, 0.000000000000000000, 17.00000000000001421 ) ) ;
#295 = CIRCLE ( 'NONE', #147, 32.00000000000000000 ) ;
#296 =( GEOMETRIC_REPRESENTATION_CONTEXT ( 3 ) GLOBAL_UNCERTAINTY_ASSIGNED_CONTEXT ( ( #93 ) ) GLOBAL_UNIT_ASSIGNED_CONTEXT ( ( #318, #313, #39 ) ) REPRESENTATION_CONTEXT ( 'NONE', 'WORKASPACE' ) );
#297 = ADVANCED_FACE ( 'NONE', ( #383 ), #66, .T. ) ;
#298 = DIRECTION ( 'NONE',  ( -1.000000000000000000, 0.000000000000000000, 0.000000000000000000 ) ) ;
#299 = CARTESIAN_POINT ( 'NONE',  ( 32.00000000000000000, 0.000000000000000000, 16.99999999999998579 ) ) ;
#300 = ORIENTED_EDGE ( 'NONE', *, *, #306, .T. ) ;
#301 = DIRECTION ( 'NONE',  ( 1.000000000000000000, 0.000000000000000000, 0.000000000000000000 ) ) ;
#302 = EDGE_LOOP ( 'NONE', ( #152, #244, #212, #277 ) ) ;
#303 = CONICAL_SURFACE ( 'NONE', #392, 32.00000000000000000, 0.7853981633974621568 ) ;
#304 = AXIS2_PLACEMENT_3D ( 'NONE', #6, #179, #362 ) ;
#305 = CARTESIAN_POINT ( 'NONE',  ( 0.000000000000000000, 0.000000000000000000, 16.99999999999998579 ) ) ;
#306 = EDGE_CURVE ( 'NONE', #395, #271, #344, .T. ) ;
#307 = VERTEX_POINT ( 'NONE', #120 ) ;
#308 = DIRECTION ( 'NONE',  ( 0.000000000000000000, 0.000000000000000000, 1.000000000000000000 ) ) ;
#309 = VERTEX_POINT ( 'NONE', #186 ) ;
#310 = CARTESIAN_POINT ( 'NONE',  ( 0.000000000000000000, 0.000000000000000000, -130.0807358037435506 ) ) ;
#311 = LINE ( 'NONE', #343, #81 ) ;
#312 = CIRCLE ( 'NONE', #391, 32.50000000000000000 ) ;
#313 =( NAMED_UNIT ( * ) PLANE_ANGLE_UNIT ( ) SI_UNIT ( $, .RADIAN. ) );
#314 = ORIENTED_EDGE ( 'NONE', *, *, #372, .T. ) ;
#315 = ADVANCED_FACE ( 'NONE', ( #284 ), #232, .T. ) ;
#316 = CARTESIAN_POINT ( 'NONE',  ( 34.49999999999999289, 0.000000000000000000, -130.0807358037435506 ) ) ;
#317 = ORIENTED_EDGE ( 'NONE', *, *, #289, .T. ) ;
#318 =( LENGTH_UNIT ( ) NAMED_UNIT ( * ) SI_UNIT ( .MILLI., .METRE. ) );
#319 = VERTEX_POINT ( 'NONE', #278 ) ;
#320 = CLOSED_SHELL ( 'NONE', ( #269, #241, #315, #291, #336, #40, #297, #133, #292, #261, #184, #222, #76, #109 ) ) ;
#321 = VECTOR ( 'NONE', #17, 1000.000000000000000 ) ;
#322 = CARTESIAN_POINT ( 'NONE',  ( 0.000000000000000000, 0.000000000000000000, 16.99999999999998579 ) ) ;
#323 = CYLINDRICAL_SURFACE ( 'NONE', #116, 34.49999999999999289 ) ;
#324 = CARTESIAN_POINT ( 'NONE',  ( 0.000000000000000000, 0.000000000000000000, 17.49999999999999645 ) ) ;
#325 = VECTOR ( 'NONE', #19, 1000.000000000000000 ) ;
#326 = VECTOR ( 'NONE', #68, 1000.000000000000000 ) ;
#327 = LINE ( 'NONE', #49, #346 ) ;
#328 = DIRECTION ( 'NONE',  ( 0.000000000000000000, -0.000000000000000000, -1.000000000000000000 ) ) ;
#329 = CARTESIAN_POINT ( 'NONE',  ( 0.000000000000000000, 0.000000000000000000, 16.99999999999998579 ) ) ;
#330 = AXIS2_PLACEMENT_3D ( 'NONE', #294, #114, #28 ) ;
#331 = CIRCLE ( 'NONE', #22, 32.00000000000000000 ) ;
#332 = EDGE_CURVE ( 'NONE', #175, #309, #32, .T. ) ;
#333 = CARTESIAN_POINT ( 'NONE',  ( 34.49999999999999289, 0.000000000000000000, 17.00000000000001421 ) ) ;
#334 = ORIENTED_EDGE ( 'NONE', *, *, #289, .F. ) ;
#335 = DIRECTION ( 'NONE',  ( 0.000000000000000000, -0.000000000000000000, -1.000000000000000000 ) ) ;
#336 = ADVANCED_FACE ( 'NONE', ( #246 ), #92, .F. ) ;
#337 = DIRECTION ( 'NONE',  ( 0.000000000000000000, 0.000000000000000000, 1.000000000000000000 ) ) ;
#338 = CIRCLE ( 'NONE', #162, 33.99999999999997158 ) ;
#339 = ORIENTED_EDGE ( 'NONE', *, *, #119, .T. ) ;
#340 = AXIS2_PLACEMENT_3D ( 'NONE', #78, #118, #200 ) ;
#341 = CARTESIAN_POINT ( 'NONE',  ( 32.00000000000000000, 0.000000000000000000, -31.99999999999998579 ) ) ;
#342 = EDGE_CURVE ( 'NONE', #376, #158, #161, .T. ) ;
#343 = CARTESIAN_POINT ( 'NONE',  ( -32.00000000000000000, 0.000000000000000000, -31.99999999999998579 ) ) ;
#344 = LINE ( 'NONE', #250, #281 ) ;
#345 = VERTEX_POINT ( 'NONE', #341 ) ;
#346 = VECTOR ( 'NONE', #138, 1000.000000000000000 ) ;
#347 = VECTOR ( 'NONE', #267, 1000.000000000000000 ) ;
#348 = DIRECTION ( 'NONE',  ( 0.000000000000000000, 0.000000000000000000, -1.000000000000000000 ) ) ;
#349 = VERTEX_POINT ( 'NONE', #34 ) ;
#350 = DIRECTION ( 'NONE',  ( -0.7071067811865721087, 0.000000000000000000, -0.7071067811865230368 ) ) ;
#351 = EDGE_LOOP ( 'NONE', ( #113, #215, #12, #190 ) ) ;
#352 = EDGE_CURVE ( 'NONE', #243, #157, #169, .T. ) ;
#353 = CARTESIAN_POINT ( 'NONE',  ( 33.99999999999995737, 0.000000000000000000, -32.50000000000000000 ) ) ;
#354 = AXIS2_PLACEMENT_3D ( 'NONE', #203, #142, #298 ) ;
#355 = CARTESIAN_POINT ( 'NONE',  ( 0.000000000000000000, 0.000000000000000000, -31.99999999999998579 ) ) ;
#356 = PRODUCT_CONTEXT ( 'NONE', #55, 'mechanical' ) ;
#357 = SURFACE_SIDE_STYLE ('',( #293 ) ) ;
#358 = SHAPE_DEFINITION_REPRESENTATION ( #239, #87 ) ;
#359 = DIRECTION ( 'NONE',  ( 1.000000000000000000, 0.000000000000000000, 0.000000000000000000 ) ) ;
#360 = CONICAL_SURFACE ( 'NONE', #238, 33.99999999999998579, 0.7853981633974831400 ) ;
#361 = PLANE ( 'NONE',  #340 ) ;
#362 = DIRECTION ( 'NONE',  ( 1.000000000000000000, 0.000000000000000000, 0.000000000000000000 ) ) ;
#363 = EDGE_CURVE ( 'NONE', #243, #349, #282, .T. ) ;
#364 = ORIENTED_EDGE ( 'NONE', *, *, #378, .T. ) ;
#365 = CIRCLE ( 'NONE', #260, 34.49999999999999289 ) ;
#366 = CARTESIAN_POINT ( 'NONE',  ( 0.000000000000000000, 0.000000000000000000, 17.49999999999999645 ) ) ;
#367 = CIRCLE ( 'NONE', #48, 32.00000000000000000 ) ;
#368 = ORIENTED_EDGE ( 'NONE', *, *, #119, .F. ) ;
#369 = VECTOR ( 'NONE', #95, 1000.000000000000000 ) ;
#370 = CARTESIAN_POINT ( 'NONE',  ( 0.000000000000000000, 0.000000000000000000, 17.49999999999999645 ) ) ;
#371 = UNCERTAINTY_MEASURE_WITH_UNIT (LENGTH_MEASURE( 1.000000000000000082E-05 ), #264, 'distance_accuracy_value', 'NONE');
#372 = EDGE_CURVE ( 'NONE', #65, #175, #189, .T. ) ;
#373 = FACE_BOUND ( 'NONE', #177, .T. ) ;
#374 = ORIENTED_EDGE ( 'NONE', *, *, #149, .T. ) ;
#375 = CARTESIAN_POINT ( 'NONE',  ( 0.000000000000000000, 0.000000000000000000, -130.0807358037435506 ) ) ;
#376 = VERTEX_POINT ( 'NONE', #377 ) ;
#377 = CARTESIAN_POINT ( 'NONE',  ( 34.49999999999999289, 0.000000000000000000, -31.99999999999997158 ) ) ;
#378 = EDGE_CURVE ( 'NONE', #65, #345, #331, .T. ) ;
#379 = DIRECTION ( 'NONE',  ( 1.000000000000000000, 0.000000000000000000, 0.000000000000000000 ) ) ;
#380 = DIRECTION ( 'NONE',  ( 0.000000000000000000, 0.000000000000000000, 1.000000000000000000 ) ) ;
#381 = EDGE_LOOP ( 'NONE', ( #279, #275, #285, #339 ) ) ;
#382 = AXIS2_PLACEMENT_3D ( 'NONE', #126, #380, #219 ) ;
#383 = FACE_OUTER_BOUND ( 'NONE', #381, .T. ) ;
#384 = ORIENTED_EDGE ( 'NONE', *, *, #8, .T. ) ;
#385 = ORIENTED_EDGE ( 'NONE', *, *, #306, .F. ) ;
#386 = LINE ( 'NONE', #108, #168 ) ;
#387 = VECTOR ( 'NONE', #240, 1000.000000000000000 ) ;
#388 = AXIS2_PLACEMENT_3D ( 'NONE', #129, #211, #5 ) ;
#389 = DIRECTION ( 'NONE',  ( 0.000000000000000000, 0.000000000000000000, 1.000000000000000000 ) ) ;
#390 = DIRECTION ( 'NONE',  ( 1.000000000000000000, 0.000000000000000000, 0.000000000000000000 ) ) ;
#391 = AXIS2_PLACEMENT_3D ( 'NONE', #16, #107, #390 ) ;
#392 = AXIS2_PLACEMENT_3D ( 'NONE', #329, #53, #88 ) ;
#393 = CARTESIAN_POINT ( 'NONE',  ( -32.50000000000000000, 0.000000000000000000, -32.50000000000000000 ) ) ;
#394 = DIRECTION ( 'NONE',  ( 0.000000000000000000, 0.000000000000000000, 1.000000000000000000 ) ) ;
#395 = VERTEX_POINT ( 'NONE', #153 ) ;
#396 = FACE_OUTER_BOUND ( 'NONE', #130, .T. ) ;
#397 = ORIENTED_EDGE ( 'NONE', *, *, #57, .T. ) ;
#398 = PRESENTATION_LAYER_ASSIGNMENT (  '', '', ( #209 ) ) ;
#399 = LINE ( 'NONE', #299, #387 ) ;
ENDSEC;
END-ISO-10303-21;
