ISO-10303-21;
HEADER;
FILE_DESCRIPTION (( 'STEP AP214' ),
    '1' );
FILE_NAME ('Ë«OÈ¦TPU´òÓ¡°æ',
    '2025-11-18T02:00:29',
    ( '' ),
    ( '' ),
    'SwSTEP 2.0',
    'SolidWorks 2024',
    '' );
FILE_SCHEMA (( 'AUTOMOTIVE_DESIGN' ));
ENDSEC;

DATA;
#1 = CARTESIAN_POINT ( 'NONE',  ( 0.000000000000000000, 1.750000000000000000, 0.000000000000000000 ) ) ;
#2 = ORIENTED_EDGE ( 'NONE', *, *, #280, .F. ) ;
#3 = CARTESIAN_POINT ( 'NONE',  ( 0.000000000000000000, 0.3888888888888888951, 0.000000000000000000 ) ) ;
#4 = TOROIDAL_SURFACE ( 'NONE', #335, 13.16421356237310114, 0.5000000000000008882 ) ;
#5 = ORIENTED_EDGE ( 'NONE', *, *, #49, .F. ) ;
#6 = EDGE_LOOP ( 'NONE', ( #142, #162 ) ) ;
#7 = DIRECTION ( 'NONE',  ( 1.000000000000000000, 0.000000000000000000, -1.224646799147353207E-16 ) ) ;
#8 = CIRCLE ( 'NONE', #185, 10.00000000000000533 ) ;
#9 = DIRECTION ( 'NONE',  ( -0.000000000000000000, -1.000000000000000000, -0.000000000000000000 ) ) ;
#10 = ADVANCED_FACE ( 'NONE', ( #180 ), #76, .T. ) ;
#11 = DIRECTION ( 'NONE',  ( -1.224646799147353454E-16, 0.000000000000000000, -1.000000000000000000 ) ) ;
#12 = EDGE_CURVE ( 'NONE', #351, #62, #321, .T. ) ;
#13 = DIRECTION ( 'NONE',  ( 0.000000000000000000, 0.000000000000000000, -1.000000000000000000 ) ) ;
#14 = AXIS2_PLACEMENT_3D ( 'NONE', #348, #271, #246 ) ;
#15 = AXIS2_PLACEMENT_3D ( 'NONE', #191, #329, #55 ) ;
#16 = DIRECTION ( 'NONE',  ( -0.000000000000000000, -1.000000000000000000, -0.000000000000000000 ) ) ;
#17 = ORIENTED_EDGE ( 'NONE', *, *, #192, .F. ) ;
#18 = CARTESIAN_POINT ( 'NONE',  ( 0.000000000000000000, -3.500000000000000000, 0.000000000000000000 ) ) ;
#19 = CARTESIAN_POINT ( 'NONE',  ( 1.550918860287871687E-15, 6.123233995736782060E-17, 12.66421356237309936 ) ) ;
#20 = AXIS2_PLACEMENT_3D ( 'NONE', #189, #302, #186 ) ;
#21 = VECTOR ( 'NONE', #84, 1000.000000000000000 ) ;
#22 = FACE_OUTER_BOUND ( 'NONE', #275, .T. ) ;
#23 = CARTESIAN_POINT ( 'NONE',  ( 0.000000000000000000, 0.000000000000000000, 0.000000000000000000 ) ) ;
#24 = DIRECTION ( 'NONE',  ( 0.000000000000000000, 0.000000000000000000, -1.000000000000000000 ) ) ;
#25 = EDGE_CURVE ( 'NONE', #319, #62, #248, .T. ) ;
#26 = CIRCLE ( 'NONE', #110, 10.00000000000000533 ) ;
#27 = FACE_OUTER_BOUND ( 'NONE', #346, .T. ) ;
#28 = DIRECTION ( 'NONE',  ( -0.000000000000000000, -1.000000000000000000, -0.000000000000000000 ) ) ;
#29 = EDGE_LOOP ( 'NONE', ( #206, #98, #107, #57 ) ) ;
#30 = CARTESIAN_POINT ( 'NONE',  ( 1.438959988998140752E-15, 1.750000000000000000, 11.75000000000000533 ) ) ;
#31 = AXIS2_PLACEMENT_3D ( 'NONE', #44, #16, #158 ) ;
#32 = ORIENTED_EDGE ( 'NONE', *, *, #117, .F. ) ;
#33 = CARTESIAN_POINT ( 'NONE',  ( 1.506312126705345728E-15, 3.500000000000000000, 11.75000000000000533 ) ) ;
#34 = DIRECTION ( 'NONE',  ( 0.000000000000000000, 0.000000000000000000, -1.000000000000000000 ) ) ;
#35 = PRODUCT_RELATED_PRODUCT_CATEGORY ( 'part', '', ( #81 ) ) ;
#36 = AXIS2_PLACEMENT_3D ( 'NONE', #347, #7, #11 ) ;
#37 = DIRECTION ( 'NONE',  ( 0.000000000000000000, 0.000000000000000000, 1.000000000000000000 ) ) ;
#38 = AXIS2_PLACEMENT_3D ( 'NONE', #3, #28, #279 ) ;
#39 = CARTESIAN_POINT ( 'NONE',  ( 1.506312126705345728E-15, -3.500000000000000000, 11.75000000000000533 ) ) ;
#40 = VERTEX_POINT ( 'NONE', #314 ) ;
#41 = EDGE_CURVE ( 'NONE', #268, #62, #242, .T. ) ;
#42 = DIRECTION ( 'NONE',  ( 0.000000000000000000, 0.000000000000000000, 1.000000000000000000 ) ) ;
#43 = EDGE_LOOP ( 'NONE', ( #5, #324, #240, #144 ) ) ;
#44 = CARTESIAN_POINT ( 'NONE',  ( 0.000000000000000000, 0.000000000000000000, 0.000000000000000000 ) ) ;
#45 = CIRCLE ( 'NONE', #36, 0.5000000000000004441 ) ;
#46 = ORIENTED_EDGE ( 'NONE', *, *, #253, .F. ) ;
#47 = CARTESIAN_POINT ( 'NONE',  ( 0.000000000000000000, -3.500000000000000000, -11.75000000000000533 ) ) ;
#48 = ORIENTED_EDGE ( 'NONE', *, *, #25, .F. ) ;
#49 = EDGE_CURVE ( 'NONE', #40, #63, #290, .T. ) ;
#50 = VERTEX_POINT ( 'NONE', #236 ) ;
#51 = FACE_OUTER_BOUND ( 'NONE', #132, .T. ) ;
#52 = CIRCLE ( 'NONE', #38, 12.84994388184574454 ) ;
#53 = CARTESIAN_POINT ( 'NONE',  ( 0.000000000000000000, 3.500000000000000000, 0.000000000000000000 ) ) ;
#54 = ADVANCED_FACE ( 'NONE', ( #71, #311 ), #156, .T. ) ;
#55 = DIRECTION ( 'NONE',  ( 0.000000000000000000, 0.000000000000000000, -1.000000000000000000 ) ) ;
#56 = DIRECTION ( 'NONE',  ( 0.000000000000000000, 0.000000000000000000, 1.000000000000000000 ) ) ;
#57 = ORIENTED_EDGE ( 'NONE', *, *, #129, .F. ) ;
#58 = CIRCLE ( 'NONE', #178, 0.5000000000000004441 ) ;
#59 = DIRECTION ( 'NONE',  ( 1.000000000000000000, 0.000000000000000000, 0.000000000000000000 ) ) ;
#60 =( LENGTH_UNIT ( ) NAMED_UNIT ( * ) SI_UNIT ( .MILLI., .METRE. ) );
#61 = ORIENTED_EDGE ( 'NONE', *, *, #25, .T. ) ;
#62 = VERTEX_POINT ( 'NONE', #318 ) ;
#63 = VERTEX_POINT ( 'NONE', #39 ) ;
#64 = EDGE_CURVE ( 'NONE', #40, #164, #45, .T. ) ;
#65 = DIRECTION ( 'NONE',  ( -1.224646799147353454E-16, 0.000000000000000000, -1.000000000000000000 ) ) ;
#66 = ORIENTED_EDGE ( 'NONE', *, *, #89, .F. ) ;
#67 = CARTESIAN_POINT ( 'NONE',  ( 0.000000000000000000, 6.123233995736777129E-17, 0.000000000000000000 ) ) ;
#68 = TOROIDAL_SURFACE ( 'NONE', #212, 13.16421356237310114, 0.5000000000000008882 ) ;
#69 = DIRECTION ( 'NONE',  ( 0.000000000000000000, 0.000000000000000000, -1.000000000000000000 ) ) ;
#70 = CIRCLE ( 'NONE', #278, 1.749999999999999778 ) ;
#71 = FACE_BOUND ( 'NONE', #6, .T. ) ;
#72 = EDGE_LOOP ( 'NONE', ( #317, #17 ) ) ;
#73 = CARTESIAN_POINT ( 'NONE',  ( 0.000000000000000000, 0.000000000000000000, -10.00000000000000533 ) ) ;
#74 = EDGE_LOOP ( 'NONE', ( #234, #187, #251, #263 ) ) ;
#75 = FACE_OUTER_BOUND ( 'NONE', #29, .T. ) ;
#76 = TOROIDAL_SURFACE ( 'NONE', #157, 11.75000000000000533, 1.750000000000000000 ) ;
#77 = VERTEX_POINT ( 'NONE', #33 ) ;
#78 = EDGE_CURVE ( 'NONE', #164, #268, #328, .T. ) ;
#79 = CARTESIAN_POINT ( 'NONE',  ( 0.000000000000000000, -3.500000000000000000, 0.000000000000000000 ) ) ;
#80 = DIRECTION ( 'NONE',  ( -0.000000000000000000, -1.000000000000000000, -0.000000000000000000 ) ) ;
#81 = PRODUCT ( '\X2\53cc\X0\O\X2\5708\X0\TPU\X2\625353707248\X0\', '\X2\53cc\X0\O\X2\5708\X0\TPU\X2\625353707248\X0\', '', ( #252 ) ) ;
#82 = CARTESIAN_POINT ( 'NONE',  ( 0.000000000000000000, 0.000000000000000000, 0.000000000000000000 ) ) ;
#83 = CIRCLE ( 'NONE', #14, 11.75000000000000533 ) ;
#84 = DIRECTION ( 'NONE',  ( -0.000000000000000000, -1.000000000000000000, -0.000000000000000000 ) ) ;
#85 = LINE ( 'NONE', #274, #21 ) ;
#86 = AXIS2_PLACEMENT_3D ( 'NONE', #126, #92, #175 ) ;
#87 = DIRECTION ( 'NONE',  ( -1.224646799147352961E-16, 0.000000000000000000, -1.000000000000000000 ) ) ;
#88 = DIRECTION ( 'NONE',  ( 0.000000000000000000, 0.000000000000000000, -1.000000000000000000 ) ) ;
#89 = EDGE_CURVE ( 'NONE', #319, #164, #269, .T. ) ;
#90 = AXIS2_PLACEMENT_3D ( 'NONE', #222, #281, #304 ) ;
#91 = TOROIDAL_SURFACE ( 'NONE', #140, 11.75000000000000533, 1.750000000000000000 ) ;
#92 = DIRECTION ( 'NONE',  ( -1.000000000000000000, 0.000000000000000000, 0.000000000000000000 ) ) ;
#93 = ORIENTED_EDGE ( 'NONE', *, *, #215, .F. ) ;
#94 = CARTESIAN_POINT ( 'NONE',  ( 0.000000000000000000, 3.499999999999999556, 0.000000000000000000 ) ) ;
#95 = PRODUCT_DEFINITION_CONTEXT ( 'detailed design', #285, 'design' ) ;
#96 = SURFACE_SIDE_STYLE ('',( #343 ) ) ;
#97 = CIRCLE ( 'NONE', #338, 10.00000000000000533 ) ;
#98 = ORIENTED_EDGE ( 'NONE', *, *, #320, .T. ) ;
#99 = DIRECTION ( 'NONE',  ( 1.000000000000000000, 0.000000000000000000, -1.224646799147353207E-16 ) ) ;
#100 = CARTESIAN_POINT ( 'NONE',  ( 0.000000000000000000, -3.500000000000000000, 0.000000000000000000 ) ) ;
#101 = ORIENTED_EDGE ( 'NONE', *, *, #201, .F. ) ;
#102 = EDGE_CURVE ( 'NONE', #124, #50, #26, .T. ) ;
#103 = DIRECTION ( 'NONE',  ( -0.000000000000000000, -1.000000000000000000, -0.000000000000000000 ) ) ;
#104 = CIRCLE ( 'NONE', #195, 11.75000000000000533 ) ;
#105 = EDGE_LOOP ( 'NONE', ( #322, #229, #214, #208 ) ) ;
#106 = CARTESIAN_POINT ( 'NONE',  ( 1.573664264412550703E-15, 0.3888888888888888951, 12.84994388184574454 ) ) ;
#107 = ORIENTED_EDGE ( 'NONE', *, *, #215, .T. ) ;
#108 = ADVANCED_FACE ( 'NONE', ( #179 ), #4, .F. ) ;
#109 = FACE_OUTER_BOUND ( 'NONE', #293, .T. ) ;
#110 = AXIS2_PLACEMENT_3D ( 'NONE', #94, #209, #260 ) ;
#111 =( NAMED_UNIT ( * ) PLANE_ANGLE_UNIT ( ) SI_UNIT ( $, .RADIAN. ) );
#112 = ORIENTED_EDGE ( 'NONE', *, *, #12, .T. ) ;
#113 = ADVANCED_FACE ( 'NONE', ( #259 ), #356, .T. ) ;
#114 = SHAPE_DEFINITION_REPRESENTATION ( #228, #119 ) ;
#115 = STYLED_ITEM ( 'NONE', ( #233 ), #122 ) ;
#116 = DIRECTION ( 'NONE',  ( 1.000000000000000000, 0.000000000000000000, -1.224646799147353207E-16 ) ) ;
#117 = EDGE_CURVE ( 'NONE', #265, #319, #58, .T. ) ;
#118 = CARTESIAN_POINT ( 'NONE',  ( 0.000000000000000000, 0.000000000000000000, -13.16421356237310114 ) ) ;
#119 = ADVANCED_BREP_SHAPE_REPRESENTATION ( '\X2\53cc\X0\O\X2\5708\X0\TPU\X2\625353707248\X0\', ( #122, #284 ), #345 ) ;
#120 = DIRECTION ( 'NONE',  ( 1.000000000000000000, 0.000000000000000000, -1.224646799147353207E-16 ) ) ;
#121 = FILL_AREA_STYLE_COLOUR ( '', #235 ) ;
#122 = MANIFOLD_SOLID_BREP ( 'Revolve2', #173 ) ;
#123 = FILL_AREA_STYLE ('',( #121 ) ) ;
#124 = VERTEX_POINT ( 'NONE', #327 ) ;
#125 = AXIS2_PLACEMENT_3D ( 'NONE', #200, #120, #262 ) ;
#126 = CARTESIAN_POINT ( 'NONE',  ( 0.000000000000000000, 1.750000000000000000, -11.75000000000000533 ) ) ;
#127 = AXIS2_PLACEMENT_3D ( 'NONE', #168, #333, #171 ) ;
#128 = DIRECTION ( 'NONE',  ( -0.000000000000000000, -1.000000000000000000, -0.000000000000000000 ) ) ;
#129 = EDGE_CURVE ( 'NONE', #124, #331, #152, .T. ) ;
#130 = ORIENTED_EDGE ( 'NONE', *, *, #64, .T. ) ;
#131 = CYLINDRICAL_SURFACE ( 'NONE', #166, 10.00000000000000533 ) ;
#132 = EDGE_LOOP ( 'NONE', ( #353, #160, #299, #48 ) ) ;
#133 = PLANE ( 'NONE',  #139 ) ;
#134 = MECHANICAL_DESIGN_GEOMETRIC_PRESENTATION_REPRESENTATION (  '', ( #115 ), #227 ) ;
#135 = CIRCLE ( 'NONE', #301, 1.749999999999999778 ) ;
#136 = DIRECTION ( 'NONE',  ( 0.000000000000000000, -1.000000000000000000, -0.000000000000000000 ) ) ;
#137 = DIRECTION ( 'NONE',  ( -0.000000000000000000, -1.000000000000000000, -0.000000000000000000 ) ) ;
#138 = FACE_OUTER_BOUND ( 'NONE', #105, .T. ) ;
#139 = AXIS2_PLACEMENT_3D ( 'NONE', #243, #136, #237 ) ;
#140 = AXIS2_PLACEMENT_3D ( 'NONE', #1, #336, #88 ) ;
#141 = DIRECTION ( 'NONE',  ( -0.000000000000000000, -1.000000000000000000, -0.000000000000000000 ) ) ;
#142 = ORIENTED_EDGE ( 'NONE', *, *, #102, .T. ) ;
#143 = ADVANCED_FACE ( 'NONE', ( #51 ), #190, .F. ) ;
#144 = ORIENTED_EDGE ( 'NONE', *, *, #309, .F. ) ;
#145 = TOROIDAL_SURFACE ( 'NONE', #344, 11.75000000000000533, 1.750000000000000000 ) ;
#146 = CIRCLE ( 'NONE', #127, 12.66421356237309936 ) ;
#147 = ADVANCED_FACE ( 'NONE', ( #75 ), #131, .F. ) ;
#148 = CYLINDRICAL_SURFACE ( 'NONE', #219, 10.00000000000000533 ) ;
#149 = EDGE_LOOP ( 'NONE', ( #101, #93 ) ) ;
#150 = DIRECTION ( 'NONE',  ( -1.000000000000000000, 0.000000000000000000, 0.000000000000000000 ) ) ;
#151 = CARTESIAN_POINT ( 'NONE',  ( 0.000000000000000000, -1.750000000000000000, 0.000000000000000000 ) ) ;
#152 = LINE ( 'NONE', #73, #254 ) ;
#153 = EDGE_CURVE ( 'NONE', #265, #40, #258, .T. ) ;
#154 = DIRECTION ( 'NONE',  ( 0.000000000000000000, -0.000000000000000000, 1.000000000000000000 ) ) ;
#155 = ORIENTED_EDGE ( 'NONE', *, *, #49, .T. ) ;
#156 = PLANE ( 'NONE',  #204 ) ;
#157 = AXIS2_PLACEMENT_3D ( 'NONE', #292, #339, #34 ) ;
#158 = DIRECTION ( 'NONE',  ( 0.000000000000000000, 0.000000000000000000, -1.000000000000000000 ) ) ;
#159 = UNCERTAINTY_MEASURE_WITH_UNIT (LENGTH_MEASURE( 1.000000000000000082E-05 ), #167, 'distance_accuracy_value', 'NONE');
#160 = ORIENTED_EDGE ( 'NONE', *, *, #78, .T. ) ;
#161 = DIRECTION ( 'NONE',  ( -0.000000000000000000, -1.000000000000000000, -0.000000000000000000 ) ) ;
#162 = ORIENTED_EDGE ( 'NONE', *, *, #286, .T. ) ;
#163 = DIRECTION ( 'NONE',  ( 0.000000000000000000, 0.000000000000000000, -1.000000000000000000 ) ) ;
#164 = VERTEX_POINT ( 'NONE', #19 ) ;
#165 = FACE_BOUND ( 'NONE', #149, .T. ) ;
#166 = AXIS2_PLACEMENT_3D ( 'NONE', #82, #128, #264 ) ;
#167 =( LENGTH_UNIT ( ) NAMED_UNIT ( * ) SI_UNIT ( .MILLI., .METRE. ) );
#168 = CARTESIAN_POINT ( 'NONE',  ( 0.000000000000000000, 6.123233995736777129E-17, 0.000000000000000000 ) ) ;
#169 = CARTESIAN_POINT ( 'NONE',  ( 0.000000000000000000, -3.500000000000000000, -10.00000000000000533 ) ) ;
#170 = AXIS2_PLACEMENT_3D ( 'NONE', #288, #99, #65 ) ;
#171 = DIRECTION ( 'NONE',  ( 0.000000000000000000, 0.000000000000000000, -1.000000000000000000 ) ) ;
#172 = DIRECTION ( 'NONE',  ( -0.000000000000000000, -1.000000000000000000, -0.000000000000000000 ) ) ;
#173 = CLOSED_SHELL ( 'NONE', ( #108, #332, #147, #337, #143, #267, #113, #241, #10, #54, #342, #177 ) ) ;
#174 = DIRECTION ( 'NONE',  ( 0.000000000000000000, 0.000000000000000000, -1.000000000000000000 ) ) ;
#175 = DIRECTION ( 'NONE',  ( 0.000000000000000000, 0.000000000000000000, 1.000000000000000000 ) ) ;
#176 = CARTESIAN_POINT ( 'NONE',  ( 0.000000000000000000, 0.000000000000000000, -13.16421356237310114 ) ) ;
#177 = ADVANCED_FACE ( 'NONE', ( #109, #165 ), #133, .T. ) ;
#178 = AXIS2_PLACEMENT_3D ( 'NONE', #176, #289, #37 ) ;
#179 = FACE_OUTER_BOUND ( 'NONE', #326, .T. ) ;
#180 = FACE_OUTER_BOUND ( 'NONE', #256, .T. ) ;
#181 = ORIENTED_EDGE ( 'NONE', *, *, #247, .T. ) ;
#182 = PRODUCT_DEFINITION ( 'UNKNOWN', '', #225, #95 ) ;
#183 = DIRECTION ( 'NONE',  ( -0.000000000000000000, -1.000000000000000000, -0.000000000000000000 ) ) ;
#184 = ORIENTED_EDGE ( 'NONE', *, *, #272, .F. ) ;
#185 = AXIS2_PLACEMENT_3D ( 'NONE', #79, #273, #163 ) ;
#186 = DIRECTION ( 'NONE',  ( 0.000000000000000000, 0.000000000000000000, -1.000000000000000000 ) ) ;
#187 = ORIENTED_EDGE ( 'NONE', *, *, #102, .F. ) ;
#188 = DIRECTION ( 'NONE',  ( -0.000000000000000000, -1.000000000000000000, -0.000000000000000000 ) ) ;
#189 = CARTESIAN_POINT ( 'NONE',  ( 0.000000000000000000, -0.3888888888888888951, 0.000000000000000000 ) ) ;
#190 = TOROIDAL_SURFACE ( 'NONE', #31, 13.16421356237310114, 0.5000000000000008882 ) ;
#191 = CARTESIAN_POINT ( 'NONE',  ( 0.000000000000000000, 3.499999999999999556, 0.000000000000000000 ) ) ;
#192 = EDGE_CURVE ( 'NONE', #77, #351, #83, .T. ) ;
#193 = CARTESIAN_POINT ( 'NONE',  ( 0.000000000000000000, 0.000000000000000000, 0.000000000000000000 ) ) ;
#194 = APPLICATION_PROTOCOL_DEFINITION ( 'draft international standard', 'automotive_design', 1998, #307 ) ;
#195 = AXIS2_PLACEMENT_3D ( 'NONE', #18, #188, #266 ) ;
#196 = DIRECTION ( 'NONE',  ( 0.000000000000000000, 0.000000000000000000, 1.000000000000000000 ) ) ;
#197 = CARTESIAN_POINT ( 'NONE',  ( 0.000000000000000000, 6.123233995736782060E-17, -12.66421356237309936 ) ) ;
#198 = AXIS2_PLACEMENT_3D ( 'NONE', #118, #150, #42 ) ;
#199 = PRESENTATION_LAYER_ASSIGNMENT (  '', '', ( #115 ) ) ;
#200 = CARTESIAN_POINT ( 'NONE',  ( 1.438959988998140752E-15, -1.750000000000000000, 11.75000000000000533 ) ) ;
#201 = EDGE_CURVE ( 'NONE', #331, #223, #97, .T. ) ;
#202 = DIRECTION ( 'NONE',  ( -0.000000000000000000, -1.000000000000000000, -0.000000000000000000 ) ) ;
#203 = SURFACE_STYLE_USAGE ( .BOTH. , #96 ) ;
#204 = AXIS2_PLACEMENT_3D ( 'NONE', #257, #291, #154 ) ;
#205 = CIRCLE ( 'NONE', #15, 10.00000000000000533 ) ;
#206 = ORIENTED_EDGE ( 'NONE', *, *, #286, .F. ) ;
#207 = EDGE_CURVE ( 'NONE', #351, #77, #350, .T. ) ;
#208 = ORIENTED_EDGE ( 'NONE', *, *, #12, .F. ) ;
#209 = DIRECTION ( 'NONE',  ( -0.000000000000000000, -1.000000000000000000, -0.000000000000000000 ) ) ;
#210 = DIRECTION ( 'NONE',  ( 0.000000000000000000, 0.000000000000000000, -1.000000000000000000 ) ) ;
#211 = ORIENTED_EDGE ( 'NONE', *, *, #306, .T. ) ;
#212 = AXIS2_PLACEMENT_3D ( 'NONE', #23, #161, #354 ) ;
#213 = DIRECTION ( 'NONE',  ( 0.000000000000000000, 0.000000000000000000, -1.000000000000000000 ) ) ;
#214 = ORIENTED_EDGE ( 'NONE', *, *, #306, .F. ) ;
#215 = EDGE_CURVE ( 'NONE', #223, #331, #8, .T. ) ;
#216 = ORIENTED_EDGE ( 'NONE', *, *, #295, .T. ) ;
#217 =( NAMED_UNIT ( * ) SI_UNIT ( $, .STERADIAN. ) SOLID_ANGLE_UNIT ( ) );
#218 = AXIS2_PLACEMENT_3D ( 'NONE', #230, #316, #69 ) ;
#219 = AXIS2_PLACEMENT_3D ( 'NONE', #193, #141, #250 ) ;
#220 = CARTESIAN_POINT ( 'NONE',  ( 0.000000000000000000, 0.000000000000000000, 0.000000000000000000 ) ) ;
#221 =( NAMED_UNIT ( * ) SI_UNIT ( $, .STERADIAN. ) SOLID_ANGLE_UNIT ( ) );
#222 = CARTESIAN_POINT ( 'NONE',  ( 0.000000000000000000, 0.000000000000000000, 0.000000000000000000 ) ) ;
#223 = VERTEX_POINT ( 'NONE', #352 ) ;
#224 = AXIS2_PLACEMENT_3D ( 'NONE', #53, #296, #213 ) ;
#225 = PRODUCT_DEFINITION_FORMATION_WITH_SPECIFIED_SOURCE ( 'ANY', '', #81, .NOT_KNOWN. ) ;
#226 = CARTESIAN_POINT ( 'NONE',  ( 0.000000000000000000, -1.750000000000000000, -11.75000000000000533 ) ) ;
#227 =( GEOMETRIC_REPRESENTATION_CONTEXT ( 3 ) GLOBAL_UNCERTAINTY_ASSIGNED_CONTEXT ( ( #159 ) ) GLOBAL_UNIT_ASSIGNED_CONTEXT ( ( #167, #245, #217 ) ) REPRESENTATION_CONTEXT ( 'NONE', 'WORKASPACE' ) );
#228 = PRODUCT_DEFINITION_SHAPE ( 'NONE', 'NONE',  #182 ) ;
#229 = ORIENTED_EDGE ( 'NONE', *, *, #272, .T. ) ;
#230 = CARTESIAN_POINT ( 'NONE',  ( 0.000000000000000000, 0.3888888888888888951, 0.000000000000000000 ) ) ;
#231 = UNCERTAINTY_MEASURE_WITH_UNIT (LENGTH_MEASURE( 1.000000000000000082E-05 ), #60, 'distance_accuracy_value', 'NONE');
#232 = VERTEX_POINT ( 'NONE', #47 ) ;
#233 = PRESENTATION_STYLE_ASSIGNMENT (( #203 ) ) ;
#234 = ORIENTED_EDGE ( 'NONE', *, *, #320, .F. ) ;
#235 = COLOUR_RGB ( '',0.7921568627450980005, 0.8196078431372548767, 0.9333333333333333481 ) ;
#236 = CARTESIAN_POINT ( 'NONE',  ( 1.224646799147354045E-15, 3.499999999999999556, 10.00000000000000533 ) ) ;
#237 = DIRECTION ( 'NONE',  ( 0.000000000000000000, 0.000000000000000000, -1.000000000000000000 ) ) ;
#238 = ORIENTED_EDGE ( 'NONE', *, *, #41, .F. ) ;
#239 = CARTESIAN_POINT ( 'NONE',  ( 0.000000000000000000, -0.3888888888888888951, 0.000000000000000000 ) ) ;
#240 = ORIENTED_EDGE ( 'NONE', *, *, #280, .T. ) ;
#241 = ADVANCED_FACE ( 'NONE', ( #22 ), #68, .F. ) ;
#242 = CIRCLE ( 'NONE', #218, 12.84994388184574454 ) ;
#243 = CARTESIAN_POINT ( 'NONE',  ( 0.000000000000000000, -3.500000000000000000, 0.000000000000000000 ) ) ;
#244 = EDGE_LOOP ( 'NONE', ( #340, #155, #357, #2 ) ) ;
#245 =( NAMED_UNIT ( * ) PLANE_ANGLE_UNIT ( ) SI_UNIT ( $, .RADIAN. ) );
#246 = DIRECTION ( 'NONE',  ( 0.000000000000000000, 0.000000000000000000, -1.000000000000000000 ) ) ;
#247 = EDGE_CURVE ( 'NONE', #232, #63, #104, .T. ) ;
#248 = CIRCLE ( 'NONE', #198, 0.5000000000000004441 ) ;
#249 = TOROIDAL_SURFACE ( 'NONE', #90, 13.16421356237310114, 0.5000000000000008882 ) ;
#250 = DIRECTION ( 'NONE',  ( 0.000000000000000000, 0.000000000000000000, -1.000000000000000000 ) ) ;
#251 = ORIENTED_EDGE ( 'NONE', *, *, #129, .T. ) ;
#252 = PRODUCT_CONTEXT ( 'NONE', #307, 'mechanical' ) ;
#253 = EDGE_CURVE ( 'NONE', #40, #265, #315, .T. ) ;
#254 = VECTOR ( 'NONE', #80, 1000.000000000000000 ) ;
#255 = APPLICATION_PROTOCOL_DEFINITION ( 'draft international standard', 'automotive_design', 1998, #285 ) ;
#256 = EDGE_LOOP ( 'NONE', ( #184, #297, #112, #238 ) ) ;
#257 = CARTESIAN_POINT ( 'NONE',  ( -8.673617379884029556E-16, 3.499999999999999556, 0.000000000000000000 ) ) ;
#258 = CIRCLE ( 'NONE', #20, 12.84994388184574454 ) ;
#259 = FACE_OUTER_BOUND ( 'NONE', #43, .T. ) ;
#260 = DIRECTION ( 'NONE',  ( 0.000000000000000000, 0.000000000000000000, -1.000000000000000000 ) ) ;
#261 = ORIENTED_EDGE ( 'NONE', *, *, #64, .F. ) ;
#262 = DIRECTION ( 'NONE',  ( -1.224646799147352961E-16, 0.000000000000000000, -1.000000000000000000 ) ) ;
#263 = ORIENTED_EDGE ( 'NONE', *, *, #201, .T. ) ;
#264 = DIRECTION ( 'NONE',  ( 0.000000000000000000, 0.000000000000000000, -1.000000000000000000 ) ) ;
#265 = VERTEX_POINT ( 'NONE', #355 ) ;
#266 = DIRECTION ( 'NONE',  ( 0.000000000000000000, 0.000000000000000000, -1.000000000000000000 ) ) ;
#267 = ADVANCED_FACE ( 'NONE', ( #298 ), #145, .T. ) ;
#268 = VERTEX_POINT ( 'NONE', #106 ) ;
#269 = CIRCLE ( 'NONE', #277, 12.66421356237309936 ) ;
#270 = CIRCLE ( 'NONE', #294, 11.75000000000000533 ) ;
#271 = DIRECTION ( 'NONE',  ( -0.000000000000000000, -1.000000000000000000, -0.000000000000000000 ) ) ;
#272 = EDGE_CURVE ( 'NONE', #77, #268, #135, .T. ) ;
#273 = DIRECTION ( 'NONE',  ( -0.000000000000000000, -1.000000000000000000, -0.000000000000000000 ) ) ;
#274 = CARTESIAN_POINT ( 'NONE',  ( 1.224646799147354045E-15, 0.000000000000000000, 10.00000000000000533 ) ) ;
#275 = EDGE_LOOP ( 'NONE', ( #66, #61, #211, #312 ) ) ;
#276 = CARTESIAN_POINT ( 'NONE',  ( 0.000000000000000000, -3.500000000000000000, 0.000000000000000000 ) ) ;
#277 = AXIS2_PLACEMENT_3D ( 'NONE', #67, #341, #13 ) ;
#278 = AXIS2_PLACEMENT_3D ( 'NONE', #226, #303, #196 ) ;
#279 = DIRECTION ( 'NONE',  ( 0.000000000000000000, 0.000000000000000000, -1.000000000000000000 ) ) ;
#280 = EDGE_CURVE ( 'NONE', #265, #232, #70, .T. ) ;
#281 = DIRECTION ( 'NONE',  ( -0.000000000000000000, -1.000000000000000000, -0.000000000000000000 ) ) ;
#282 = ORIENTED_EDGE ( 'NONE', *, *, #309, .T. ) ;
#283 = ORIENTED_EDGE ( 'NONE', *, *, #117, .T. ) ;
#284 = AXIS2_PLACEMENT_3D ( 'NONE', #220, #56, #59 ) ;
#285 = APPLICATION_CONTEXT ( 'automotive_design' ) ;
#286 = EDGE_CURVE ( 'NONE', #50, #124, #205, .T. ) ;
#287 = CARTESIAN_POINT ( 'NONE',  ( 0.000000000000000000, 0.000000000000000000, 0.000000000000000000 ) ) ;
#288 = CARTESIAN_POINT ( 'NONE',  ( 1.612151200245239261E-15, 0.000000000000000000, 13.16421356237310114 ) ) ;
#289 = DIRECTION ( 'NONE',  ( -1.000000000000000000, 0.000000000000000000, 0.000000000000000000 ) ) ;
#290 = CIRCLE ( 'NONE', #125, 1.749999999999999778 ) ;
#291 = DIRECTION ( 'NONE',  ( 0.000000000000000000, 1.000000000000000000, 0.000000000000000000 ) ) ;
#292 = CARTESIAN_POINT ( 'NONE',  ( 0.000000000000000000, 1.750000000000000000, 0.000000000000000000 ) ) ;
#293 = EDGE_LOOP ( 'NONE', ( #181, #282 ) ) ;
#294 = AXIS2_PLACEMENT_3D ( 'NONE', #276, #172, #330 ) ;
#295 = EDGE_CURVE ( 'NONE', #164, #319, #146, .T. ) ;
#296 = DIRECTION ( 'NONE',  ( -0.000000000000000000, -1.000000000000000000, -0.000000000000000000 ) ) ;
#297 = ORIENTED_EDGE ( 'NONE', *, *, #192, .T. ) ;
#298 = FACE_OUTER_BOUND ( 'NONE', #244, .T. ) ;
#299 = ORIENTED_EDGE ( 'NONE', *, *, #41, .T. ) ;
#300 = AXIS2_PLACEMENT_3D ( 'NONE', #239, #103, #323 ) ;
#301 = AXIS2_PLACEMENT_3D ( 'NONE', #30, #116, #87 ) ;
#302 = DIRECTION ( 'NONE',  ( -0.000000000000000000, -1.000000000000000000, -0.000000000000000000 ) ) ;
#303 = DIRECTION ( 'NONE',  ( -1.000000000000000000, 0.000000000000000000, 0.000000000000000000 ) ) ;
#304 = DIRECTION ( 'NONE',  ( 0.000000000000000000, 0.000000000000000000, -1.000000000000000000 ) ) ;
#305 = ORIENTED_EDGE ( 'NONE', *, *, #89, .T. ) ;
#306 = EDGE_CURVE ( 'NONE', #62, #268, #52, .T. ) ;
#307 = APPLICATION_CONTEXT ( 'automotive_design' ) ;
#308 = CARTESIAN_POINT ( 'NONE',  ( 0.000000000000000000, 3.500000000000000000, -11.75000000000000533 ) ) ;
#309 = EDGE_CURVE ( 'NONE', #63, #232, #270, .T. ) ;
#310 = AXIS2_PLACEMENT_3D ( 'NONE', #151, #9, #313 ) ;
#311 = FACE_OUTER_BOUND ( 'NONE', #72, .T. ) ;
#312 = ORIENTED_EDGE ( 'NONE', *, *, #78, .F. ) ;
#313 = DIRECTION ( 'NONE',  ( 0.000000000000000000, 0.000000000000000000, -1.000000000000000000 ) ) ;
#314 = CARTESIAN_POINT ( 'NONE',  ( 1.573664264412550901E-15, -0.3888888888888890061, 12.84994388184574454 ) ) ;
#315 = CIRCLE ( 'NONE', #300, 12.84994388184574454 ) ;
#316 = DIRECTION ( 'NONE',  ( -0.000000000000000000, -1.000000000000000000, -0.000000000000000000 ) ) ;
#317 = ORIENTED_EDGE ( 'NONE', *, *, #207, .F. ) ;
#318 = CARTESIAN_POINT ( 'NONE',  ( 0.000000000000000000, 0.3888888888888888951, -12.84994388184574454 ) ) ;
#319 = VERTEX_POINT ( 'NONE', #197 ) ;
#320 = EDGE_CURVE ( 'NONE', #50, #223, #85, .T. ) ;
#321 = CIRCLE ( 'NONE', #86, 1.749999999999999778 ) ;
#322 = ORIENTED_EDGE ( 'NONE', *, *, #207, .T. ) ;
#323 = DIRECTION ( 'NONE',  ( 0.000000000000000000, 0.000000000000000000, -1.000000000000000000 ) ) ;
#324 = ORIENTED_EDGE ( 'NONE', *, *, #253, .T. ) ;
#325 = CARTESIAN_POINT ( 'NONE',  ( 0.000000000000000000, -1.750000000000000000, 0.000000000000000000 ) ) ;
#326 = EDGE_LOOP ( 'NONE', ( #283, #305, #261, #349 ) ) ;
#327 = CARTESIAN_POINT ( 'NONE',  ( 0.000000000000000000, 3.499999999999999556, -10.00000000000000533 ) ) ;
#328 = CIRCLE ( 'NONE', #170, 0.5000000000000004441 ) ;
#329 = DIRECTION ( 'NONE',  ( -0.000000000000000000, -1.000000000000000000, -0.000000000000000000 ) ) ;
#330 = DIRECTION ( 'NONE',  ( 0.000000000000000000, 0.000000000000000000, -1.000000000000000000 ) ) ;
#331 = VERTEX_POINT ( 'NONE', #169 ) ;
#332 = ADVANCED_FACE ( 'NONE', ( #27 ), #249, .F. ) ;
#333 = DIRECTION ( 'NONE',  ( -0.000000000000000000, -1.000000000000000000, -0.000000000000000000 ) ) ;
#334 = FACE_OUTER_BOUND ( 'NONE', #74, .T. ) ;
#335 = AXIS2_PLACEMENT_3D ( 'NONE', #287, #202, #174 ) ;
#336 = DIRECTION ( 'NONE',  ( -0.000000000000000000, -1.000000000000000000, -0.000000000000000000 ) ) ;
#337 = ADVANCED_FACE ( 'NONE', ( #138 ), #91, .T. ) ;
#338 = AXIS2_PLACEMENT_3D ( 'NONE', #100, #183, #210 ) ;
#339 = DIRECTION ( 'NONE',  ( -0.000000000000000000, -1.000000000000000000, -0.000000000000000000 ) ) ;
#340 = ORIENTED_EDGE ( 'NONE', *, *, #153, .T. ) ;
#341 = DIRECTION ( 'NONE',  ( -0.000000000000000000, -1.000000000000000000, -0.000000000000000000 ) ) ;
#342 = ADVANCED_FACE ( 'NONE', ( #334 ), #148, .F. ) ;
#343 = SURFACE_STYLE_FILL_AREA ( #123 ) ;
#344 = AXIS2_PLACEMENT_3D ( 'NONE', #325, #137, #24 ) ;
#345 =( GEOMETRIC_REPRESENTATION_CONTEXT ( 3 ) GLOBAL_UNCERTAINTY_ASSIGNED_CONTEXT ( ( #231 ) ) GLOBAL_UNIT_ASSIGNED_CONTEXT ( ( #60, #111, #221 ) ) REPRESENTATION_CONTEXT ( 'NONE', 'WORKASPACE' ) );
#346 = EDGE_LOOP ( 'NONE', ( #130, #216, #32, #46 ) ) ;
#347 = CARTESIAN_POINT ( 'NONE',  ( 1.612151200245239261E-15, 0.000000000000000000, 13.16421356237310114 ) ) ;
#348 = CARTESIAN_POINT ( 'NONE',  ( 0.000000000000000000, 3.500000000000000000, 0.000000000000000000 ) ) ;
#349 = ORIENTED_EDGE ( 'NONE', *, *, #153, .F. ) ;
#350 = CIRCLE ( 'NONE', #224, 11.75000000000000533 ) ;
#351 = VERTEX_POINT ( 'NONE', #308 ) ;
#352 = CARTESIAN_POINT ( 'NONE',  ( 1.224646799147354045E-15, -3.500000000000000000, 10.00000000000000533 ) ) ;
#353 = ORIENTED_EDGE ( 'NONE', *, *, #295, .F. ) ;
#354 = DIRECTION ( 'NONE',  ( 0.000000000000000000, 0.000000000000000000, -1.000000000000000000 ) ) ;
#355 = CARTESIAN_POINT ( 'NONE',  ( 0.000000000000000000, -0.3888888888888890061, -12.84994388184574454 ) ) ;
#356 = TOROIDAL_SURFACE ( 'NONE', #310, 11.75000000000000533, 1.750000000000000000 ) ;
#357 = ORIENTED_EDGE ( 'NONE', *, *, #247, .F. ) ;
ENDSEC;
END-ISO-10303-21;
