ISO-10303-21;
HEADER;
FILE_DESCRIPTION (( 'STEP AP214' ),
    '1' );
FILE_NAME ('???-??????.STEP',
    '2025-10-26T14:07:21',
    ( '' ),
    ( '' ),
    'SwSTEP 2.0',
    'SolidWorks 2024',
    '' );
FILE_SCHEMA (( 'AUTOMOTIVE_DESIGN' ));
ENDSEC;

DATA;
#1 = ORIENTED_EDGE ( 'NONE', *, *, #173, .T. ) ;
#2 = CARTESIAN_POINT ( 'NONE',  ( 17.64007135754571820, -864.6365775715715927, 1.089767511550164385E-14 ) ) ;
#3 = DIRECTION ( 'NONE',  ( 0.000000000000000000, -1.000000000000000000, 0.000000000000000000 ) ) ;
#4 = DIRECTION ( 'NONE',  ( 1.000000000000000000, 0.000000000000000000, -0.000000000000000000 ) ) ;
#5 = VECTOR ( 'NONE', #106, 1000.000000000000000 ) ;
#6 = ORIENTED_EDGE ( 'NONE', *, *, #221, .F. ) ;
#7 = AXIS2_PLACEMENT_3D ( 'NONE', #58, #274, #876 ) ;
#8 = DIRECTION ( 'NONE',  ( -1.000000000000000000, 0.000000000000000000, 0.000000000000000000 ) ) ;
#9 = CIRCLE ( 'NONE', #540, 0.4999999999999449329 ) ;
#10 = CARTESIAN_POINT ( 'NONE',  ( 17.44007135754572957, -866.1365775715717064, 26.40797299037642887 ) ) ;
#11 = LINE ( 'NONE', #810, #265 ) ;
#12 = ORIENTED_EDGE ( 'NONE', *, *, #184, .F. ) ;
#13 = CYLINDRICAL_SURFACE ( 'NONE', #882, 0.5000000000000111022 ) ;
#14 = DIRECTION ( 'NONE',  ( 1.000000000000000000, 0.000000000000000000, 0.000000000000000000 ) ) ;
#15 = DIRECTION ( 'NONE',  ( -4.097771990496913504E-16, 0.000000000000000000, -1.000000000000000000 ) ) ;
#16 = EDGE_LOOP ( 'NONE', ( #528, #795, #432, #55 ) ) ;
#17 = CARTESIAN_POINT ( 'NONE',  ( 16.99698202422796811, -853.6192013636967886, 28.79355679643767374 ) ) ;
#18 = APPLICATION_CONTEXT ( 'automotive_design' ) ;
#19 = FACE_OUTER_BOUND ( 'NONE', #405, .T. ) ;
#20 = PLANE ( 'NONE',  #597 ) ;
#21 = ORIENTED_EDGE ( 'NONE', *, *, #850, .T. ) ;
#22 = CIRCLE ( 'NONE', #765, 8.000000000000014211 ) ;
#23 = LINE ( 'NONE', #238, #218 ) ;
#24 = AXIS2_PLACEMENT_3D ( 'NONE', #737, #664, #3 ) ;
#25 = CARTESIAN_POINT ( 'NONE',  ( 34.24007135754573028, -864.6365775715715927, 20.79355679643813204 ) ) ;
#26 = LINE ( 'NONE', #814, #750 ) ;
#27 = ORIENTED_EDGE ( 'NONE', *, *, #246, .T. ) ;
#28 = PLANE ( 'NONE',  #507 ) ;
#29 = VERTEX_POINT ( 'NONE', #41 ) ;
#30 = CARTESIAN_POINT ( 'NONE',  ( 34.24007135754573028, -864.6365775715715927, 20.29355679643813914 ) ) ;
#31 = EDGE_CURVE ( 'NONE', #778, #505, #181, .T. ) ;
#32 = SURFACE_STYLE_USAGE ( .BOTH. , #192 ) ;
#33 = CARTESIAN_POINT ( 'NONE',  ( 17.64007135754572531, -864.6365775715715927, 20.79355679643813204 ) ) ;
#34 = APPLICATION_PROTOCOL_DEFINITION ( 'draft international standard', 'automotive_design', 1998, #18 ) ;
#35 = VECTOR ( 'NONE', #546, 1000.000000000000000 ) ;
#36 = AXIS2_PLACEMENT_3D ( 'NONE', #226, #516, #242 ) ;
#37 = CARTESIAN_POINT ( 'NONE',  ( 34.44007135754573312, -866.1365775715717064, 26.40797299037642887 ) ) ;
#38 = ORIENTED_EDGE ( 'NONE', *, *, #929, .F. ) ;
#39 = ORIENTED_EDGE ( 'NONE', *, *, #482, .F. ) ;
#40 = SURFACE_STYLE_FILL_AREA ( #930 ) ;
#41 = CARTESIAN_POINT ( 'NONE',  ( 34.94007135754573312, -877.1365775715717064, 28.79355679643766308 ) ) ;
#42 = DIRECTION ( 'NONE',  ( 1.000000000000000000, 0.000000000000000000, 0.000000000000000000 ) ) ;
#43 = VERTEX_POINT ( 'NONE', #544 ) ;
#44 = EDGE_CURVE ( 'NONE', #372, #60, #234, .T. ) ;
#45 = PRODUCT_CONTEXT ( 'NONE', #18, 'mechanical' ) ;
#46 = EDGE_LOOP ( 'NONE', ( #626, #591, #557, #949 ) ) ;
#47 =( BOUNDED_CURVE ( )  B_SPLINE_CURVE ( 3, ( #177, #318, #681, #17 ),
 .UNSPECIFIED., .F., .T. ) 
 B_SPLINE_CURVE_WITH_KNOTS ( ( 4, 4 ),
 ( 4.712388980384590198, 5.194153623690798582 ),
 .UNSPECIFIED. ) 
 CURVE ( )  GEOMETRIC_REPRESENTATION_ITEM ( )  RATIONAL_B_SPLINE_CURVE ( ( 1.000000000000000000, 0.9807519110771943938, 0.9807519110771943938, 1.000000000000000000 ) ) 
 REPRESENTATION_ITEM ( '' )  );
#48 = AXIS2_PLACEMENT_3D ( 'NONE', #723, #349, #574 ) ;
#49 = PLANE ( 'NONE',  #687 ) ;
#50 = ORIENTED_EDGE ( 'NONE', *, *, #730, .F. ) ;
#51 = ORIENTED_EDGE ( 'NONE', *, *, #254, .F. ) ;
#52 = EDGE_CURVE ( 'NONE', #74, #778, #697, .T. ) ;
#53 = CARTESIAN_POINT ( 'NONE',  ( 16.94007135754572957, -877.1365775715717064, 28.79355679643766308 ) ) ;
#54 = CARTESIAN_POINT ( 'NONE',  ( 16.94007135754572957, -854.1372353524467371, 28.79355679643768084 ) ) ;
#55 = ORIENTED_EDGE ( 'NONE', *, *, #619, .F. ) ;
#56 = DIRECTION ( 'NONE',  ( 0.000000000000000000, 0.000000000000000000, 1.000000000000000000 ) ) ;
#57 = EDGE_CURVE ( 'NONE', #135, #744, #838, .T. ) ;
#58 = CARTESIAN_POINT ( 'NONE',  ( 17.64007135754572886, -864.6365775715715927, 28.79355679643767374 ) ) ;
#59 = CARTESIAN_POINT ( 'NONE',  ( 34.44007135754573312, -877.6365775715715927, 29.60224490037527545 ) ) ;
#60 = VERTEX_POINT ( 'NONE', #700 ) ;
#61 = DIRECTION ( 'NONE',  ( 0.000000000000000000, 0.4472135955000411944, -0.8944271909998742220 ) ) ;
#62 = CYLINDRICAL_SURFACE ( 'NONE', #689, 0.5000000000000004441 ) ;
#63 = AXIS2_PLACEMENT_3D ( 'NONE', #738, #590, #247 ) ;
#64 = FACE_OUTER_BOUND ( 'NONE', #244, .T. ) ;
#65 = VECTOR ( 'NONE', #434, 1000.000000000000000 ) ;
#66 = ORIENTED_EDGE ( 'NONE', *, *, #645, .T. ) ;
#67 = CARTESIAN_POINT ( 'NONE',  ( 17.14007135754572886, -867.6365775715717064, 28.79355679643767019 ) ) ;
#68 = CARTESIAN_POINT ( 'NONE',  ( 34.74007135754573028, -657.8365775715716381, 20.79355679643813204 ) ) ;
#69 = CARTESIAN_POINT ( 'NONE',  ( 17.44007135754572957, -866.1365775715717064, 26.40797299037642887 ) ) ;
#70 = ORIENTED_EDGE ( 'NONE', *, *, #543, .F. ) ;
#71 = CARTESIAN_POINT ( 'NONE',  ( 34.88316069086349813, -853.6192013636967886, 28.79355679643767374 ) ) ;
#72 = DIRECTION ( 'NONE',  ( 1.000000000000000000, 0.000000000000000000, 0.000000000000000000 ) ) ;
#73 = FACE_OUTER_BOUND ( 'NONE', #618, .T. ) ;
#74 = VERTEX_POINT ( 'NONE', #341 ) ;
#75 = DIRECTION ( 'NONE',  ( -0.000000000000000000, 0.8944271909998970926, 0.4472135954999958418 ) ) ;
#76 = CARTESIAN_POINT ( 'NONE',  ( 16.94007135754572957, -862.7824756053216788, 33.11617692287566683 ) ) ;
#77 = CARTESIAN_POINT ( 'NONE',  ( 17.14007135754572531, -867.6365775715717064, 20.79355679643813204 ) ) ;
#78 = CIRCLE ( 'NONE', #63, 0.4999999999999449329 ) ;
#79 = ORIENTED_EDGE ( 'NONE', *, *, #360, .F. ) ;
#80 = CIRCLE ( 'NONE', #704, 0.4999999999999449329 ) ;
#81 = CARTESIAN_POINT ( 'NONE',  ( 17.44007135754572957, -870.7767091277459031, 37.11329368408812712 ) ) ;
#82 = EDGE_CURVE ( 'NONE', #407, #712, #216, .T. ) ;
#83 = ADVANCED_FACE ( 'NONE', ( #73 ), #426, .T. ) ;
#84 = CYLINDRICAL_SURFACE ( 'NONE', #160, 0.5000000000000004441 ) ;
#85 = CARTESIAN_POINT ( 'NONE',  ( 34.44007135754573312, -853.6192013636967886, 29.09355679643766024 ) ) ;
#86 = ORIENTED_EDGE ( 'NONE', *, *, #839, .T. ) ;
#87 = CARTESIAN_POINT ( 'NONE',  ( 17.64007135754572531, -864.6365775715715927, 20.29355679643813914 ) ) ;
#88 = CYLINDRICAL_SURFACE ( 'NONE', #465, 0.5000000000000111022 ) ;
#89 = EDGE_CURVE ( 'NONE', #505, #815, #289, .T. ) ;
#90 = CARTESIAN_POINT ( 'NONE',  ( 17.44007135754572957, -866.1365775715717064, 34.40797299037644308 ) ) ;
#91 = EDGE_LOOP ( 'NONE', ( #258, #413, #510, #107 ) ) ;
#92 = CARTESIAN_POINT ( 'NONE',  ( 17.44007135754572957, -869.7142863355718418, 33.56339051837564824 ) ) ;
#93 = FACE_OUTER_BOUND ( 'NONE', #777, .T. ) ;
#94 = DIRECTION ( 'NONE',  ( 1.000000000000000000, 0.000000000000000000, 0.000000000000000000 ) ) ;
#95 = VERTEX_POINT ( 'NONE', #421 ) ;
#96 = VECTOR ( 'NONE', #495, 1000.000000000000114 ) ;
#97 = CARTESIAN_POINT ( 'NONE',  ( 16.94007135754572957, -869.4906795378217339, 33.11617692287570947 ) ) ;
#98 = TOROIDAL_SURFACE ( 'NONE', #338, 7.500000000000015099, 0.5000000000000000000 ) ;
#99 = DIRECTION ( 'NONE',  ( 1.000000000000000000, 0.000000000000000000, 0.000000000000000000 ) ) ;
#100 = VERTEX_POINT ( 'NONE', #54 ) ;
#101 = ADVANCED_FACE ( 'NONE', ( #295 ), #364, .T. ) ;
#102 = DIRECTION ( 'NONE',  ( 0.000000000000000000, -7.542275982507851230E-16, 1.000000000000000000 ) ) ;
#103 = LINE ( 'NONE', #775, #429 ) ;
#104 = ORIENTED_EDGE ( 'NONE', *, *, #111, .F. ) ;
#105 =( NAMED_UNIT ( * ) SI_UNIT ( $, .STERADIAN. ) SOLID_ANGLE_UNIT ( ) );
#106 = DIRECTION ( 'NONE',  ( 0.000000000000000000, 0.000000000000000000, -1.000000000000000000 ) ) ;
#107 = ORIENTED_EDGE ( 'NONE', *, *, #776, .F. ) ;
#108 = ORIENTED_EDGE ( 'NONE', *, *, #330, .F. ) ;
#109 = AXIS2_PLACEMENT_3D ( 'NONE', #851, #121, #402 ) ;
#110 = CIRCLE ( 'NONE', #925, 7.500000000000013323 ) ;
#111 = EDGE_CURVE ( 'NONE', #284, #43, #149, .T. ) ;
#112 = AXIS2_PLACEMENT_3D ( 'NONE', #818, #392, #887 ) ;
#113 = DIRECTION ( 'NONE',  ( 0.000000000000000000, -1.000000000000000000, -7.542275982507852216E-16 ) ) ;
#114 = ORIENTED_EDGE ( 'NONE', *, *, #168, .T. ) ;
#115 = SHAPE_DEFINITION_REPRESENTATION ( #907, #678 ) ;
#116 = ORIENTED_EDGE ( 'NONE', *, *, #543, .T. ) ;
#117 = EDGE_CURVE ( 'NONE', #100, #567, #570, .T. ) ;
#118 = CARTESIAN_POINT ( 'NONE',  ( 17.64007135754572531, -864.1365775715717064, 20.79355679643813204 ) ) ;
#119 = DIRECTION ( 'NONE',  ( 0.000000000000000000, 0.000000000000000000, 1.000000000000000000 ) ) ;
#120 = ORIENTED_EDGE ( 'NONE', *, *, #935, .F. ) ;
#121 = DIRECTION ( 'NONE',  ( -1.000000000000000000, -0.000000000000000000, -0.000000000000000000 ) ) ;
#122 = ADVANCED_FACE ( 'NONE', ( #64 ), #207, .F. ) ;
#123 = DIRECTION ( 'NONE',  ( -1.000000000000000000, -0.000000000000000000, -0.000000000000000000 ) ) ;
#124 = VERTEX_POINT ( 'NONE', #514 ) ;
#125 = VECTOR ( 'NONE', #435, 1000.000000000000000 ) ;
#126 = VECTOR ( 'NONE', #280, 1000.000000000000000 ) ;
#127 = CARTESIAN_POINT ( 'NONE',  ( 34.24007135754573028, -867.6365775715717064, 20.79355679643813204 ) ) ;
#128 = VECTOR ( 'NONE', #445, 1000.000000000000000 ) ;
#129 = VECTOR ( 'NONE', #641, 1000.000000000000000 ) ;
#130 = CARTESIAN_POINT ( 'NONE',  ( 34.44007135754573312, -877.6365775715717064, 0.000000000000000000 ) ) ;
#131 = ADVANCED_FACE ( 'NONE', ( #285 ), #653, .T. ) ;
#132 = CARTESIAN_POINT ( 'NONE',  ( 34.24007135754573028, -867.6365775715717064, 28.79355679643767019 ) ) ;
#133 = DIRECTION ( 'NONE',  ( 0.000000000000000000, 0.000000000000000000, 1.000000000000000000 ) ) ;
#134 = DIRECTION ( 'NONE',  ( 0.000000000000000000, -0.000000000000000000, -1.000000000000000000 ) ) ;
#135 = VERTEX_POINT ( 'NONE', #59 ) ;
#136 = LINE ( 'NONE', #511, #399 ) ;
#137 = EDGE_CURVE ( 'NONE', #515, #196, #794, .T. ) ;
#138 = CARTESIAN_POINT ( 'NONE',  ( 17.44007135754572957, -877.6365775715715927, 29.60224490037527545 ) ) ;
#139 = DIRECTION ( 'NONE',  ( -1.000000000000000000, -0.000000000000000000, -0.000000000000000000 ) ) ;
#140 = ORIENTED_EDGE ( 'NONE', *, *, #44, .T. ) ;
#141 = DIRECTION ( 'NONE',  ( 0.000000000000000000, -1.000000000000000000, 0.000000000000000000 ) ) ;
#142 = LINE ( 'NONE', #425, #640 ) ;
#143 = DIRECTION ( 'NONE',  ( 0.000000000000000000, -1.000000000000000000, -7.542275982507851230E-16 ) ) ;
#144 = VECTOR ( 'NONE', #379, 1000.000000000000227 ) ;
#145 = ORIENTED_EDGE ( 'NONE', *, *, #292, .F. ) ;
#146 = CARTESIAN_POINT ( 'NONE',  ( 60.60494575636151637, -187.3682134744949224, 374.7364269489501680 ) ) ;
#147 = CARTESIAN_POINT ( 'NONE',  ( 34.24007135754573028, -868.1365775715717064, 20.79355679643813204 ) ) ;
#148 = EDGE_CURVE ( 'NONE', #911, #135, #872, .T. ) ;
#149 = LINE ( 'NONE', #952, #125 ) ;
#150 = EDGE_LOOP ( 'NONE', ( #921, #676, #66, #827, #208 ) ) ;
#151 = DIRECTION ( 'NONE',  ( -6.206335383119256039E-15, -0.8944271909998769976, -0.4472135955000356433 ) ) ;
#152 = DIRECTION ( 'NONE',  ( 0.000000000000000000, -7.542275982507851230E-16, 1.000000000000000000 ) ) ;
#153 = CARTESIAN_POINT ( 'NONE',  ( 34.44007135754573312, -869.4906795378217339, 33.11617692287566683 ) ) ;
#154 = EDGE_CURVE ( 'NONE', #718, #100, #644, .T. ) ;
#155 = ORIENTED_EDGE ( 'NONE', *, *, #829, .T. ) ;
#156 = DIRECTION ( 'NONE',  ( 0.000000000000000000, -0.8944271909998968706, -0.4472135954999957308 ) ) ;
#157 = LINE ( 'NONE', #668, #128 ) ;
#158 = DIRECTION ( 'NONE',  ( 0.000000000000000000, 0.7071067811865132668, -0.7071067811865818786 ) ) ;
#159 = AXIS2_PLACEMENT_3D ( 'NONE', #37, #396, #473 ) ;
#160 = AXIS2_PLACEMENT_3D ( 'NONE', #305, #517, #369 ) ;
#161 = ORIENTED_EDGE ( 'NONE', *, *, #292, .T. ) ;
#162 = AXIS2_PLACEMENT_3D ( 'NONE', #823, #383, #315 ) ;
#163 = FACE_OUTER_BOUND ( 'NONE', #230, .T. ) ;
#164 = CARTESIAN_POINT ( 'NONE',  ( 16.94007135754572957, -877.9365775715716609, 22.79355679643813559 ) ) ;
#165 = DIRECTION ( 'NONE',  ( -4.965068306495342985E-14, 0.8944271909998797732, 0.4472135955000300922 ) ) ;
#166 = EDGE_LOOP ( 'NONE', ( #703, #609, #397, #449, #286 ) ) ;
#167 = CARTESIAN_POINT ( 'NONE',  ( 17.44007135754572957, -877.6365775715718200, 29.60224490037519018 ) ) ;
#168 = EDGE_CURVE ( 'NONE', #734, #842, #942, .T. ) ;
#169 = DIRECTION ( 'NONE',  ( 0.000000000000000000, -1.000000000000000000, -7.542275982507851230E-16 ) ) ;
#170 = DIRECTION ( 'NONE',  ( -1.000000000000000000, -0.000000000000000000, -0.000000000000000000 ) ) ;
#171 = ORIENTED_EDGE ( 'NONE', *, *, #52, .F. ) ;
#172 = DIRECTION ( 'NONE',  ( 0.000000000000000000, 0.7071067811865132668, -0.7071067811865818786 ) ) ;
#173 = EDGE_CURVE ( 'NONE', #734, #774, #22, .T. ) ;
#174 = PLANE ( 'NONE',  #844 ) ;
#175 = ORIENTED_EDGE ( 'NONE', *, *, #374, .F. ) ;
#176 = CLOSED_SHELL ( 'NONE', ( #941, #709, #771, #741, #83, #283, #862, #513, #656, #122, #229, #875, #792, #354, #682, #728, #424, #686, #903, #602, #301, #101, #461, #804, #571, #321, #868, #835, #343, #131, #436, #715, #559, #535 ) ) ;
#177 = CARTESIAN_POINT ( 'NONE',  ( 16.94007135754572957, -854.1372353524467371, 28.79355679643768084 ) ) ;
#178 = CIRCLE ( 'NONE', #386, 0.5000000000000048850 ) ;
#179 = FILL_AREA_STYLE_COLOUR ( '', #415 ) ;
#180 = VERTEX_POINT ( 'NONE', #799 ) ;
#181 =( BOUNDED_CURVE ( )  B_SPLINE_CURVE ( 3, ( #334, #479, #773, #256 ),
 .UNSPECIFIED., .F., .T. ) 
 B_SPLINE_CURVE_WITH_KNOTS ( ( 4, 4 ),
 ( 2.052560970101005022, 3.141592653589793116 ),
 .UNSPECIFIED. ) 
 CURVE ( )  GEOMETRIC_REPRESENTATION_ITEM ( )  RATIONAL_B_SPLINE_CURVE ( ( 1.000000000000000000, 0.9035854579628272987, 0.9035854579628272987, 1.000000000000000000 ) ) 
 REPRESENTATION_ITEM ( '' )  );
#182 = ORIENTED_EDGE ( 'NONE', *, *, #908, .F. ) ;
#183 = ORIENTED_EDGE ( 'NONE', *, *, #589, .F. ) ;
#184 = EDGE_CURVE ( 'NONE', #290, #842, #581, .T. ) ;
#185 = ORIENTED_EDGE ( 'NONE', *, *, #393, .T. ) ;
#186 = VECTOR ( 'NONE', #527, 1000.000000000000000 ) ;
#187 = VECTOR ( 'NONE', #756, 1000.000000000000000 ) ;
#188 = ORIENTED_EDGE ( 'NONE', *, *, #237, .T. ) ;
#189 =( NAMED_UNIT ( * ) PLANE_ANGLE_UNIT ( ) SI_UNIT ( $, .RADIAN. ) );
#190 = EDGE_LOOP ( 'NONE', ( #365, #140, #175, #748 ) ) ;
#191 = EDGE_CURVE ( 'NONE', #124, #485, #359, .T. ) ;
#192 = SURFACE_SIDE_STYLE ('',( #40 ) ) ;
#193 = ORIENTED_EDGE ( 'NONE', *, *, #776, .T. ) ;
#194 = UNCERTAINTY_MEASURE_WITH_UNIT (LENGTH_MEASURE( 1.000000000000000082E-05 ), #616, 'distance_accuracy_value', 'NONE');
#195 = CARTESIAN_POINT ( 'NONE',  ( 17.64007135754572531, -868.1365775715717064, 20.79355679643813204 ) ) ;
#196 = VERTEX_POINT ( 'NONE', #866 ) ;
#197 = ORIENTED_EDGE ( 'NONE', *, *, #191, .F. ) ;
#198 = CARTESIAN_POINT ( 'NONE',  ( 34.92072882860121297, -853.7798668940066591, 28.79355679643768440 ) ) ;
#199 = VECTOR ( 'NONE', #757, 1000.000000000000000 ) ;
#200 = CIRCLE ( 'NONE', #7, 0.4999999999999449329 ) ;
#201 = CARTESIAN_POINT ( 'NONE',  ( 17.44007135754572957, -853.6192013636967886, 29.09355679643766024 ) ) ;
#202 = AXIS2_PLACEMENT_3D ( 'NONE', #702, #260, #920 ) ;
#203 = DIRECTION ( 'NONE',  ( 1.000000000000000000, 0.000000000000000000, 0.000000000000000000 ) ) ;
#204 = ORIENTED_EDGE ( 'NONE', *, *, #797, .T. ) ;
#205 = FACE_OUTER_BOUND ( 'NONE', #190, .T. ) ;
#206 = CARTESIAN_POINT ( 'NONE',  ( 34.44007135754573312, -862.7824756053216788, 33.11617692287564552 ) ) ;
#207 = PLANE ( 'NONE',  #48 ) ;
#208 = ORIENTED_EDGE ( 'NONE', *, *, #482, .T. ) ;
#209 = CARTESIAN_POINT ( 'NONE',  ( 34.24007135754573028, 0.000000000000000000, 20.29355679643813914 ) ) ;
#210 = CARTESIAN_POINT ( 'NONE',  ( 16.94007135754572246, -877.4294707903852668, 29.47424587030125664 ) ) ;
#211 = CARTESIAN_POINT ( 'NONE',  ( 60.60494575636151637, -877.6365775715717064, 0.000000000000000000 ) ) ;
#212 = VERTEX_POINT ( 'NONE', #633 ) ;
#213 = CARTESIAN_POINT ( 'NONE',  ( 60.60494575636151637, -866.1365775715717064, 26.40797299037642887 ) ) ;
#214 = CARTESIAN_POINT ( 'NONE',  ( 16.94007135754572957, -877.1365775715717064, 29.60224490037527545 ) ) ;
#215 = AXIS2_PLACEMENT_3D ( 'NONE', #683, #42, #692 ) ;
#216 = LINE ( 'NONE', #499, #324 ) ;
#217 = VECTOR ( 'NONE', #705, 1000.000000000000114 ) ;
#218 = VECTOR ( 'NONE', #172, 1000.000000000000000 ) ;
#219 = ORIENTED_EDGE ( 'NONE', *, *, #401, .T. ) ;
#220 = FACE_OUTER_BOUND ( 'NONE', #558, .T. ) ;
#221 = EDGE_CURVE ( 'NONE', #915, #60, #789, .T. ) ;
#222 = CARTESIAN_POINT ( 'NONE',  ( 17.14007135754572886, -2.171689518767525532E-14, 28.79355679643832744 ) ) ;
#223 = EDGE_CURVE ( 'NONE', #180, #472, #565, .T. ) ;
#224 = CARTESIAN_POINT ( 'NONE',  ( 34.44007135754573312, -866.1365775715717064, 26.40797299037642887 ) ) ;
#225 = ORIENTED_EDGE ( 'NONE', *, *, #922, .T. ) ;
#226 = CARTESIAN_POINT ( 'NONE',  ( 17.44007135754572957, -862.7824756053216788, 33.11617692287560999 ) ) ;
#227 = CARTESIAN_POINT ( 'NONE',  ( 17.14007135754572531, -657.8365775715716381, 20.79355679643813204 ) ) ;
#228 = DIRECTION ( 'NONE',  ( 1.000000000000000000, 0.000000000000000000, 0.000000000000000000 ) ) ;
#229 = ADVANCED_FACE ( 'NONE', ( #310 ), #28, .T. ) ;
#230 = EDGE_LOOP ( 'NONE', ( #615, #585, #182, #579, #847 ) ) ;
#231 = PLANE ( 'NONE',  #162 ) ;
#232 = CARTESIAN_POINT ( 'NONE',  ( 16.94007135754572957, -869.4906795378219613, 33.11617692287560999 ) ) ;
#233 = DIRECTION ( 'NONE',  ( -1.000000000000000000, 0.000000000000000000, 0.000000000000000000 ) ) ;
#234 = CIRCLE ( 'NONE', #489, 0.5000000000000004441 ) ;
#235 = CIRCLE ( 'NONE', #297, 0.4999999999999449329 ) ;
#236 = VERTEX_POINT ( 'NONE', #826 ) ;
#237 = EDGE_CURVE ( 'NONE', #196, #180, #733, .T. ) ;
#238 = CARTESIAN_POINT ( 'NONE',  ( 17.64007135754572531, -868.1365775715717064, 20.79355679643813204 ) ) ;
#239 = LINE ( 'NONE', #227, #279 ) ;
#240 = DIRECTION ( 'NONE',  ( 1.000000000000000000, 0.000000000000000000, -4.097771990496913504E-16 ) ) ;
#241 = ORIENTED_EDGE ( 'NONE', *, *, #117, .T. ) ;
#242 = DIRECTION ( 'NONE',  ( 0.000000000000000000, -0.4472135955000356433, -0.8944271909998769976 ) ) ;
#243 = FACE_OUTER_BOUND ( 'NONE', #248, .T. ) ;
#244 = EDGE_LOOP ( 'NONE', ( #729, #409, #377, #188 ) ) ;
#245 = DIRECTION ( 'NONE',  ( 0.000000000000000000, -1.000000000000000000, 0.000000000000000000 ) ) ;
#246 = EDGE_CURVE ( 'NONE', #437, #843, #830, .T. ) ;
#247 = DIRECTION ( 'NONE',  ( 0.000000000000000000, -1.000000000000000000, 0.000000000000000000 ) ) ;
#248 = EDGE_LOOP ( 'NONE', ( #108, #919, #763, #70 ) ) ;
#249 = VECTOR ( 'NONE', #752, 1000.000000000000000 ) ;
#250 = AXIS2_PLACEMENT_3D ( 'NONE', #267, #695, #853 ) ;
#251 = LINE ( 'NONE', #837, #478 ) ;
#252 = VECTOR ( 'NONE', #745, 1000.000000000000000 ) ;
#253 = CIRCLE ( 'NONE', #36, 0.5000000000000048850 ) ;
#254 = EDGE_CURVE ( 'NONE', #515, #95, #398, .T. ) ;
#255 = CARTESIAN_POINT ( 'NONE',  ( 34.94007135754573312, -2.171689518767525216E-14, 28.79355679643832744 ) ) ;
#256 = CARTESIAN_POINT ( 'NONE',  ( 17.44007135754572957, -853.6192013636967886, 29.09355679643766024 ) ) ;
#257 =( NAMED_UNIT ( * ) SI_UNIT ( $, .STERADIAN. ) SOLID_ANGLE_UNIT ( ) );
#258 = ORIENTED_EDGE ( 'NONE', *, *, #137, .F. ) ;
#259 = EDGE_CURVE ( 'NONE', #236, #621, #385, .T. ) ;
#260 = DIRECTION ( 'NONE',  ( 0.000000000000000000, 0.000000000000000000, 1.000000000000000000 ) ) ;
#261 = EDGE_LOOP ( 'NONE', ( #469, #646, #605, #390 ) ) ;
#262 =( LENGTH_UNIT ( ) NAMED_UNIT ( * ) SI_UNIT ( .MILLI., .METRE. ) );
#263 = ORIENTED_EDGE ( 'NONE', *, *, #259, .T. ) ;
#264 = ORIENTED_EDGE ( 'NONE', *, *, #117, .F. ) ;
#265 = VECTOR ( 'NONE', #158, 1000.000000000000000 ) ;
#266 = PRESENTATION_LAYER_ASSIGNMENT (  '', '', ( #491 ) ) ;
#267 = CARTESIAN_POINT ( 'NONE',  ( 17.64007135754571820, -867.6365775715717064, -7.228499031931768890E-15 ) ) ;
#268 = ORIENTED_EDGE ( 'NONE', *, *, #922, .F. ) ;
#269 = ORIENTED_EDGE ( 'NONE', *, *, #168, .F. ) ;
#270 = EDGE_CURVE ( 'NONE', #43, #915, #26, .T. ) ;
#271 = DIRECTION ( 'NONE',  ( 0.000000000000000000, -1.000000000000000000, 0.000000000000000000 ) ) ;
#272 = VERTEX_POINT ( 'NONE', #904 ) ;
#273 = ORIENTED_EDGE ( 'NONE', *, *, #464, .T. ) ;
#274 = DIRECTION ( 'NONE',  ( 0.000000000000000000, -7.542275982507851230E-16, 1.000000000000000000 ) ) ;
#275 = CARTESIAN_POINT ( 'NONE',  ( 17.64007135754572531, -864.6365775715715927, 20.29355679643813914 ) ) ;
#276 = ORIENTED_EDGE ( 'NONE', *, *, #391, .F. ) ;
#277 = DIRECTION ( 'NONE',  ( -1.000000000000000000, 0.000000000000000000, 0.000000000000000000 ) ) ;
#278 = CIRCLE ( 'NONE', #109, 8.000000000000014211 ) ;
#279 = VECTOR ( 'NONE', #883, 1000.000000000000000 ) ;
#280 = DIRECTION ( 'NONE',  ( -0.000000000000000000, 0.000000000000000000, -1.000000000000000000 ) ) ;
#281 = AXIS2_PLACEMENT_3D ( 'NONE', #291, #277, #56 ) ;
#282 = DIRECTION ( 'NONE',  ( 0.000000000000000000, 0.000000000000000000, -1.000000000000000000 ) ) ;
#283 = ADVANCED_FACE ( 'NONE', ( #381 ), #174, .T. ) ;
#284 = VERTEX_POINT ( 'NONE', #77 ) ;
#285 = FACE_OUTER_BOUND ( 'NONE', #849, .T. ) ;
#286 = ORIENTED_EDGE ( 'NONE', *, *, #173, .F. ) ;
#287 = CARTESIAN_POINT ( 'NONE',  ( 34.94007135754573312, -877.1365775715717064, 29.29322790600037862 ) ) ;
#288 = FACE_OUTER_BOUND ( 'NONE', #403, .T. ) ;
#289 = LINE ( 'NONE', #509, #817 ) ;
#290 = VERTEX_POINT ( 'NONE', #90 ) ;
#291 = CARTESIAN_POINT ( 'NONE',  ( 34.74007135754573028, -657.8365775715716381, 0.000000000000000000 ) ) ;
#292 = EDGE_CURVE ( 'NONE', #515, #895, #11, .T. ) ;
#293 = LINE ( 'NONE', #593, #861 ) ;
#294 = VECTOR ( 'NONE', #123, 1000.000000000000000 ) ;
#295 = FACE_OUTER_BOUND ( 'NONE', #46, .T. ) ;
#296 = AXIS2_PLACEMENT_3D ( 'NONE', #950, #75, #647 ) ;
#297 = AXIS2_PLACEMENT_3D ( 'NONE', #132, #418, #141 ) ;
#298 = ORIENTED_EDGE ( 'NONE', *, *, #270, .F. ) ;
#299 = PLANE ( 'NONE',  #325 ) ;
#300 = DIRECTION ( 'NONE',  ( 1.000000000000000000, 0.000000000000000000, 0.000000000000000000 ) ) ;
#301 = ADVANCED_FACE ( 'NONE', ( #243 ), #302, .T. ) ;
#302 = CYLINDRICAL_SURFACE ( 'NONE', #912, 0.5000000000000004441 ) ;
#303 = ORIENTED_EDGE ( 'NONE', *, *, #691, .F. ) ;
#304 = LINE ( 'NONE', #892, #721 ) ;
#305 = CARTESIAN_POINT ( 'NONE',  ( 34.44007135754573312, -877.1365775715717064, 0.000000000000000000 ) ) ;
#306 = LINE ( 'NONE', #894, #186 ) ;
#307 = ORIENTED_EDGE ( 'NONE', *, *, #619, .T. ) ;
#308 = CARTESIAN_POINT ( 'NONE',  ( 17.64007135754572531, -864.6365775715715927, 20.29355679643813914 ) ) ;
#309 = DIRECTION ( 'NONE',  ( -3.090652726571825957E-31, -1.000000000000000000, -7.542275982507851230E-16 ) ) ;
#310 = FACE_OUTER_BOUND ( 'NONE', #836, .T. ) ;
#311 = CIRCLE ( 'NONE', #553, 7.500000000000013323 ) ;
#312 = EDGE_LOOP ( 'NONE', ( #928, #634, #784, #811 ) ) ;
#313 = EDGE_CURVE ( 'NONE', #734, #863, #475, .T. ) ;
#314 = AXIS2_PLACEMENT_3D ( 'NONE', #769, #916, #548 ) ;
#315 = DIRECTION ( 'NONE',  ( 0.000000000000000000, 0.8944271909998972037, -0.4472135954999951757 ) ) ;
#316 = DIRECTION ( 'NONE',  ( 0.000000000000000000, 1.000000000000000000, -3.700743415417253765E-13 ) ) ;
#317 = ORIENTED_EDGE ( 'NONE', *, *, #367, .F. ) ;
#318 = CARTESIAN_POINT ( 'NONE',  ( 16.94007135754572246, -853.9559338425384567, 28.79355679643768440 ) ) ;
#319 = CYLINDRICAL_SURFACE ( 'NONE', #717, 0.5000000000000004441 ) ;
#320 = EDGE_LOOP ( 'NONE', ( #21, #155, #474, #852 ) ) ;
#321 = ADVANCED_FACE ( 'NONE', ( #440 ), #319, .T. ) ;
#322 = CARTESIAN_POINT ( 'NONE',  ( 34.74007135754573028, -2.171689518767525216E-14, 28.79355679643832744 ) ) ;
#323 = ORIENTED_EDGE ( 'NONE', *, *, #850, .F. ) ;
#324 = VECTOR ( 'NONE', #727, 1000.000000000000114 ) ;
#325 = AXIS2_PLACEMENT_3D ( 'NONE', #146, #731, #791 ) ;
#326 = AXIS2_PLACEMENT_3D ( 'NONE', #525, #533, #245 ) ;
#327 = ORIENTED_EDGE ( 'NONE', *, *, #636, .F. ) ;
#328 = EDGE_LOOP ( 'NONE', ( #693, #781, #241, #116, #690 ) ) ;
#329 = CARTESIAN_POINT ( 'NONE',  ( 34.94007135754573312, -854.1372353524467371, 28.79355679643768084 ) ) ;
#330 = EDGE_CURVE ( 'NONE', #654, #567, #78, .T. ) ;
#331 = ORIENTED_EDGE ( 'NONE', *, *, #816, .T. ) ;
#332 = ORIENTED_EDGE ( 'NONE', *, *, #57, .F. ) ;
#333 = LINE ( 'NONE', #556, #5 ) ;
#334 = CARTESIAN_POINT ( 'NONE',  ( 16.99698202422796811, -853.6192013636967886, 28.79355679643767374 ) ) ;
#335 = APPLICATION_PROTOCOL_DEFINITION ( 'draft international standard', 'automotive_design', 1998, #786 ) ;
#336 = EDGE_LOOP ( 'NONE', ( #867, #490, #807, #120 ) ) ;
#337 = TOROIDAL_SURFACE ( 'NONE', #159, 7.500000000000015099, 0.5000000000000000000 ) ;
#338 = AXIS2_PLACEMENT_3D ( 'NONE', #10, #598, #588 ) ;
#339 = VECTOR ( 'NONE', #156, 1000.000000000000227 ) ;
#340 = DIRECTION ( 'NONE',  ( 0.000000000000000000, -0.8944271909998968706, -0.4472135954999957308 ) ) ;
#341 = CARTESIAN_POINT ( 'NONE',  ( 34.88316069086349813, -853.6192013636967886, 28.79355679643767374 ) ) ;
#342 = EDGE_LOOP ( 'NONE', ( #104, #937, #6, #298 ) ) ;
#343 = ADVANCED_FACE ( 'NONE', ( #743 ), #800, .T. ) ;
#344 = DIRECTION ( 'NONE',  ( 1.241267076623835746E-14, 0.8944271909998797732, -0.4472135955000300922 ) ) ;
#345 = CARTESIAN_POINT ( 'NONE',  ( 60.60494575636151637, -869.7142863355718418, 33.56339051837564824 ) ) ;
#346 = ORIENTED_EDGE ( 'NONE', *, *, #564, .F. ) ;
#347 = DIRECTION ( 'NONE',  ( 0.000000000000000000, -7.542275982507851230E-16, 1.000000000000000000 ) ) ;
#348 = LINE ( 'NONE', #714, #217 ) ;
#349 = DIRECTION ( 'NONE',  ( -0.000000000000000000, 1.000000000000000000, 0.000000000000000000 ) ) ;
#350 = VERTEX_POINT ( 'NONE', #85 ) ;
#351 = LINE ( 'NONE', #796, #129 ) ;
#352 = VECTOR ( 'NONE', #139, 1000.000000000000000 ) ;
#353 = CARTESIAN_POINT ( 'NONE',  ( 34.94007135754573312, -877.1365775715717064, 29.29322790600037862 ) ) ;
#354 = ADVANCED_FACE ( 'NONE', ( #665 ), #20, .F. ) ;
#355 = DIRECTION ( 'NONE',  ( -0.000000000000000000, 0.000000000000000000, 1.000000000000000000 ) ) ;
#356 = EDGE_LOOP ( 'NONE', ( #532, #927, #639, #545 ) ) ;
#357 = CARTESIAN_POINT ( 'NONE',  ( 34.94007135754573312, -877.4294707903851531, 29.47424587030126020 ) ) ;
#358 = DIRECTION ( 'NONE',  ( -1.000000000000000000, -0.000000000000000000, -0.000000000000000000 ) ) ;
#359 = LINE ( 'NONE', #649, #352 ) ;
#360 = EDGE_CURVE ( 'NONE', #472, #515, #306, .T. ) ;
#361 = ORIENTED_EDGE ( 'NONE', *, *, #889, .T. ) ;
#362 = DIRECTION ( 'NONE',  ( -1.000000000000000000, -0.000000000000000000, -0.000000000000000000 ) ) ;
#363 = DIRECTION ( 'NONE',  ( 0.000000000000000000, 0.000000000000000000, -1.000000000000000000 ) ) ;
#364 = CYLINDRICAL_SURFACE ( 'NONE', #780, 0.4999999999999800715 ) ;
#365 = ORIENTED_EDGE ( 'NONE', *, *, #754, .F. ) ;
#366 = DIRECTION ( 'NONE',  ( 4.097771990496913504E-16, 0.000000000000000000, 1.000000000000000000 ) ) ;
#367 = EDGE_CURVE ( 'NONE', #471, #815, #453, .T. ) ;
#368 = VECTOR ( 'NONE', #143, 1000.000000000000000 ) ;
#369 = DIRECTION ( 'NONE',  ( 1.000000000000000000, 0.000000000000000000, 0.000000000000000000 ) ) ;
#370 = CIRCLE ( 'NONE', #751, 0.5000000000000004441 ) ;
#371 = CARTESIAN_POINT ( 'NONE',  ( 44.23421847157327136, -868.1365775715717064, 28.79355679643767019 ) ) ;
#372 = VERTEX_POINT ( 'NONE', #118 ) ;
#373 = DIRECTION ( 'NONE',  ( 0.000000000000000000, 0.8944271909998973147, -0.4472135954999952312 ) ) ;
#374 = EDGE_CURVE ( 'NONE', #427, #60, #103, .T. ) ;
#375 = CARTESIAN_POINT ( 'NONE',  ( 34.94007135754573312, -866.1365775715717064, 26.40797299037642887 ) ) ;
#376 = CARTESIAN_POINT ( 'NONE',  ( 34.24007135754573028, -867.6365775715717064, 20.79355679643813204 ) ) ;
#377 = ORIENTED_EDGE ( 'NONE', *, *, #137, .T. ) ;
#378 = LINE ( 'NONE', #167, #339 ) ;
#379 = DIRECTION ( 'NONE',  ( -0.000000000000000000, 0.8944271909998968706, 0.4472135954999957308 ) ) ;
#380 = EDGE_CURVE ( 'NONE', #744, #654, #333, .T. ) ;
#381 = FACE_OUTER_BOUND ( 'NONE', #562, .T. ) ;
#382 = ORIENTED_EDGE ( 'NONE', *, *, #330, .T. ) ;
#383 = DIRECTION ( 'NONE',  ( 0.000000000000000000, -0.4472135954999951757, -0.8944271909998972037 ) ) ;
#384 = FACE_OUTER_BOUND ( 'NONE', #387, .T. ) ;
#385 = LINE ( 'NONE', #910, #249 ) ;
#386 = AXIS2_PLACEMENT_3D ( 'NONE', #206, #344, #563 ) ;
#387 = EDGE_LOOP ( 'NONE', ( #327, #39, #484, #613 ) ) ;
#388 = DIRECTION ( 'NONE',  ( 0.000000000000000000, -1.000000000000000000, 0.000000000000000000 ) ) ;
#389 = DIRECTION ( 'NONE',  ( 0.000000000000000000, 0.000000000000000000, -1.000000000000000000 ) ) ;
#390 = ORIENTED_EDGE ( 'NONE', *, *, #859, .F. ) ;
#391 = EDGE_CURVE ( 'NONE', #29, #407, #629, .T. ) ;
#392 = DIRECTION ( 'NONE',  ( 0.000000000000000000, 0.000000000000000000, 1.000000000000000000 ) ) ;
#393 = EDGE_CURVE ( 'NONE', #621, #212, #834, .T. ) ;
#394 = CARTESIAN_POINT ( 'NONE',  ( 34.94007135754573312, -880.3764460153967093, 27.67329368408772439 ) ) ;
#395 = ORIENTED_EDGE ( 'NONE', *, *, #393, .F. ) ;
#396 = DIRECTION ( 'NONE',  ( 1.000000000000000000, 0.000000000000000000, 0.000000000000000000 ) ) ;
#397 = ORIENTED_EDGE ( 'NONE', *, *, #464, .F. ) ;
#398 = CIRCLE ( 'NONE', #537, 0.5000000000000004441 ) ;
#399 = VECTOR ( 'NONE', #366, 1000.000000000000000 ) ;
#400 = ORIENTED_EDGE ( 'NONE', *, *, #759, .F. ) ;
#401 = EDGE_CURVE ( 'NONE', #350, #74, #541, .T. ) ;
#402 = DIRECTION ( 'NONE',  ( 0.000000000000000000, 1.387778780781443151E-14, -1.000000000000000000 ) ) ;
#403 = EDGE_LOOP ( 'NONE', ( #51, #161, #38 ) ) ;
#404 = LINE ( 'NONE', #480, #753 ) ;
#405 = EDGE_LOOP ( 'NONE', ( #171, #477, #276, #684, #631, #382, #264, #361 ) ) ;
#406 = CYLINDRICAL_SURFACE ( 'NONE', #250, 0.5000000000000004441 ) ;
#407 = VERTEX_POINT ( 'NONE', #329 ) ;
#408 = DIRECTION ( 'NONE',  ( -1.000000000000000000, -0.000000000000000000, -0.000000000000000000 ) ) ;
#409 = ORIENTED_EDGE ( 'NONE', *, *, #360, .T. ) ;
#410 = CARTESIAN_POINT ( 'NONE',  ( 17.14007135754572886, -864.6365775715715927, 28.79355679643767374 ) ) ;
#411 =( BOUNDED_CURVE ( )  B_SPLINE_CURVE ( 3, ( #501, #428, #357, #287 ),
 .UNSPECIFIED., .F., .F. ) 
 B_SPLINE_CURVE_WITH_KNOTS ( ( 4, 4 ),
 ( 0.000000000000000000, 1.570796326794895892 ),
 .UNSPECIFIED. ) 
 CURVE ( )  GEOMETRIC_REPRESENTATION_ITEM ( )  RATIONAL_B_SPLINE_CURVE ( ( 1.000000000000000000, 0.8047378541243652705, 0.8047378541243652705, 1.000000000000000000 ) ) 
 REPRESENTATION_ITEM ( '' )  );
#412 = EDGE_LOOP ( 'NONE', ( #1, #481, #549, #269 ) ) ;
#413 = ORIENTED_EDGE ( 'NONE', *, *, #254, .T. ) ;
#414 = AXIS2_PLACEMENT_3D ( 'NONE', #211, #578, #134 ) ;
#415 = COLOUR_RGB ( '',0.7921568627450980005, 0.8196078431372548767, 0.9333333333333333481 ) ;
#416 = DIRECTION ( 'NONE',  ( 0.000000000000000000, -2.775557561562886302E-14, -1.000000000000000000 ) ) ;
#417 = EDGE_LOOP ( 'NONE', ( #183, #891, #496 ) ) ;
#418 = DIRECTION ( 'NONE',  ( 0.000000000000000000, -7.542275982507851230E-16, 1.000000000000000000 ) ) ;
#419 = EDGE_CURVE ( 'NONE', #815, #290, #566, .T. ) ;
#420 = CARTESIAN_POINT ( 'NONE',  ( 34.24007135754573028, -867.6365775715717064, 0.000000000000000000 ) ) ;
#421 = CARTESIAN_POINT ( 'NONE',  ( 34.74007135754573028, -867.6365775715717064, 20.79355679643813204 ) ) ;
#422 = ORIENTED_EDGE ( 'NONE', *, *, #628, .F. ) ;
#423 = DIRECTION ( 'NONE',  ( -1.000000000000000000, 0.000000000000000000, 4.097771990496908080E-16 ) ) ;
#424 = ADVANCED_FACE ( 'NONE', ( #610 ), #337, .T. ) ;
#425 = CARTESIAN_POINT ( 'NONE',  ( 60.60494575636151637, -853.6192013636967886, 29.09355679643766024 ) ) ;
#426 = PLANE ( 'NONE',  #414 ) ;
#427 = VERTEX_POINT ( 'NONE', #410 ) ;
#428 = CARTESIAN_POINT ( 'NONE',  ( 34.73296457635917989, -877.6365775715717064, 29.60224490037512624 ) ) ;
#429 = VECTOR ( 'NONE', #841, 1000.000000000000000 ) ;
#430 = CARTESIAN_POINT ( 'NONE',  ( 34.94007135754573312, -877.9365775715716609, 22.79355679643813559 ) ) ;
#431 = DIRECTION ( 'NONE',  ( -1.000000000000000000, -0.000000000000000000, -0.000000000000000000 ) ) ;
#432 = ORIENTED_EDGE ( 'NONE', *, *, #909, .T. ) ;
#433 = CARTESIAN_POINT ( 'NONE',  ( 34.24007135754573028, -864.6365775715715927, 20.79355679643813204 ) ) ;
#434 = DIRECTION ( 'NONE',  ( 0.000000000000000000, -0.000000000000000000, -1.000000000000000000 ) ) ;
#435 = DIRECTION ( 'NONE',  ( 0.7071067811865524577, 0.000000000000000000, -0.7071067811865426878 ) ) ;
#436 = ADVANCED_FACE ( 'NONE', ( #914 ), #49, .F. ) ;
#437 = VERTEX_POINT ( 'NONE', #468 ) ;
#438 = FACE_OUTER_BOUND ( 'NONE', #441, .T. ) ;
#439 = DIRECTION ( 'NONE',  ( 0.000000000000000000, 0.000000000000000000, 1.000000000000000000 ) ) ;
#440 = FACE_OUTER_BOUND ( 'NONE', #312, .T. ) ;
#441 = EDGE_LOOP ( 'NONE', ( #422, #901, #466, #670 ) ) ;
#442 = EDGE_CURVE ( 'NONE', #774, #471, #278, .T. ) ;
#443 = CARTESIAN_POINT ( 'NONE',  ( 17.64007135754572886, -867.6365775715717064, 28.79355679643767019 ) ) ;
#444 = VECTOR ( 'NONE', #900, 1000.000000000000000 ) ;
#445 = DIRECTION ( 'NONE',  ( 0.7071067811865524577, 0.000000000000000000, 0.7071067811865426878 ) ) ;
#446 = CIRCLE ( 'NONE', #943, 0.4999999999999986677 ) ;
#447 = CARTESIAN_POINT ( 'NONE',  ( 34.24007135754573028, -864.6365775715715927, 0.000000000000000000 ) ) ;
#448 = VECTOR ( 'NONE', #388, 1000.000000000000000 ) ;
#449 = ORIENTED_EDGE ( 'NONE', *, *, #442, .F. ) ;
#450 = DIRECTION ( 'NONE',  ( 4.097771990496913504E-16, 0.000000000000000000, 1.000000000000000000 ) ) ;
#451 = EDGE_CURVE ( 'NONE', #863, #601, #483, .T. ) ;
#452 = PLANE ( 'NONE',  #674 ) ;
#453 = LINE ( 'NONE', #699, #35 ) ;
#454 = ORIENTED_EDGE ( 'NONE', *, *, #948, .F. ) ;
#455 = DIRECTION ( 'NONE',  ( 0.000000000000000000, 0.4472135955000300922, 0.8944271909998797732 ) ) ;
#456 = CARTESIAN_POINT ( 'NONE',  ( 34.94007135754573312, -862.7824756053216788, 33.11617692287565973 ) ) ;
#457 = DIRECTION ( 'NONE',  ( -4.097771990496913504E-16, -0.000000000000000000, -1.000000000000000000 ) ) ;
#458 = ORIENTED_EDGE ( 'NONE', *, *, #191, .T. ) ;
#459 = FACE_OUTER_BOUND ( 'NONE', #595, .T. ) ;
#460 = MANIFOLD_SOLID_BREP ( 'Chamfer1', #176 ) ;
#461 = ADVANCED_FACE ( 'NONE', ( #772 ), #406, .T. ) ;
#462 = DIRECTION ( 'NONE',  ( 0.000000000000000000, 3.700743415417253765E-13, 1.000000000000000000 ) ) ;
#463 = VECTOR ( 'NONE', #716, 1000.000000000000000 ) ;
#464 = EDGE_CURVE ( 'NONE', #471, #712, #178, .T. ) ;
#465 = AXIS2_PLACEMENT_3D ( 'NONE', #658, #813, #893 ) ;
#466 = ORIENTED_EDGE ( 'NONE', *, *, #367, .T. ) ;
#467 = DIRECTION ( 'NONE',  ( 0.000000000000000000, 0.000000000000000000, 1.000000000000000000 ) ) ;
#468 = CARTESIAN_POINT ( 'NONE',  ( 34.24007135754573028, -864.6365775715715927, 20.29355679643813914 ) ) ;
#469 = ORIENTED_EDGE ( 'NONE', *, *, #909, .F. ) ;
#470 = CARTESIAN_POINT ( 'NONE',  ( 34.63116341502902173, -853.6192013636969023, 29.09355679643763892 ) ) ;
#471 = VERTEX_POINT ( 'NONE', #857 ) ;
#472 = VERTEX_POINT ( 'NONE', #195 ) ;
#473 = DIRECTION ( 'NONE',  ( 0.000000000000000000, 0.000000000000000000, -1.000000000000000000 ) ) ;
#474 = ORIENTED_EDGE ( 'NONE', *, *, #884, .T. ) ;
#475 = CIRCLE ( 'NONE', #521, 0.5000000000000048850 ) ;
#476 = AXIS2_PLACEMENT_3D ( 'NONE', #213, #362, #869 ) ;
#477 = ORIENTED_EDGE ( 'NONE', *, *, #764, .T. ) ;
#478 = VECTOR ( 'NONE', #620, 1000.000000000000227 ) ;
#479 = CARTESIAN_POINT ( 'NONE',  ( 17.08552332239294813, -853.6192013636969023, 28.98288657801088419 ) ) ;
#480 = CARTESIAN_POINT ( 'NONE',  ( 60.60494575636151637, -877.6365775715717064, 28.79355679643766308 ) ) ;
#481 = ORIENTED_EDGE ( 'NONE', *, *, #628, .T. ) ;
#482 = EDGE_CURVE ( 'NONE', #601, #29, #577, .T. ) ;
#483 = LINE ( 'NONE', #394, #657 ) ;
#484 = ORIENTED_EDGE ( 'NONE', *, *, #824, .F. ) ;
#485 = VERTEX_POINT ( 'NONE', #722 ) ;
#486 = LINE ( 'NONE', #68, #599 ) ;
#487 = EDGE_CURVE ( 'NONE', #485, #427, #200, .T. ) ;
#488 = CARTESIAN_POINT ( 'NONE',  ( 60.60494575636151637, -877.6365775715715927, 29.60224490037527545 ) ) ;
#489 = AXIS2_PLACEMENT_3D ( 'NONE', #33, #119, #550 ) ;
#490 = ORIENTED_EDGE ( 'NONE', *, *, #451, .F. ) ;
#491 = STYLED_ITEM ( 'NONE', ( #542 ), #460 ) ;
#492 = CARTESIAN_POINT ( 'NONE',  ( 34.94007135754574023, -853.9559338425384567, 28.79355679643768440 ) ) ;
#493 = FACE_OUTER_BOUND ( 'NONE', #356, .T. ) ;
#494 = PRODUCT_RELATED_PRODUCT_CATEGORY ( 'part', '', ( #871 ) ) ;
#495 = DIRECTION ( 'NONE',  ( 0.000000000000000000, 0.8944271909998972037, -0.4472135954999951757 ) ) ;
#496 = ORIENTED_EDGE ( 'NONE', *, *, #933, .F. ) ;
#497 = FACE_OUTER_BOUND ( 'NONE', #873, .T. ) ;
#498 = DIRECTION ( 'NONE',  ( 1.000000000000000000, 0.000000000000000000, 0.000000000000000000 ) ) ;
#499 = CARTESIAN_POINT ( 'NONE',  ( 34.94007135754573312, -862.7824756053216788, 33.11617692287562420 ) ) ;
#500 = EDGE_LOOP ( 'NONE', ( #822, #346, #273, #831, #905 ) ) ;
#501 = CARTESIAN_POINT ( 'NONE',  ( 34.44007135754573312, -877.6365775715715927, 29.60224490037527545 ) ) ;
#502 = EDGE_CURVE ( 'NONE', #350, #505, #142, .T. ) ;
#503 = CARTESIAN_POINT ( 'NONE',  ( 34.24007135754573028, 0.000000000000000000, 20.29355679643813914 ) ) ;
#504 = CARTESIAN_POINT ( 'NONE',  ( 44.23421847157327136, -864.1365775715717064, 20.79355679643813204 ) ) ;
#505 = VERTEX_POINT ( 'NONE', #201 ) ;
#506 = LINE ( 'NONE', #881, #736 ) ;
#507 = AXIS2_PLACEMENT_3D ( 'NONE', #600, #747, #518 ) ;
#508 = DIRECTION ( 'NONE',  ( 1.000000000000000000, 0.000000000000000000, 0.000000000000000000 ) ) ;
#509 = CARTESIAN_POINT ( 'NONE',  ( 17.44007135754572957, -159.0864175541920531, -318.1728351083509096 ) ) ;
#510 = ORIENTED_EDGE ( 'NONE', *, *, #816, .F. ) ;
#511 = CARTESIAN_POINT ( 'NONE',  ( 17.64007135754572886, -864.1365775715717064, 28.79355679643767374 ) ) ;
#512 = PLANE ( 'NONE',  #625 ) ;
#513 = ADVANCED_FACE ( 'NONE', ( #726 ), #643, .T. ) ;
#514 = CARTESIAN_POINT ( 'NONE',  ( 34.24007135754573028, -864.1365775715717064, 28.79355679643767374 ) ) ;
#515 = VERTEX_POINT ( 'NONE', #147 ) ;
#516 = DIRECTION ( 'NONE',  ( 3.723801229871507396E-14, -0.8944271909998797732, 0.4472135955000300922 ) ) ;
#517 = DIRECTION ( 'NONE',  ( -0.000000000000000000, 0.000000000000000000, 1.000000000000000000 ) ) ;
#518 = DIRECTION ( 'NONE',  ( 0.000000000000000000, -0.000000000000000000, 1.000000000000000000 ) ) ;
#519 = ORIENTED_EDGE ( 'NONE', *, *, #419, .F. ) ;
#520 = FACE_OUTER_BOUND ( 'NONE', #931, .T. ) ;
#521 = AXIS2_PLACEMENT_3D ( 'NONE', #153, #165, #669 ) ;
#522 = FACE_BOUND ( 'NONE', #755, .T. ) ;
#523 = CARTESIAN_POINT ( 'NONE',  ( 17.14007135754571820, -657.8365775715716381, -7.023610432406923954E-15 ) ) ;
#524 = ORIENTED_EDGE ( 'NONE', *, *, #754, .T. ) ;
#525 = CARTESIAN_POINT ( 'NONE',  ( 17.14007135754572531, -657.8365775715716381, 20.79355679643813204 ) ) ;
#526 = LINE ( 'NONE', #232, #144 ) ;
#527 = DIRECTION ( 'NONE',  ( 1.000000000000000000, 0.000000000000000000, 0.000000000000000000 ) ) ;
#528 = ORIENTED_EDGE ( 'NONE', *, *, #374, .T. ) ;
#529 = FACE_OUTER_BOUND ( 'NONE', #342, .T. ) ;
#530 = EDGE_CURVE ( 'NONE', #854, #718, #311, .T. ) ;
#531 = DIRECTION ( 'NONE',  ( -0.000000000000000000, 0.000000000000000000, 1.000000000000000000 ) ) ;
#532 = ORIENTED_EDGE ( 'NONE', *, *, #691, .T. ) ;
#533 = DIRECTION ( 'NONE',  ( 0.7071067811865425767, 0.000000000000000000, 0.7071067811865524577 ) ) ;
#534 = AXIS2_PLACEMENT_3D ( 'NONE', #890, #594, #228 ) ;
#535 = ADVANCED_FACE ( 'NONE', ( #493 ), #788, .F. ) ;
#536 = CARTESIAN_POINT ( 'NONE',  ( 34.44007135754573312, -853.6192013636967886, 29.09355679643766024 ) ) ;
#537 = AXIS2_PLACEMENT_3D ( 'NONE', #376, #821, #94 ) ;
#538 = AXIS2_PLACEMENT_3D ( 'NONE', #430, #793, #363 ) ;
#539 = ORIENTED_EDGE ( 'NONE', *, *, #730, .T. ) ;
#540 = AXIS2_PLACEMENT_3D ( 'NONE', #874, #347, #938 ) ;
#541 =( BOUNDED_CURVE ( )  B_SPLINE_CURVE ( 3, ( #536, #470, #688, #761 ),
 .UNSPECIFIED., .F., .T. ) 
 B_SPLINE_CURVE_WITH_KNOTS ( ( 4, 4 ),
 ( 3.141592653589793116, 4.230624337078580766 ),
 .UNSPECIFIED. ) 
 CURVE ( )  GEOMETRIC_REPRESENTATION_ITEM ( )  RATIONAL_B_SPLINE_CURVE ( ( 1.000000000000000000, 0.9035854579628272987, 0.9035854579628272987, 1.000000000000000000 ) ) 
 REPRESENTATION_ITEM ( '' )  );
#542 = PRESENTATION_STYLE_ASSIGNMENT (( #32 ) ) ;
#543 = EDGE_CURVE ( 'NONE', #567, #272, #779, .T. ) ;
#544 = CARTESIAN_POINT ( 'NONE',  ( 17.64007135754572531, -867.6365775715717064, 20.29355679643813914 ) ) ;
#545 = ORIENTED_EDGE ( 'NONE', *, *, #829, .F. ) ;
#546 = DIRECTION ( 'NONE',  ( -1.000000000000000000, -0.000000000000000000, -0.000000000000000000 ) ) ;
#547 = ORIENTED_EDGE ( 'NONE', *, *, #52, .T. ) ;
#548 = DIRECTION ( 'NONE',  ( 0.000000000000000000, 0.000000000000000000, 1.000000000000000000 ) ) ;
#549 = ORIENTED_EDGE ( 'NONE', *, *, #184, .T. ) ;
#550 = DIRECTION ( 'NONE',  ( 1.000000000000000000, 0.000000000000000000, 0.000000000000000000 ) ) ;
#551 = PRODUCT_DEFINITION ( 'UNKNOWN', '', #846, #661 ) ;
#552 = VECTOR ( 'NONE', #457, 1000.000000000000000 ) ;
#553 = AXIS2_PLACEMENT_3D ( 'NONE', #934, #358, #573 ) ;
#554 = ORIENTED_EDGE ( 'NONE', *, *, #555, .T. ) ;
#555 = EDGE_CURVE ( 'NONE', #95, #236, #486, .T. ) ;
#556 = CARTESIAN_POINT ( 'NONE',  ( 17.44007135754572957, -877.6365775715717064, 28.79355679643766308 ) ) ;
#557 = ORIENTED_EDGE ( 'NONE', *, *, #561, .T. ) ;
#558 = EDGE_LOOP ( 'NONE', ( #332, #932, #114, #86 ) ) ;
#559 = ADVANCED_FACE ( 'NONE', ( #288 ), #719, .T. ) ;
#560 = DIRECTION ( 'NONE',  ( -1.000000000000000000, -0.000000000000000000, -0.000000000000000000 ) ) ;
#561 = EDGE_CURVE ( 'NONE', #272, #744, #762, .T. ) ;
#562 = EDGE_LOOP ( 'NONE', ( #680, #219, #547, #758 ) ) ;
#563 = DIRECTION ( 'NONE',  ( 0.000000000000000000, 0.4472135955000356433, 0.8944271909998769976 ) ) ;
#564 = EDGE_CURVE ( 'NONE', #471, #350, #348, .T. ) ;
#565 = LINE ( 'NONE', #679, #552 ) ;
#566 = CIRCLE ( 'NONE', #215, 8.000000000000014211 ) ;
#567 = VERTEX_POINT ( 'NONE', #53 ) ;
#568 = CYLINDRICAL_SURFACE ( 'NONE', #296, 0.4999999999999800715 ) ;
#569 = CARTESIAN_POINT ( 'NONE',  ( 17.64007135754572531, -867.6365775715717064, 20.79355679643813204 ) ) ;
#570 = LINE ( 'NONE', #936, #368 ) ;
#571 = ADVANCED_FACE ( 'NONE', ( #632 ), #62, .T. ) ;
#572 = ORIENTED_EDGE ( 'NONE', *, *, #587, .T. ) ;
#573 = DIRECTION ( 'NONE',  ( 0.000000000000000000, -1.480297366166872653E-14, -1.000000000000000000 ) ) ;
#574 = DIRECTION ( 'NONE',  ( 0.000000000000000000, -0.000000000000000000, 1.000000000000000000 ) ) ;
#575 = ORIENTED_EDGE ( 'NONE', *, *, #89, .T. ) ;
#576 = LINE ( 'NONE', #209, #448 ) ;
#577 = LINE ( 'NONE', #652, #65 ) ;
#578 = DIRECTION ( 'NONE',  ( 0.000000000000000000, -1.000000000000000000, 0.000000000000000000 ) ) ;
#579 = ORIENTED_EDGE ( 'NONE', *, *, #89, .F. ) ;
#580 = DIRECTION ( 'NONE',  ( -4.097771990496913504E-16, 0.000000000000000000, -1.000000000000000000 ) ) ;
#581 = CIRCLE ( 'NONE', #672, 8.000000000000014211 ) ;
#582 =( GEOMETRIC_REPRESENTATION_CONTEXT ( 3 ) GLOBAL_UNCERTAINTY_ASSIGNED_CONTEXT ( ( #698 ) ) GLOBAL_UNIT_ASSIGNED_CONTEXT ( ( #262, #614, #257 ) ) REPRESENTATION_CONTEXT ( 'NONE', 'WORKASPACE' ) );
#583 = DIRECTION ( 'NONE',  ( 0.000000000000000000, 0.000000000000000000, -1.000000000000000000 ) ) ;
#584 = DIRECTION ( 'NONE',  ( 0.000000000000000000, -0.4472135955000023366, 0.8944271909998936509 ) ) ;
#585 = ORIENTED_EDGE ( 'NONE', *, *, #154, .F. ) ;
#586 = CARTESIAN_POINT ( 'NONE',  ( 34.24007135754573028, -867.6365775715717064, 20.29355679643813914 ) ) ;
#587 = EDGE_CURVE ( 'NONE', #124, #843, #805, .T. ) ;
#588 = DIRECTION ( 'NONE',  ( 0.000000000000000000, 0.000000000000000000, -1.000000000000000000 ) ) ;
#589 = EDGE_CURVE ( 'NONE', #284, #472, #370, .T. ) ;
#590 = DIRECTION ( 'NONE',  ( -0.000000000000000000, 7.542275982507851230E-16, -1.000000000000000000 ) ) ;
#591 = ORIENTED_EDGE ( 'NONE', *, *, #696, .F. ) ;
#592 = PLANE ( 'NONE',  #326 ) ;
#593 = CARTESIAN_POINT ( 'NONE',  ( 60.60494575636151637, -866.1365775715717064, 34.40797299037644308 ) ) ;
#594 = DIRECTION ( 'NONE',  ( 0.000000000000000000, 0.000000000000000000, 1.000000000000000000 ) ) ;
#595 = EDGE_LOOP ( 'NONE', ( #666, #840, #268 ) ) ;
#596 = LINE ( 'NONE', #828, #783 ) ;
#597 = AXIS2_PLACEMENT_3D ( 'NONE', #523, #240, #15 ) ;
#598 = DIRECTION ( 'NONE',  ( 1.000000000000000000, 0.000000000000000000, 0.000000000000000000 ) ) ;
#599 = VECTOR ( 'NONE', #637, 1000.000000000000000 ) ;
#600 = CARTESIAN_POINT ( 'NONE',  ( 44.23421847157327136, -864.1365775715717064, 0.000000000000000000 ) ) ;
#601 = VERTEX_POINT ( 'NONE', #353 ) ;
#602 = ADVANCED_FACE ( 'NONE', ( #946 ), #98, .T. ) ;
#603 = DIRECTION ( 'NONE',  ( 1.000000000000000000, 0.000000000000000000, 0.000000000000000000 ) ) ;
#604 = CARTESIAN_POINT ( 'NONE',  ( 17.44007135754572957, -877.1365775715717064, 0.000000000000000000 ) ) ;
#605 = ORIENTED_EDGE ( 'NONE', *, *, #223, .F. ) ;
#606 = CARTESIAN_POINT ( 'NONE',  ( 34.94007135754573312, -869.4906795378217339, 33.11617692287572368 ) ) ;
#607 = EDGE_CURVE ( 'NONE', #60, #284, #239, .T. ) ;
#608 = CARTESIAN_POINT ( 'NONE',  ( 60.60494575636151637, -853.6192013637074751, 3.159025638720475374E-10 ) ) ;
#609 = ORIENTED_EDGE ( 'NONE', *, *, #645, .F. ) ;
#610 = FACE_OUTER_BOUND ( 'NONE', #166, .T. ) ;
#611 = CONICAL_SURFACE ( 'NONE', #880, 0.5000000000000004441, 0.7853981633974552734 ) ;
#612 = CONICAL_SURFACE ( 'NONE', #785, 0.5000000000000004441, 0.7853981633974552734 ) ;
#613 = ORIENTED_EDGE ( 'NONE', *, *, #148, .F. ) ;
#614 =( NAMED_UNIT ( * ) PLANE_ANGLE_UNIT ( ) SI_UNIT ( $, .RADIAN. ) );
#615 = ORIENTED_EDGE ( 'NONE', *, *, #889, .F. ) ;
#616 =( LENGTH_UNIT ( ) NAMED_UNIT ( * ) SI_UNIT ( .MILLI., .METRE. ) );
#617 = ORIENTED_EDGE ( 'NONE', *, *, #760, .F. ) ;
#618 = EDGE_LOOP ( 'NONE', ( #790, #918, #454, #801 ) ) ;
#619 = EDGE_CURVE ( 'NONE', #427, #739, #825, .T. ) ;
#620 = DIRECTION ( 'NONE',  ( -0.000000000000000000, 0.8944271909998968706, 0.4472135954999957308 ) ) ;
#621 = VERTEX_POINT ( 'NONE', #899 ) ;
#622 = DIRECTION ( 'NONE',  ( 0.000000000000000000, 0.7071067811865818786, 0.7071067811865131558 ) ) ;
#623 = CARTESIAN_POINT ( 'NONE',  ( 60.60494575636151637, -853.6192013636967886, 28.79355679643767374 ) ) ;
#624 = VECTOR ( 'NONE', #630, 1000.000000000000000 ) ;
#625 = AXIS2_PLACEMENT_3D ( 'NONE', #164, #14, #742 ) ;
#626 = ORIENTED_EDGE ( 'NONE', *, *, #759, .T. ) ;
#627 =( GEOMETRIC_REPRESENTATION_CONTEXT ( 3 ) GLOBAL_UNCERTAINTY_ASSIGNED_CONTEXT ( ( #194 ) ) GLOBAL_UNIT_ASSIGNED_CONTEXT ( ( #616, #189, #105 ) ) REPRESENTATION_CONTEXT ( 'NONE', 'WORKASPACE' ) );
#628 = EDGE_CURVE ( 'NONE', #774, #290, #293, .T. ) ;
#629 = LINE ( 'NONE', #255, #199 ) ;
#630 = DIRECTION ( 'NONE',  ( -1.000000000000000000, -0.000000000000000000, -0.000000000000000000 ) ) ;
#631 = ORIENTED_EDGE ( 'NONE', *, *, #948, .T. ) ;
#632 = FACE_OUTER_BOUND ( 'NONE', #91, .T. ) ;
#633 = CARTESIAN_POINT ( 'NONE',  ( 34.74007135754573028, -867.6365775715717064, 28.79355679643767019 ) ) ;
#634 = ORIENTED_EDGE ( 'NONE', *, *, #760, .T. ) ;
#635 = CARTESIAN_POINT ( 'NONE',  ( 16.99698202422796811, -853.6192013636967886, 28.79355679643767374 ) ) ;
#636 = EDGE_CURVE ( 'NONE', #29, #911, #913, .T. ) ;
#637 = DIRECTION ( 'NONE',  ( 0.000000000000000000, 1.000000000000000000, 0.000000000000000000 ) ) ;
#638 = DIRECTION ( 'NONE',  ( -0.000000000000000000, 0.7071067811865818786, -0.7071067811865131558 ) ) ;
#639 = ORIENTED_EDGE ( 'NONE', *, *, #929, .T. ) ;
#640 = VECTOR ( 'NONE', #560, 1000.000000000000000 ) ;
#641 = DIRECTION ( 'NONE',  ( -0.000000000000000000, -0.000000000000000000, -1.000000000000000000 ) ) ;
#642 = VECTOR ( 'NONE', #671, 1000.000000000000000 ) ;
#643 = PLANE ( 'NONE',  #538 ) ;
#644 = LINE ( 'NONE', #947, #96 ) ;
#645 = EDGE_CURVE ( 'NONE', #712, #863, #110, .T. ) ;
#646 = ORIENTED_EDGE ( 'NONE', *, *, #589, .T. ) ;
#647 = DIRECTION ( 'NONE',  ( 0.000000000000000000, -0.4472135955000023366, 0.8944271909998936509 ) ) ;
#648 = DIRECTION ( 'NONE',  ( -0.000000000000000000, 0.000000000000000000, 1.000000000000000000 ) ) ;
#649 = CARTESIAN_POINT ( 'NONE',  ( 44.23421847157327136, -864.1365775715717064, 28.79355679643767374 ) ) ;
#650 = EDGE_LOOP ( 'NONE', ( #886, #660, #145, #79 ) ) ;
#651 = CARTESIAN_POINT ( 'NONE',  ( 34.44007135754573312, -866.1365775715717064, 34.40797299037644308 ) ) ;
#652 = CARTESIAN_POINT ( 'NONE',  ( 34.94007135754573312, -877.1365775715717064, 22.79355679643813559 ) ) ;
#653 = PLANE ( 'NONE',  #878 ) ;
#654 = VERTEX_POINT ( 'NONE', #820 ) ;
#655 = PLANE ( 'NONE',  #281 ) ;
#656 = ADVANCED_FACE ( 'NONE', ( #746 ), #512, .F. ) ;
#657 = VECTOR ( 'NONE', #340, 1000.000000000000227 ) ;
#658 = CARTESIAN_POINT ( 'NONE',  ( 34.44007135754573312, -870.7767091277459031, 37.11329368408812712 ) ) ;
#659 = CARTESIAN_POINT ( 'NONE',  ( 34.24007135754573028, -864.6365775715715927, 20.29355679643813914 ) ) ;
#660 = ORIENTED_EDGE ( 'NONE', *, *, #884, .F. ) ;
#661 = PRODUCT_DEFINITION_CONTEXT ( 'detailed design', #786, 'design' ) ;
#662 = CARTESIAN_POINT ( 'NONE',  ( 44.23421847157327136, -867.6365775715717064, 20.29355679643813914 ) ) ;
#663 =( BOUNDED_CURVE ( )  B_SPLINE_CURVE ( 3, ( #71, #198, #492, #720 ),
 .UNSPECIFIED., .F., .F. ) 
 B_SPLINE_CURVE_WITH_KNOTS ( ( 4, 4 ),
 ( 1.089031683488787206, 1.570796326794995812 ),
 .UNSPECIFIED. ) 
 CURVE ( )  GEOMETRIC_REPRESENTATION_ITEM ( )  RATIONAL_B_SPLINE_CURVE ( ( 1.000000000000000000, 0.9807519110771943938, 0.9807519110771943938, 1.000000000000000000 ) ) 
 REPRESENTATION_ITEM ( '' )  );
#664 = DIRECTION ( 'NONE',  ( -0.000000000000000000, 7.542275982507851230E-16, -1.000000000000000000 ) ) ;
#665 = FACE_OUTER_BOUND ( 'NONE', #16, .T. ) ;
#666 = ORIENTED_EDGE ( 'NONE', *, *, #221, .T. ) ;
#667 = LINE ( 'NONE', #308, #252 ) ;
#668 = CARTESIAN_POINT ( 'NONE',  ( 34.24007135754573028, -864.6365775715715927, 20.29355679643813914 ) ) ;
#669 = DIRECTION ( 'NONE',  ( 0.000000000000000000, -0.4472135955000356433, 0.8944271909998769976 ) ) ;
#670 = ORIENTED_EDGE ( 'NONE', *, *, #419, .T. ) ;
#671 = DIRECTION ( 'NONE',  ( -1.000000000000000000, 0.000000000000000000, 0.000000000000000000 ) ) ;
#672 = AXIS2_PLACEMENT_3D ( 'NONE', #69, #203, #282 ) ;
#673 = CARTESIAN_POINT ( 'NONE',  ( 60.60494575636151637, -2.171689518767525216E-14, 28.79355679643832744 ) ) ;
#674 = AXIS2_PLACEMENT_3D ( 'NONE', #673, #152, #169 ) ;
#675 = DIRECTION ( 'NONE',  ( -0.000000000000000000, 1.000000000000000000, 0.000000000000000000 ) ) ;
#676 = ORIENTED_EDGE ( 'NONE', *, *, #82, .T. ) ;
#677 = CARTESIAN_POINT ( 'NONE',  ( 17.64007135754572531, -864.6365775715715927, 20.79355679643813204 ) ) ;
#678 = ADVANCED_BREP_SHAPE_REPRESENTATION ( '\X2\8272536176d2\X0\-\X2\82725361987651fa659c5761\X0\', ( #460, #202 ), #627 ) ;
#679 = CARTESIAN_POINT ( 'NONE',  ( 17.64007135754571820, -868.1365775715717064, 1.089767511550164385E-14 ) ) ;
#680 = ORIENTED_EDGE ( 'NONE', *, *, #502, .F. ) ;
#681 = CARTESIAN_POINT ( 'NONE',  ( 16.95941388649025328, -853.7798668940066591, 28.79355679643768440 ) ) ;
#682 = ADVANCED_FACE ( 'NONE', ( #384 ), #84, .T. ) ;
#683 = CARTESIAN_POINT ( 'NONE',  ( 17.44007135754572957, -866.1365775715717064, 26.40797299037642887 ) ) ;
#684 = ORIENTED_EDGE ( 'NONE', *, *, #636, .T. ) ;
#685 = CYLINDRICAL_SURFACE ( 'NONE', #314, 8.000000000000014211 ) ;
#686 = ADVANCED_FACE ( 'NONE', ( #809 ), #88, .T. ) ;
#687 = AXIS2_PLACEMENT_3D ( 'NONE', #766, #622, #924 ) ;
#688 = CARTESIAN_POINT ( 'NONE',  ( 34.79461939269852166, -853.6192013636969023, 28.98288657801088419 ) ) ;
#689 = AXIS2_PLACEMENT_3D ( 'NONE', #420, #798, #508 ) ;
#690 = ORIENTED_EDGE ( 'NONE', *, *, #696, .T. ) ;
#691 = EDGE_CURVE ( 'NONE', #437, #236, #157, .T. ) ;
#692 = DIRECTION ( 'NONE',  ( 0.000000000000000000, 0.000000000000000000, -1.000000000000000000 ) ) ;
#693 = ORIENTED_EDGE ( 'NONE', *, *, #530, .T. ) ;
#694 = ORIENTED_EDGE ( 'NONE', *, *, #530, .F. ) ;
#695 = DIRECTION ( 'NONE',  ( 4.097771990496913504E-16, 0.000000000000000000, 1.000000000000000000 ) ) ;
#696 = EDGE_CURVE ( 'NONE', #272, #854, #526, .T. ) ;
#697 = LINE ( 'NONE', #623, #624 ) ;
#698 = UNCERTAINTY_MEASURE_WITH_UNIT (LENGTH_MEASURE( 1.000000000000000082E-05 ), #262, 'distance_accuracy_value', 'NONE');
#699 = CARTESIAN_POINT ( 'NONE',  ( 60.60494575636151637, -862.5588688075716846, 33.56339051837559140 ) ) ;
#700 = CARTESIAN_POINT ( 'NONE',  ( 17.14007135754572531, -864.6365775715715927, 20.79355679643813204 ) ) ;
#701 = VECTOR ( 'NONE', #885, 1000.000000000000000 ) ;
#702 = CARTESIAN_POINT ( 'NONE',  ( 0.000000000000000000, 0.000000000000000000, 0.000000000000000000 ) ) ;
#703 = ORIENTED_EDGE ( 'NONE', *, *, #313, .T. ) ;
#704 = AXIS2_PLACEMENT_3D ( 'NONE', #443, #102, #812 ) ;
#705 = DIRECTION ( 'NONE',  ( -0.000000000000000000, 0.8944271909998972037, -0.4472135954999951757 ) ) ;
#706 = CARTESIAN_POINT ( 'NONE',  ( 17.44007135754572957, -187.1446066767449281, 374.2892133534502364 ) ) ;
#707 = ORIENTED_EDGE ( 'NONE', *, *, #908, .T. ) ;
#708 = CARTESIAN_POINT ( 'NONE',  ( 17.44007135754572957, -877.6365775715715927, 29.60224490037527545 ) ) ;
#709 = ADVANCED_FACE ( 'NONE', ( #19, #522 ), #452, .F. ) ;
#710 = CARTESIAN_POINT ( 'NONE',  ( 16.94007135754572957, -877.1365775715717064, 29.29322790600034665 ) ) ;
#711 = CARTESIAN_POINT ( 'NONE',  ( 34.24007135754573028, -868.1365775715717064, 0.000000000000000000 ) ) ;
#712 = VERTEX_POINT ( 'NONE', #456 ) ;
#713 = CARTESIAN_POINT ( 'NONE',  ( 17.44007135754572957, -862.5588688075716846, 33.56339051837559140 ) ) ;
#714 = CARTESIAN_POINT ( 'NONE',  ( 34.44007135754573312, -853.6192013636967886, 29.09355679643758918 ) ) ;
#715 = ADVANCED_FACE ( 'NONE', ( #93 ), #611, .T. ) ;
#716 = DIRECTION ( 'NONE',  ( 0.000000000000000000, 0.000000000000000000, 1.000000000000000000 ) ) ;
#717 = AXIS2_PLACEMENT_3D ( 'NONE', #447, #389, #233 ) ;
#718 = VERTEX_POINT ( 'NONE', #76 ) ;
#719 = CONICAL_SURFACE ( 'NONE', #845, 0.5000000000000004441, 0.7853981633974552734 ) ;
#720 = CARTESIAN_POINT ( 'NONE',  ( 34.94007135754573312, -854.1372353524467371, 28.79355679643768084 ) ) ;
#721 = VECTOR ( 'NONE', #450, 1000.000000000000000 ) ;
#722 = CARTESIAN_POINT ( 'NONE',  ( 17.64007135754572886, -864.1365775715717064, 28.79355679643767374 ) ) ;
#723 = CARTESIAN_POINT ( 'NONE',  ( 44.23421847157327136, -868.1365775715717064, 0.000000000000000000 ) ) ;
#724 = ORIENTED_EDGE ( 'NONE', *, *, #502, .T. ) ;
#725 = DIRECTION ( 'NONE',  ( 0.000000000000000000, 0.000000000000000000, 1.000000000000000000 ) ) ;
#726 = FACE_OUTER_BOUND ( 'NONE', #150, .T. ) ;
#727 = DIRECTION ( 'NONE',  ( 0.000000000000000000, -0.8944271909998972037, 0.4472135954999951757 ) ) ;
#728 = ADVANCED_FACE ( 'NONE', ( #803 ), #568, .T. ) ;
#729 = ORIENTED_EDGE ( 'NONE', *, *, #223, .T. ) ;
#730 = EDGE_CURVE ( 'NONE', #843, #372, #506, .T. ) ;
#731 = DIRECTION ( 'NONE',  ( 0.000000000000000000, -0.4472135954999957863, 0.8944271909998969816 ) ) ;
#732 = DIRECTION ( 'NONE',  ( 1.000000000000000000, 0.000000000000000000, 0.000000000000000000 ) ) ;
#733 = LINE ( 'NONE', #371, #896 ) ;
#734 = VERTEX_POINT ( 'NONE', #864 ) ;
#735 = LINE ( 'NONE', #662, #642 ) ;
#736 = VECTOR ( 'NONE', #8, 1000.000000000000000 ) ;
#737 = CARTESIAN_POINT ( 'NONE',  ( 34.44007135754573312, -877.1365775715717064, 28.79355679643766308 ) ) ;
#738 = CARTESIAN_POINT ( 'NONE',  ( 17.44007135754572957, -877.1365775715717064, 28.79355679643766308 ) ) ;
#739 = VERTEX_POINT ( 'NONE', #67 ) ;
#740 = CARTESIAN_POINT ( 'NONE',  ( 34.44007135754573312, -877.6365775715717064, 28.79355679643766308 ) ) ;
#741 = ADVANCED_FACE ( 'NONE', ( #220 ), #299, .T. ) ;
#742 = DIRECTION ( 'NONE',  ( 0.000000000000000000, 0.000000000000000000, -1.000000000000000000 ) ) ;
#743 = FACE_OUTER_BOUND ( 'NONE', #417, .T. ) ;
#744 = VERTEX_POINT ( 'NONE', #708 ) ;
#745 = DIRECTION ( 'NONE',  ( 0.000000000000000000, 0.7071067811865132668, 0.7071067811865818786 ) ) ;
#746 = FACE_OUTER_BOUND ( 'NONE', #328, .T. ) ;
#747 = DIRECTION ( 'NONE',  ( -0.000000000000000000, 1.000000000000000000, 0.000000000000000000 ) ) ;
#748 = ORIENTED_EDGE ( 'NONE', *, *, #487, .F. ) ;
#749 = FACE_OUTER_BOUND ( 'NONE', #320, .T. ) ;
#750 = VECTOR ( 'NONE', #675, 1000.000000000000000 ) ;
#751 = AXIS2_PLACEMENT_3D ( 'NONE', #569, #865, #498 ) ;
#752 = DIRECTION ( 'NONE',  ( 0.000000000000000000, -0.000000000000000000, 1.000000000000000000 ) ) ;
#753 = VECTOR ( 'NONE', #408, 1000.000000000000000 ) ;
#754 = EDGE_CURVE ( 'NONE', #372, #485, #136, .T. ) ;
#755 = EDGE_LOOP ( 'NONE', ( #395, #204, #458, #855, #307, #879, #770, #193 ) ) ;
#756 = DIRECTION ( 'NONE',  ( 1.000000000000000000, 0.000000000000000000, 0.000000000000000000 ) ) ;
#757 = DIRECTION ( 'NONE',  ( -0.000000000000000000, 1.000000000000000000, 7.542275982507851230E-16 ) ) ;
#758 = ORIENTED_EDGE ( 'NONE', *, *, #31, .T. ) ;
#759 = EDGE_CURVE ( 'NONE', #842, #854, #446, .T. ) ;
#760 = EDGE_CURVE ( 'NONE', #236, #843, #819, .T. ) ;
#761 = CARTESIAN_POINT ( 'NONE',  ( 34.88316069086349813, -853.6192013636967886, 28.79355679643767374 ) ) ;
#762 =( BOUNDED_CURVE ( )  B_SPLINE_CURVE ( 3, ( #710, #210, #951, #138 ),
 .UNSPECIFIED., .F., .F. ) 
 B_SPLINE_CURVE_WITH_KNOTS ( ( 4, 4 ),
 ( 4.712388980384662140, 6.283185307179586232 ),
 .UNSPECIFIED. ) 
 CURVE ( )  GEOMETRIC_REPRESENTATION_ITEM ( )  RATIONAL_B_SPLINE_CURVE ( ( 1.000000000000000000, 0.8047378541243583872, 0.8047378541243583872, 1.000000000000000000 ) ) 
 REPRESENTATION_ITEM ( '' )  );
#763 = ORIENTED_EDGE ( 'NONE', *, *, #561, .F. ) ;
#764 = EDGE_CURVE ( 'NONE', #74, #407, #663, .T. ) ;
#765 = AXIS2_PLACEMENT_3D ( 'NONE', #224, #431, #416 ) ;
#766 = CARTESIAN_POINT ( 'NONE',  ( 44.23421847157327136, -867.6365775715717064, 20.29355679643813914 ) ) ;
#767 = AXIS2_PLACEMENT_3D ( 'NONE', #503, #870, #271 ) ;
#768 = ORIENTED_EDGE ( 'NONE', *, *, #564, .T. ) ;
#769 = CARTESIAN_POINT ( 'NONE',  ( 60.60494575636151637, -866.1365775715717064, 26.40797299037642887 ) ) ;
#770 = ORIENTED_EDGE ( 'NONE', *, *, #237, .F. ) ;
#771 = ADVANCED_FACE ( 'NONE', ( #438 ), #787, .T. ) ;
#772 = FACE_OUTER_BOUND ( 'NONE', #261, .T. ) ;
#773 = CARTESIAN_POINT ( 'NONE',  ( 17.24897930006244451, -853.6192013636969023, 29.09355679643763892 ) ) ;
#774 = VERTEX_POINT ( 'NONE', #651 ) ;
#775 = CARTESIAN_POINT ( 'NONE',  ( 17.14007135754572531, -864.6365775715715927, 20.29355679643813914 ) ) ;
#776 = EDGE_CURVE ( 'NONE', #196, #212, #235, .T. ) ;
#777 = EDGE_LOOP ( 'NONE', ( #27, #617, #303 ) ) ;
#778 = VERTEX_POINT ( 'NONE', #635 ) ;
#779 = LINE ( 'NONE', #214, #782 ) ;
#780 = AXIS2_PLACEMENT_3D ( 'NONE', #706, #877, #584 ) ;
#781 = ORIENTED_EDGE ( 'NONE', *, *, #154, .T. ) ;
#782 = VECTOR ( 'NONE', #648, 1000.000000000000000 ) ;
#783 = VECTOR ( 'NONE', #897, 1000.000000000000000 ) ;
#784 = ORIENTED_EDGE ( 'NONE', *, *, #587, .F. ) ;
#785 = AXIS2_PLACEMENT_3D ( 'NONE', #677, #467, #603 ) ;
#786 = APPLICATION_CONTEXT ( 'automotive_design' ) ;
#787 = CYLINDRICAL_SURFACE ( 'NONE', #476, 8.000000000000014211 ) ;
#788 = PLANE ( 'NONE',  #767 ) ;
#789 = LINE ( 'NONE', #275, #923 ) ;
#790 = ORIENTED_EDGE ( 'NONE', *, *, #57, .T. ) ;
#791 = DIRECTION ( 'NONE',  ( 0.000000000000000000, -0.8944271909998968706, -0.4472135954999957308 ) ) ;
#792 = ADVANCED_FACE ( 'NONE', ( #497 ), #655, .F. ) ;
#793 = DIRECTION ( 'NONE',  ( 1.000000000000000000, 0.000000000000000000, 0.000000000000000000 ) ) ;
#794 = LINE ( 'NONE', #711, #463 ) ;
#795 = ORIENTED_EDGE ( 'NONE', *, *, #607, .T. ) ;
#796 = CARTESIAN_POINT ( 'NONE',  ( 34.74007135754573028, -867.6365775715717064, 0.000000000000000000 ) ) ;
#797 = EDGE_CURVE ( 'NONE', #621, #124, #9, .T. ) ;
#798 = DIRECTION ( 'NONE',  ( 0.000000000000000000, 0.000000000000000000, 1.000000000000000000 ) ) ;
#799 = CARTESIAN_POINT ( 'NONE',  ( 17.64007135754572886, -868.1365775715717064, 28.79355679643767019 ) ) ;
#800 = CONICAL_SURFACE ( 'NONE', #534, 0.5000000000000004441, 0.7853981633974552734 ) ;
#801 = ORIENTED_EDGE ( 'NONE', *, *, #148, .T. ) ;
#802 = MECHANICAL_DESIGN_GEOMETRIC_PRESENTATION_REPRESENTATION (  '', ( #491 ), #582 ) ;
#803 = FACE_OUTER_BOUND ( 'NONE', #336, .T. ) ;
#804 = ADVANCED_FACE ( 'NONE', ( #205 ), #945, .T. ) ;
#805 = LINE ( 'NONE', #939, #126 ) ;
#806 = DIRECTION ( 'NONE',  ( -0.000000000000000000, -0.8944271909998972037, 0.4472135954999951757 ) ) ;
#807 = ORIENTED_EDGE ( 'NONE', *, *, #313, .F. ) ;
#808 = CARTESIAN_POINT ( 'NONE',  ( 17.44007135754572957, -869.4906795378217339, 33.11617692287562420 ) ) ;
#809 = FACE_OUTER_BOUND ( 'NONE', #500, .T. ) ;
#810 = CARTESIAN_POINT ( 'NONE',  ( 34.24007135754573028, -868.1365775715717064, 20.79355679643813204 ) ) ;
#811 = ORIENTED_EDGE ( 'NONE', *, *, #797, .F. ) ;
#812 = DIRECTION ( 'NONE',  ( 0.000000000000000000, -1.000000000000000000, 0.000000000000000000 ) ) ;
#813 = DIRECTION ( 'NONE',  ( 0.000000000000000000, 0.8944271909998973147, -0.4472135954999952312 ) ) ;
#814 = CARTESIAN_POINT ( 'NONE',  ( 17.64007135754572531, 0.000000000000000000, 20.29355679643813914 ) ) ;
#815 = VERTEX_POINT ( 'NONE', #713 ) ;
#816 = EDGE_CURVE ( 'NONE', #212, #95, #351, .T. ) ;
#817 = VECTOR ( 'NONE', #806, 1000.000000000000114 ) ;
#818 = CARTESIAN_POINT ( 'NONE',  ( 44.23421847157327136, 0.000000000000000000, 20.29355679643813914 ) ) ;
#819 = CIRCLE ( 'NONE', #898, 0.5000000000000004441 ) ;
#820 = CARTESIAN_POINT ( 'NONE',  ( 17.44007135754572957, -877.6365775715717064, 28.79355679643766308 ) ) ;
#821 = DIRECTION ( 'NONE',  ( 0.000000000000000000, 0.000000000000000000, 1.000000000000000000 ) ) ;
#822 = ORIENTED_EDGE ( 'NONE', *, *, #401, .F. ) ;
#823 = CARTESIAN_POINT ( 'NONE',  ( 60.60494575636151637, -159.0864175541920531, -318.1728351083509096 ) ) ;
#824 = EDGE_CURVE ( 'NONE', #135, #601, #411, .T. ) ;
#825 = LINE ( 'NONE', #222, #833 ) ;
#826 = CARTESIAN_POINT ( 'NONE',  ( 34.74007135754573028, -864.6365775715715927, 20.79355679643813204 ) ) ;
#827 = ORIENTED_EDGE ( 'NONE', *, *, #451, .T. ) ;
#828 = CARTESIAN_POINT ( 'NONE',  ( 34.74007135754573028, -867.6365775715717064, 20.79355679643813204 ) ) ;
#829 = EDGE_CURVE ( 'NONE', #437, #895, #576, .T. ) ;
#830 = LINE ( 'NONE', #659, #444 ) ;
#831 = ORIENTED_EDGE ( 'NONE', *, *, #82, .F. ) ;
#832 = CARTESIAN_POINT ( 'NONE',  ( 34.24007135754573028, -864.1365775715717064, 20.79355679643813204 ) ) ;
#833 = VECTOR ( 'NONE', #309, 1000.000000000000000 ) ;
#834 = LINE ( 'NONE', #322, #940 ) ;
#835 = ADVANCED_FACE ( 'NONE', ( #459 ), #612, .T. ) ;
#836 = EDGE_LOOP ( 'NONE', ( #572, #539, #524, #197 ) ) ;
#837 = CARTESIAN_POINT ( 'NONE',  ( 34.44007135754573312, -187.3682134744949224, 374.7364269489501680 ) ) ;
#838 = LINE ( 'NONE', #488, #294 ) ;
#839 = EDGE_CURVE ( 'NONE', #842, #744, #378, .T. ) ;
#840 = ORIENTED_EDGE ( 'NONE', *, *, #44, .F. ) ;
#841 = DIRECTION ( 'NONE',  ( -4.097771990496913504E-16, -0.000000000000000000, -1.000000000000000000 ) ) ;
#842 = VERTEX_POINT ( 'NONE', #92 ) ;
#843 = VERTEX_POINT ( 'NONE', #832 ) ;
#844 = AXIS2_PLACEMENT_3D ( 'NONE', #608, #316, #462 ) ;
#845 = AXIS2_PLACEMENT_3D ( 'NONE', #127, #133, #72 ) ;
#846 = PRODUCT_DEFINITION_FORMATION_WITH_SPECIFIED_SOURCE ( 'ANY', '', #871, .NOT_KNOWN. ) ;
#847 = ORIENTED_EDGE ( 'NONE', *, *, #31, .F. ) ;
#848 = FACE_OUTER_BOUND ( 'NONE', #412, .T. ) ;
#849 = EDGE_LOOP ( 'NONE', ( #225, #50, #944, #323 ) ) ;
#850 = EDGE_CURVE ( 'NONE', #915, #437, #906, .T. ) ;
#851 = CARTESIAN_POINT ( 'NONE',  ( 34.44007135754573312, -866.1365775715717064, 26.40797299037642887 ) ) ;
#852 = ORIENTED_EDGE ( 'NONE', *, *, #270, .T. ) ;
#853 = DIRECTION ( 'NONE',  ( 1.000000000000000000, 0.000000000000000000, -4.097771990496908080E-16 ) ) ;
#854 = VERTEX_POINT ( 'NONE', #97 ) ;
#855 = ORIENTED_EDGE ( 'NONE', *, *, #487, .T. ) ;
#856 = DIRECTION ( 'NONE',  ( 1.000000000000000000, 0.000000000000000000, 0.000000000000000000 ) ) ;
#857 = CARTESIAN_POINT ( 'NONE',  ( 34.44007135754573312, -862.5588688075716846, 33.56339051837559140 ) ) ;
#858 = VECTOR ( 'NONE', #355, 1000.000000000000000 ) ;
#859 = EDGE_CURVE ( 'NONE', #739, #180, #80, .T. ) ;
#860 = DIRECTION ( 'NONE',  ( -0.7071067811865524577, 0.000000000000000000, 0.7071067811865426878 ) ) ;
#861 = VECTOR ( 'NONE', #888, 1000.000000000000000 ) ;
#862 = ADVANCED_FACE ( 'NONE', ( #520 ), #231, .F. ) ;
#863 = VERTEX_POINT ( 'NONE', #606 ) ;
#864 = CARTESIAN_POINT ( 'NONE',  ( 34.44007135754573312, -869.7142863355718418, 33.56339051837564824 ) ) ;
#865 = DIRECTION ( 'NONE',  ( 0.000000000000000000, 0.000000000000000000, 1.000000000000000000 ) ) ;
#866 = CARTESIAN_POINT ( 'NONE',  ( 34.24007135754573028, -868.1365775715717064, 28.79355679643767019 ) ) ;
#867 = ORIENTED_EDGE ( 'NONE', *, *, #824, .T. ) ;
#868 = ADVANCED_FACE ( 'NONE', ( #529 ), #592, .F. ) ;
#869 = DIRECTION ( 'NONE',  ( 0.000000000000000000, 0.000000000000000000, 1.000000000000000000 ) ) ;
#870 = DIRECTION ( 'NONE',  ( -0.7071067811865425767, 0.000000000000000000, 0.7071067811865524577 ) ) ;
#871 = PRODUCT ( '\X2\8272536176d2\X0\-\X2\82725361987651fa659c5761\X0\', '\X2\8272536176d2\X0\-\X2\82725361987651fa659c5761\X0\', '', ( #45 ) ) ;
#872 = LINE ( 'NONE', #130, #858 ) ;
#873 = EDGE_LOOP ( 'NONE', ( #331, #554, #263, #185 ) ) ;
#874 = CARTESIAN_POINT ( 'NONE',  ( 34.24007135754573028, -864.6365775715715927, 28.79355679643767374 ) ) ;
#875 = ADVANCED_FACE ( 'NONE', ( #749 ), #902, .F. ) ;
#876 = DIRECTION ( 'NONE',  ( 0.000000000000000000, -1.000000000000000000, 0.000000000000000000 ) ) ;
#877 = DIRECTION ( 'NONE',  ( -0.000000000000000000, 0.8944271909998970926, 0.4472135954999958418 ) ) ;
#878 = AXIS2_PLACEMENT_3D ( 'NONE', #504, #638, #4 ) ;
#879 = ORIENTED_EDGE ( 'NONE', *, *, #859, .T. ) ;
#880 = AXIS2_PLACEMENT_3D ( 'NONE', #25, #439, #732 ) ;
#881 = CARTESIAN_POINT ( 'NONE',  ( 17.64007135754572531, -864.1365775715717064, 20.79355679643813204 ) ) ;
#882 = AXIS2_PLACEMENT_3D ( 'NONE', #81, #373, #455 ) ;
#883 = DIRECTION ( 'NONE',  ( 0.000000000000000000, -1.000000000000000000, 0.000000000000000000 ) ) ;
#884 = EDGE_CURVE ( 'NONE', #895, #43, #735, .T. ) ;
#885 = DIRECTION ( 'NONE',  ( -1.000000000000000000, -0.000000000000000000, -0.000000000000000000 ) ) ;
#886 = ORIENTED_EDGE ( 'NONE', *, *, #933, .T. ) ;
#887 = DIRECTION ( 'NONE',  ( 1.000000000000000000, 0.000000000000000000, -0.000000000000000000 ) ) ;
#888 = DIRECTION ( 'NONE',  ( -1.000000000000000000, -0.000000000000000000, -0.000000000000000000 ) ) ;
#889 = EDGE_CURVE ( 'NONE', #100, #778, #47, .T. ) ;
#890 = CARTESIAN_POINT ( 'NONE',  ( 17.64007135754572531, -867.6365775715717064, 20.79355679643813204 ) ) ;
#891 = ORIENTED_EDGE ( 'NONE', *, *, #111, .T. ) ;
#892 = CARTESIAN_POINT ( 'NONE',  ( 17.14007135754571820, -867.6365775715717064, -7.023610432406923954E-15 ) ) ;
#893 = DIRECTION ( 'NONE',  ( 0.000000000000000000, 0.4472135955000300922, 0.8944271909998797732 ) ) ;
#894 = CARTESIAN_POINT ( 'NONE',  ( 44.23421847157327136, -868.1365775715717064, 20.79355679643813204 ) ) ;
#895 = VERTEX_POINT ( 'NONE', #586 ) ;
#896 = VECTOR ( 'NONE', #170, 1000.000000000000000 ) ;
#897 = DIRECTION ( 'NONE',  ( -0.7071067811865524577, 0.000000000000000000, -0.7071067811865426878 ) ) ;
#898 = AXIS2_PLACEMENT_3D ( 'NONE', #433, #725, #856 ) ;
#899 = CARTESIAN_POINT ( 'NONE',  ( 34.74007135754573028, -864.6365775715715927, 28.79355679643767374 ) ) ;
#900 = DIRECTION ( 'NONE',  ( 0.000000000000000000, 0.7071067811865132668, 0.7071067811865818786 ) ) ;
#901 = ORIENTED_EDGE ( 'NONE', *, *, #442, .T. ) ;
#902 = PLANE ( 'NONE',  #112 ) ;
#903 = ADVANCED_FACE ( 'NONE', ( #163 ), #13, .T. ) ;
#904 = CARTESIAN_POINT ( 'NONE',  ( 16.94007135754572957, -877.1365775715717064, 29.29322790600034665 ) ) ;
#905 = ORIENTED_EDGE ( 'NONE', *, *, #764, .F. ) ;
#906 = LINE ( 'NONE', #30, #187 ) ;
#907 = PRODUCT_DEFINITION_SHAPE ( 'NONE', 'NONE',  #551 ) ;
#908 = EDGE_CURVE ( 'NONE', #815, #718, #253, .T. ) ;
#909 = EDGE_CURVE ( 'NONE', #284, #739, #304, .T. ) ;
#910 = CARTESIAN_POINT ( 'NONE',  ( 34.74007135754573028, -864.6365775715715927, 28.79355679643767374 ) ) ;
#911 = VERTEX_POINT ( 'NONE', #740 ) ;
#912 = AXIS2_PLACEMENT_3D ( 'NONE', #604, #531, #99 ) ;
#913 = CIRCLE ( 'NONE', #24, 0.4999999999999449329 ) ;
#914 = FACE_OUTER_BOUND ( 'NONE', #650, .T. ) ;
#915 = VERTEX_POINT ( 'NONE', #87 ) ;
#916 = DIRECTION ( 'NONE',  ( -1.000000000000000000, -0.000000000000000000, -0.000000000000000000 ) ) ;
#917 = EDGE_LOOP ( 'NONE', ( #707, #694, #400, #12, #519 ) ) ;
#918 = ORIENTED_EDGE ( 'NONE', *, *, #380, .T. ) ;
#919 = ORIENTED_EDGE ( 'NONE', *, *, #380, .F. ) ;
#920 = DIRECTION ( 'NONE',  ( 1.000000000000000000, 0.000000000000000000, 0.000000000000000000 ) ) ;
#921 = ORIENTED_EDGE ( 'NONE', *, *, #391, .T. ) ;
#922 = EDGE_CURVE ( 'NONE', #915, #372, #667, .T. ) ;
#923 = VECTOR ( 'NONE', #860, 1000.000000000000000 ) ;
#924 = DIRECTION ( 'NONE',  ( -1.000000000000000000, -0.000000000000000000, 0.000000000000000000 ) ) ;
#925 = AXIS2_PLACEMENT_3D ( 'NONE', #375, #300, #583 ) ;
#926 = AXIS2_PLACEMENT_3D ( 'NONE', #2, #580, #423 ) ;
#927 = ORIENTED_EDGE ( 'NONE', *, *, #555, .F. ) ;
#928 = ORIENTED_EDGE ( 'NONE', *, *, #259, .F. ) ;
#929 = EDGE_CURVE ( 'NONE', #95, #895, #596, .T. ) ;
#930 = FILL_AREA_STYLE ('',( #179 ) ) ;
#931 = EDGE_LOOP ( 'NONE', ( #317, #768, #724, #575 ) ) ;
#932 = ORIENTED_EDGE ( 'NONE', *, *, #935, .T. ) ;
#933 = EDGE_CURVE ( 'NONE', #472, #43, #23, .T. ) ;
#934 = CARTESIAN_POINT ( 'NONE',  ( 16.94007135754572957, -866.1365775715717064, 26.40797299037642887 ) ) ;
#935 = EDGE_CURVE ( 'NONE', #135, #734, #251, .T. ) ;
#936 = CARTESIAN_POINT ( 'NONE',  ( 16.94007135754572957, -2.171689518767525216E-14, 28.79355679643832744 ) ) ;
#937 = ORIENTED_EDGE ( 'NONE', *, *, #607, .F. ) ;
#938 = DIRECTION ( 'NONE',  ( 0.000000000000000000, -1.000000000000000000, 0.000000000000000000 ) ) ;
#939 = CARTESIAN_POINT ( 'NONE',  ( 34.24007135754573028, -864.1365775715717064, 20.29355679643813914 ) ) ;
#940 = VECTOR ( 'NONE', #113, 1000.000000000000000 ) ;
#941 = ADVANCED_FACE ( 'NONE', ( #848 ), #685, .T. ) ;
#942 = LINE ( 'NONE', #345, #701 ) ;
#943 = AXIS2_PLACEMENT_3D ( 'NONE', #808, #151, #61 ) ;
#944 = ORIENTED_EDGE ( 'NONE', *, *, #246, .F. ) ;
#945 = CYLINDRICAL_SURFACE ( 'NONE', #926, 0.5000000000000004441 ) ;
#946 = FACE_OUTER_BOUND ( 'NONE', #917, .T. ) ;
#947 = CARTESIAN_POINT ( 'NONE',  ( 16.94007135754572957, -870.7767091277459031, 37.11329368408813423 ) ) ;
#948 = EDGE_CURVE ( 'NONE', #911, #654, #404, .T. ) ;
#949 = ORIENTED_EDGE ( 'NONE', *, *, #839, .F. ) ;
#950 = CARTESIAN_POINT ( 'NONE',  ( 34.44007135754573312, -187.1446066767449281, 374.2892133534502364 ) ) ;
#951 = CARTESIAN_POINT ( 'NONE',  ( 17.14717813873227215, -877.6365775715718200, 29.60224490037512979 ) ) ;
#952 = CARTESIAN_POINT ( 'NONE',  ( 17.14007135754572531, -867.6365775715717064, 20.79355679643813204 ) ) ;
ENDSEC;
END-ISO-10303-21;
