ISO-10303-21;
HEADER;
FILE_DESCRIPTION (( 'STEP AP214' ),
    '1' );
FILE_NAME ('???-?????.STEP',
    '2025-10-26T14:07:53',
    ( '' ),
    ( '' ),
    'SwSTEP 2.0',
    'SolidWorks 2024',
    '' );
FILE_SCHEMA (( 'AUTOMOTIVE_DESIGN' ));
ENDSEC;

DATA;
#1 = ORIENTED_EDGE ( 'NONE', *, *, #150, .T. ) ;
#2 = PRESENTATION_STYLE_ASSIGNMENT (( #10 ) ) ;
#3 = LINE ( 'NONE', #278, #400 ) ;
#4 = ADVANCED_FACE ( 'NONE', ( #315 ), #489, .F. ) ;
#5 = ORIENTED_EDGE ( 'NONE', *, *, #401, .T. ) ;
#6 = VECTOR ( 'NONE', #275, 1000.000000000000000 ) ;
#7 = CIRCLE ( 'NONE', #426, 0.5000000000000004441 ) ;
#8 = CARTESIAN_POINT ( 'NONE',  ( 40.44007135754573312, 143.6240285126873459, 42.79355679643813204 ) ) ;
#9 = EDGE_LOOP ( 'NONE', ( #175, #727, #683, #652 ) ) ;
#10 = SURFACE_STYLE_USAGE ( .BOTH. , #681 ) ;
#11 = FACE_OUTER_BOUND ( 'NONE', #9, .T. ) ;
#12 = EDGE_LOOP ( 'NONE', ( #196, #555, #302, #1 ) ) ;
#13 = ADVANCED_FACE ( 'NONE', ( #321 ), #722, .T. ) ;
#14 = CARTESIAN_POINT ( 'NONE',  ( 44.82413340090231202, 143.4240285126873289, 37.24355679643814199 ) ) ;
#15 = DIRECTION ( 'NONE',  ( 0.000000000000000000, 1.000000000000000000, 0.000000000000000000 ) ) ;
#16 = ORIENTED_EDGE ( 'NONE', *, *, #510, .F. ) ;
#17 = VECTOR ( 'NONE', #319, 1000.000000000000000 ) ;
#18 = DIRECTION ( 'NONE',  ( 0.000000000000000000, 1.000000000000000000, -0.000000000000000000 ) ) ;
#19 = CARTESIAN_POINT ( 'NONE',  ( 11.44007135754572957, 0.000000000000000000, 0.000000000000000000 ) ) ;
#20 = ORIENTED_EDGE ( 'NONE', *, *, #668, .T. ) ;
#21 = ORIENTED_EDGE ( 'NONE', *, *, #551, .T. ) ;
#22 = FACE_OUTER_BOUND ( 'NONE', #74, .T. ) ;
#23 = LINE ( 'NONE', #125, #665 ) ;
#24 = ORIENTED_EDGE ( 'NONE', *, *, #308, .T. ) ;
#25 = EDGE_CURVE ( 'NONE', #699, #559, #139, .T. ) ;
#26 = CYLINDRICAL_SURFACE ( 'NONE', #272, 0.5000000000000004441 ) ;
#27 = CIRCLE ( 'NONE', #163, 0.6999999999999992895 ) ;
#28 = FACE_OUTER_BOUND ( 'NONE', #44, .T. ) ;
#29 = TOROIDAL_SURFACE ( 'NONE', #516, 0.1999999999999999833, 0.5000000000000000000 ) ;
#30 = VERTEX_POINT ( 'NONE', #154 ) ;
#31 = DIRECTION ( 'NONE',  ( 0.000000000000000000, 0.000000000000000000, 1.000000000000000000 ) ) ;
#32 = CARTESIAN_POINT ( 'NONE',  ( 39.94007135754573312, 143.4240285126873289, 39.64355679643813346 ) ) ;
#33 = ORIENTED_EDGE ( 'NONE', *, *, #401, .F. ) ;
#34 = DIRECTION ( 'NONE',  ( 0.000000000000000000, 0.000000000000000000, -1.000000000000000000 ) ) ;
#35 = CARTESIAN_POINT ( 'NONE',  ( 11.94007135754572602, 143.4240285126873289, 39.64355679643813346 ) ) ;
#36 = LINE ( 'NONE', #600, #526 ) ;
#37 = AXIS2_PLACEMENT_3D ( 'NONE', #735, #114, #215 ) ;
#38 = DIRECTION ( 'NONE',  ( 0.000000000000000000, 0.000000000000000000, 1.000000000000000000 ) ) ;
#39 = AXIS2_PLACEMENT_3D ( 'NONE', #711, #71, #630 ) ;
#40 = DIRECTION ( 'NONE',  ( -1.000000000000000000, 0.000000000000000000, -0.000000000000000000 ) ) ;
#41 = DIRECTION ( 'NONE',  ( 0.000000000000000000, 0.000000000000000000, 1.000000000000000000 ) ) ;
#42 = CYLINDRICAL_SURFACE ( 'NONE', #680, 0.5000000000000004441 ) ;
#43 = DIRECTION ( 'NONE',  ( 0.000000000000000000, 0.000000000000000000, -1.000000000000000000 ) ) ;
#44 = EDGE_LOOP ( 'NONE', ( #66, #623, #403, #123, #168, #142, #412, #673 ) ) ;
#45 = EDGE_CURVE ( 'NONE', #599, #407, #563, .T. ) ;
#46 = FACE_OUTER_BOUND ( 'NONE', #126, .T. ) ;
#47 = CARTESIAN_POINT ( 'NONE',  ( 11.94007135754572957, 141.5240285126873516, 39.64355679643813346 ) ) ;
#48 = TOROIDAL_SURFACE ( 'NONE', #117, 0.1999999999999999833, 0.5000000000000000000 ) ;
#49 = APPLICATION_CONTEXT ( 'automotive_design' ) ;
#50 = CYLINDRICAL_SURFACE ( 'NONE', #331, 0.6999999999999992895 ) ;
#51 = CARTESIAN_POINT ( 'NONE',  ( 11.94007135754572602, 141.0240285126873516, 42.79355679643813204 ) ) ;
#52 = ORIENTED_EDGE ( 'NONE', *, *, #481, .T. ) ;
#53 = DIRECTION ( 'NONE',  ( -1.000000000000000000, 0.000000000000000000, 0.000000000000000000 ) ) ;
#54 = DIRECTION ( 'NONE',  ( 0.000000000000000000, 0.000000000000000000, 1.000000000000000000 ) ) ;
#55 = EDGE_LOOP ( 'NONE', ( #305, #80, #164, #237 ) ) ;
#56 = DIRECTION ( 'NONE',  ( -1.000000000000000000, 0.000000000000000000, 0.000000000000000000 ) ) ;
#57 = CARTESIAN_POINT ( 'NONE',  ( 39.94007135754573312, 141.0240285126873516, 37.94355679643813772 ) ) ;
#58 = AXIS2_PLACEMENT_3D ( 'NONE', #262, #372, #41 ) ;
#59 = ORIENTED_EDGE ( 'NONE', *, *, #436, .F. ) ;
#60 = CARTESIAN_POINT ( 'NONE',  ( 11.44007135754572957, 141.7240285126873403, 37.74355679643814199 ) ) ;
#61 = CARTESIAN_POINT ( 'NONE',  ( 11.44007135754572957, 0.000000000000000000, 37.74355679643814199 ) ) ;
#62 = ORIENTED_EDGE ( 'NONE', *, *, #414, .F. ) ;
#63 = ADVANCED_FACE ( 'NONE', ( #596 ), #383, .F. ) ;
#64 = LINE ( 'NONE', #580, #708 ) ;
#65 = CARTESIAN_POINT ( 'NONE',  ( 39.94007135754573312, 141.0240285126873516, 39.64355679643813346 ) ) ;
#66 = ORIENTED_EDGE ( 'NONE', *, *, #99, .T. ) ;
#67 = EDGE_CURVE ( 'NONE', #421, #388, #411, .T. ) ;
#68 = DIRECTION ( 'NONE',  ( -1.000000000000000000, 0.000000000000000000, 0.000000000000000000 ) ) ;
#69 = ORIENTED_EDGE ( 'NONE', *, *, #656, .F. ) ;
#70 = CIRCLE ( 'NONE', #189, 0.5000000000000004441 ) ;
#71 = DIRECTION ( 'NONE',  ( 1.000000000000000000, -0.000000000000000000, -0.000000000000000000 ) ) ;
#72 = PRESENTATION_LAYER_ASSIGNMENT (  '', '', ( #666 ) ) ;
#73 = FACE_OUTER_BOUND ( 'NONE', #710, .T. ) ;
#74 = EDGE_LOOP ( 'NONE', ( #464, #366, #627, #191 ) ) ;
#75 = DIRECTION ( 'NONE',  ( 1.000000000000000000, 0.000000000000000000, 0.000000000000000000 ) ) ;
#76 = ADVANCED_FACE ( 'NONE', ( #725 ), #367, .T. ) ;
#77 = EDGE_LOOP ( 'NONE', ( #351, #610, #522, #62 ) ) ;
#78 = DIRECTION ( 'NONE',  ( -0.000000000000000000, -1.000000000000000000, -0.000000000000000000 ) ) ;
#79 = DIRECTION ( 'NONE',  ( 0.000000000000000000, 4.163336342344362270E-13, -1.000000000000000000 ) ) ;
#80 = ORIENTED_EDGE ( 'NONE', *, *, #194, .F. ) ;
#81 = VECTOR ( 'NONE', #410, 1000.000000000000000 ) ;
#82 = CARTESIAN_POINT ( 'NONE',  ( 39.94007135754573312, 141.0240285126873516, 42.79355679643813204 ) ) ;
#83 = EDGE_LOOP ( 'NONE', ( #21, #639, #482, #702 ) ) ;
#84 = EDGE_CURVE ( 'NONE', #646, #438, #187, .T. ) ;
#85 = DIRECTION ( 'NONE',  ( -1.000000000000000000, 0.000000000000000000, 0.000000000000000000 ) ) ;
#86 = CARTESIAN_POINT ( 'NONE',  ( 11.94007135754572602, 141.0240285126873516, 39.64355679643813346 ) ) ;
#87 = EDGE_LOOP ( 'NONE', ( #222, #24, #608, #307 ) ) ;
#88 = DIRECTION ( 'NONE',  ( 0.000000000000000000, 0.000000000000000000, 1.000000000000000000 ) ) ;
#89 = ORIENTED_EDGE ( 'NONE', *, *, #532, .T. ) ;
#90 = DIRECTION ( 'NONE',  ( 0.000000000000000000, 0.000000000000000000, -1.000000000000000000 ) ) ;
#91 = DIRECTION ( 'NONE',  ( 1.000000000000000000, -0.000000000000000000, -0.000000000000000000 ) ) ;
#92 = CIRCLE ( 'NONE', #602, 0.1999999999999987899 ) ;
#93 = CIRCLE ( 'NONE', #283, 0.1999999999999987899 ) ;
#94 = ORIENTED_EDGE ( 'NONE', *, *, #684, .T. ) ;
#95 = ORIENTED_EDGE ( 'NONE', *, *, #656, .T. ) ;
#96 = CARTESIAN_POINT ( 'NONE',  ( 11.94007135754572602, 143.4240285126873573, 37.94355679643813772 ) ) ;
#97 = EDGE_CURVE ( 'NONE', #487, #240, #326, .T. ) ;
#98 = DIRECTION ( 'NONE',  ( -1.000000000000000000, 0.000000000000000000, 0.000000000000000000 ) ) ;
#99 = EDGE_CURVE ( 'NONE', #286, #186, #425, .T. ) ;
#100 = DIRECTION ( 'NONE',  ( -1.000000000000000000, 0.000000000000000000, 0.000000000000000000 ) ) ;
#101 = DIRECTION ( 'NONE',  ( 0.000000000000000000, 0.000000000000000000, -1.000000000000000000 ) ) ;
#102 = CARTESIAN_POINT ( 'NONE',  ( 40.44007135754573312, 141.7240285126873403, 37.74355679643814199 ) ) ;
#103 = CIRCLE ( 'NONE', #483, 0.5000000000000004441 ) ;
#104 = AXIS2_PLACEMENT_3D ( 'NONE', #565, #56, #685 ) ;
#105 = VERTEX_POINT ( 'NONE', #682 ) ;
#106 = CIRCLE ( 'NONE', #709, 0.6999999999999992895 ) ;
#107 = EDGE_CURVE ( 'NONE', #263, #487, #281, .T. ) ;
#108 =( LENGTH_UNIT ( ) NAMED_UNIT ( * ) SI_UNIT ( .MILLI., .METRE. ) );
#109 = ORIENTED_EDGE ( 'NONE', *, *, #293, .T. ) ;
#110 = DIRECTION ( 'NONE',  ( 0.000000000000000000, 0.000000000000000000, 1.000000000000000000 ) ) ;
#111 = DIRECTION ( 'NONE',  ( 1.000000000000000000, -0.000000000000000000, -0.000000000000000000 ) ) ;
#112 = ORIENTED_EDGE ( 'NONE', *, *, #324, .F. ) ;
#113 = CARTESIAN_POINT ( 'NONE',  ( 11.94007135754572602, 141.7240285126873403, 37.74355679643814199 ) ) ;
#114 = DIRECTION ( 'NONE',  ( 1.000000000000000000, 0.000000000000000000, 0.000000000000000000 ) ) ;
#115 = EDGE_CURVE ( 'NONE', #263, #388, #672, .T. ) ;
#116 = VERTEX_POINT ( 'NONE', #57 ) ;
#117 = AXIS2_PLACEMENT_3D ( 'NONE', #32, #423, #486 ) ;
#118 = CARTESIAN_POINT ( 'NONE',  ( 11.94007135754572602, -16.42597148731265833, 37.74355679643814199 ) ) ;
#119 = DIRECTION ( 'NONE',  ( -1.000000000000000000, 0.000000000000000000, 0.000000000000000000 ) ) ;
#120 = EDGE_CURVE ( 'NONE', #579, #116, #622, .T. ) ;
#121 = ORIENTED_EDGE ( 'NONE', *, *, #490, .F. ) ;
#122 = CARTESIAN_POINT ( 'NONE',  ( 39.94007135754573312, 143.4240285126873573, 37.94355679643813772 ) ) ;
#123 = ORIENTED_EDGE ( 'NONE', *, *, #327, .T. ) ;
#124 = CARTESIAN_POINT ( 'NONE',  ( 44.82413340090231202, 143.4240285126873289, 39.64355679643813346 ) ) ;
#125 = CARTESIAN_POINT ( 'NONE',  ( 40.44007135754573312, -16.42597148731265833, 37.74355679643814199 ) ) ;
#126 = EDGE_LOOP ( 'NONE', ( #348, #500, #527, #445 ) ) ;
#127 = AXIS2_PLACEMENT_3D ( 'NONE', #478, #651, #253 ) ;
#128 = LINE ( 'NONE', #346, #617 ) ;
#129 = AXIS2_PLACEMENT_3D ( 'NONE', #113, #340, #415 ) ;
#130 = EDGE_CURVE ( 'NONE', #417, #587, #92, .T. ) ;
#131 = FACE_OUTER_BOUND ( 'NONE', #171, .T. ) ;
#132 = VERTEX_POINT ( 'NONE', #675 ) ;
#133 = CARTESIAN_POINT ( 'NONE',  ( 11.44007135754572957, 143.4240285126873573, 37.94355679643813772 ) ) ;
#134 = ORIENTED_EDGE ( 'NONE', *, *, #115, .T. ) ;
#135 = CARTESIAN_POINT ( 'NONE',  ( 11.44007135754572957, 141.5240285126873516, 0.000000000000000000 ) ) ;
#136 = ADVANCED_FACE ( 'NONE', ( #571 ), #342, .T. ) ;
#137 = VERTEX_POINT ( 'NONE', #65 ) ;
#138 = PRODUCT_RELATED_PRODUCT_CATEGORY ( 'part', '', ( #678 ) ) ;
#139 = CIRCLE ( 'NONE', #470, 0.5000000000000004441 ) ;
#140 = APPLICATION_PROTOCOL_DEFINITION ( 'draft international standard', 'automotive_design', 1998, #715 ) ;
#141 = CARTESIAN_POINT ( 'NONE',  ( 39.94007135754573312, 141.5240285126873516, 37.94355679643813772 ) ) ;
#142 = ORIENTED_EDGE ( 'NONE', *, *, #216, .T. ) ;
#143 = EDGE_CURVE ( 'NONE', #240, #105, #103, .T. ) ;
#144 = CARTESIAN_POINT ( 'NONE',  ( 11.94007135754572602, 143.4240285126873289, 40.34355679643813630 ) ) ;
#145 = EDGE_LOOP ( 'NONE', ( #52, #183, #134, #569 ) ) ;
#146 = CARTESIAN_POINT ( 'NONE',  ( 11.94007135754572602, 141.7240285126873687, 39.64355679643813346 ) ) ;
#147 = PLANE ( 'NONE',  #271 ) ;
#148 = VERTEX_POINT ( 'NONE', #499 ) ;
#149 = ORIENTED_EDGE ( 'NONE', *, *, #684, .F. ) ;
#150 = EDGE_CURVE ( 'NONE', #438, #579, #734, .T. ) ;
#151 = AXIS2_PLACEMENT_3D ( 'NONE', #451, #689, #217 ) ;
#152 = AXIS2_PLACEMENT_3D ( 'NONE', #174, #399, #632 ) ;
#153 = AXIS2_PLACEMENT_3D ( 'NONE', #501, #337, #560 ) ;
#154 = CARTESIAN_POINT ( 'NONE',  ( 39.94007135754573312, 141.7240285126873403, 40.34355679643813630 ) ) ;
#155 = FACE_OUTER_BOUND ( 'NONE', #661, .T. ) ;
#156 = CARTESIAN_POINT ( 'NONE',  ( 39.94007135754573312, 143.4240285126873573, 37.74355679643814199 ) ) ;
#157 =( NAMED_UNIT ( * ) SI_UNIT ( $, .STERADIAN. ) SOLID_ANGLE_UNIT ( ) );
#158 = CARTESIAN_POINT ( 'NONE',  ( 44.82413340090231202, 143.4240285126873289, 40.34355679643813630 ) ) ;
#159 = ADVANCED_FACE ( 'NONE', ( #11 ), #704, .T. ) ;
#160 = DIRECTION ( 'NONE',  ( -1.000000000000000000, -0.000000000000000000, -0.000000000000000000 ) ) ;
#161 = CARTESIAN_POINT ( 'NONE',  ( 39.94007135754573312, 143.4240285126873289, 39.64355679643813346 ) ) ;
#162 = VECTOR ( 'NONE', #448, 1000.000000000000000 ) ;
#163 = AXIS2_PLACEMENT_3D ( 'NONE', #303, #68, #241 ) ;
#164 = ORIENTED_EDGE ( 'NONE', *, *, #430, .F. ) ;
#165 = AXIS2_PLACEMENT_3D ( 'NONE', #325, #110, #612 ) ;
#166 = ADVANCED_FACE ( 'NONE', ( #228 ), #440, .T. ) ;
#167 = CARTESIAN_POINT ( 'NONE',  ( 40.44007135754573312, 141.5240285126873516, 37.94355679643813772 ) ) ;
#168 = ORIENTED_EDGE ( 'NONE', *, *, #199, .T. ) ;
#169 = CARTESIAN_POINT ( 'NONE',  ( 40.44007135754573312, 143.4240285126873573, 37.74355679643814199 ) ) ;
#170 = DIRECTION ( 'NONE',  ( 0.000000000000000000, 0.000000000000000000, -1.000000000000000000 ) ) ;
#171 = EDGE_LOOP ( 'NONE', ( #393, #409, #248, #317 ) ) ;
#172 = DIRECTION ( 'NONE',  ( 0.000000000000000000, 5.551115123125777653E-14, -1.000000000000000000 ) ) ;
#173 = ADVANCED_FACE ( 'NONE', ( #613 ), #341, .T. ) ;
#174 = CARTESIAN_POINT ( 'NONE',  ( 11.44007135754572957, 141.7240285126873403, 37.94355679643813772 ) ) ;
#175 = ORIENTED_EDGE ( 'NONE', *, *, #274, .T. ) ;
#176 = AXIS2_PLACEMENT_3D ( 'NONE', #392, #567, #335 ) ;
#177 = AXIS2_PLACEMENT_3D ( 'NONE', #621, #390, #553 ) ;
#178 = DIRECTION ( 'NONE',  ( 1.000000000000000000, -0.000000000000000000, 0.000000000000000000 ) ) ;
#179 = DIRECTION ( 'NONE',  ( -1.000000000000000000, 0.000000000000000000, 0.000000000000000000 ) ) ;
#180 = ORIENTED_EDGE ( 'NONE', *, *, #625, .F. ) ;
#181 = ADVANCED_BREP_SHAPE_REPRESENTATION ( '\X2\8272536176d2\X0\-\X2\96504f4d67f163d29500\X0\', ( #537, #552 ), #460 ) ;
#182 = CARTESIAN_POINT ( 'NONE',  ( 44.82413340090231202, -16.42597148731265833, 40.34355679643813630 ) ) ;
#183 = ORIENTED_EDGE ( 'NONE', *, *, #490, .T. ) ;
#184 = DIRECTION ( 'NONE',  ( 0.000000000000000000, 0.000000000000000000, 1.000000000000000000 ) ) ;
#185 = PLANE ( 'NONE',  #493 ) ;
#186 = VERTEX_POINT ( 'NONE', #626 ) ;
#187 = CIRCLE ( 'NONE', #549, 0.5000000000000004441 ) ;
#188 = TOROIDAL_SURFACE ( 'NONE', #484, 0.1999999999999999833, 0.5000000000000000000 ) ;
#189 = AXIS2_PLACEMENT_3D ( 'NONE', #395, #294, #190 ) ;
#190 = DIRECTION ( 'NONE',  ( 0.000000000000000000, 0.000000000000000000, 1.000000000000000000 ) ) ;
#191 = ORIENTED_EDGE ( 'NONE', *, *, #67, .T. ) ;
#192 = EDGE_LOOP ( 'NONE', ( #225, #180, #466, #69 ) ) ;
#193 =( LENGTH_UNIT ( ) NAMED_UNIT ( * ) SI_UNIT ( .MILLI., .METRE. ) );
#194 = EDGE_CURVE ( 'NONE', #333, #438, #550, .T. ) ;
#195 = CARTESIAN_POINT ( 'NONE',  ( 11.94007135754572602, -16.42597148731265833, 37.24355679643814199 ) ) ;
#196 = ORIENTED_EDGE ( 'NONE', *, *, #120, .T. ) ;
#197 = DIRECTION ( 'NONE',  ( 0.000000000000000000, 0.000000000000000000, -1.000000000000000000 ) ) ;
#198 = CARTESIAN_POINT ( 'NONE',  ( 40.44007135754573312, 143.4240285126873289, 39.84355679643813630 ) ) ;
#199 = EDGE_CURVE ( 'NONE', #336, #506, #387, .T. ) ;
#200 = DIRECTION ( 'NONE',  ( 0.000000000000000000, 0.000000000000000000, -1.000000000000000000 ) ) ;
#201 = AXIS2_PLACEMENT_3D ( 'NONE', #122, #697, #577 ) ;
#202 = CARTESIAN_POINT ( 'NONE',  ( 39.94007135754573312, 143.4240285126873289, 39.84355679643813630 ) ) ;
#203 = CARTESIAN_POINT ( 'NONE',  ( 44.82413340090231202, 143.4240285126873573, 37.94355679643813772 ) ) ;
#204 = FACE_OUTER_BOUND ( 'NONE', #83, .T. ) ;
#205 = DIRECTION ( 'NONE',  ( 0.000000000000000000, 0.000000000000000000, 1.000000000000000000 ) ) ;
#206 = EDGE_CURVE ( 'NONE', #421, #487, #3, .T. ) ;
#207 = LINE ( 'NONE', #595, #564 ) ;
#208 = DIRECTION ( 'NONE',  ( 0.000000000000000000, -5.551115123125777653E-14, -1.000000000000000000 ) ) ;
#209 = VECTOR ( 'NONE', #119, 1000.000000000000000 ) ;
#210 = DIRECTION ( 'NONE',  ( 0.000000000000000000, 0.000000000000000000, -1.000000000000000000 ) ) ;
#211 = AXIS2_PLACEMENT_3D ( 'NONE', #540, #667, #257 ) ;
#212 = AXIS2_PLACEMENT_3D ( 'NONE', #370, #714, #197 ) ;
#213 = ORIENTED_EDGE ( 'NONE', *, *, #274, .F. ) ;
#214 = ORIENTED_EDGE ( 'NONE', *, *, #394, .F. ) ;
#215 = DIRECTION ( 'NONE',  ( 0.000000000000000000, 0.000000000000000000, -1.000000000000000000 ) ) ;
#216 = EDGE_CURVE ( 'NONE', #506, #148, #233, .T. ) ;
#217 = DIRECTION ( 'NONE',  ( 0.000000000000000000, 0.000000000000000000, -1.000000000000000000 ) ) ;
#218 = VERTEX_POINT ( 'NONE', #102 ) ;
#219 =( NAMED_UNIT ( * ) PLANE_ANGLE_UNIT ( ) SI_UNIT ( $, .RADIAN. ) );
#220 = DIRECTION ( 'NONE',  ( 0.000000000000000000, 0.000000000000000000, -1.000000000000000000 ) ) ;
#221 = CIRCLE ( 'NONE', #201, 0.6999999999999992895 ) ;
#222 = ORIENTED_EDGE ( 'NONE', *, *, #453, .F. ) ;
#223 = DIRECTION ( 'NONE',  ( -0.000000000000000000, -0.000000000000000000, 1.000000000000000000 ) ) ;
#224 = CARTESIAN_POINT ( 'NONE',  ( 39.94007135754573312, -16.42597148731265833, 37.74355679643814199 ) ) ;
#225 = ORIENTED_EDGE ( 'NONE', *, *, #244, .T. ) ;
#226 = EDGE_CURVE ( 'NONE', #132, #218, #330, .T. ) ;
#227 = DIRECTION ( 'NONE',  ( 0.000000000000000000, 1.000000000000000000, 0.000000000000000000 ) ) ;
#228 = FACE_OUTER_BOUND ( 'NONE', #545, .T. ) ;
#229 = VERTEX_POINT ( 'NONE', #167 ) ;
#230 = CYLINDRICAL_SURFACE ( 'NONE', #566, 0.6999999999999992895 ) ;
#231 = DIRECTION ( 'NONE',  ( -0.000000000000000000, -0.000000000000000000, 1.000000000000000000 ) ) ;
#232 = ORIENTED_EDGE ( 'NONE', *, *, #107, .F. ) ;
#233 = CIRCLE ( 'NONE', #152, 0.1999999999999987899 ) ;
#234 = CIRCLE ( 'NONE', #245, 0.1999999999999987899 ) ;
#235 = CYLINDRICAL_SURFACE ( 'NONE', #256, 0.6999999999999992895 ) ;
#236 = EDGE_CURVE ( 'NONE', #461, #336, #70, .T. ) ;
#237 = ORIENTED_EDGE ( 'NONE', *, *, #519, .F. ) ;
#238 = LINE ( 'NONE', #640, #284 ) ;
#239 = CARTESIAN_POINT ( 'NONE',  ( 40.44007135754573312, 141.5240285126873516, 42.79355679643813204 ) ) ;
#240 = VERTEX_POINT ( 'NONE', #465 ) ;
#241 = DIRECTION ( 'NONE',  ( 0.000000000000000000, 0.000000000000000000, 1.000000000000000000 ) ) ;
#242 = VERTEX_POINT ( 'NONE', #648 ) ;
#243 = AXIS2_PLACEMENT_3D ( 'NONE', #431, #654, #88 ) ;
#244 = EDGE_CURVE ( 'NONE', #531, #636, #604, .T. ) ;
#245 = AXIS2_PLACEMENT_3D ( 'NONE', #688, #160, #101 ) ;
#246 = CARTESIAN_POINT ( 'NONE',  ( 11.94007135754572602, 141.7240285126873403, 37.94355679643813772 ) ) ;
#247 = PLANE ( 'NONE',  #590 ) ;
#248 = ORIENTED_EDGE ( 'NONE', *, *, #551, .F. ) ;
#249 = EDGE_CURVE ( 'NONE', #587, #229, #585, .T. ) ;
#250 = DIRECTION ( 'NONE',  ( 1.000000000000000000, 0.000000000000000000, 0.000000000000000000 ) ) ;
#251 = DIRECTION ( 'NONE',  ( 0.000000000000000000, -1.000000000000000000, 0.000000000000000000 ) ) ;
#252 = ORIENTED_EDGE ( 'NONE', *, *, #25, .F. ) ;
#253 = DIRECTION ( 'NONE',  ( 0.000000000000000000, 0.000000000000000000, 1.000000000000000000 ) ) ;
#254 = ORIENTED_EDGE ( 'NONE', *, *, #414, .T. ) ;
#255 = CARTESIAN_POINT ( 'NONE',  ( 0.000000000000000000, 0.000000000000000000, 0.000000000000000000 ) ) ;
#256 = AXIS2_PLACEMENT_3D ( 'NONE', #291, #179, #635 ) ;
#257 = DIRECTION ( 'NONE',  ( -1.000000000000000000, 0.000000000000000000, 0.000000000000000000 ) ) ;
#258 = VECTOR ( 'NONE', #705, 1000.000000000000000 ) ;
#259 = EDGE_CURVE ( 'NONE', #699, #132, #511, .T. ) ;
#260 = CARTESIAN_POINT ( 'NONE',  ( 44.82413340090231202, 141.0240285126873516, 42.79355679643813204 ) ) ;
#261 = CARTESIAN_POINT ( 'NONE',  ( 39.94007135754573312, 141.5240285126873516, 39.64355679643813346 ) ) ;
#262 = CARTESIAN_POINT ( 'NONE',  ( 40.44007135754573312, -16.42597148731265833, 42.79355679643813204 ) ) ;
#263 = VERTEX_POINT ( 'NONE', #574 ) ;
#264 = DIRECTION ( 'NONE',  ( 1.000000000000000000, 0.000000000000000000, 0.000000000000000000 ) ) ;
#265 = CARTESIAN_POINT ( 'NONE',  ( 40.44007135754573312, 141.7240285126873687, 39.84355679643813630 ) ) ;
#266 = CARTESIAN_POINT ( 'NONE',  ( 40.44007135754573312, 143.4240285126873289, 39.64355679643813346 ) ) ;
#267 = ORIENTED_EDGE ( 'NONE', *, *, #671, .F. ) ;
#268 = ADVANCED_FACE ( 'NONE', ( #131 ), #188, .T. ) ;
#269 = AXIS2_PLACEMENT_3D ( 'NONE', #35, #323, #492 ) ;
#270 = CARTESIAN_POINT ( 'NONE',  ( 11.94007135754572602, 144.1240285126873459, 37.94355679643813772 ) ) ;
#271 = AXIS2_PLACEMENT_3D ( 'NONE', #544, #718, #488 ) ;
#272 = AXIS2_PLACEMENT_3D ( 'NONE', #476, #597, #85 ) ;
#273 = DIRECTION ( 'NONE',  ( 1.000000000000000000, -0.000000000000000000, -0.000000000000000000 ) ) ;
#274 = EDGE_CURVE ( 'NONE', #186, #388, #379, .T. ) ;
#275 = DIRECTION ( 'NONE',  ( -0.000000000000000000, 1.000000000000000000, -0.000000000000000000 ) ) ;
#276 = ORIENTED_EDGE ( 'NONE', *, *, #611, .F. ) ;
#277 = CYLINDRICAL_SURFACE ( 'NONE', #153, 0.5000000000000004441 ) ;
#278 = CARTESIAN_POINT ( 'NONE',  ( 44.82413340090231202, 144.1240285126873459, 39.64355679643813346 ) ) ;
#279 = ORIENTED_EDGE ( 'NONE', *, *, #593, .F. ) ;
#280 = CARTESIAN_POINT ( 'NONE',  ( 40.44007135754573312, 141.5240285126873516, 39.64355679643813346 ) ) ;
#281 = CIRCLE ( 'NONE', #328, 0.6999999999999992895 ) ;
#282 = DIRECTION ( 'NONE',  ( 0.000000000000000000, 0.000000000000000000, 1.000000000000000000 ) ) ;
#283 = AXIS2_PLACEMENT_3D ( 'NONE', #133, #362, #79 ) ;
#284 = VECTOR ( 'NONE', #457, 1000.000000000000000 ) ;
#285 = ADVANCED_FACE ( 'NONE', ( #694 ), #521, .F. ) ;
#286 = VERTEX_POINT ( 'NONE', #638 ) ;
#287 = AXIS2_PLACEMENT_3D ( 'NONE', #454, #53, #507 ) ;
#288 = DIRECTION ( 'NONE',  ( 0.000000000000000000, 0.000000000000000000, 1.000000000000000000 ) ) ;
#289 = CARTESIAN_POINT ( 'NONE',  ( 44.82413340090231202, 141.0240285126873516, 37.94355679643813772 ) ) ;
#290 = ORIENTED_EDGE ( 'NONE', *, *, #206, .T. ) ;
#291 = CARTESIAN_POINT ( 'NONE',  ( 44.82413340090231202, 141.7240285126873687, 39.64355679643813346 ) ) ;
#292 = EDGE_LOOP ( 'NONE', ( #377, #562, #456, #112 ) ) ;
#293 = EDGE_CURVE ( 'NONE', #218, #559, #23, .T. ) ;
#294 = DIRECTION ( 'NONE',  ( 0.000000000000000000, 1.000000000000000000, 0.000000000000000000 ) ) ;
#295 = CLOSED_SHELL ( 'NONE', ( #352, #385, #300, #63, #285, #4, #13, #670, #568, #373, #424, #477, #698, #173, #76, #728, #166, #528, #268, #402, #649, #732, #467, #136, #586, #159 ) ) ;
#296 = ORIENTED_EDGE ( 'NONE', *, *, #120, .F. ) ;
#297 = AXIS2_PLACEMENT_3D ( 'NONE', #502, #554, #220 ) ;
#298 = CIRCLE ( 'NONE', #212, 0.1999999999999987899 ) ;
#299 = PRODUCT_DEFINITION_CONTEXT ( 'detailed design', #49, 'design' ) ;
#300 = ADVANCED_FACE ( 'NONE', ( #581 ), #185, .F. ) ;
#301 = CARTESIAN_POINT ( 'NONE',  ( 11.94007135754572602, 143.6240285126873459, 37.94355679643813772 ) ) ;
#302 = ORIENTED_EDGE ( 'NONE', *, *, #453, .T. ) ;
#303 = CARTESIAN_POINT ( 'NONE',  ( 39.94007135754573312, 141.7240285126873687, 39.64355679643813346 ) ) ;
#304 = ORIENTED_EDGE ( 'NONE', *, *, #249, .T. ) ;
#305 = ORIENTED_EDGE ( 'NONE', *, *, #84, .T. ) ;
#306 = CARTESIAN_POINT ( 'NONE',  ( 11.94007135754572602, 141.7240285126873403, 40.34355679643813630 ) ) ;
#307 = ORIENTED_EDGE ( 'NONE', *, *, #194, .T. ) ;
#308 = EDGE_CURVE ( 'NONE', #137, #30, #27, .T. ) ;
#309 = AXIS2_PLACEMENT_3D ( 'NONE', #224, #686, #170 ) ;
#310 = VECTOR ( 'NONE', #40, 1000.000000000000000 ) ;
#311 = DIRECTION ( 'NONE',  ( -1.000000000000000000, 0.000000000000000000, 0.000000000000000000 ) ) ;
#312 = ORIENTED_EDGE ( 'NONE', *, *, #97, .F. ) ;
#313 = PRODUCT_CONTEXT ( 'NONE', #715, 'mechanical' ) ;
#314 = CARTESIAN_POINT ( 'NONE',  ( 11.94007135754572602, 143.6240285126873459, 39.64355679643813346 ) ) ;
#315 = FACE_OUTER_BOUND ( 'NONE', #509, .T. ) ;
#316 = DIRECTION ( 'NONE',  ( 0.000000000000000000, -0.000000000000000000, 1.000000000000000000 ) ) ;
#317 = ORIENTED_EDGE ( 'NONE', *, *, #216, .F. ) ;
#318 = VECTOR ( 'NONE', #91, 1000.000000000000000 ) ;
#319 = DIRECTION ( 'NONE',  ( 0.000000000000000000, 0.000000000000000000, 1.000000000000000000 ) ) ;
#320 = VECTOR ( 'NONE', #223, 1000.000000000000000 ) ;
#321 = FACE_OUTER_BOUND ( 'NONE', #503, .T. ) ;
#322 = FACE_OUTER_BOUND ( 'NONE', #339, .T. ) ;
#323 = DIRECTION ( 'NONE',  ( 1.000000000000000000, 0.000000000000000000, 0.000000000000000000 ) ) ;
#324 = EDGE_CURVE ( 'NONE', #449, #461, #645, .T. ) ;
#325 = CARTESIAN_POINT ( 'NONE',  ( 11.94007135754572957, 141.5240285126873232, 37.94355679643813772 ) ) ;
#326 = LINE ( 'NONE', #717, #719 ) ;
#327 = EDGE_CURVE ( 'NONE', #636, #336, #93, .T. ) ;
#328 = AXIS2_PLACEMENT_3D ( 'NONE', #161, #455, #54 ) ;
#329 = DIRECTION ( 'NONE',  ( 0.000000000000000000, -1.000000000000000000, -5.551115123125777022E-14 ) ) ;
#330 = CIRCLE ( 'NONE', #297, 0.5000000000000004441 ) ;
#331 = AXIS2_PLACEMENT_3D ( 'NONE', #497, #674, #442 ) ;
#332 = DIRECTION ( 'NONE',  ( 1.000000000000000000, -0.000000000000000000, -0.000000000000000000 ) ) ;
#333 = VERTEX_POINT ( 'NONE', #306 ) ;
#334 = FACE_OUTER_BOUND ( 'NONE', #538, .T. ) ;
#335 = DIRECTION ( 'NONE',  ( 0.000000000000000000, 0.000000000000000000, 1.000000000000000000 ) ) ;
#336 = VERTEX_POINT ( 'NONE', #420 ) ;
#337 = DIRECTION ( 'NONE',  ( -0.000000000000000000, 0.000000000000000000, 1.000000000000000000 ) ) ;
#338 = DIRECTION ( 'NONE',  ( 1.000000000000000000, -0.000000000000000000, -0.000000000000000000 ) ) ;
#339 = EDGE_LOOP ( 'NONE', ( #663, #121, #475, #149 ) ) ;
#340 = DIRECTION ( 'NONE',  ( 0.000000000000000000, 1.000000000000000000, 0.000000000000000000 ) ) ;
#341 = TOROIDAL_SURFACE ( 'NONE', #176, 0.1999999999999999833, 0.5000000000000000000 ) ;
#342 = CYLINDRICAL_SURFACE ( 'NONE', #677, 0.5000000000000004441 ) ;
#343 = VECTOR ( 'NONE', #463, 1000.000000000000000 ) ;
#344 = CIRCLE ( 'NONE', #39, 0.1999999999999987899 ) ;
#345 = ORIENTED_EDGE ( 'NONE', *, *, #293, .F. ) ;
#346 = CARTESIAN_POINT ( 'NONE',  ( 44.82413340090231202, 144.1240285126873459, 37.94355679643813772 ) ) ;
#347 = CARTESIAN_POINT ( 'NONE',  ( 40.44007135754573312, 141.7240285126873687, 39.64355679643813346 ) ) ;
#348 = ORIENTED_EDGE ( 'NONE', *, *, #436, .T. ) ;
#349 = CARTESIAN_POINT ( 'NONE',  ( 11.94007135754572602, -16.42597148731265833, 40.34355679643813630 ) ) ;
#350 = DIRECTION ( 'NONE',  ( 0.000000000000000000, 0.000000000000000000, -1.000000000000000000 ) ) ;
#351 = ORIENTED_EDGE ( 'NONE', *, *, #236, .T. ) ;
#352 = ADVANCED_FACE ( 'NONE', ( #28 ), #247, .F. ) ;
#353 = DIRECTION ( 'NONE',  ( 0.000000000000000000, 0.000000000000000000, -1.000000000000000000 ) ) ;
#354 = DIRECTION ( 'NONE',  ( -0.000000000000000000, 1.000000000000000000, -0.000000000000000000 ) ) ;
#355 = ORIENTED_EDGE ( 'NONE', *, *, #615, .T. ) ;
#356 = AXIS2_PLACEMENT_3D ( 'NONE', #202, #251, #534 ) ;
#357 = PRODUCT_DEFINITION_SHAPE ( 'NONE', 'NONE',  #657 ) ;
#358 = CYLINDRICAL_SURFACE ( 'NONE', #592, 0.5000000000000004441 ) ;
#359 = CARTESIAN_POINT ( 'NONE',  ( 11.94007135754572602, 141.7240285126873403, 37.94355679643813772 ) ) ;
#360 = ORIENTED_EDGE ( 'NONE', *, *, #130, .T. ) ;
#361 = DIRECTION ( 'NONE',  ( -0.000000000000000000, 0.000000000000000000, 1.000000000000000000 ) ) ;
#362 = DIRECTION ( 'NONE',  ( -1.000000000000000000, -0.000000000000000000, -0.000000000000000000 ) ) ;
#363 = EDGE_CURVE ( 'NONE', #148, #646, #459, .T. ) ;
#364 = ORIENTED_EDGE ( 'NONE', *, *, #97, .T. ) ;
#365 = DIRECTION ( 'NONE',  ( 0.000000000000000000, 1.000000000000000000, -0.000000000000000000 ) ) ;
#366 = ORIENTED_EDGE ( 'NONE', *, *, #107, .T. ) ;
#367 = TOROIDAL_SURFACE ( 'NONE', #525, 0.1999999999999999833, 0.5000000000000000000 ) ;
#368 = CIRCLE ( 'NONE', #356, 0.5000000000000004441 ) ;
#369 = CIRCLE ( 'NONE', #177, 0.5000000000000004441 ) ;
#370 = CARTESIAN_POINT ( 'NONE',  ( 11.44007135754572957, 143.4240285126873289, 39.64355679643813346 ) ) ;
#371 = CARTESIAN_POINT ( 'NONE',  ( 11.94007135754572602, 141.7240285126873403, 37.24355679643814199 ) ) ;
#372 = DIRECTION ( 'NONE',  ( -1.000000000000000000, 0.000000000000000000, 0.000000000000000000 ) ) ;
#373 = ADVANCED_FACE ( 'NONE', ( #589 ), #235, .T. ) ;
#374 = LINE ( 'NONE', #726, #310 ) ;
#375 = ORIENTED_EDGE ( 'NONE', *, *, #611, .T. ) ;
#376 = LINE ( 'NONE', #536, #318 ) ;
#377 = ORIENTED_EDGE ( 'NONE', *, *, #609, .T. ) ;
#378 = ORIENTED_EDGE ( 'NONE', *, *, #249, .F. ) ;
#379 = CIRCLE ( 'NONE', #447, 0.5000000000000004441 ) ;
#380 =( NAMED_UNIT ( * ) SI_UNIT ( $, .STERADIAN. ) SOLID_ANGLE_UNIT ( ) );
#381 = DIRECTION ( 'NONE',  ( -1.000000000000000000, 0.000000000000000000, 0.000000000000000000 ) ) ;
#382 = EDGE_CURVE ( 'NONE', #240, #699, #221, .T. ) ;
#383 = PLANE ( 'NONE',  #664 ) ;
#384 = CARTESIAN_POINT ( 'NONE',  ( 39.94007135754573312, 144.1240285126873459, 39.64355679643813346 ) ) ;
#385 = ADVANCED_FACE ( 'NONE', ( #73 ), #147, .F. ) ;
#386 = DIRECTION ( 'NONE',  ( -0.000000000000000000, 1.000000000000000000, 0.000000000000000000 ) ) ;
#387 = LINE ( 'NONE', #61, #616 ) ;
#388 = VERTEX_POINT ( 'NONE', #144 ) ;
#389 = VECTOR ( 'NONE', #111, 1000.000000000000000 ) ;
#390 = DIRECTION ( 'NONE',  ( 0.000000000000000000, 0.000000000000000000, -1.000000000000000000 ) ) ;
#391 =( GEOMETRIC_REPRESENTATION_CONTEXT ( 3 ) GLOBAL_UNCERTAINTY_ASSIGNED_CONTEXT ( ( #441 ) ) GLOBAL_UNIT_ASSIGNED_CONTEXT ( ( #108, #219, #157 ) ) REPRESENTATION_CONTEXT ( 'NONE', 'WORKASPACE' ) );
#392 = CARTESIAN_POINT ( 'NONE',  ( 39.94007135754573312, 141.7240285126873687, 39.64355679643813346 ) ) ;
#393 = ORIENTED_EDGE ( 'NONE', *, *, #609, .F. ) ;
#394 = EDGE_CURVE ( 'NONE', #116, #137, #716, .T. ) ;
#395 = CARTESIAN_POINT ( 'NONE',  ( 11.94007135754572602, 143.4240285126873289, 37.74355679643814199 ) ) ;
#396 = ORIENTED_EDGE ( 'NONE', *, *, #637, .T. ) ;
#397 = DIRECTION ( 'NONE',  ( 0.000000000000000000, 0.000000000000000000, -1.000000000000000000 ) ) ;
#398 = ORIENTED_EDGE ( 'NONE', *, *, #45, .T. ) ;
#399 = DIRECTION ( 'NONE',  ( -1.000000000000000000, -0.000000000000000000, -0.000000000000000000 ) ) ;
#400 = VECTOR ( 'NONE', #332, 1000.000000000000000 ) ;
#401 = EDGE_CURVE ( 'NONE', #587, #137, #642, .T. ) ;
#402 = ADVANCED_FACE ( 'NONE', ( #204 ), #729, .T. ) ;
#403 = ORIENTED_EDGE ( 'NONE', *, *, #625, .T. ) ;
#404 = LINE ( 'NONE', #14, #643 ) ;
#405 = DIRECTION ( 'NONE',  ( 0.000000000000000000, -0.000000000000000000, 1.000000000000000000 ) ) ;
#406 = EDGE_CURVE ( 'NONE', #407, #263, #368, .T. ) ;
#407 = VERTEX_POINT ( 'NONE', #198 ) ;
#408 = DIRECTION ( 'NONE',  ( 1.000000000000000000, 0.000000000000000000, 0.000000000000000000 ) ) ;
#409 = ORIENTED_EDGE ( 'NONE', *, *, #615, .F. ) ;
#410 = DIRECTION ( 'NONE',  ( -0.000000000000000000, -0.000000000000000000, -1.000000000000000000 ) ) ;
#411 = CIRCLE ( 'NONE', #269, 0.6999999999999992895 ) ;
#412 = ORIENTED_EDGE ( 'NONE', *, *, #363, .T. ) ;
#413 = CIRCLE ( 'NONE', #104, 0.6999999999999992895 ) ;
#414 = EDGE_CURVE ( 'NONE', #461, #531, #629, .T. ) ;
#415 = DIRECTION ( 'NONE',  ( 0.000000000000000000, 0.000000000000000000, 1.000000000000000000 ) ) ;
#416 = DIRECTION ( 'NONE',  ( -0.000000000000000000, 0.000000000000000000, 1.000000000000000000 ) ) ;
#417 = VERTEX_POINT ( 'NONE', #265 ) ;
#418 = ORIENTED_EDGE ( 'NONE', *, *, #130, .F. ) ;
#419 = APPLICATION_PROTOCOL_DEFINITION ( 'draft international standard', 'automotive_design', 1998, #49 ) ;
#420 = CARTESIAN_POINT ( 'NONE',  ( 11.44007135754572957, 143.4240285126873289, 37.74355679643814199 ) ) ;
#421 = VERTEX_POINT ( 'NONE', #659 ) ;
#422 = FACE_OUTER_BOUND ( 'NONE', #55, .T. ) ;
#423 = DIRECTION ( 'NONE',  ( -1.000000000000000000, 0.000000000000000000, 0.000000000000000000 ) ) ;
#424 = ADVANCED_FACE ( 'NONE', ( #155 ), #48, .T. ) ;
#425 = LINE ( 'NONE', #443, #6 ) ;
#426 = AXIS2_PLACEMENT_3D ( 'NONE', #141, #491, #662 ) ;
#427 = CIRCLE ( 'NONE', #129, 0.5000000000000004441 ) ;
#428 = DIRECTION ( 'NONE',  ( 1.000000000000000000, 0.000000000000000000, 0.000000000000000000 ) ) ;
#429 = CARTESIAN_POINT ( 'NONE',  ( 39.94007135754573312, 143.4240285126873573, 37.94355679643813772 ) ) ;
#430 = EDGE_CURVE ( 'NONE', #286, #333, #706, .T. ) ;
#431 = CARTESIAN_POINT ( 'NONE',  ( 39.94007135754573312, -16.42597148731265833, 39.84355679643813630 ) ) ;
#432 = DIRECTION ( 'NONE',  ( 0.000000000000000000, -0.000000000000000000, 1.000000000000000000 ) ) ;
#433 = CARTESIAN_POINT ( 'NONE',  ( 11.94007135754572602, 143.4240285126873289, 37.24355679643814199 ) ) ;
#434 = DIRECTION ( 'NONE',  ( 0.000000000000000000, -1.000000000000000000, 5.551115123125777022E-14 ) ) ;
#435 = TOROIDAL_SURFACE ( 'NONE', #730, 0.1999999999999999833, 0.5000000000000000000 ) ;
#436 = EDGE_CURVE ( 'NONE', #229, #116, #7, .T. ) ;
#437 = CYLINDRICAL_SURFACE ( 'NONE', #243, 0.5000000000000004441 ) ;
#438 = VERTEX_POINT ( 'NONE', #86 ) ;
#439 = SURFACE_STYLE_FILL_AREA ( #733 ) ;
#440 = CYLINDRICAL_SURFACE ( 'NONE', #309, 0.5000000000000004441 ) ;
#441 = UNCERTAINTY_MEASURE_WITH_UNIT (LENGTH_MEASURE( 1.000000000000000082E-05 ), #108, 'distance_accuracy_value', 'NONE');
#442 = DIRECTION ( 'NONE',  ( 0.000000000000000000, 0.000000000000000000, 1.000000000000000000 ) ) ;
#443 = CARTESIAN_POINT ( 'NONE',  ( 11.44007135754572957, 0.000000000000000000, 39.84355679643813630 ) ) ;
#444 = EDGE_CURVE ( 'NONE', #132, #449, #374, .T. ) ;
#445 = ORIENTED_EDGE ( 'NONE', *, *, #637, .F. ) ;
#446 = CARTESIAN_POINT ( 'NONE',  ( 40.44007135754573312, 143.4240285126873573, 37.94355679643813772 ) ) ;
#447 = AXIS2_PLACEMENT_3D ( 'NONE', #469, #15, #701 ) ;
#448 = DIRECTION ( 'NONE',  ( 0.000000000000000000, 0.000000000000000000, -1.000000000000000000 ) ) ;
#449 = VERTEX_POINT ( 'NONE', #371 ) ;
#450 = CARTESIAN_POINT ( 'NONE',  ( 40.44007135754573312, 143.6240285126873459, 39.64355679643813346 ) ) ;
#451 = CARTESIAN_POINT ( 'NONE',  ( 11.94007135754572602, 143.4240285126873289, 39.64355679643813346 ) ) ;
#452 = ORIENTED_EDGE ( 'NONE', *, *, #143, .F. ) ;
#453 = EDGE_CURVE ( 'NONE', #137, #438, #207, .T. ) ;
#454 = CARTESIAN_POINT ( 'NONE',  ( 39.94007135754573312, 141.7240285126873403, 37.94355679643813772 ) ) ;
#455 = DIRECTION ( 'NONE',  ( -1.000000000000000000, 0.000000000000000000, 0.000000000000000000 ) ) ;
#456 = ORIENTED_EDGE ( 'NONE', *, *, #236, .F. ) ;
#457 = DIRECTION ( 'NONE',  ( 0.000000000000000000, -0.000000000000000000, -1.000000000000000000 ) ) ;
#458 = EDGE_CURVE ( 'NONE', #421, #242, #679, .T. ) ;
#459 = LINE ( 'NONE', #135, #578 ) ;
#460 =( GEOMETRIC_REPRESENTATION_CONTEXT ( 3 ) GLOBAL_UNCERTAINTY_ASSIGNED_CONTEXT ( ( #703 ) ) GLOBAL_UNIT_ASSIGNED_CONTEXT ( ( #193, #594, #380 ) ) REPRESENTATION_CONTEXT ( 'NONE', 'WORKASPACE' ) );
#461 = VERTEX_POINT ( 'NONE', #433 ) ;
#462 = LINE ( 'NONE', #584, #731 ) ;
#463 = DIRECTION ( 'NONE',  ( 0.000000000000000000, -1.000000000000000000, 0.000000000000000000 ) ) ;
#464 = ORIENTED_EDGE ( 'NONE', *, *, #115, .F. ) ;
#465 = CARTESIAN_POINT ( 'NONE',  ( 39.94007135754573312, 144.1240285126873459, 37.94355679643813772 ) ) ;
#466 = ORIENTED_EDGE ( 'NONE', *, *, #458, .F. ) ;
#467 = ADVANCED_FACE ( 'NONE', ( #598 ), #435, .T. ) ;
#468 = DIRECTION ( 'NONE',  ( 0.000000000000000000, 0.000000000000000000, 1.000000000000000000 ) ) ;
#469 = CARTESIAN_POINT ( 'NONE',  ( 11.94007135754572957, 143.4240285126873289, 39.84355679643813630 ) ) ;
#470 = AXIS2_PLACEMENT_3D ( 'NONE', #156, #434, #208 ) ;
#471 = AXIS2_PLACEMENT_3D ( 'NONE', #724, #530, #43 ) ;
#472 = ORIENTED_EDGE ( 'NONE', *, *, #556, .T. ) ;
#473 = AXIS2_PLACEMENT_3D ( 'NONE', #495, #329, #172 ) ;
#474 = DIRECTION ( 'NONE',  ( 1.000000000000000000, 0.000000000000000000, 0.000000000000000000 ) ) ;
#475 = ORIENTED_EDGE ( 'NONE', *, *, #532, .F. ) ;
#476 = CARTESIAN_POINT ( 'NONE',  ( 39.94007135754573312, 143.6240285126873459, 42.79355679643813204 ) ) ;
#477 = ADVANCED_FACE ( 'NONE', ( #322 ), #437, .T. ) ;
#478 = CARTESIAN_POINT ( 'NONE',  ( 11.94007135754572957, 141.7240285126873403, 39.84355679643813630 ) ) ;
#479 = ORIENTED_EDGE ( 'NONE', *, *, #143, .T. ) ;
#480 = DIRECTION ( 'NONE',  ( 1.000000000000000000, 0.000000000000000000, 0.000000000000000000 ) ) ;
#481 = EDGE_CURVE ( 'NONE', #333, #30, #376, .T. ) ;
#482 = ORIENTED_EDGE ( 'NONE', *, *, #84, .F. ) ;
#483 = AXIS2_PLACEMENT_3D ( 'NONE', #508, #397, #619 ) ;
#484 = AXIS2_PLACEMENT_3D ( 'NONE', #359, #408, #350 ) ;
#485 = COLOUR_RGB ( '',0.7921568627450980005, 0.8196078431372548767, 0.9333333333333333481 ) ;
#486 = DIRECTION ( 'NONE',  ( 0.000000000000000000, 0.000000000000000000, 1.000000000000000000 ) ) ;
#487 = VERTEX_POINT ( 'NONE', #384 ) ;
#488 = DIRECTION ( 'NONE',  ( 0.000000000000000000, -0.000000000000000000, -1.000000000000000000 ) ) ;
#489 = PLANE ( 'NONE',  #58 ) ;
#490 = EDGE_CURVE ( 'NONE', #30, #263, #36, .T. ) ;
#491 = DIRECTION ( 'NONE',  ( 0.000000000000000000, 0.000000000000000000, -1.000000000000000000 ) ) ;
#492 = DIRECTION ( 'NONE',  ( 0.000000000000000000, 0.000000000000000000, -1.000000000000000000 ) ) ;
#493 = AXIS2_PLACEMENT_3D ( 'NONE', #514, #416, #75 ) ;
#494 = CIRCLE ( 'NONE', #473, 0.5000000000000004441 ) ;
#495 = CARTESIAN_POINT ( 'NONE',  ( 39.94007135754573312, 141.7240285126873687, 39.84355679643813630 ) ) ;
#496 = DIRECTION ( 'NONE',  ( 0.000000000000000000, 0.000000000000000000, -1.000000000000000000 ) ) ;
#497 = CARTESIAN_POINT ( 'NONE',  ( 44.82413340090231202, 141.7240285126873403, 37.94355679643813772 ) ) ;
#498 = EDGE_CURVE ( 'NONE', #132, #116, #413, .T. ) ;
#499 = CARTESIAN_POINT ( 'NONE',  ( 11.44007135754572957, 141.5240285126873232, 37.94355679643813772 ) ) ;
#500 = ORIENTED_EDGE ( 'NONE', *, *, #498, .F. ) ;
#501 = CARTESIAN_POINT ( 'NONE',  ( 11.94007135754572602, 143.6240285126873459, 42.79355679643813204 ) ) ;
#502 = CARTESIAN_POINT ( 'NONE',  ( 39.94007135754573312, 141.7240285126873403, 37.74355679643814199 ) ) ;
#503 = EDGE_LOOP ( 'NONE', ( #276, #541, #542, #254 ) ) ;
#504 = AXIS2_PLACEMENT_3D ( 'NONE', #301, #405, #518 ) ;
#505 = DIRECTION ( 'NONE',  ( 0.000000000000000000, -1.000000000000000000, 0.000000000000000000 ) ) ;
#506 = VERTEX_POINT ( 'NONE', #60 ) ;
#507 = DIRECTION ( 'NONE',  ( 0.000000000000000000, 0.000000000000000000, 1.000000000000000000 ) ) ;
#508 = CARTESIAN_POINT ( 'NONE',  ( 39.94007135754573312, 143.6240285126873459, 37.94355679643813772 ) ) ;
#509 = EDGE_LOOP ( 'NONE', ( #304, #396, #109, #660, #583, #398, #94, #360 ) ) ;
#510 = EDGE_CURVE ( 'NONE', #559, #105, #515, .T. ) ;
#511 = LINE ( 'NONE', #641, #343 ) ;
#512 = ORIENTED_EDGE ( 'NONE', *, *, #308, .F. ) ;
#513 = DIRECTION ( 'NONE',  ( 1.000000000000000000, 0.000000000000000000, 0.000000000000000000 ) ) ;
#514 = CARTESIAN_POINT ( 'NONE',  ( 44.82413340090231202, -16.42597148731265833, 37.24355679643814199 ) ) ;
#515 = CIRCLE ( 'NONE', #605, 0.1999999999999987899 ) ;
#516 = AXIS2_PLACEMENT_3D ( 'NONE', #146, #529, #90 ) ;
#517 = EDGE_LOOP ( 'NONE', ( #20, #633, #690, #695 ) ) ;
#518 = DIRECTION ( 'NONE',  ( 1.000000000000000000, 0.000000000000000000, 0.000000000000000000 ) ) ;
#519 = EDGE_CURVE ( 'NONE', #646, #286, #234, .T. ) ;
#520 = ORIENTED_EDGE ( 'NONE', *, *, #45, .F. ) ;
#521 = PLANE ( 'NONE',  #603 ) ;
#522 = ORIENTED_EDGE ( 'NONE', *, *, #244, .F. ) ;
#523 = FACE_OUTER_BOUND ( 'NONE', #546, .T. ) ;
#524 = DIRECTION ( 'NONE',  ( -1.000000000000000000, 0.000000000000000000, -0.000000000000000000 ) ) ;
#525 = AXIS2_PLACEMENT_3D ( 'NONE', #429, #100, #535 ) ;
#526 = VECTOR ( 'NONE', #227, 1000.000000000000000 ) ;
#527 = ORIENTED_EDGE ( 'NONE', *, *, #226, .T. ) ;
#528 = ADVANCED_FACE ( 'NONE', ( #46 ), #723, .T. ) ;
#529 = DIRECTION ( 'NONE',  ( 1.000000000000000000, 0.000000000000000000, 0.000000000000000000 ) ) ;
#530 = DIRECTION ( 'NONE',  ( 1.000000000000000000, 0.000000000000000000, 0.000000000000000000 ) ) ;
#531 = VERTEX_POINT ( 'NONE', #270 ) ;
#532 = EDGE_CURVE ( 'NONE', #417, #30, #494, .T. ) ;
#533 = SHAPE_DEFINITION_REPRESENTATION ( #357, #181 ) ;
#534 = DIRECTION ( 'NONE',  ( 0.000000000000000000, 0.000000000000000000, -1.000000000000000000 ) ) ;
#535 = DIRECTION ( 'NONE',  ( 0.000000000000000000, 0.000000000000000000, 1.000000000000000000 ) ) ;
#536 = CARTESIAN_POINT ( 'NONE',  ( 44.82413340090231202, 141.7240285126873403, 40.34355679643813630 ) ) ;
#537 = MANIFOLD_SOLID_BREP ( 'Fillet3', #295 ) ;
#538 = EDGE_LOOP ( 'NONE', ( #650, #620, #296, #355 ) ) ;
#539 = AXIS2_PLACEMENT_3D ( 'NONE', #314, #316, #480 ) ;
#540 = CARTESIAN_POINT ( 'NONE',  ( 11.94007135754572602, 141.5240285126873516, 42.79355679643813204 ) ) ;
#541 = ORIENTED_EDGE ( 'NONE', *, *, #382, .T. ) ;
#542 = ORIENTED_EDGE ( 'NONE', *, *, #668, .F. ) ;
#543 = DIRECTION ( 'NONE',  ( 0.000000000000000000, 0.000000000000000000, 1.000000000000000000 ) ) ;
#544 = CARTESIAN_POINT ( 'NONE',  ( 44.82413340090231202, 144.1240285126873459, 42.79355679643813204 ) ) ;
#545 = EDGE_LOOP ( 'NONE', ( #713, #345, #575, #676 ) ) ;
#546 = EDGE_LOOP ( 'NONE', ( #472, #279, #452, #312 ) ) ;
#547 = DIRECTION ( 'NONE',  ( 1.000000000000000000, -0.000000000000000000, -0.000000000000000000 ) ) ;
#548 = ORIENTED_EDGE ( 'NONE', *, *, #99, .F. ) ;
#549 = AXIS2_PLACEMENT_3D ( 'NONE', #47, #205, #601 ) ;
#550 = CIRCLE ( 'NONE', #37, 0.6999999999999992895 ) ;
#551 = EDGE_CURVE ( 'NONE', #148, #579, #693, .T. ) ;
#552 = AXIS2_PLACEMENT_3D ( 'NONE', #255, #31, #250 ) ;
#553 = DIRECTION ( 'NONE',  ( -1.000000000000000000, 0.000000000000000000, 0.000000000000000000 ) ) ;
#554 = DIRECTION ( 'NONE',  ( 0.000000000000000000, -1.000000000000000000, 0.000000000000000000 ) ) ;
#555 = ORIENTED_EDGE ( 'NONE', *, *, #394, .T. ) ;
#556 = EDGE_CURVE ( 'NONE', #487, #599, #369, .T. ) ;
#557 = FACE_OUTER_BOUND ( 'NONE', #192, .T. ) ;
#558 = DIRECTION ( 'NONE',  ( -0.000000000000000000, -1.000000000000000000, -0.000000000000000000 ) ) ;
#559 = VERTEX_POINT ( 'NONE', #169 ) ;
#560 = DIRECTION ( 'NONE',  ( 1.000000000000000000, 0.000000000000000000, 0.000000000000000000 ) ) ;
#561 = CARTESIAN_POINT ( 'NONE',  ( 11.94007135754572602, -16.42597148731265833, 39.84355679643813630 ) ) ;
#562 = ORIENTED_EDGE ( 'NONE', *, *, #199, .F. ) ;
#563 = CIRCLE ( 'NONE', #628, 0.1999999999999987899 ) ;
#564 = VECTOR ( 'NONE', #381, 1000.000000000000000 ) ;
#565 = CARTESIAN_POINT ( 'NONE',  ( 39.94007135754573312, 141.7240285126873403, 37.94355679643813772 ) ) ;
#566 = AXIS2_PLACEMENT_3D ( 'NONE', #124, #634, #468 ) ;
#567 = DIRECTION ( 'NONE',  ( -1.000000000000000000, 0.000000000000000000, 0.000000000000000000 ) ) ;
#568 = ADVANCED_FACE ( 'NONE', ( #334 ), #50, .T. ) ;
#569 = ORIENTED_EDGE ( 'NONE', *, *, #671, .T. ) ;
#570 = CARTESIAN_POINT ( 'NONE',  ( 11.44007135754572957, 143.6240285126873459, 37.94355679643813772 ) ) ;
#571 = FACE_OUTER_BOUND ( 'NONE', #614, .T. ) ;
#572 = ORIENTED_EDGE ( 'NONE', *, *, #406, .F. ) ;
#573 = LINE ( 'NONE', #349, #258 ) ;
#574 = CARTESIAN_POINT ( 'NONE',  ( 39.94007135754573312, 143.4240285126873289, 40.34355679643813630 ) ) ;
#575 = ORIENTED_EDGE ( 'NONE', *, *, #226, .F. ) ;
#576 = AXIS2_PLACEMENT_3D ( 'NONE', #203, #98, #38 ) ;
#577 = DIRECTION ( 'NONE',  ( 0.000000000000000000, 0.000000000000000000, 1.000000000000000000 ) ) ;
#578 = VECTOR ( 'NONE', #231, 1000.000000000000000 ) ;
#579 = VERTEX_POINT ( 'NONE', #618 ) ;
#580 = CARTESIAN_POINT ( 'NONE',  ( 11.94007135754572602, 144.1240285126873459, 42.79355679643813204 ) ) ;
#581 = FACE_OUTER_BOUND ( 'NONE', #517, .T. ) ;
#582 = EDGE_LOOP ( 'NONE', ( #5, #214, #59, #378 ) ) ;
#583 = ORIENTED_EDGE ( 'NONE', *, *, #593, .T. ) ;
#584 = CARTESIAN_POINT ( 'NONE',  ( 40.44007135754573312, -16.42597148731265833, 39.84355679643813630 ) ) ;
#585 = LINE ( 'NONE', #239, #81 ) ;
#586 = ADVANCED_FACE ( 'NONE', ( #557 ), #277, .T. ) ;
#587 = VERTEX_POINT ( 'NONE', #280 ) ;
#588 = FACE_OUTER_BOUND ( 'NONE', #582, .T. ) ;
#589 = FACE_OUTER_BOUND ( 'NONE', #87, .T. ) ;
#590 = AXIS2_PLACEMENT_3D ( 'NONE', #19, #474, #712 ) ;
#591 = ORIENTED_EDGE ( 'NONE', *, *, #556, .F. ) ;
#592 = AXIS2_PLACEMENT_3D ( 'NONE', #118, #18, #184 ) ;
#593 = EDGE_CURVE ( 'NONE', #105, #599, #624, .T. ) ;
#594 =( NAMED_UNIT ( * ) PLANE_ANGLE_UNIT ( ) SI_UNIT ( $, .RADIAN. ) );
#595 = CARTESIAN_POINT ( 'NONE',  ( 44.82413340090231202, 141.0240285126873516, 39.64355679643813346 ) ) ;
#596 = FACE_OUTER_BOUND ( 'NONE', #12, .T. ) ;
#597 = DIRECTION ( 'NONE',  ( 0.000000000000000000, 0.000000000000000000, -1.000000000000000000 ) ) ;
#598 = FACE_OUTER_BOUND ( 'NONE', #77, .T. ) ;
#599 = VERTEX_POINT ( 'NONE', #450 ) ;
#600 = CARTESIAN_POINT ( 'NONE',  ( 39.94007135754573312, -16.42597148731265833, 40.34355679643813630 ) ) ;
#601 = DIRECTION ( 'NONE',  ( 1.000000000000000000, 0.000000000000000000, 0.000000000000000000 ) ) ;
#602 = AXIS2_PLACEMENT_3D ( 'NONE', #347, #338, #282 ) ;
#603 = AXIS2_PLACEMENT_3D ( 'NONE', #182, #707, #524 ) ;
#604 = CIRCLE ( 'NONE', #504, 0.5000000000000004441 ) ;
#605 = AXIS2_PLACEMENT_3D ( 'NONE', #446, #547, #288 ) ;
#606 = ORIENTED_EDGE ( 'NONE', *, *, #430, .T. ) ;
#607 = FILL_AREA_STYLE_COLOUR ( '', #485 ) ;
#608 = ORIENTED_EDGE ( 'NONE', *, *, #481, .F. ) ;
#609 = EDGE_CURVE ( 'NONE', #449, #506, #427, .T. ) ;
#610 = ORIENTED_EDGE ( 'NONE', *, *, #327, .F. ) ;
#611 = EDGE_CURVE ( 'NONE', #240, #531, #128, .T. ) ;
#612 = DIRECTION ( 'NONE',  ( 1.000000000000000000, 0.000000000000000000, 0.000000000000000000 ) ) ;
#613 = FACE_OUTER_BOUND ( 'NONE', #644, .T. ) ;
#614 = EDGE_LOOP ( 'NONE', ( #606, #267, #213, #548 ) ) ;
#615 = EDGE_CURVE ( 'NONE', #579, #449, #106, .T. ) ;
#616 = VECTOR ( 'NONE', #558, 1000.000000000000000 ) ;
#617 = VECTOR ( 'NONE', #696, 1000.000000000000000 ) ;
#618 = CARTESIAN_POINT ( 'NONE',  ( 11.94007135754572602, 141.0240285126873516, 37.94355679643813772 ) ) ;
#619 = DIRECTION ( 'NONE',  ( -1.000000000000000000, 0.000000000000000000, 0.000000000000000000 ) ) ;
#620 = ORIENTED_EDGE ( 'NONE', *, *, #498, .T. ) ;
#621 = CARTESIAN_POINT ( 'NONE',  ( 39.94007135754573312, 143.6240285126873175, 39.64355679643813346 ) ) ;
#622 = LINE ( 'NONE', #289, #389 ) ;
#623 = ORIENTED_EDGE ( 'NONE', *, *, #721, .T. ) ;
#624 = LINE ( 'NONE', #8, #320 ) ;
#625 = EDGE_CURVE ( 'NONE', #242, #636, #238, .T. ) ;
#626 = CARTESIAN_POINT ( 'NONE',  ( 11.44007135754572957, 143.4240285126873289, 39.84355679643813630 ) ) ;
#627 = ORIENTED_EDGE ( 'NONE', *, *, #206, .F. ) ;
#628 = AXIS2_PLACEMENT_3D ( 'NONE', #266, #273, #669 ) ;
#629 = CIRCLE ( 'NONE', #471, 0.6999999999999992895 ) ;
#630 = DIRECTION ( 'NONE',  ( 0.000000000000000000, 0.000000000000000000, 1.000000000000000000 ) ) ;
#631 = MECHANICAL_DESIGN_GEOMETRIC_PRESENTATION_REPRESENTATION (  '', ( #666 ), #391 ) ;
#632 = DIRECTION ( 'NONE',  ( 0.000000000000000000, 0.000000000000000000, -1.000000000000000000 ) ) ;
#633 = ORIENTED_EDGE ( 'NONE', *, *, #259, .T. ) ;
#634 = DIRECTION ( 'NONE',  ( -1.000000000000000000, 0.000000000000000000, 0.000000000000000000 ) ) ;
#635 = DIRECTION ( 'NONE',  ( 0.000000000000000000, 0.000000000000000000, 1.000000000000000000 ) ) ;
#636 = VERTEX_POINT ( 'NONE', #570 ) ;
#637 = EDGE_CURVE ( 'NONE', #229, #218, #344, .T. ) ;
#638 = CARTESIAN_POINT ( 'NONE',  ( 11.44007135754572957, 141.7240285126873403, 39.84355679643813630 ) ) ;
#639 = ORIENTED_EDGE ( 'NONE', *, *, #150, .F. ) ;
#640 = CARTESIAN_POINT ( 'NONE',  ( 11.44007135754572957, 143.6240285126873459, 0.000000000000000000 ) ) ;
#641 = CARTESIAN_POINT ( 'NONE',  ( 39.94007135754573312, -16.42597148731265833, 37.24355679643814199 ) ) ;
#642 = CIRCLE ( 'NONE', #691, 0.5000000000000004441 ) ;
#643 = VECTOR ( 'NONE', #178, 1000.000000000000000 ) ;
#644 = EDGE_LOOP ( 'NONE', ( #89, #512, #33, #418 ) ) ;
#645 = LINE ( 'NONE', #195, #720 ) ;
#646 = VERTEX_POINT ( 'NONE', #700 ) ;
#647 = CARTESIAN_POINT ( 'NONE',  ( 39.94007135754573312, 141.5240285126873516, 42.79355679643813204 ) ) ;
#648 = CARTESIAN_POINT ( 'NONE',  ( 11.44007135754572957, 143.6240285126873459, 39.64355679643813346 ) ) ;
#649 = ADVANCED_FACE ( 'NONE', ( #692 ), #358, .T. ) ;
#650 = ORIENTED_EDGE ( 'NONE', *, *, #444, .F. ) ;
#651 = DIRECTION ( 'NONE',  ( 0.000000000000000000, 1.000000000000000000, 0.000000000000000000 ) ) ;
#652 = ORIENTED_EDGE ( 'NONE', *, *, #721, .F. ) ;
#653 = PRODUCT_DEFINITION_FORMATION_WITH_SPECIFIED_SOURCE ( 'ANY', '', #678, .NOT_KNOWN. ) ;
#654 = DIRECTION ( 'NONE',  ( 0.000000000000000000, 1.000000000000000000, 0.000000000000000000 ) ) ;
#655 = ORIENTED_EDGE ( 'NONE', *, *, #382, .F. ) ;
#656 = EDGE_CURVE ( 'NONE', #531, #421, #64, .T. ) ;
#657 = PRODUCT_DEFINITION ( 'UNKNOWN', '', #653, #299 ) ;
#658 = CARTESIAN_POINT ( 'NONE',  ( 39.94007135754573312, 143.4240285126873289, 37.24355679643814199 ) ) ;
#659 = CARTESIAN_POINT ( 'NONE',  ( 11.94007135754572602, 144.1240285126873459, 39.64355679643813346 ) ) ;
#660 = ORIENTED_EDGE ( 'NONE', *, *, #510, .T. ) ;
#661 = EDGE_LOOP ( 'NONE', ( #591, #232, #572, #520 ) ) ;
#662 = DIRECTION ( 'NONE',  ( -1.000000000000000000, 0.000000000000000000, 0.000000000000000000 ) ) ;
#663 = ORIENTED_EDGE ( 'NONE', *, *, #406, .T. ) ;
#664 = AXIS2_PLACEMENT_3D ( 'NONE', #260, #386, #432 ) ;
#665 = VECTOR ( 'NONE', #354, 1000.000000000000000 ) ;
#666 = STYLED_ITEM ( 'NONE', ( #2 ), #537 ) ;
#667 = DIRECTION ( 'NONE',  ( 0.000000000000000000, 0.000000000000000000, -1.000000000000000000 ) ) ;
#668 = EDGE_CURVE ( 'NONE', #461, #699, #404, .T. ) ;
#669 = DIRECTION ( 'NONE',  ( 0.000000000000000000, 0.000000000000000000, 1.000000000000000000 ) ) ;
#670 = ADVANCED_FACE ( 'NONE', ( #22 ), #230, .T. ) ;
#671 = EDGE_CURVE ( 'NONE', #388, #333, #573, .T. ) ;
#672 = LINE ( 'NONE', #158, #209 ) ;
#673 = ORIENTED_EDGE ( 'NONE', *, *, #519, .T. ) ;
#674 = DIRECTION ( 'NONE',  ( -1.000000000000000000, 0.000000000000000000, 0.000000000000000000 ) ) ;
#675 = CARTESIAN_POINT ( 'NONE',  ( 39.94007135754573312, 141.7240285126873403, 37.24355679643814199 ) ) ;
#676 = ORIENTED_EDGE ( 'NONE', *, *, #259, .F. ) ;
#677 = AXIS2_PLACEMENT_3D ( 'NONE', #561, #505, #496 ) ;
#678 = PRODUCT ( '\X2\8272536176d2\X0\-\X2\96504f4d67f163d29500\X0\', '\X2\8272536176d2\X0\-\X2\96504f4d67f163d29500\X0\', '', ( #313 ) ) ;
#679 = CIRCLE ( 'NONE', #539, 0.5000000000000004441 ) ;
#680 = AXIS2_PLACEMENT_3D ( 'NONE', #647, #543, #264 ) ;
#681 = SURFACE_SIDE_STYLE ('',( #439 ) ) ;
#682 = CARTESIAN_POINT ( 'NONE',  ( 40.44007135754573312, 143.6240285126873459, 37.94355679643813772 ) ) ;
#683 = ORIENTED_EDGE ( 'NONE', *, *, #458, .T. ) ;
#684 = EDGE_CURVE ( 'NONE', #407, #417, #462, .T. ) ;
#685 = DIRECTION ( 'NONE',  ( 0.000000000000000000, 0.000000000000000000, 1.000000000000000000 ) ) ;
#686 = DIRECTION ( 'NONE',  ( 0.000000000000000000, -1.000000000000000000, 0.000000000000000000 ) ) ;
#687 = EDGE_LOOP ( 'NONE', ( #479, #16, #252, #655 ) ) ;
#688 = CARTESIAN_POINT ( 'NONE',  ( 11.44007135754572957, 141.7240285126873687, 39.64355679643813346 ) ) ;
#689 = DIRECTION ( 'NONE',  ( 1.000000000000000000, 0.000000000000000000, 0.000000000000000000 ) ) ;
#690 = ORIENTED_EDGE ( 'NONE', *, *, #444, .T. ) ;
#691 = AXIS2_PLACEMENT_3D ( 'NONE', #261, #34, #311 ) ;
#692 = FACE_OUTER_BOUND ( 'NONE', #292, .T. ) ;
#693 = CIRCLE ( 'NONE', #165, 0.5000000000000004441 ) ;
#694 = FACE_OUTER_BOUND ( 'NONE', #145, .T. ) ;
#695 = ORIENTED_EDGE ( 'NONE', *, *, #324, .T. ) ;
#696 = DIRECTION ( 'NONE',  ( -1.000000000000000000, 0.000000000000000000, 0.000000000000000000 ) ) ;
#697 = DIRECTION ( 'NONE',  ( -1.000000000000000000, 0.000000000000000000, 0.000000000000000000 ) ) ;
#698 = ADVANCED_FACE ( 'NONE', ( #523 ), #26, .T. ) ;
#699 = VERTEX_POINT ( 'NONE', #658 ) ;
#700 = CARTESIAN_POINT ( 'NONE',  ( 11.44007135754572957, 141.5240285126873516, 39.64355679643813346 ) ) ;
#701 = DIRECTION ( 'NONE',  ( 0.000000000000000000, 0.000000000000000000, 1.000000000000000000 ) ) ;
#702 = ORIENTED_EDGE ( 'NONE', *, *, #363, .F. ) ;
#703 = UNCERTAINTY_MEASURE_WITH_UNIT (LENGTH_MEASURE( 1.000000000000000082E-05 ), #193, 'distance_accuracy_value', 'NONE');
#704 = TOROIDAL_SURFACE ( 'NONE', #151, 0.1999999999999999833, 0.5000000000000000000 ) ;
#705 = DIRECTION ( 'NONE',  ( 0.000000000000000000, -1.000000000000000000, 0.000000000000000000 ) ) ;
#706 = CIRCLE ( 'NONE', #127, 0.5000000000000004441 ) ;
#707 = DIRECTION ( 'NONE',  ( 0.000000000000000000, 0.000000000000000000, -1.000000000000000000 ) ) ;
#708 = VECTOR ( 'NONE', #361, 1000.000000000000000 ) ;
#709 = AXIS2_PLACEMENT_3D ( 'NONE', #246, #513, #353 ) ;
#710 = EDGE_LOOP ( 'NONE', ( #290, #364, #375, #95 ) ) ;
#711 = CARTESIAN_POINT ( 'NONE',  ( 40.44007135754573312, 141.7240285126873403, 37.94355679643813772 ) ) ;
#712 = DIRECTION ( 'NONE',  ( 0.000000000000000000, 0.000000000000000000, -1.000000000000000000 ) ) ;
#713 = ORIENTED_EDGE ( 'NONE', *, *, #25, .T. ) ;
#714 = DIRECTION ( 'NONE',  ( -1.000000000000000000, -0.000000000000000000, -0.000000000000000000 ) ) ;
#715 = APPLICATION_CONTEXT ( 'automotive_design' ) ;
#716 = LINE ( 'NONE', #82, #17 ) ;
#717 = CARTESIAN_POINT ( 'NONE',  ( 39.94007135754573312, 144.1240285126873459, 42.79355679643813204 ) ) ;
#718 = DIRECTION ( 'NONE',  ( 0.000000000000000000, -1.000000000000000000, 0.000000000000000000 ) ) ;
#719 = VECTOR ( 'NONE', #200, 1000.000000000000000 ) ;
#720 = VECTOR ( 'NONE', #365, 1000.000000000000000 ) ;
#721 = EDGE_CURVE ( 'NONE', #186, #242, #298, .T. ) ;
#722 = CYLINDRICAL_SURFACE ( 'NONE', #576, 0.6999999999999992895 ) ;
#723 = TOROIDAL_SURFACE ( 'NONE', #287, 0.1999999999999999833, 0.5000000000000000000 ) ;
#724 = CARTESIAN_POINT ( 'NONE',  ( 11.94007135754572602, 143.4240285126873573, 37.94355679643813772 ) ) ;
#725 = FACE_OUTER_BOUND ( 'NONE', #687, .T. ) ;
#726 = CARTESIAN_POINT ( 'NONE',  ( 44.82413340090231202, 141.7240285126873403, 37.24355679643814199 ) ) ;
#727 = ORIENTED_EDGE ( 'NONE', *, *, #67, .F. ) ;
#728 = ADVANCED_FACE ( 'NONE', ( #588 ), #42, .T. ) ;
#729 = CYLINDRICAL_SURFACE ( 'NONE', #211, 0.5000000000000004441 ) ;
#730 = AXIS2_PLACEMENT_3D ( 'NONE', #96, #428, #210 ) ;
#731 = VECTOR ( 'NONE', #78, 1000.000000000000000 ) ;
#732 = ADVANCED_FACE ( 'NONE', ( #422 ), #29, .T. ) ;
#733 = FILL_AREA_STYLE ('',( #607 ) ) ;
#734 = LINE ( 'NONE', #51, #162 ) ;
#735 = CARTESIAN_POINT ( 'NONE',  ( 11.94007135754572602, 141.7240285126873687, 39.64355679643813346 ) ) ;
ENDSEC;
END-ISO-10303-21;
