ISO-10303-21;
HEADER;
FILE_DESCRIPTION (( 'STEP AP214' ),
    '1' );
FILE_NAME ('???-???.STEP',
    '2025-10-26T14:07:39',
    ( '' ),
    ( '' ),
    'SwSTEP 2.0',
    'SolidWorks 2024',
    '' );
FILE_SCHEMA (( 'AUTOMOTIVE_DESIGN' ));
ENDSEC;

DATA;
#1 = ORIENTED_EDGE ( 'NONE', *, *, #165, .T. ) ;
#2 = DIRECTION ( 'NONE',  ( 1.000000000000000000, 0.000000000000000000, -0.000000000000000000 ) ) ;
#3 = CARTESIAN_POINT ( 'NONE',  ( 49.17203727835005367, 140.9740285126873687, 40.39355679643813346 ) ) ;
#4 = AXIS2_PLACEMENT_3D ( 'NONE', #517, #424, #1147 ) ;
#5 = VECTOR ( 'NONE', #466, 1000.000000000000000 ) ;
#6 = CARTESIAN_POINT ( 'NONE',  ( 20.17967916298275455, 139.2740285126873516, 42.79355679643813204 ) ) ;
#7 = ORIENTED_EDGE ( 'NONE', *, *, #1081, .F. ) ;
#8 = ORIENTED_EDGE ( 'NONE', *, *, #531, .T. ) ;
#9 = CARTESIAN_POINT ( 'NONE',  ( 16.56995220534875202, 139.1773320579714550, 34.72343764424115875 ) ) ;
#10 = ADVANCED_FACE ( 'NONE', ( #318 ), #648, .T. ) ;
#11 = DIRECTION ( 'NONE',  ( -0.7071067811865451302, 0.7071067811865500152, 0.000000000000000000 ) ) ;
#12 = CARTESIAN_POINT ( 'NONE',  ( 49.17203727835005367, 140.9740285126873687, 37.19355679643813772 ) ) ;
#13 = ORIENTED_EDGE ( 'NONE', *, *, #135, .T. ) ;
#14 = VERTEX_POINT ( 'NONE', #735 ) ;
#15 = DIRECTION ( 'NONE',  ( 0.000000000000000000, 0.000000000000000000, 1.000000000000000000 ) ) ;
#16 = LINE ( 'NONE', #467, #1086 ) ;
#17 = LINE ( 'NONE', #12, #1091 ) ;
#18 = VERTEX_POINT ( 'NONE', #1115 ) ;
#19 = EDGE_LOOP ( 'NONE', ( #465, #1071, #990, #553 ) ) ;
#20 = CARTESIAN_POINT ( 'NONE',  ( 35.34007135754573170, 0.000000000000000000, 29.29355679643767019 ) ) ;
#21 = EDGE_CURVE ( 'NONE', #374, #539, #925, .T. ) ;
#22 = CARTESIAN_POINT ( 'NONE',  ( 16.54007135754573099, 153.5740285126873630, 34.19355679643813772 ) ) ;
#23 = ADVANCED_FACE ( 'NONE', ( #122 ), #670, .F. ) ;
#24 = EDGE_CURVE ( 'NONE', #709, #1111, #389, .T. ) ;
#25 = CARTESIAN_POINT ( 'NONE',  ( 19.67967916298275455, 140.9740285126873687, 37.19355679643813772 ) ) ;
#26 = LINE ( 'NONE', #752, #950 ) ;
#27 = AXIS2_PLACEMENT_3D ( 'NONE', #859, #1136, #497 ) ;
#28 = VECTOR ( 'NONE', #556, 1000.000000000000000 ) ;
#29 = EDGE_LOOP ( 'NONE', ( #819, #98, #274 ) ) ;
#30 = LINE ( 'NONE', #833, #951 ) ;
#31 = DIRECTION ( 'NONE',  ( -3.469446951953612217E-16, 1.000000000000000000, 0.000000000000000000 ) ) ;
#32 = DIRECTION ( 'NONE',  ( 0.000000000000000000, 0.000000000000000000, -1.000000000000000000 ) ) ;
#33 = VERTEX_POINT ( 'NONE', #1108 ) ;
#34 = DIRECTION ( 'NONE',  ( 0.000000000000000000, -0.8944271909998982029, 0.4472135954999932328 ) ) ;
#35 = CARTESIAN_POINT ( 'NONE',  ( 49.17203727835005367, 144.1740285126873573, 40.39355679643813346 ) ) ;
#36 = CARTESIAN_POINT ( 'NONE',  ( 33.71629158298693341, 145.5192729429770964, 12.11733657099659034 ) ) ;
#37 = DIRECTION ( 'NONE',  ( 0.000000000000000000, -0.000000000000000000, 1.000000000000000000 ) ) ;
#38 = VERTEX_POINT ( 'NONE', #306 ) ;
#39 = CARTESIAN_POINT ( 'NONE',  ( 35.34007135754573170, 153.0740285126873630, 29.29355679643767019 ) ) ;
#40 = CARTESIAN_POINT ( 'NONE',  ( 16.54007135754573099, 149.5740285126872209, 29.29355679643767729 ) ) ;
#41 = DIRECTION ( 'NONE',  ( 1.000000000000000000, 0.000000000000000000, -0.000000000000000000 ) ) ;
#42 = ORIENTED_EDGE ( 'NONE', *, *, #790, .T. ) ;
#43 = ORIENTED_EDGE ( 'NONE', *, *, #398, .F. ) ;
#44 = VECTOR ( 'NONE', #727, 1000.000000000000000 ) ;
#45 = EDGE_CURVE ( 'NONE', #1084, #982, #940, .T. ) ;
#46 = VECTOR ( 'NONE', #273, 1000.000000000000000 ) ;
#47 = CARTESIAN_POINT ( 'NONE',  ( 19.67967916298275455, 153.5740285126873630, 42.29355679643813204 ) ) ;
#48 = EDGE_CURVE ( 'NONE', #729, #18, #313, .T. ) ;
#49 = LINE ( 'NONE', #939, #549 ) ;
#50 = LINE ( 'NONE', #1046, #402 ) ;
#51 = ADVANCED_FACE ( 'NONE', ( #747 ), #570, .T. ) ;
#52 = ORIENTED_EDGE ( 'NONE', *, *, #511, .T. ) ;
#53 = CARTESIAN_POINT ( 'NONE',  ( 19.67967916298277231, 1.962732491145479471E-15, 37.19355679643813772 ) ) ;
#54 = LINE ( 'NONE', #311, #1110 ) ;
#55 = CARTESIAN_POINT ( 'NONE',  ( 35.34007135754573170, 153.0740285126873630, 29.29355679643767019 ) ) ;
#56 = VERTEX_POINT ( 'NONE', #395 ) ;
#57 = CARTESIAN_POINT ( 'NONE',  ( 35.84007135754573170, 163.5740285126873061, 29.79355679643767019 ) ) ;
#58 = UNCERTAINTY_MEASURE_WITH_UNIT (LENGTH_MEASURE( 1.000000000000000082E-05 ), #210, 'distance_accuracy_value', 'NONE');
#59 = EDGE_CURVE ( 'NONE', #558, #232, #26, .T. ) ;
#60 = DIRECTION ( 'NONE',  ( 5.701706388221924944E-17, -0.7071067811864887309, -0.7071067811866061925 ) ) ;
#61 = LINE ( 'NONE', #958, #834 ) ;
#62 = EDGE_CURVE ( 'NONE', #275, #912, #557, .T. ) ;
#63 = VERTEX_POINT ( 'NONE', #760 ) ;
#64 = VECTOR ( 'NONE', #1113, 1000.000000000000000 ) ;
#65 = DIRECTION ( 'NONE',  ( 0.000000000000000000, -0.8944271909998982029, 0.4472135954999932328 ) ) ;
#66 = VECTOR ( 'NONE', #830, 1000.000000000000114 ) ;
#67 = AXIS2_PLACEMENT_3D ( 'NONE', #297, #719, #1093 ) ;
#68 = DIRECTION ( 'NONE',  ( -0.7071067811865466846, -2.453269466693394184E-16, -0.7071067811865483499 ) ) ;
#69 = CARTESIAN_POINT ( 'NONE',  ( 32.20046355210862288, 144.1740285126873573, 40.39355679643813346 ) ) ;
#70 = ORIENTED_EDGE ( 'NONE', *, *, #826, .T. ) ;
#71 = DIRECTION ( 'NONE',  ( 0.2297529205473886893, 0.9732489894677237574, 0.000000000000000000 ) ) ;
#72 = CARTESIAN_POINT ( 'NONE',  ( 16.04007135754572744, 153.0740285126873630, 29.79355679643767019 ) ) ;
#73 = PLANE ( 'NONE',  #437 ) ;
#74 = VERTEX_POINT ( 'NONE', #115 ) ;
#75 = VERTEX_POINT ( 'NONE', #848 ) ;
#76 = CARTESIAN_POINT ( 'NONE',  ( 51.69443583219228344, 0.000000000000000000, 29.29355679643767019 ) ) ;
#77 = DIRECTION ( 'NONE',  ( 0.000000000000000000, 1.000000000000000000, 0.000000000000000000 ) ) ;
#78 = DIRECTION ( 'NONE',  ( 0.000000000000000000, 1.000000000000000000, -0.000000000000000000 ) ) ;
#79 = ORIENTED_EDGE ( 'NONE', *, *, #113, .T. ) ;
#80 = ORIENTED_EDGE ( 'NONE', *, *, #1061, .F. ) ;
#81 = LINE ( 'NONE', #515, #1052 ) ;
#82 = EDGE_CURVE ( 'NONE', #172, #736, #916, .T. ) ;
#83 = EDGE_CURVE ( 'NONE', #906, #403, #243, .T. ) ;
#84 = VECTOR ( 'NONE', #610, 1000.000000000000114 ) ;
#85 = PLANE ( 'NONE',  #416 ) ;
#86 = AXIS2_PLACEMENT_3D ( 'NONE', #117, #1022, #34 ) ;
#87 = VERTEX_POINT ( 'NONE', #69 ) ;
#88 = EDGE_LOOP ( 'NONE', ( #540, #571, #337, #842 ) ) ;
#89 = CARTESIAN_POINT ( 'NONE',  ( 20.30261128662854020, 127.3761762472075674, 22.79570453095639948 ) ) ;
#90 = LINE ( 'NONE', #300, #359 ) ;
#91 = LINE ( 'NONE', #446, #663 ) ;
#92 = EDGE_LOOP ( 'NONE', ( #886, #13, #881 ) ) ;
#93 = ORIENTED_EDGE ( 'NONE', *, *, #860, .F. ) ;
#94 = DIRECTION ( 'NONE',  ( -0.2831584861795253816, 0.9163201096827681136, -0.2831584861795234387 ) ) ;
#95 = ADVANCED_FACE ( 'NONE', ( #510 ), #593, .T. ) ;
#96 = LINE ( 'NONE', #372, #421 ) ;
#97 = EDGE_CURVE ( 'NONE', #232, #906, #964, .T. ) ;
#98 = ORIENTED_EDGE ( 'NONE', *, *, #1040, .T. ) ;
#99 = VERTEX_POINT ( 'NONE', #504 ) ;
#100 = CARTESIAN_POINT ( 'NONE',  ( 32.20046355210862288, 153.0740285126873630, 42.29355679643813204 ) ) ;
#101 = AXIS2_PLACEMENT_3D ( 'NONE', #588, #1054, #953 ) ;
#102 = VECTOR ( 'NONE', #928, 1000.000000000000114 ) ;
#103 = LINE ( 'NONE', #714, #252 ) ;
#104 = VERTEX_POINT ( 'NONE', #600 ) ;
#105 = EDGE_LOOP ( 'NONE', ( #213, #1002, #1028, #771 ) ) ;
#106 = DIRECTION ( 'NONE',  ( -1.000000000000000000, 0.000000000000000000, 0.000000000000000000 ) ) ;
#107 = APPLICATION_CONTEXT ( 'automotive_design' ) ;
#108 = CARTESIAN_POINT ( 'NONE',  ( 35.84007135754573170, 153.0740285126873630, 34.19355679643813772 ) ) ;
#109 = CARTESIAN_POINT ( 'NONE',  ( 35.84007135754573170, 153.0740285126873630, 34.19355679643813772 ) ) ;
#110 = EDGE_LOOP ( 'NONE', ( #561, #1104, #506, #619, #922, #718 ) ) ;
#111 = FACE_OUTER_BOUND ( 'NONE', #927, .T. ) ;
#112 = EDGE_CURVE ( 'NONE', #33, #558, #61, .T. ) ;
#113 = EDGE_CURVE ( 'NONE', #14, #136, #322, .T. ) ;
#114 = CARTESIAN_POINT ( 'NONE',  ( 32.20046355210867262, -5.888197473436417902E-15, 40.39355679643813346 ) ) ;
#115 = CARTESIAN_POINT ( 'NONE',  ( 16.04007135754572744, 140.8920625014370387, 34.19355679643813772 ) ) ;
#116 = EDGE_LOOP ( 'NONE', ( #160, #807, #129, #667, #431, #189 ) ) ;
#117 = CARTESIAN_POINT ( 'NONE',  ( 51.69443583219228344, 41.63222842111793653, 83.26445684222764498 ) ) ;
#118 = ADVANCED_FACE ( 'NONE', ( #148 ), #770, .T. ) ;
#119 = VECTOR ( 'NONE', #77, 1000.000000000000000 ) ;
#120 = DIRECTION ( 'NONE',  ( 0.000000000000000000, 0.000000000000000000, 1.000000000000000000 ) ) ;
#121 = PRODUCT_RELATED_PRODUCT_CATEGORY ( 'part', '', ( #914 ) ) ;
#122 = FACE_OUTER_BOUND ( 'NONE', #287, .T. ) ;
#123 = VECTOR ( 'NONE', #985, 1000.000000000000000 ) ;
#124 = VECTOR ( 'NONE', #367, 1000.000000000000114 ) ;
#125 = VERTEX_POINT ( 'NONE', #418 ) ;
#126 = LINE ( 'NONE', #479, #141 ) ;
#127 = CARTESIAN_POINT ( 'NONE',  ( 35.34007135754573170, 153.0740285126873630, 34.69355679643813772 ) ) ;
#128 = LINE ( 'NONE', #944, #366 ) ;
#129 = ORIENTED_EDGE ( 'NONE', *, *, #1009, .F. ) ;
#130 = ORIENTED_EDGE ( 'NONE', *, *, #1117, .F. ) ;
#131 = CARTESIAN_POINT ( 'NONE',  ( 35.34007135754573170, 149.5740285126872209, 29.29355679643767019 ) ) ;
#132 = CARTESIAN_POINT ( 'NONE',  ( 49.17203727835005367, 0.000000000000000000, 37.19355679643813772 ) ) ;
#133 = DIRECTION ( 'NONE',  ( 0.5773502691896245098, 0.5773502691896263972, 0.5773502691896263972 ) ) ;
#134 = ADVANCED_FACE ( 'NONE', ( #775 ), #247, .T. ) ;
#135 = EDGE_CURVE ( 'NONE', #545, #150, #139, .T. ) ;
#136 = VERTEX_POINT ( 'NONE', #1153 ) ;
#137 = DIRECTION ( 'NONE',  ( 1.000000000000000000, 0.000000000000000000, 0.000000000000000000 ) ) ;
#138 = LINE ( 'NONE', #1140, #948 ) ;
#139 = LINE ( 'NONE', #604, #312 ) ;
#140 = ORIENTED_EDGE ( 'NONE', *, *, #327, .F. ) ;
#141 = VECTOR ( 'NONE', #543, 1000.000000000000000 ) ;
#142 = DIRECTION ( 'NONE',  ( 0.000000000000000000, -0.8944271909998982029, 0.4472135954999932883 ) ) ;
#143 = LINE ( 'NONE', #759, #293 ) ;
#144 = CARTESIAN_POINT ( 'NONE',  ( 20.17967916298275455, 153.5740285126873630, 42.29355679643813204 ) ) ;
#145 = ORIENTED_EDGE ( 'NONE', *, *, #1009, .T. ) ;
#146 = EDGE_CURVE ( 'NONE', #75, #150, #680, .T. ) ;
#147 = CARTESIAN_POINT ( 'NONE',  ( 35.34007135754573170, 153.5740285126873630, 29.79355679643767019 ) ) ;
#148 = FACE_OUTER_BOUND ( 'NONE', #319, .T. ) ;
#149 = VERTEX_POINT ( 'NONE', #971 ) ;
#150 = VERTEX_POINT ( 'NONE', #853 ) ;
#151 = CARTESIAN_POINT ( 'NONE',  ( 35.84007135754573170, 153.0740285126873630, 34.19355679643813772 ) ) ;
#152 = DIRECTION ( 'NONE',  ( 0.000000000000000000, 1.000000000000000000, 0.000000000000000000 ) ) ;
#153 = DIRECTION ( 'NONE',  ( 0.000000000000000000, 0.000000000000000000, -1.000000000000000000 ) ) ;
#154 = ORIENTED_EDGE ( 'NONE', *, *, #955, .T. ) ;
#155 = VECTOR ( 'NONE', #988, 1000.000000000000000 ) ;
#156 = LINE ( 'NONE', #888, #739 ) ;
#157 = VECTOR ( 'NONE', #106, 1000.000000000000000 ) ;
#158 = CARTESIAN_POINT ( 'NONE',  ( 20.17967916298274744, 138.7740285126873516, 0.000000000000000000 ) ) ;
#159 = ADVANCED_FACE ( 'NONE', ( #878 ), #73, .F. ) ;
#160 = ORIENTED_EDGE ( 'NONE', *, *, #62, .F. ) ;
#161 = ORIENTED_EDGE ( 'NONE', *, *, #320, .F. ) ;
#162 = PLANE ( 'NONE',  #513 ) ;
#163 = CARTESIAN_POINT ( 'NONE',  ( 16.04007135754572744, 153.0740285126873630, 29.79355679643767019 ) ) ;
#164 = LINE ( 'NONE', #1080, #192 ) ;
#165 = EDGE_CURVE ( 'NONE', #136, #104, #50, .T. ) ;
#166 = ORIENTED_EDGE ( 'NONE', *, *, #776, .F. ) ;
#167 = ADVANCED_FACE ( 'NONE', ( #765, #674 ), #230, .F. ) ;
#168 = ORIENTED_EDGE ( 'NONE', *, *, #219, .F. ) ;
#169 = LINE ( 'NONE', #1165, #664 ) ;
#170 = CARTESIAN_POINT ( 'NONE',  ( 35.34007135754573170, 153.5740285126873630, 34.69355679643813772 ) ) ;
#171 = DIRECTION ( 'NONE',  ( 1.156482317317870739E-16, -1.000000000000000000, 0.000000000000000000 ) ) ;
#172 = VERTEX_POINT ( 'NONE', #857 ) ;
#173 = VERTEX_POINT ( 'NONE', #55 ) ;
#174 = DIRECTION ( 'NONE',  ( -0.7071067811865475727, -0.7071067811865475727, -0.000000000000000000 ) ) ;
#175 = VECTOR ( 'NONE', #639, 1000.000000000000000 ) ;
#176 = CARTESIAN_POINT ( 'NONE',  ( 0.000000000000000000, 0.000000000000000000, 0.000000000000000000 ) ) ;
#177 = VECTOR ( 'NONE', #962, 999.9999999999998863 ) ;
#178 = FACE_OUTER_BOUND ( 'NONE', #626, .T. ) ;
#179 = ORIENTED_EDGE ( 'NONE', *, *, #277, .T. ) ;
#180 = ORIENTED_EDGE ( 'NONE', *, *, #412, .T. ) ;
#181 = CARTESIAN_POINT ( 'NONE',  ( 51.69443583219228344, 139.1073618460206944, 34.52689012977145921 ) ) ;
#182 = CARTESIAN_POINT ( 'NONE',  ( 16.04007135754572744, 163.5740285126873061, 34.19355679643813772 ) ) ;
#183 = LINE ( 'NONE', #1089, #777 ) ;
#184 = ORIENTED_EDGE ( 'NONE', *, *, #745, .F. ) ;
#185 = ORIENTED_EDGE ( 'NONE', *, *, #1117, .T. ) ;
#186 = DIRECTION ( 'NONE',  ( 0.000000000000000000, -0.000000000000000000, 1.000000000000000000 ) ) ;
#187 = LINE ( 'NONE', #47, #175 ) ;
#188 = PLANE ( 'NONE',  #568 ) ;
#189 = ORIENTED_EDGE ( 'NONE', *, *, #298, .F. ) ;
#190 = ORIENTED_EDGE ( 'NONE', *, *, #902, .T. ) ;
#191 = CARTESIAN_POINT ( 'NONE',  ( 32.20046355210867262, -5.888197473436417902E-15, 34.69355679643813772 ) ) ;
#192 = VECTOR ( 'NONE', #802, 1000.000000000000000 ) ;
#193 = AXIS2_PLACEMENT_3D ( 'NONE', #388, #769, #408 ) ;
#194 = LINE ( 'NONE', #635, #911 ) ;
#195 = ORIENTED_EDGE ( 'NONE', *, *, #933, .T. ) ;
#196 = ADVANCED_FACE ( 'NONE', ( #816 ), #1087, .T. ) ;
#197 = ORIENTED_EDGE ( 'NONE', *, *, #1166, .T. ) ;
#198 = LINE ( 'NONE', #711, #813 ) ;
#199 = DIRECTION ( 'NONE',  ( 0.7071067811865500152, 1.922962686383559872E-16, -0.7071067811865450192 ) ) ;
#200 = DIRECTION ( 'NONE',  ( -0.000000000000000000, 0.7071067811865474617, -0.7071067811865474617 ) ) ;
#201 = DIRECTION ( 'NONE',  ( 0.000000000000000000, 0.000000000000000000, 1.000000000000000000 ) ) ;
#202 = EDGE_CURVE ( 'NONE', #917, #974, #91, .T. ) ;
#203 = ORIENTED_EDGE ( 'NONE', *, *, #768, .T. ) ;
#204 = PLANE ( 'NONE',  #314 ) ;
#205 = EDGE_CURVE ( 'NONE', #729, #149, #434, .T. ) ;
#206 = DIRECTION ( 'NONE',  ( -0.7071067811865475727, -0.7071067811865475727, -0.000000000000000000 ) ) ;
#207 = DIRECTION ( 'NONE',  ( 0.000000000000000000, 0.000000000000000000, -1.000000000000000000 ) ) ;
#208 = ORIENTED_EDGE ( 'NONE', *, *, #445, .T. ) ;
#209 = CARTESIAN_POINT ( 'NONE',  ( 35.34007135754573170, 153.0740285126873630, 29.29355679643767019 ) ) ;
#210 =( LENGTH_UNIT ( ) NAMED_UNIT ( * ) SI_UNIT ( .MILLI., .METRE. ) );
#211 =( GEOMETRIC_REPRESENTATION_CONTEXT ( 3 ) GLOBAL_UNCERTAINTY_ASSIGNED_CONTEXT ( ( #867 ) ) GLOBAL_UNIT_ASSIGNED_CONTEXT ( ( #555, #827, #821 ) ) REPRESENTATION_CONTEXT ( 'NONE', 'WORKASPACE' ) );
#212 = DIRECTION ( 'NONE',  ( -1.000000000000000000, 0.000000000000000000, -0.000000000000000000 ) ) ;
#213 = ORIENTED_EDGE ( 'NONE', *, *, #1081, .T. ) ;
#214 = VECTOR ( 'NONE', #837, 1000.000000000000114 ) ;
#215 = AXIS2_PLACEMENT_3D ( 'NONE', #225, #856, #659 ) ;
#216 = ORIENTED_EDGE ( 'NONE', *, *, #790, .F. ) ;
#217 = FACE_OUTER_BOUND ( 'NONE', #900, .T. ) ;
#218 = LINE ( 'NONE', #943, #910 ) ;
#219 = EDGE_CURVE ( 'NONE', #281, #974, #352, .T. ) ;
#220 = CARTESIAN_POINT ( 'NONE',  ( 20.17967916298275455, 153.5740285126873630, 42.29355679643813204 ) ) ;
#221 = DIRECTION ( 'NONE',  ( -0.6666666666666720698, 0.6666666666666490881, -0.3333333333333574622 ) ) ;
#222 = ORIENTED_EDGE ( 'NONE', *, *, #1074, .T. ) ;
#223 = CARTESIAN_POINT ( 'NONE',  ( 32.20046355210862288, 144.1740285126873573, 37.19355679643813772 ) ) ;
#224 = CARTESIAN_POINT ( 'NONE',  ( 35.84007135754573170, 153.0740285126873630, 22.79355679643813559 ) ) ;
#225 = CARTESIAN_POINT ( 'NONE',  ( 49.17203727835005367, 153.0740285126873630, 42.79355679643813204 ) ) ;
#226 = DIRECTION ( 'NONE',  ( -0.5773502691896070793, 0.5773502691895869843, 0.5773502691896831296 ) ) ;
#227 = ORIENTED_EDGE ( 'NONE', *, *, #268, .F. ) ;
#228 = VECTOR ( 'NONE', #253, 1000.000000000000000 ) ;
#229 = PLANE ( 'NONE',  #967 ) ;
#230 = PLANE ( 'NONE',  #101 ) ;
#231 = EDGE_CURVE ( 'NONE', #1097, #104, #457, .T. ) ;
#232 = VERTEX_POINT ( 'NONE', #712 ) ;
#233 = STYLED_ITEM ( 'NONE', ( #1139 ), #269 ) ;
#234 = ADVANCED_FACE ( 'NONE', ( #797, #977 ), #272, .T. ) ;
#235 = VECTOR ( 'NONE', #468, 1000.000000000000000 ) ;
#236 = LINE ( 'NONE', #53, #548 ) ;
#237 = LINE ( 'NONE', #326, #342 ) ;
#238 = ORIENTED_EDGE ( 'NONE', *, *, #412, .F. ) ;
#239 = EDGE_CURVE ( 'NONE', #18, #99, #1070, .T. ) ;
#240 = ORIENTED_EDGE ( 'NONE', *, *, #803, .F. ) ;
#241 = DIRECTION ( 'NONE',  ( -1.156482317317870739E-16, 1.000000000000000000, 0.000000000000000000 ) ) ;
#242 = FACE_OUTER_BOUND ( 'NONE', #501, .T. ) ;
#243 = LINE ( 'NONE', #341, #587 ) ;
#244 = ORIENTED_EDGE ( 'NONE', *, *, #812, .F. ) ;
#245 = CARTESIAN_POINT ( 'NONE',  ( 32.20046355210862288, 153.0740285126873630, 34.69355679643813772 ) ) ;
#246 = LINE ( 'NONE', #603, #64 ) ;
#247 = PLANE ( 'NONE',  #362 ) ;
#248 = VERTEX_POINT ( 'NONE', #722 ) ;
#249 = AXIS2_PLACEMENT_3D ( 'NONE', #791, #423, #1146 ) ;
#250 = VECTOR ( 'NONE', #32, 1000.000000000000000 ) ;
#251 = PLANE ( 'NONE',  #514 ) ;
#252 = VECTOR ( 'NONE', #200, 1000.000000000000114 ) ;
#253 = DIRECTION ( 'NONE',  ( 1.000000000000000000, 0.000000000000000000, 0.000000000000000000 ) ) ;
#254 = EDGE_CURVE ( 'NONE', #1043, #150, #164, .T. ) ;
#255 = ORIENTED_EDGE ( 'NONE', *, *, #812, .T. ) ;
#256 = DIRECTION ( 'NONE',  ( 1.000000000000000000, 0.000000000000000000, -0.000000000000000000 ) ) ;
#257 = ADVANCED_FACE ( 'NONE', ( #178 ), #629, .F. ) ;
#258 = FACE_OUTER_BOUND ( 'NONE', #92, .T. ) ;
#259 = DIRECTION ( 'NONE',  ( 1.000000000000000000, 0.000000000000000000, -0.000000000000000000 ) ) ;
#260 = EDGE_LOOP ( 'NONE', ( #130, #954, #824, #488 ) ) ;
#261 = EDGE_LOOP ( 'NONE', ( #391, #637, #80 ) ) ;
#262 = FACE_OUTER_BOUND ( 'NONE', #642, .T. ) ;
#263 = CARTESIAN_POINT ( 'NONE',  ( 32.20046355210862288, 153.0740285126873630, 42.29355679643813204 ) ) ;
#264 = ORIENTED_EDGE ( 'NONE', *, *, #445, .F. ) ;
#265 = ADVANCED_FACE ( 'NONE', ( #1168 ), #1094, .T. ) ;
#266 = ORIENTED_EDGE ( 'NONE', *, *, #299, .T. ) ;
#267 = CARTESIAN_POINT ( 'NONE',  ( 49.17203727835005367, 140.9740285126873687, 0.000000000000000000 ) ) ;
#268 = EDGE_CURVE ( 'NONE', #1010, #1105, #279, .T. ) ;
#269 = MANIFOLD_SOLID_BREP ( 'Chamfer2', #811 ) ;
#270 = AXIS2_PLACEMENT_3D ( 'NONE', #1160, #966, #694 ) ;
#271 = AXIS2_PLACEMENT_3D ( 'NONE', #294, #458, #904 ) ;
#272 = PLANE ( 'NONE',  #492 ) ;
#273 = DIRECTION ( 'NONE',  ( -1.000000000000000000, 0.000000000000000000, 0.000000000000000000 ) ) ;
#274 = ORIENTED_EDGE ( 'NONE', *, *, #826, .F. ) ;
#275 = VERTEX_POINT ( 'NONE', #1032 ) ;
#276 = FACE_OUTER_BOUND ( 'NONE', #334, .T. ) ;
#277 = EDGE_CURVE ( 'NONE', #403, #1084, #187, .T. ) ;
#278 = ADVANCED_FACE ( 'NONE', ( #672 ), #574, .T. ) ;
#279 = LINE ( 'NONE', #634, #291 ) ;
#280 = CARTESIAN_POINT ( 'NONE',  ( 16.04007135754572744, 139.1073618460206944, 34.52689012977145921 ) ) ;
#281 = VERTEX_POINT ( 'NONE', #762 ) ;
#282 = ORIENTED_EDGE ( 'NONE', *, *, #531, .F. ) ;
#283 = CARTESIAN_POINT ( 'NONE',  ( 39.41014284020661762, 146.4837078007851119, 30.83871715238888456 ) ) ;
#284 = LINE ( 'NONE', #309, #698 ) ;
#285 = DIRECTION ( 'NONE',  ( 0.5773502691896257311, 0.5773502691896257311, -0.5773502691896257311 ) ) ;
#286 = EDGE_LOOP ( 'NONE', ( #936, #518, #612 ) ) ;
#287 = EDGE_LOOP ( 'NONE', ( #145, #489, #240, #631 ) ) ;
#288 = DIRECTION ( 'NONE',  ( 1.000000000000000000, 0.000000000000000000, -0.000000000000000000 ) ) ;
#289 = AXIS2_PLACEMENT_3D ( 'NONE', #72, #526, #785 ) ;
#290 = LINE ( 'NONE', #1173, #868 ) ;
#291 = VECTOR ( 'NONE', #1000, 1000.000000000000000 ) ;
#292 = EDGE_CURVE ( 'NONE', #1055, #74, #218, .T. ) ;
#293 = VECTOR ( 'NONE', #852, 1000.000000000000114 ) ;
#294 = CARTESIAN_POINT ( 'NONE',  ( 35.84007135754573170, 163.5740285126873061, 22.79355679643813559 ) ) ;
#295 = ORIENTED_EDGE ( 'NONE', *, *, #733, .F. ) ;
#296 = EDGE_LOOP ( 'NONE', ( #534, #782, #179, #858 ) ) ;
#297 = CARTESIAN_POINT ( 'NONE',  ( 31.70046355210863354, 138.7740285126873516, 0.000000000000000000 ) ) ;
#298 = EDGE_CURVE ( 'NONE', #912, #248, #949, .T. ) ;
#299 = EDGE_CURVE ( 'NONE', #709, #539, #502, .T. ) ;
#300 = CARTESIAN_POINT ( 'NONE',  ( 16.04007135754572744, 153.0740285126873630, 29.79355679643767019 ) ) ;
#301 = CARTESIAN_POINT ( 'NONE',  ( 16.54007135754573099, 153.0740285126873630, 34.69355679643813772 ) ) ;
#302 = CARTESIAN_POINT ( 'NONE',  ( 16.54007135754573099, 153.0740285126873630, 34.69355679643813772 ) ) ;
#303 = ORIENTED_EDGE ( 'NONE', *, *, #1156, .F. ) ;
#304 = CARTESIAN_POINT ( 'NONE',  ( 35.34007135754573170, 139.2740285126873232, 34.69355679643813772 ) ) ;
#305 = FACE_OUTER_BOUND ( 'NONE', #1077, .T. ) ;
#306 = CARTESIAN_POINT ( 'NONE',  ( 16.54007135754573099, 139.2740285126873232, 34.69355679643813772 ) ) ;
#307 = ORIENTED_EDGE ( 'NONE', *, *, #498, .F. ) ;
#308 = DIRECTION ( 'NONE',  ( 0.000000000000000000, 0.7071067811865474617, -0.7071067811865474617 ) ) ;
#309 = CARTESIAN_POINT ( 'NONE',  ( 35.34007135754573170, 153.0740285126873630, 29.29355679643767019 ) ) ;
#310 = ADVANCED_FACE ( 'NONE', ( #1039 ), #406, .T. ) ;
#311 = CARTESIAN_POINT ( 'NONE',  ( 49.19856643238789218, 152.8455754161954872, 43.15205187127983777 ) ) ;
#312 = VECTOR ( 'NONE', #687, 1000.000000000000114 ) ;
#313 = LINE ( 'NONE', #1036, #214 ) ;
#314 = AXIS2_PLACEMENT_3D ( 'NONE', #181, #1106, #288 ) ;
#315 = ORIENTED_EDGE ( 'NONE', *, *, #481, .F. ) ;
#316 = CARTESIAN_POINT ( 'NONE',  ( 35.34007135754573170, 153.5740285126873630, 34.19355679643813772 ) ) ;
#317 = CARTESIAN_POINT ( 'NONE',  ( 31.70046355210866196, -6.061669821034099400E-15, 42.79355679643813204 ) ) ;
#318 = FACE_OUTER_BOUND ( 'NONE', #105, .T. ) ;
#319 = EDGE_LOOP ( 'NONE', ( #405, #947, #1149, #264 ) ) ;
#320 = EDGE_CURVE ( 'NONE', #1059, #539, #855, .T. ) ;
#321 = CARTESIAN_POINT ( 'NONE',  ( 29.84379853477229361, 129.1099091408981394, 32.62943742464891983 ) ) ;
#322 = LINE ( 'NONE', #692, #717 ) ;
#323 = ORIENTED_EDGE ( 'NONE', *, *, #894, .T. ) ;
#324 = FACE_OUTER_BOUND ( 'NONE', #1016, .T. ) ;
#325 = AXIS2_PLACEMENT_3D ( 'NONE', #1152, #1057, #1079 ) ;
#326 = CARTESIAN_POINT ( 'NONE',  ( 16.04007135754572744, 153.0740285126873630, 29.79355679643767019 ) ) ;
#327 = EDGE_CURVE ( 'NONE', #899, #14, #236, .T. ) ;
#328 = ORIENTED_EDGE ( 'NONE', *, *, #1067, .F. ) ;
#329 = VECTOR ( 'NONE', #486, 1000.000000000000000 ) ;
#330 = VECTOR ( 'NONE', #31, 1000.000000000000000 ) ;
#331 = CARTESIAN_POINT ( 'NONE',  ( 49.17203727835005367, 144.1740285126873573, 37.19355679643813772 ) ) ;
#332 = CARTESIAN_POINT ( 'NONE',  ( 32.20046355210862288, 140.9740285126873687, 0.000000000000000000 ) ) ;
#333 = DIRECTION ( 'NONE',  ( 0.7071067811865475727, 0.000000000000000000, 0.7071067811865475727 ) ) ;
#334 = EDGE_LOOP ( 'NONE', ( #1171, #699, #358, #562 ) ) ;
#335 = DIRECTION ( 'NONE',  ( 0.000000000000000000, 0.000000000000000000, -1.000000000000000000 ) ) ;
#336 = FACE_OUTER_BOUND ( 'NONE', #286, .T. ) ;
#337 = ORIENTED_EDGE ( 'NONE', *, *, #581, .F. ) ;
#338 = ORIENTED_EDGE ( 'NONE', *, *, #1116, .F. ) ;
#339 = LINE ( 'NONE', #331, #929 ) ;
#340 = CARTESIAN_POINT ( 'NONE',  ( 16.04007135754572744, 163.5740285126873061, 34.19355679643813772 ) ) ;
#341 = CARTESIAN_POINT ( 'NONE',  ( 19.67967916298275810, 139.2740285126873232, 42.29355679643813204 ) ) ;
#342 = VECTOR ( 'NONE', #592, 1000.000000000000000 ) ;
#343 = ORIENTED_EDGE ( 'NONE', *, *, #1024, .T. ) ;
#344 = VECTOR ( 'NONE', #566, 1000.000000000000000 ) ;
#345 = CARTESIAN_POINT ( 'NONE',  ( 35.37417687142958300, 139.2290981119843423, 34.50415312051556782 ) ) ;
#346 = VECTOR ( 'NONE', #547, 1000.000000000000000 ) ;
#347 = CARTESIAN_POINT ( 'NONE',  ( 32.20046355210867262, -5.888197473436417902E-15, 37.19355679643813772 ) ) ;
#348 = CARTESIAN_POINT ( 'NONE',  ( 32.20046355210862288, 139.1073618460206944, 34.52689012977145921 ) ) ;
#349 = ORIENTED_EDGE ( 'NONE', *, *, #684, .T. ) ;
#350 = FACE_OUTER_BOUND ( 'NONE', #484, .T. ) ;
#351 = LINE ( 'NONE', #707, #228 ) ;
#352 = LINE ( 'NONE', #885, #84 ) ;
#353 = ORIENTED_EDGE ( 'NONE', *, *, #299, .F. ) ;
#354 = ORIENTED_EDGE ( 'NONE', *, *, #658, .T. ) ;
#355 = CARTESIAN_POINT ( 'NONE',  ( 49.17203727835005367, 153.5740285126873630, 29.79355679643767019 ) ) ;
#356 = FACE_OUTER_BOUND ( 'NONE', #478, .T. ) ;
#357 = ADVANCED_FACE ( 'NONE', ( #324 ), #930, .F. ) ;
#358 = ORIENTED_EDGE ( 'NONE', *, *, #1148, .T. ) ;
#359 = VECTOR ( 'NONE', #199, 1000.000000000000000 ) ;
#360 = VERTEX_POINT ( 'NONE', #1050 ) ;
#361 = PLANE ( 'NONE',  #645 ) ;
#362 = AXIS2_PLACEMENT_3D ( 'NONE', #144, #872, #333 ) ;
#363 = VECTOR ( 'NONE', #207, 1000.000000000000000 ) ;
#364 = VECTOR ( 'NONE', #94, 1000.000000000000000 ) ;
#365 = DIRECTION ( 'NONE',  ( -1.000000000000000000, -0.000000000000000000, -0.000000000000000000 ) ) ;
#366 = VECTOR ( 'NONE', #1126, 1000.000000000000000 ) ;
#367 = DIRECTION ( 'NONE',  ( 0.2655120622211592507, -0.9477191029340973349, 0.1770080414807668756 ) ) ;
#368 = ORIENTED_EDGE ( 'NONE', *, *, #945, .F. ) ;
#369 = ORIENTED_EDGE ( 'NONE', *, *, #682, .F. ) ;
#370 = DIRECTION ( 'NONE',  ( 0.000000000000000000, -0.000000000000000000, -1.000000000000000000 ) ) ;
#371 = DIRECTION ( 'NONE',  ( 0.000000000000000000, 0.000000000000000000, -1.000000000000000000 ) ) ;
#372 = CARTESIAN_POINT ( 'NONE',  ( 31.57753142846213379, 164.9718807781667351, 22.79570453095876204 ) ) ;
#373 = EDGE_LOOP ( 'NONE', ( #761, #43, #1134, #1142 ) ) ;
#374 = VERTEX_POINT ( 'NONE', #127 ) ;
#375 = CARTESIAN_POINT ( 'NONE',  ( 31.70046355210863354, 138.7740285126873516, 42.29355679643813204 ) ) ;
#376 = EDGE_CURVE ( 'NONE', #56, #1059, #956, .T. ) ;
#377 = EDGE_CURVE ( 'NONE', #1111, #173, #284, .T. ) ;
#378 = DIRECTION ( 'NONE',  ( 0.000000000000000000, 0.000000000000000000, -1.000000000000000000 ) ) ;
#379 = CARTESIAN_POINT ( 'NONE',  ( 16.04007135754572744, 163.5740285126873061, 22.79355679643813559 ) ) ;
#380 = EDGE_LOOP ( 'NONE', ( #414, #79, #1, #203 ) ) ;
#381 = DIRECTION ( 'NONE',  ( -0.7071067811865475727, 0.000000000000000000, 0.7071067811865475727 ) ) ;
#382 = AXIS2_PLACEMENT_3D ( 'NONE', #379, #385, #201 ) ;
#383 = VECTOR ( 'NONE', #579, 1000.000000000000000 ) ;
#384 = CARTESIAN_POINT ( 'NONE',  ( 20.17967916298275455, 138.7740285126873516, 42.79355679643813204 ) ) ;
#385 = DIRECTION ( 'NONE',  ( -1.000000000000000000, 0.000000000000000000, 0.000000000000000000 ) ) ;
#386 = VERTEX_POINT ( 'NONE', #393 ) ;
#387 = DIRECTION ( 'NONE',  ( 0.000000000000000000, 0.000000000000000000, -1.000000000000000000 ) ) ;
#388 = CARTESIAN_POINT ( 'NONE',  ( 51.69443583219228344, 153.0740285126873630, 34.69355679643813772 ) ) ;
#389 = LINE ( 'NONE', #551, #363 ) ;
#390 = EDGE_CURVE ( 'NONE', #87, #136, #840, .T. ) ;
#391 = ORIENTED_EDGE ( 'NONE', *, *, #597, .T. ) ;
#392 = DIRECTION ( 'NONE',  ( 0.000000000000000000, 0.000000000000000000, -1.000000000000000000 ) ) ;
#393 = CARTESIAN_POINT ( 'NONE',  ( 31.70046355210863354, 138.7740285126873516, 34.69355679643813772 ) ) ;
#394 = CARTESIAN_POINT ( 'NONE',  ( 51.69443583219228344, 149.5740285126872209, 29.29355679643767019 ) ) ;
#395 = CARTESIAN_POINT ( 'NONE',  ( 35.84007135754573170, 149.6920625014371353, 29.79355679643766663 ) ) ;
#396 = EDGE_LOOP ( 'NONE', ( #730, #512, #783, #453, #806, #683, #810, #641 ) ) ;
#397 = LINE ( 'NONE', #563, #102 ) ;
#398 = EDGE_CURVE ( 'NONE', #742, #917, #846, .T. ) ;
#399 = CARTESIAN_POINT ( 'NONE',  ( 35.84007135754573170, 163.5740285126873061, 34.19355679643813772 ) ) ;
#400 = VECTOR ( 'NONE', #1045, 1000.000000000000000 ) ;
#401 = LINE ( 'NONE', #321, #850 ) ;
#402 = VECTOR ( 'NONE', #409, 1000.000000000000000 ) ;
#403 = VERTEX_POINT ( 'NONE', #701 ) ;
#404 = VECTOR ( 'NONE', #1015, 1000.000000000000000 ) ;
#405 = ORIENTED_EDGE ( 'NONE', *, *, #1025, .F. ) ;
#406 = PLANE ( 'NONE',  #27 ) ;
#407 = ADVANCED_FACE ( 'NONE', ( #428 ), #795, .F. ) ;
#408 = DIRECTION ( 'NONE',  ( 1.000000000000000000, 0.000000000000000000, -0.000000000000000000 ) ) ;
#409 = DIRECTION ( 'NONE',  ( 1.156482317317870739E-16, -1.000000000000000000, 0.000000000000000000 ) ) ;
#410 = ORIENTED_EDGE ( 'NONE', *, *, #755, .F. ) ;
#411 = SURFACE_SIDE_STYLE ('',( #490 ) ) ;
#412 = EDGE_CURVE ( 'NONE', #982, #443, #1078, .T. ) ;
#413 = DIRECTION ( 'NONE',  ( 0.000000000000000000, 0.000000000000000000, 1.000000000000000000 ) ) ;
#414 = ORIENTED_EDGE ( 'NONE', *, *, #327, .T. ) ;
#415 = LINE ( 'NONE', #245, #1163 ) ;
#416 = AXIS2_PLACEMENT_3D ( 'NONE', #158, #417, #796 ) ;
#417 = DIRECTION ( 'NONE',  ( -0.7071067811865352493, -0.7071067811865597852, 0.000000000000000000 ) ) ;
#418 = CARTESIAN_POINT ( 'NONE',  ( 32.20046355210862288, 139.2740285126873232, 34.69355679643813772 ) ) ;
#419 = ORIENTED_EDGE ( 'NONE', *, *, #498, .T. ) ;
#420 = VECTOR ( 'NONE', #1020, 999.9999999999998863 ) ;
#421 = VECTOR ( 'NONE', #285, 999.9999999999998863 ) ;
#422 = PLANE ( 'NONE',  #1031 ) ;
#423 = DIRECTION ( 'NONE',  ( -0.7071067811865486830, -8.177564888978004031E-17, 0.7071067811865463515 ) ) ;
#424 = DIRECTION ( 'NONE',  ( 0.000000000000000000, 0.000000000000000000, 1.000000000000000000 ) ) ;
#425 = ADVANCED_FACE ( 'NONE', ( #262 ), #784, .T. ) ;
#426 = ORIENTED_EDGE ( 'NONE', *, *, #48, .T. ) ;
#427 = ADVANCED_FACE ( 'NONE', ( #975 ), #1155, .T. ) ;
#428 = FACE_OUTER_BOUND ( 'NONE', #941, .T. ) ;
#429 = CARTESIAN_POINT ( 'NONE',  ( 16.54007135754573099, 139.1073618460206944, 34.52689012977145921 ) ) ;
#430 = DIRECTION ( 'NONE',  ( 0.000000000000000000, -1.000000000000000000, 0.000000000000000000 ) ) ;
#431 = ORIENTED_EDGE ( 'NONE', *, *, #880, .T. ) ;
#432 = DIRECTION ( 'NONE',  ( 0.2297529205473901603, -0.9732489894677233133, 0.000000000000000000 ) ) ;
#433 = CARTESIAN_POINT ( 'NONE',  ( 35.84007135754573170, 139.2740285126873232, 34.69355679643813772 ) ) ;
#434 = LINE ( 'NONE', #792, #1109 ) ;
#435 = AXIS2_PLACEMENT_3D ( 'NONE', #870, #68, #780 ) ;
#436 = EDGE_LOOP ( 'NONE', ( #984, #704, #353 ) ) ;
#437 = AXIS2_PLACEMENT_3D ( 'NONE', #1158, #697, #580 ) ;
#438 = DIRECTION ( 'NONE',  ( 3.469446951953612217E-16, -1.000000000000000000, 0.000000000000000000 ) ) ;
#439 = AXIS2_PLACEMENT_3D ( 'NONE', #499, #669, #212 ) ;
#440 = LINE ( 'NONE', #347, #926 ) ;
#441 = DIRECTION ( 'NONE',  ( 0.2831584861795235497, 0.9163201096827685577, -0.2831584861795235497 ) ) ;
#442 = ORIENTED_EDGE ( 'NONE', *, *, #829, .F. ) ;
#443 = VERTEX_POINT ( 'NONE', #519 ) ;
#444 = LINE ( 'NONE', #638, #346 ) ;
#445 = EDGE_CURVE ( 'NONE', #715, #14, #339, .T. ) ;
#446 = CARTESIAN_POINT ( 'NONE',  ( 16.54007135754573099, 153.5740285126873630, 29.29355679643767019 ) ) ;
#447 = EDGE_CURVE ( 'NONE', #374, #172, #415, .T. ) ;
#448 = ORIENTED_EDGE ( 'NONE', *, *, #24, .F. ) ;
#449 = ORIENTED_EDGE ( 'NONE', *, *, #254, .T. ) ;
#450 = CARTESIAN_POINT ( 'NONE',  ( 16.54007135754573099, 153.5740285126873630, 34.69355679643813772 ) ) ;
#451 = LINE ( 'NONE', #280, #46 ) ;
#452 = EDGE_LOOP ( 'NONE', ( #343, #227, #905, #743 ) ) ;
#453 = ORIENTED_EDGE ( 'NONE', *, *, #955, .F. ) ;
#454 = FACE_OUTER_BOUND ( 'NONE', #1123, .T. ) ;
#455 = PRESENTATION_LAYER_ASSIGNMENT (  '', '', ( #233 ) ) ;
#456 = VECTOR ( 'NONE', #656, 1000.000000000000000 ) ;
#457 = LINE ( 'NONE', #3, #968 ) ;
#458 = DIRECTION ( 'NONE',  ( -1.000000000000000000, 0.000000000000000000, 0.000000000000000000 ) ) ;
#459 = EDGE_LOOP ( 'NONE', ( #1027, #197, #844, #961, #1037 ) ) ;
#460 = ORIENTED_EDGE ( 'NONE', *, *, #165, .F. ) ;
#461 = DIRECTION ( 'NONE',  ( -0.5773502691896045258, -0.5773502691895883165, -0.5773502691896843508 ) ) ;
#462 = EDGE_CURVE ( 'NONE', #149, #56, #169, .T. ) ;
#463 = DIRECTION ( 'NONE',  ( 0.5773502691896258421, 0.5773502691896258421, 0.5773502691896258421 ) ) ;
#464 = EDGE_LOOP ( 'NONE', ( #693, #1127, #998, #368, #601, #661 ) ) ;
#465 = ORIENTED_EDGE ( 'NONE', *, *, #205, .T. ) ;
#466 = DIRECTION ( 'NONE',  ( 3.469446951953612217E-16, -1.000000000000000000, 0.000000000000000000 ) ) ;
#467 = CARTESIAN_POINT ( 'NONE',  ( -14.55754595212011715, 92.51601900845990656, 89.05156630066676371 ) ) ;
#468 = DIRECTION ( 'NONE',  ( -3.469446951953612217E-16, 1.000000000000000000, 0.000000000000000000 ) ) ;
#469 = ORIENTED_EDGE ( 'NONE', *, *, #1161, .F. ) ;
#470 = ORIENTED_EDGE ( 'NONE', *, *, #24, .T. ) ;
#471 = FACE_OUTER_BOUND ( 'NONE', #1082, .T. ) ;
#472 = ADVANCED_FACE ( 'NONE', ( #350 ), #706, .F. ) ;
#473 = AXIS2_PLACEMENT_3D ( 'NONE', #708, #537, #259 ) ;
#474 = ADVANCED_FACE ( 'NONE', ( #685 ), #251, .F. ) ;
#475 = VECTOR ( 'NONE', #461, 1000.000000000000114 ) ;
#476 = LINE ( 'NONE', #934, #589 ) ;
#477 = DIRECTION ( 'NONE',  ( -0.000000000000000000, 1.000000000000000000, 0.000000000000000000 ) ) ;
#478 = EDGE_LOOP ( 'NONE', ( #266, #161, #921, #448 ) ) ;
#479 = CARTESIAN_POINT ( 'NONE',  ( 16.04007135754572744, 149.5740285126872209, 29.79355679643767019 ) ) ;
#480 = DIRECTION ( 'NONE',  ( 0.000000000000000000, -0.7071067811865474617, -0.7071067811865474617 ) ) ;
#481 = EDGE_CURVE ( 'NONE', #725, #18, #608, .T. ) ;
#482 = CARTESIAN_POINT ( 'NONE',  ( 66.43768866721124766, 92.51601900846046078, 89.05156630066676371 ) ) ;
#483 = DIRECTION ( 'NONE',  ( 0.000000000000000000, -0.7071067811865475727, 0.7071067811865475727 ) ) ;
#484 = EDGE_LOOP ( 'NONE', ( #818, #295, #535, #303 ) ) ;
#485 = CARTESIAN_POINT ( 'NONE',  ( 16.54007135754573099, 139.1073618460206944, 34.52689012977145921 ) ) ;
#486 = DIRECTION ( 'NONE',  ( -1.000000000000000000, -0.000000000000000000, -0.000000000000000000 ) ) ;
#487 = CARTESIAN_POINT ( 'NONE',  ( 19.67967916298275455, 153.0740285126873630, 34.69355679643813772 ) ) ;
#488 = ORIENTED_EDGE ( 'NONE', *, *, #231, .F. ) ;
#489 = ORIENTED_EDGE ( 'NONE', *, *, #112, .T. ) ;
#490 = SURFACE_STYLE_FILL_AREA ( #542 ) ;
#491 = CARTESIAN_POINT ( 'NONE',  ( 16.29007135754573099, 153.3240285126873630, 34.19355679643813772 ) ) ;
#492 = AXIS2_PLACEMENT_3D ( 'NONE', #903, #703, #171 ) ;
#493 = CARTESIAN_POINT ( 'NONE',  ( 31.70046355210861933, 153.3240285126873630, 42.54355679643812493 ) ) ;
#494 = AXIS2_PLACEMENT_3D ( 'NONE', #640, #206, #378 ) ;
#495 = ORIENTED_EDGE ( 'NONE', *, *, #462, .T. ) ;
#496 = ADVANCED_FACE ( 'NONE', ( #1060 ), #162, .T. ) ;
#497 = DIRECTION ( 'NONE',  ( 0.000000000000000000, -0.8944271909998982029, 0.4472135954999932328 ) ) ;
#498 = EDGE_CURVE ( 'NONE', #149, #18, #1056, .T. ) ;
#499 = CARTESIAN_POINT ( 'NONE',  ( 49.17203727835005367, 0.000000000000000000, 40.39355679643813346 ) ) ;
#500 = PRODUCT_DEFINITION ( 'UNKNOWN', '', #564, #883 ) ;
#501 = EDGE_LOOP ( 'NONE', ( #442, #748, #636, #766 ) ) ;
#502 = LINE ( 'NONE', #750, #1066 ) ;
#503 = DIRECTION ( 'NONE',  ( 0.7071067811865525687, 0.000000000000000000, -0.7071067811865425767 ) ) ;
#504 = CARTESIAN_POINT ( 'NONE',  ( 32.03379688544196569, 139.1073618460206944, 34.52689012977145921 ) ) ;
#505 = EDGE_LOOP ( 'NONE', ( #1135, #338, #864, #890 ) ) ;
#506 = ORIENTED_EDGE ( 'NONE', *, *, #97, .F. ) ;
#507 = FACE_OUTER_BOUND ( 'NONE', #655, .T. ) ;
#508 = AXIS2_PLACEMENT_3D ( 'NONE', #176, #533, #897 ) ;
#509 = PLANE ( 'NONE',  #435 ) ;
#510 = FACE_OUTER_BOUND ( 'NONE', #1175, .T. ) ;
#511 = EDGE_CURVE ( 'NONE', #906, #982, #156, .T. ) ;
#512 = ORIENTED_EDGE ( 'NONE', *, *, #829, .T. ) ;
#513 = AXIS2_PLACEMENT_3D ( 'NONE', #882, #772, #432 ) ;
#514 = AXIS2_PLACEMENT_3D ( 'NONE', #602, #1065, #530 ) ;
#515 = CARTESIAN_POINT ( 'NONE',  ( 32.20046355210867972, -16.42597148731265477, 42.29355679643813204 ) ) ;
#516 = DIRECTION ( 'NONE',  ( 1.000000000000000000, 0.000000000000000000, -0.000000000000000000 ) ) ;
#517 = CARTESIAN_POINT ( 'NONE',  ( 51.69443583219228344, 0.000000000000000000, 34.69355679643813772 ) ) ;
#518 = ORIENTED_EDGE ( 'NONE', *, *, #1024, .F. ) ;
#519 = CARTESIAN_POINT ( 'NONE',  ( 16.54007135754573099, 153.0740285126873630, 34.69355679643813772 ) ) ;
#520 = LINE ( 'NONE', #433, #1005 ) ;
#521 = DIRECTION ( 'NONE',  ( 0.7071067811865451302, -0.000000000000000000, -0.7071067811865500152 ) ) ;
#522 = ORIENTED_EDGE ( 'NONE', *, *, #1100, .T. ) ;
#523 = EDGE_CURVE ( 'NONE', #545, #63, #81, .T. ) ;
#524 = EDGE_LOOP ( 'NONE', ( #1096, #675, #1021, #973, #282 ) ) ;
#525 = CARTESIAN_POINT ( 'NONE',  ( 31.70046355210861933, 153.5740285126873630, 0.000000000000000000 ) ) ;
#526 = DIRECTION ( 'NONE',  ( -0.5773502691896231775, 0.5773502691896270633, -0.5773502691896270633 ) ) ;
#527 = ORIENTED_EDGE ( 'NONE', *, *, #986, .T. ) ;
#528 = VECTOR ( 'NONE', #137, 1000.000000000000000 ) ;
#529 = ORIENTED_EDGE ( 'NONE', *, *, #202, .F. ) ;
#530 = DIRECTION ( 'NONE',  ( -1.000000000000000000, 0.000000000000000000, -0.000000000000000000 ) ) ;
#531 = EDGE_CURVE ( 'NONE', #1084, #879, #876, .T. ) ;
#532 = VECTOR ( 'NONE', #65, 1000.000000000000227 ) ;
#533 = DIRECTION ( 'NONE',  ( 0.000000000000000000, 0.000000000000000000, 1.000000000000000000 ) ) ;
#534 = ORIENTED_EDGE ( 'NONE', *, *, #511, .F. ) ;
#535 = ORIENTED_EDGE ( 'NONE', *, *, #135, .F. ) ;
#536 = DIRECTION ( 'NONE',  ( -0.000000000000000000, 1.000000000000000000, 0.000000000000000000 ) ) ;
#537 = DIRECTION ( 'NONE',  ( 0.000000000000000000, 0.7071067811865475727, 0.7071067811865475727 ) ) ;
#538 = DIRECTION ( 'NONE',  ( 1.000000000000000000, 0.000000000000000000, 0.000000000000000000 ) ) ;
#539 = VERTEX_POINT ( 'NONE', #151 ) ;
#540 = ORIENTED_EDGE ( 'NONE', *, *, #523, .T. ) ;
#541 = DIRECTION ( 'NONE',  ( 0.000000000000000000, -1.000000000000000000, 0.000000000000000000 ) ) ;
#542 = FILL_AREA_STYLE ('',( #615 ) ) ;
#543 = DIRECTION ( 'NONE',  ( 0.000000000000000000, -1.000000000000000000, 0.000000000000000000 ) ) ;
#544 = ADVANCED_FACE ( 'NONE', ( #507 ), #422, .F. ) ;
#545 = VERTEX_POINT ( 'NONE', #100 ) ;
#546 = ORIENTED_EDGE ( 'NONE', *, *, #376, .F. ) ;
#547 = DIRECTION ( 'NONE',  ( 0.7071067811865483499, 8.172591417130187413E-15, -0.7071067811865466846 ) ) ;
#548 = VECTOR ( 'NONE', #1125, 1000.000000000000000 ) ;
#549 = VECTOR ( 'NONE', #957, 999.9999999999998863 ) ;
#550 = DIRECTION ( 'NONE',  ( -0.7071067811865500152, -1.922962686383559872E-16, -0.7071067811865450192 ) ) ;
#551 = CARTESIAN_POINT ( 'NONE',  ( 35.34007135754573170, 153.5740285126873630, 0.000000000000000000 ) ) ;
#552 = ADVANCED_FACE ( 'NONE', ( #454 ), #1098, .F. ) ;
#553 = ORIENTED_EDGE ( 'NONE', *, *, #1148, .F. ) ;
#554 = CARTESIAN_POINT ( 'NONE',  ( 20.17967916298274744, 138.7740285126873516, 34.69355679643813772 ) ) ;
#555 =( LENGTH_UNIT ( ) NAMED_UNIT ( * ) SI_UNIT ( .MILLI., .METRE. ) );
#556 = DIRECTION ( 'NONE',  ( 0.000000000000000000, 0.000000000000000000, -1.000000000000000000 ) ) ;
#557 = LINE ( 'NONE', #576, #567 ) ;
#558 = VERTEX_POINT ( 'NONE', #554 ) ;
#559 = FACE_OUTER_BOUND ( 'NONE', #464, .T. ) ;
#560 = CARTESIAN_POINT ( 'NONE',  ( 19.67967916298275455, 139.2740285126873232, 34.69355679643813772 ) ) ;
#561 = ORIENTED_EDGE ( 'NONE', *, *, #932, .F. ) ;
#562 = ORIENTED_EDGE ( 'NONE', *, *, #447, .T. ) ;
#563 = CARTESIAN_POINT ( 'NONE',  ( 35.34007135754573170, 153.3240285126873630, 34.44355679643813772 ) ) ;
#564 = PRODUCT_DEFINITION_FORMATION_WITH_SPECIFIED_SOURCE ( 'ANY', '', #914, .NOT_KNOWN. ) ;
#565 = ADVANCED_FACE ( 'NONE', ( #559 ), #913, .F. ) ;
#566 = DIRECTION ( 'NONE',  ( 0.000000000000000000, 0.000000000000000000, 1.000000000000000000 ) ) ;
#567 = VECTOR ( 'NONE', #133, 1000.000000000000227 ) ;
#568 = AXIS2_PLACEMENT_3D ( 'NONE', #108, #463, #630 ) ;
#569 = LINE ( 'NONE', #665, #383 ) ;
#570 = PLANE ( 'NONE',  #757 ) ;
#571 = ORIENTED_EDGE ( 'NONE', *, *, #649, .T. ) ;
#572 = CARTESIAN_POINT ( 'NONE',  ( 31.95046355210863354, 139.0240285126873516, 42.54355679643811783 ) ) ;
#573 = PRODUCT_DEFINITION_SHAPE ( 'NONE', 'NONE',  #500 ) ;
#574 = PLANE ( 'NONE',  #869 ) ;
#575 = FACE_OUTER_BOUND ( 'NONE', #1064, .T. ) ;
#576 = CARTESIAN_POINT ( 'NONE',  ( -26.24499700791296775, 92.84935234179147301, -3.631119374457737692 ) ) ;
#577 = ORIENTED_EDGE ( 'NONE', *, *, #45, .F. ) ;
#578 = DIRECTION ( 'NONE',  ( -0.7071067811865475727, 0.000000000000000000, -0.7071067811865475727 ) ) ;
#579 = DIRECTION ( 'NONE',  ( 0.000000000000000000, 0.000000000000000000, 1.000000000000000000 ) ) ;
#580 = DIRECTION ( 'NONE',  ( -1.000000000000000000, 0.000000000000000000, 0.000000000000000000 ) ) ;
#581 = EDGE_CURVE ( 'NONE', #172, #125, #815, .T. ) ;
#582 = EDGE_CURVE ( 'NONE', #99, #386, #726, .T. ) ;
#583 = ORIENTED_EDGE ( 'NONE', *, *, #684, .F. ) ;
#584 = SURFACE_STYLE_USAGE ( .BOTH. , #411 ) ;
#585 = EDGE_CURVE ( 'NONE', #125, #99, #1172, .T. ) ;
#586 = LINE ( 'NONE', #36, #895 ) ;
#587 = VECTOR ( 'NONE', #1063, 1000.000000000000000 ) ;
#588 = CARTESIAN_POINT ( 'NONE',  ( 32.20046355210867972, -16.42597148731265477, 15.12585852046723822 ) ) ;
#589 = VECTOR ( 'NONE', #41, 1000.000000000000000 ) ;
#590 = ORIENTED_EDGE ( 'NONE', *, *, #896, .F. ) ;
#591 = DIRECTION ( 'NONE',  ( 0.7071067811865475727, 0.000000000000000000, 0.7071067811865475727 ) ) ;
#592 = DIRECTION ( 'NONE',  ( -0.7071067811865500152, -0.7071067811865450192, 1.837086636568282058E-16 ) ) ;
#593 = PLANE ( 'NONE',  #4 ) ;
#594 = ORIENTED_EDGE ( 'NONE', *, *, #994, .T. ) ;
#595 = ORIENTED_EDGE ( 'NONE', *, *, #1161, .T. ) ;
#596 = CARTESIAN_POINT ( 'NONE',  ( 19.92967916298275455, 153.0740285126873630, 42.54355679643813204 ) ) ;
#597 = EDGE_CURVE ( 'NONE', #38, #74, #651, .T. ) ;
#598 = EDGE_CURVE ( 'NONE', #75, #545, #444, .T. ) ;
#599 = FACE_OUTER_BOUND ( 'NONE', #459, .T. ) ;
#600 = CARTESIAN_POINT ( 'NONE',  ( 19.67967916298275810, 140.9740285126873687, 40.39355679643813346 ) ) ;
#601 = ORIENTED_EDGE ( 'NONE', *, *, #1007, .F. ) ;
#602 = CARTESIAN_POINT ( 'NONE',  ( 49.17203727835005367, 0.000000000000000000, 42.79355679643813204 ) ) ;
#603 = CARTESIAN_POINT ( 'NONE',  ( 32.20046355210862288, 153.0740285126873630, 15.12585852046723822 ) ) ;
#604 = CARTESIAN_POINT ( 'NONE',  ( 32.20046355210862288, 153.0740285126873630, 42.29355679643813204 ) ) ;
#605 =( GEOMETRIC_REPRESENTATION_CONTEXT ( 3 ) GLOBAL_UNCERTAINTY_ASSIGNED_CONTEXT ( ( #58 ) ) GLOBAL_UNIT_ASSIGNED_CONTEXT ( ( #210, #756, #1102 ) ) REPRESENTATION_CONTEXT ( 'NONE', 'WORKASPACE' ) );
#606 = EDGE_LOOP ( 'NONE', ( #42, #650, #965, #238 ) ) ;
#607 = AXIS2_PLACEMENT_3D ( 'NONE', #209, #839, #578 ) ;
#608 = LINE ( 'NONE', #788, #532 ) ;
#609 = PLANE ( 'NONE',  #249 ) ;
#610 = DIRECTION ( 'NONE',  ( -0.000000000000000000, -0.7071067811865474617, -0.7071067811865474617 ) ) ;
#611 = EDGE_CURVE ( 'NONE', #1111, #281, #993, .T. ) ;
#612 = ORIENTED_EDGE ( 'NONE', *, *, #219, .T. ) ;
#613 = DIRECTION ( 'NONE',  ( -1.000000000000000000, -0.000000000000000000, -0.000000000000000000 ) ) ;
#614 = DIRECTION ( 'NONE',  ( 0.000000000000000000, 0.000000000000000000, 1.000000000000000000 ) ) ;
#615 = FILL_AREA_STYLE_COLOUR ( '', #738 ) ;
#616 = ADVANCED_FACE ( 'NONE', ( #276 ), #361, .T. ) ;
#617 = VERTEX_POINT ( 'NONE', #375 ) ;
#618 = ADVANCED_FACE ( 'NONE', ( #731 ), #204, .T. ) ;
#619 = ORIENTED_EDGE ( 'NONE', *, *, #59, .F. ) ;
#620 = DIRECTION ( 'NONE',  ( 0.9485360198619561256, -0.2239189797945406180, 0.2239189797945033145 ) ) ;
#621 = EDGE_CURVE ( 'NONE', #539, #149, #643, .T. ) ;
#622 = CARTESIAN_POINT ( 'NONE',  ( 35.84007135754573170, 153.0740285126873630, 29.79355679643767019 ) ) ;
#623 = ADVANCED_BREP_SHAPE_REPRESENTATION ( '\X2\8272536176d2\X0\-\X2\96504f4d67f1\X0\', ( #269, #508 ), #211 ) ;
#624 = ORIENTED_EDGE ( 'NONE', *, *, #1067, .T. ) ;
#625 = AXIS2_PLACEMENT_3D ( 'NONE', #76, #866, #256 ) ;
#626 = EDGE_LOOP ( 'NONE', ( #70, #7, #892, #469 ) ) ;
#627 = FACE_OUTER_BOUND ( 'NONE', #260, .T. ) ;
#628 = VECTOR ( 'NONE', #1029, 1000.000000000000114 ) ;
#629 = PLANE ( 'NONE',  #644 ) ;
#630 = DIRECTION ( 'NONE',  ( 0.7071067811865475727, 0.000000000000000000, -0.7071067811865475727 ) ) ;
#631 = ORIENTED_EDGE ( 'NONE', *, *, #1007, .T. ) ;
#632 = ORIENTED_EDGE ( 'NONE', *, *, #972, .T. ) ;
#633 = LINE ( 'NONE', #999, #970 ) ;
#634 = CARTESIAN_POINT ( 'NONE',  ( 16.04007135754572744, 153.0740285126873630, 29.29355679643767019 ) ) ;
#635 = CARTESIAN_POINT ( 'NONE',  ( 35.34007135754573170, 0.000000000000000000, 29.29355679643767019 ) ) ;
#636 = ORIENTED_EDGE ( 'NONE', *, *, #1100, .F. ) ;
#637 = ORIENTED_EDGE ( 'NONE', *, *, #789, .T. ) ;
#638 = CARTESIAN_POINT ( 'NONE',  ( 32.20046355210862288, 153.0740285126873630, 42.29355679643813204 ) ) ;
#639 = DIRECTION ( 'NONE',  ( -1.156482317317870739E-16, 1.000000000000000000, 0.000000000000000000 ) ) ;
#640 = CARTESIAN_POINT ( 'NONE',  ( 35.34007135754573170, 153.5740285126873630, 0.000000000000000000 ) ) ;
#641 = ORIENTED_EDGE ( 'NONE', *, *, #803, .T. ) ;
#642 = EDGE_LOOP ( 'NONE', ( #307, #874, #426 ) ) ;
#643 = LINE ( 'NONE', #1018, #700 ) ;
#644 = AXIS2_PLACEMENT_3D ( 'NONE', #182, #521, #78 ) ;
#645 = AXIS2_PLACEMENT_3D ( 'NONE', #820, #15, #2 ) ;
#646 = DIRECTION ( 'NONE',  ( 0.5773502691896315042, 0.5773502691896155170, -0.5773502691896301720 ) ) ;
#647 = CARTESIAN_POINT ( 'NONE',  ( 16.54007135754573099, 139.1073618460206944, 34.52689012977146632 ) ) ;
#648 = PLANE ( 'NONE',  #382 ) ;
#649 = EDGE_CURVE ( 'NONE', #63, #125, #198, .T. ) ;
#650 = ORIENTED_EDGE ( 'NONE', *, *, #994, .F. ) ;
#651 = LINE ( 'NONE', #9, #364 ) ;
#652 = LINE ( 'NONE', #1008, #28 ) ;
#653 = CARTESIAN_POINT ( 'NONE',  ( 38.69845431213651210, 146.5760377526594880, 41.19154755646602695 ) ) ;
#654 = ADVANCED_FACE ( 'NONE', ( #111 ), #825, .F. ) ;
#655 = EDGE_LOOP ( 'NONE', ( #793, #1118, #168, #1049 ) ) ;
#656 = DIRECTION ( 'NONE',  ( -1.000000000000000000, 0.000000000000000000, 0.000000000000000000 ) ) ;
#657 = ADVANCED_FACE ( 'NONE', ( #627 ), #1085, .T. ) ;
#658 = EDGE_CURVE ( 'NONE', #281, #1170, #901, .T. ) ;
#659 = DIRECTION ( 'NONE',  ( -1.000000000000000000, 0.000000000000000000, 0.000000000000000000 ) ) ;
#660 = CARTESIAN_POINT ( 'NONE',  ( 19.67967916298275455, 153.0740285126873630, 34.69355679643813772 ) ) ;
#661 = ORIENTED_EDGE ( 'NONE', *, *, #582, .F. ) ;
#662 = LINE ( 'NONE', #39, #628 ) ;
#663 = VECTOR ( 'NONE', #898, 1000.000000000000000 ) ;
#664 = VECTOR ( 'NONE', #1151, 1000.000000000000000 ) ;
#665 = CARTESIAN_POINT ( 'NONE',  ( 31.70046355210863354, 138.7740285126873516, 0.000000000000000000 ) ) ;
#666 = ORIENTED_EDGE ( 'NONE', *, *, #843, .T. ) ;
#667 = ORIENTED_EDGE ( 'NONE', *, *, #945, .T. ) ;
#668 = CARTESIAN_POINT ( 'NONE',  ( 20.17967916298275455, 153.5740285126873630, 0.000000000000000000 ) ) ;
#669 = DIRECTION ( 'NONE',  ( 0.000000000000000000, 0.000000000000000000, -1.000000000000000000 ) ) ;
#670 = PLANE ( 'NONE',  #1051 ) ;
#671 = EDGE_LOOP ( 'NONE', ( #8, #666, #838 ) ) ;
#672 = FACE_OUTER_BOUND ( 'NONE', #19, .T. ) ;
#673 = LINE ( 'NONE', #491, #400 ) ;
#674 = FACE_OUTER_BOUND ( 'NONE', #88, .T. ) ;
#675 = ORIENTED_EDGE ( 'NONE', *, *, #932, .T. ) ;
#676 = DIRECTION ( 'NONE',  ( 0.000000000000000000, -0.8944271909998982029, 0.4472135954999932328 ) ) ;
#677 = VECTOR ( 'NONE', #60, 1000.000000000000114 ) ;
#678 = LINE ( 'NONE', #394, #794 ) ;
#679 = AXIS2_PLACEMENT_3D ( 'NONE', #767, #938, #676 ) ;
#680 = LINE ( 'NONE', #493, #1011 ) ;
#681 = VECTOR ( 'NONE', #800, 1000.000000000000000 ) ;
#682 = EDGE_CURVE ( 'NONE', #736, #709, #633, .T. ) ;
#683 = ORIENTED_EDGE ( 'NONE', *, *, #239, .T. ) ;
#684 = EDGE_CURVE ( 'NONE', #1059, #173, #662, .T. ) ;
#685 = FACE_OUTER_BOUND ( 'NONE', #787, .T. ) ;
#686 = PLANE ( 'NONE',  #325 ) ;
#687 = DIRECTION ( 'NONE',  ( -0.7071067811865474617, 0.7071067811865474617, -0.000000000000000000 ) ) ;
#688 = ORIENTED_EDGE ( 'NONE', *, *, #254, .F. ) ;
#689 = ADVANCED_FACE ( 'NONE', ( #749 ), #845, .F. ) ;
#690 = CARTESIAN_POINT ( 'NONE',  ( 16.04007135754572744, 153.0740285126873630, 34.69355679643813772 ) ) ;
#691 = CARTESIAN_POINT ( 'NONE',  ( 16.04007135754572744, 149.6920625014371069, 29.79355679643767019 ) ) ;
#692 = CARTESIAN_POINT ( 'NONE',  ( 19.67967916298275810, 144.1740285126873573, 0.000000000000000000 ) ) ;
#693 = ORIENTED_EDGE ( 'NONE', *, *, #585, .F. ) ;
#694 = DIRECTION ( 'NONE',  ( 0.000000000000000000, -1.000000000000000000, 0.000000000000000000 ) ) ;
#695 = VECTOR ( 'NONE', #614, 1000.000000000000000 ) ;
#696 = DIRECTION ( 'NONE',  ( 0.5773502691896230665, 0.5773502691896231775, 0.5773502691896311712 ) ) ;
#697 = DIRECTION ( 'NONE',  ( 0.000000000000000000, 0.7071067811865475727, -0.7071067811865475727 ) ) ;
#698 = VECTOR ( 'NONE', #480, 1000.000000000000114 ) ;
#699 = ORIENTED_EDGE ( 'NONE', *, *, #1116, .T. ) ;
#700 = VECTOR ( 'NONE', #1014, 1000.000000000000000 ) ;
#701 = CARTESIAN_POINT ( 'NONE',  ( 19.67967916298275455, 139.2740285126873232, 42.29355679643813204 ) ) ;
#702 = CARTESIAN_POINT ( 'NONE',  ( 35.59007135754573170, 153.3240285126873630, 29.79355679643767019 ) ) ;
#703 = DIRECTION ( 'NONE',  ( -1.000000000000000000, -1.156482317317870739E-16, 0.000000000000000000 ) ) ;
#704 = ORIENTED_EDGE ( 'NONE', *, *, #21, .T. ) ;
#705 = VERTEX_POINT ( 'NONE', #572 ) ;
#706 = PLANE ( 'NONE',  #1131 ) ;
#707 = CARTESIAN_POINT ( 'NONE',  ( 19.67967916298275455, 139.2740285126873232, 34.69355679643813772 ) ) ;
#708 = CARTESIAN_POINT ( 'NONE',  ( 51.69443583219228344, 153.0740285126873630, 34.69355679643813772 ) ) ;
#709 = VERTEX_POINT ( 'NONE', #316 ) ;
#710 = ORIENTED_EDGE ( 'NONE', *, *, #843, .F. ) ;
#711 = CARTESIAN_POINT ( 'NONE',  ( 32.20046355210862288, 139.2740285126873232, 15.12585852046723822 ) ) ;
#712 = CARTESIAN_POINT ( 'NONE',  ( 19.84634582964941174, 139.1073618460206944, 34.52689012977145921 ) ) ;
#713 = VECTOR ( 'NONE', #152, 1000.000000000000000 ) ;
#714 = CARTESIAN_POINT ( 'NONE',  ( 20.17967916298275455, 153.5740285126873630, 42.29355679643813204 ) ) ;
#715 = VERTEX_POINT ( 'NONE', #223 ) ;
#716 = ADVANCED_FACE ( 'NONE', ( #217 ), #937, .T. ) ;
#717 = VECTOR ( 'NONE', #1058, 1000.000000000000000 ) ;
#718 = ORIENTED_EDGE ( 'NONE', *, *, #1034, .F. ) ;
#719 = DIRECTION ( 'NONE',  ( -0.7071067811865376918, 0.7071067811865573427, 0.000000000000000000 ) ) ;
#720 = ADVANCED_FACE ( 'NONE', ( #471 ), #1119, .T. ) ;
#721 = VECTOR ( 'NONE', #808, 1000.000000000000000 ) ;
#722 = CARTESIAN_POINT ( 'NONE',  ( 31.70046355210861933, 139.2740285126873516, 42.79355679643813204 ) ) ;
#723 = CARTESIAN_POINT ( 'NONE',  ( 16.54007135754573099, 149.5740285126872209, 29.29355679643767019 ) ) ;
#724 = ORIENTED_EDGE ( 'NONE', *, *, #231, .T. ) ;
#725 = VERTEX_POINT ( 'NONE', #131 ) ;
#726 = LINE ( 'NONE', #283, #681 ) ;
#727 = DIRECTION ( 'NONE',  ( 0.000000000000000000, 1.000000000000000000, 0.000000000000000000 ) ) ;
#728 = LINE ( 'NONE', #828, #758 ) ;
#729 = VERTEX_POINT ( 'NONE', #304 ) ;
#730 = ORIENTED_EDGE ( 'NONE', *, *, #59, .T. ) ;
#731 = FACE_OUTER_BOUND ( 'NONE', #505, .T. ) ;
#732 = PRODUCT_CONTEXT ( 'NONE', #801, 'mechanical' ) ;
#733 = EDGE_CURVE ( 'NONE', #150, #736, #30, .T. ) ;
#734 = CARTESIAN_POINT ( 'NONE',  ( 20.17967916298275455, 153.0740285126873630, 42.79355679643813204 ) ) ;
#735 = CARTESIAN_POINT ( 'NONE',  ( 19.67967916298275455, 144.1740285126873573, 37.19355679643813772 ) ) ;
#736 = VERTEX_POINT ( 'NONE', #1124 ) ;
#737 = CARTESIAN_POINT ( 'NONE',  ( 49.17203727835005367, 153.5740285126873630, 0.000000000000000000 ) ) ;
#738 = COLOUR_RGB ( '',0.7921568627450980005, 0.8196078431372548767, 0.9333333333333333481 ) ;
#739 = VECTOR ( 'NONE', #241, 1000.000000000000000 ) ;
#740 = EDGE_CURVE ( 'NONE', #443, #1170, #923, .T. ) ;
#741 = LINE ( 'NONE', #301, #1033 ) ;
#742 = VERTEX_POINT ( 'NONE', #485 ) ;
#743 = ORIENTED_EDGE ( 'NONE', *, *, #658, .F. ) ;
#744 = CARTESIAN_POINT ( 'NONE',  ( 49.17203727835005367, 153.0740285126873630, 42.79355679643813204 ) ) ;
#745 = EDGE_CURVE ( 'NONE', #75, #879, #1129, .T. ) ;
#746 = DIRECTION ( 'NONE',  ( 0.5773502691896318373, -0.5773502691896117422, 0.5773502691896336136 ) ) ;
#747 = FACE_OUTER_BOUND ( 'NONE', #29, .T. ) ;
#748 = ORIENTED_EDGE ( 'NONE', *, *, #97, .T. ) ;
#749 = FACE_OUTER_BOUND ( 'NONE', #396, .T. ) ;
#750 = CARTESIAN_POINT ( 'NONE',  ( 35.84007135754573170, 153.0740285126873630, 34.19355679643813772 ) ) ;
#751 = DIRECTION ( 'NONE',  ( 0.6974565623330609698, -0.1646471600638914623, -0.6974565623330561959 ) ) ;
#752 = CARTESIAN_POINT ( 'NONE',  ( 12.46999987488476158, 146.4837078007850550, 30.83871715238890587 ) ) ;
#753 = ORIENTED_EDGE ( 'NONE', *, *, #745, .T. ) ;
#754 = DIRECTION ( 'NONE',  ( -0.7071067811865475727, 0.7071067811865475727, 0.000000000000000000 ) ) ;
#755 = EDGE_CURVE ( 'NONE', #709, #374, #397, .T. ) ;
#756 =( NAMED_UNIT ( * ) PLANE_ANGLE_UNIT ( ) SI_UNIT ( $, .RADIAN. ) );
#757 = AXIS2_PLACEMENT_3D ( 'NONE', #302, #935, #483 ) ;
#758 = VECTOR ( 'NONE', #120, 1000.000000000000000 ) ;
#759 = CARTESIAN_POINT ( 'NONE',  ( 20.17967916298275455, 153.5740285126873630, 42.29355679643813204 ) ) ;
#760 = CARTESIAN_POINT ( 'NONE',  ( 32.20046355210862288, 139.2740285126873232, 42.29355679643813204 ) ) ;
#761 = ORIENTED_EDGE ( 'NONE', *, *, #1023, .T. ) ;
#762 = CARTESIAN_POINT ( 'NONE',  ( 16.54007135754573099, 153.5740285126873630, 29.79355679643767019 ) ) ;
#763 = EDGE_CURVE ( 'NONE', #1105, #1055, #126, .T. ) ;
#764 = PLANE ( 'NONE',  #215 ) ;
#765 = FACE_BOUND ( 'NONE', #875, .T. ) ;
#766 = ORIENTED_EDGE ( 'NONE', *, *, #1061, .T. ) ;
#767 = CARTESIAN_POINT ( 'NONE',  ( 35.34007135754573170, 41.63222842111793653, 83.26445684222764498 ) ) ;
#768 = EDGE_CURVE ( 'NONE', #104, #899, #652, .T. ) ;
#769 = DIRECTION ( 'NONE',  ( 0.000000000000000000, 0.7071067811865475727, 0.7071067811865475727 ) ) ;
#770 = PLANE ( 'NONE',  #1088 ) ;
#771 = ORIENTED_EDGE ( 'NONE', *, *, #292, .T. ) ;
#772 = DIRECTION ( 'NONE',  ( -0.9485360198619553485, -0.2239189797945419780, 0.2239189797945046467 ) ) ;
#773 = CARTESIAN_POINT ( 'NONE',  ( 19.67967916298275455, 153.0740285126873630, 42.29355679643813204 ) ) ;
#774 = AXIS2_PLACEMENT_3D ( 'NONE', #1144, #620, #71 ) ;
#775 = FACE_OUTER_BOUND ( 'NONE', #671, .T. ) ;
#776 = EDGE_CURVE ( 'NONE', #360, #899, #17, .T. ) ;
#777 = VECTOR ( 'NONE', #1107, 1000.000000000000000 ) ;
#778 = EDGE_LOOP ( 'NONE', ( #798, #1092, #909, #495 ) ) ;
#779 = CARTESIAN_POINT ( 'NONE',  ( 49.17203727835005367, 153.5740285126873630, 29.79355679643767019 ) ) ;
#780 = DIRECTION ( 'NONE',  ( -3.469446951953612217E-16, 1.000000000000000000, 0.000000000000000000 ) ) ;
#781 = CARTESIAN_POINT ( 'NONE',  ( 31.57753142846286920, 127.3761762472076242, 22.79570453095645632 ) ) ;
#782 = ORIENTED_EDGE ( 'NONE', *, *, #83, .T. ) ;
#783 = ORIENTED_EDGE ( 'NONE', *, *, #398, .T. ) ;
#784 = PLANE ( 'NONE',  #774 ) ;
#785 = DIRECTION ( 'NONE',  ( 0.000000000000000000, 0.7071067811865475727, 0.7071067811865475727 ) ) ;
#786 = DIRECTION ( 'NONE',  ( 9.807109700556223633E-15, 0.7071067811865474617, -0.7071067811865474617 ) ) ;
#787 = EDGE_LOOP ( 'NONE', ( #190, #1076, #195, #753 ) ) ;
#788 = CARTESIAN_POINT ( 'NONE',  ( 35.34007135754573170, 41.63222842111793653, 83.26445684222764498 ) ) ;
#789 = EDGE_CURVE ( 'NONE', #74, #742, #908, .T. ) ;
#790 = EDGE_CURVE ( 'NONE', #982, #1154, #96, .T. ) ;
#791 = CARTESIAN_POINT ( 'NONE',  ( 20.17967916298277231, -3.352914949776952914E-15, 42.79355679643813204 ) ) ;
#792 = CARTESIAN_POINT ( 'NONE',  ( 35.34007135754573170, 139.2740285126873232, 34.69355679643813772 ) ) ;
#793 = ORIENTED_EDGE ( 'NONE', *, *, #377, .T. ) ;
#794 = VECTOR ( 'NONE', #847, 1000.000000000000000 ) ;
#795 = PLANE ( 'NONE',  #625 ) ;
#796 = DIRECTION ( 'NONE',  ( 0.000000000000000000, 0.000000000000000000, 1.000000000000000000 ) ) ;
#797 = FACE_OUTER_BOUND ( 'NONE', #296, .T. ) ;
#798 = ORIENTED_EDGE ( 'NONE', *, *, #376, .T. ) ;
#799 = ORIENTED_EDGE ( 'NONE', *, *, #860, .T. ) ;
#800 = DIRECTION ( 'NONE',  ( -0.6666666666666697383, -0.6666666666666510865, 0.3333333333333585169 ) ) ;
#801 = APPLICATION_CONTEXT ( 'automotive_design' ) ;
#802 = DIRECTION ( 'NONE',  ( 1.000000000000000000, 0.000000000000000000, 0.000000000000000000 ) ) ;
#803 = EDGE_CURVE ( 'NONE', #386, #558, #183, .T. ) ;
#804 = PLANE ( 'NONE',  #271 ) ;
#805 = ADVANCED_FACE ( 'NONE', ( #356 ), #1103, .F. ) ;
#806 = ORIENTED_EDGE ( 'NONE', *, *, #481, .T. ) ;
#807 = ORIENTED_EDGE ( 'NONE', *, *, #1034, .T. ) ;
#808 = DIRECTION ( 'NONE',  ( 0.000000000000000000, 0.000000000000000000, 1.000000000000000000 ) ) ;
#809 = CARTESIAN_POINT ( 'NONE',  ( 78.12513972300446596, 92.84935234179164354, -3.631119374457592031 ) ) ;
#810 = ORIENTED_EDGE ( 'NONE', *, *, #582, .T. ) ;
#811 = CLOSED_SHELL ( 'NONE', ( #983, #657, #1047, #118, #474, #552, #23, #167, #234, #616, #407, #689, #95, #865, #10, #618, #425, #278, #265, #472, #1150, #357, #863, #1099, #159, #654, #805, #959, #1075, #716, #134, #544, #720, #1048, #196, #946, #427, #51, #310, #257, #496, #1122, #1083, #565 ) ) ;
#812 = EDGE_CURVE ( 'NONE', #1154, #1043, #728, .T. ) ;
#813 = VECTOR ( 'NONE', #918, 1000.000000000000000 ) ;
#814 = ORIENTED_EDGE ( 'NONE', *, *, #202, .T. ) ;
#815 = LINE ( 'NONE', #191, #5 ) ;
#816 = FACE_OUTER_BOUND ( 'NONE', #452, .T. ) ;
#817 = LINE ( 'NONE', #114, #235 ) ;
#818 = ORIENTED_EDGE ( 'NONE', *, *, #82, .T. ) ;
#819 = ORIENTED_EDGE ( 'NONE', *, *, #740, .T. ) ;
#820 = CARTESIAN_POINT ( 'NONE',  ( 51.69443583219228344, 0.000000000000000000, 34.69355679643813772 ) ) ;
#821 =( NAMED_UNIT ( * ) SI_UNIT ( $, .STERADIAN. ) SOLID_ANGLE_UNIT ( ) );
#822 = FACE_OUTER_BOUND ( 'NONE', #778, .T. ) ;
#823 = ORIENTED_EDGE ( 'NONE', *, *, #682, .T. ) ;
#824 = ORIENTED_EDGE ( 'NONE', *, *, #768, .F. ) ;
#825 = PLANE ( 'NONE',  #835 ) ;
#826 = EDGE_CURVE ( 'NONE', #443, #1010, #741, .T. ) ;
#827 =( NAMED_UNIT ( * ) PLANE_ANGLE_UNIT ( ) SI_UNIT ( $, .RADIAN. ) );
#828 = CARTESIAN_POINT ( 'NONE',  ( 20.17967916298275455, 153.5740285126873630, 42.79355679643813204 ) ) ;
#829 = EDGE_CURVE ( 'NONE', #232, #742, #451, .T. ) ;
#830 = DIRECTION ( 'NONE',  ( 0.7071067811865474617, 0.000000000000000000, -0.7071067811865474617 ) ) ;
#831 = VECTOR ( 'NONE', #884, 1000.000000000000114 ) ;
#832 = ORIENTED_EDGE ( 'NONE', *, *, #896, .T. ) ;
#833 = CARTESIAN_POINT ( 'NONE',  ( 31.70046355210861933, 153.5740285126873630, 0.000000000000000000 ) ) ;
#834 = VECTOR ( 'NONE', #153, 1000.000000000000000 ) ;
#835 = AXIS2_PLACEMENT_3D ( 'NONE', #20, #381, #541 ) ;
#836 = DIRECTION ( 'NONE',  ( 0.5773502691896392758, -0.5773502691896190697, -0.5773502691896190697 ) ) ;
#837 = DIRECTION ( 'NONE',  ( 0.000000000000000000, -0.7071067811864887309, -0.7071067811866064146 ) ) ;
#838 = ORIENTED_EDGE ( 'NONE', *, *, #972, .F. ) ;
#839 = DIRECTION ( 'NONE',  ( 0.5773502691896258421, 0.5773502691896258421, -0.5773502691896258421 ) ) ;
#840 = LINE ( 'NONE', #35, #329 ) ;
#841 = PLANE ( 'NONE',  #193 ) ;
#842 = ORIENTED_EDGE ( 'NONE', *, *, #1156, .T. ) ;
#843 = EDGE_CURVE ( 'NONE', #879, #1043, #103, .T. ) ;
#844 = ORIENTED_EDGE ( 'NONE', *, *, #523, .F. ) ;
#845 = PLANE ( 'NONE',  #86 ) ;
#846 = LINE ( 'NONE', #40, #989 ) ;
#847 = DIRECTION ( 'NONE',  ( -1.000000000000000000, -0.000000000000000000, -0.000000000000000000 ) ) ;
#848 = CARTESIAN_POINT ( 'NONE',  ( 31.70046355210861222, 153.0740285126873630, 42.79355679643813204 ) ) ;
#849 = ORIENTED_EDGE ( 'NONE', *, *, #462, .F. ) ;
#850 = VECTOR ( 'NONE', #836, 1000.000000000000000 ) ;
#851 = VECTOR ( 'NONE', #1072, 1000.000000000000000 ) ;
#852 = DIRECTION ( 'NONE',  ( 0.7071067811865474617, 0.7071067811865474617, -0.000000000000000000 ) ) ;
#853 = CARTESIAN_POINT ( 'NONE',  ( 31.70046355210861933, 153.5740285126873630, 42.29355679643813204 ) ) ;
#854 = ORIENTED_EDGE ( 'NONE', *, *, #611, .T. ) ;
#855 = LINE ( 'NONE', #224, #344 ) ;
#856 = DIRECTION ( 'NONE',  ( -0.000000000000000000, -0.7071067811865475727, -0.7071067811865475727 ) ) ;
#857 = CARTESIAN_POINT ( 'NONE',  ( 32.20046355210861577, 153.0740285126873630, 34.69355679643813772 ) ) ;
#858 = ORIENTED_EDGE ( 'NONE', *, *, #45, .T. ) ;
#859 = CARTESIAN_POINT ( 'NONE',  ( 16.54007135754573099, 41.63222842111793653, 83.26445684222764498 ) ) ;
#860 = EDGE_CURVE ( 'NONE', #173, #725, #194, .T. ) ;
#861 = DIRECTION ( 'NONE',  ( 1.000000000000000000, 0.000000000000000000, 0.000000000000000000 ) ) ;
#862 = DIRECTION ( 'NONE',  ( 0.000000000000000000, -0.000000000000000000, -1.000000000000000000 ) ) ;
#863 = ADVANCED_FACE ( 'NONE', ( #915 ), #188, .T. ) ;
#864 = ORIENTED_EDGE ( 'NONE', *, *, #585, .T. ) ;
#865 = ADVANCED_FACE ( 'NONE', ( #822 ), #804, .F. ) ;
#866 = DIRECTION ( 'NONE',  ( 0.000000000000000000, 0.000000000000000000, 1.000000000000000000 ) ) ;
#867 = UNCERTAINTY_MEASURE_WITH_UNIT (LENGTH_MEASURE( 1.000000000000000082E-05 ), #555, 'distance_accuracy_value', 'NONE');
#868 = VECTOR ( 'NONE', #919, 1000.000000000000000 ) ;
#869 = AXIS2_PLACEMENT_3D ( 'NONE', #399, #591, #1044 ) ;
#870 = CARTESIAN_POINT ( 'NONE',  ( 31.70046355210866906, -6.061669821034098611E-15, 42.79355679643813204 ) ) ;
#871 = AXIS2_PLACEMENT_3D ( 'NONE', #981, #11, #371 ) ;
#872 = DIRECTION ( 'NONE',  ( -0.5773502691896258421, 0.5773502691896258421, 0.5773502691896258421 ) ) ;
#873 = VECTOR ( 'NONE', #1019, 1000.000000000000000 ) ;
#874 = ORIENTED_EDGE ( 'NONE', *, *, #205, .F. ) ;
#875 = EDGE_LOOP ( 'NONE', ( #1128, #624, #185, #832 ) ) ;
#876 = LINE ( 'NONE', #596, #177 ) ;
#877 = PLANE ( 'NONE',  #289 ) ;
#878 = FACE_OUTER_BOUND ( 'NONE', #116, .T. ) ;
#879 = VERTEX_POINT ( 'NONE', #734 ) ;
#880 = EDGE_CURVE ( 'NONE', #705, #248, #924, .T. ) ;
#881 = ORIENTED_EDGE ( 'NONE', *, *, #146, .F. ) ;
#882 = CARTESIAN_POINT ( 'NONE',  ( 16.54007135754573099, 139.1073618460206944, 34.52689012977145921 ) ) ;
#883 = PRODUCT_DEFINITION_CONTEXT ( 'detailed design', #107, 'design' ) ;
#884 = DIRECTION ( 'NONE',  ( 0.7071067811865474617, -0.7071067811865474617, -0.000000000000000000 ) ) ;
#885 = CARTESIAN_POINT ( 'NONE',  ( 16.54007135754573099, 153.3240285126873630, 29.54355679643767019 ) ) ;
#886 = ORIENTED_EDGE ( 'NONE', *, *, #598, .T. ) ;
#887 = ORIENTED_EDGE ( 'NONE', *, *, #377, .F. ) ;
#888 = CARTESIAN_POINT ( 'NONE',  ( 19.67967916298277231, 1.962732491145479471E-15, 34.69355679643813772 ) ) ;
#889 = LINE ( 'NONE', #340, #119 ) ;
#890 = ORIENTED_EDGE ( 'NONE', *, *, #239, .F. ) ;
#891 = AXIS2_PLACEMENT_3D ( 'NONE', #668, #754, #392 ) ;
#892 = ORIENTED_EDGE ( 'NONE', *, *, #597, .F. ) ;
#893 = DIRECTION ( 'NONE',  ( 0.000000000000000000, 0.8944271909998982029, -0.4472135954999932328 ) ) ;
#894 = EDGE_CURVE ( 'NONE', #974, #173, #920, .T. ) ;
#895 = VECTOR ( 'NONE', #751, 1000.000000000000114 ) ;
#896 = EDGE_CURVE ( 'NONE', #1097, #87, #817, .T. ) ;
#897 = DIRECTION ( 'NONE',  ( 1.000000000000000000, 0.000000000000000000, 0.000000000000000000 ) ) ;
#898 = DIRECTION ( 'NONE',  ( 0.000000000000000000, 1.000000000000000000, 0.000000000000000000 ) ) ;
#899 = VERTEX_POINT ( 'NONE', #25 ) ;
#900 = EDGE_LOOP ( 'NONE', ( #222, #349, #887 ) ) ;
#901 = LINE ( 'NONE', #450, #721 ) ;
#902 = EDGE_CURVE ( 'NONE', #879, #912, #1174, .T. ) ;
#903 = CARTESIAN_POINT ( 'NONE',  ( 19.67967916298277586, -16.42597148731265833, 15.12585852046723822 ) ) ;
#904 = DIRECTION ( 'NONE',  ( 0.000000000000000000, 0.000000000000000000, 1.000000000000000000 ) ) ;
#905 = ORIENTED_EDGE ( 'NONE', *, *, #1040, .F. ) ;
#906 = VERTEX_POINT ( 'NONE', #560 ) ;
#907 = DIRECTION ( 'NONE',  ( 0.000000000000000000, -0.7071067811865475727, 0.7071067811865475727 ) ) ;
#908 = LINE ( 'NONE', #647, #124 ) ;
#909 = ORIENTED_EDGE ( 'NONE', *, *, #621, .T. ) ;
#910 = VECTOR ( 'NONE', #142, 1000.000000000000000 ) ;
#911 = VECTOR ( 'NONE', #1001, 1000.000000000000000 ) ;
#912 = VERTEX_POINT ( 'NONE', #6 ) ;
#913 = PLANE ( 'NONE',  #67 ) ;
#914 = PRODUCT ( '\X2\8272536176d2\X0\-\X2\96504f4d67f1\X0\', '\X2\8272536176d2\X0\-\X2\96504f4d67f1\X0\', '', ( #732 ) ) ;
#915 = FACE_OUTER_BOUND ( 'NONE', #436, .T. ) ;
#916 = LINE ( 'NONE', #653, #420 ) ;
#917 = VERTEX_POINT ( 'NONE', #723 ) ;
#918 = DIRECTION ( 'NONE',  ( 0.000000000000000000, 0.000000000000000000, -1.000000000000000000 ) ) ;
#919 = DIRECTION ( 'NONE',  ( 0.000000000000000000, -1.000000000000000000, 0.000000000000000000 ) ) ;
#920 = LINE ( 'NONE', #996, #1145 ) ;
#921 = ORIENTED_EDGE ( 'NONE', *, *, #1074, .F. ) ;
#922 = ORIENTED_EDGE ( 'NONE', *, *, #112, .F. ) ;
#923 = LINE ( 'NONE', #1038, #931 ) ;
#924 = LINE ( 'NONE', #809, #404 ) ;
#925 = LINE ( 'NONE', #109, #66 ) ;
#926 = VECTOR ( 'NONE', #1167, 1000.000000000000000 ) ;
#927 = EDGE_LOOP ( 'NONE', ( #527, #93, #583, #546 ) ) ;
#928 = DIRECTION ( 'NONE',  ( 0.000000000000000000, -0.7071067811865474617, 0.7071067811865474617 ) ) ;
#929 = VECTOR ( 'NONE', #613, 1000.000000000000000 ) ;
#930 = PLANE ( 'NONE',  #679 ) ;
#931 = VECTOR ( 'NONE', #308, 1000.000000000000114 ) ;
#932 = EDGE_CURVE ( 'NONE', #403, #275, #1095, .T. ) ;
#933 = EDGE_CURVE ( 'NONE', #248, #75, #1133, .T. ) ;
#934 = CARTESIAN_POINT ( 'NONE',  ( 19.67967916298275810, 153.5740285126873630, 34.19355679643813772 ) ) ;
#935 = DIRECTION ( 'NONE',  ( -0.5773502691896231775, 0.5773502691896270633, 0.5773502691896270633 ) ) ;
#936 = ORIENTED_EDGE ( 'NONE', *, *, #1169, .F. ) ;
#937 = PLANE ( 'NONE',  #607 ) ;
#938 = DIRECTION ( 'NONE',  ( -0.7071067811865376918, 0.3162277660168673066, 0.6324555320336721076 ) ) ;
#939 = CARTESIAN_POINT ( 'NONE',  ( 37.52432146085599385, 144.5978864214345663, 48.11741470518532537 ) ) ;
#940 = LINE ( 'NONE', #660, #250 ) ;
#941 = EDGE_LOOP ( 'NONE', ( #154, #814, #323, #799 ) ) ;
#942 = DIRECTION ( 'NONE',  ( 1.000000000000000000, 0.000000000000000000, -0.000000000000000000 ) ) ;
#943 = CARTESIAN_POINT ( 'NONE',  ( 16.04007135754572744, 138.9976353104373459, 35.14077039193808361 ) ) ;
#944 = CARTESIAN_POINT ( 'NONE',  ( 49.17203727835005367, 138.7740285126873516, 42.29355679643813204 ) ) ;
#945 = EDGE_CURVE ( 'NONE', #617, #705, #49, .T. ) ;
#946 = ADVANCED_FACE ( 'NONE', ( #1120 ), #841, .T. ) ;
#947 = ORIENTED_EDGE ( 'NONE', *, *, #390, .T. ) ;
#948 = VECTOR ( 'NONE', #1035, 1000.000000000000000 ) ;
#949 = LINE ( 'NONE', #1132, #528 ) ;
#950 = VECTOR ( 'NONE', #221, 1000.000000000000114 ) ;
#951 = VECTOR ( 'NONE', #387, 1000.000000000000000 ) ;
#952 = CARTESIAN_POINT ( 'NONE',  ( 16.54007135754573099, 153.0740285126873630, 29.29355679643767019 ) ) ;
#953 = DIRECTION ( 'NONE',  ( 3.469446951953612217E-16, -1.000000000000000000, 0.000000000000000000 ) ) ;
#954 = ORIENTED_EDGE ( 'NONE', *, *, #776, .T. ) ;
#955 = EDGE_CURVE ( 'NONE', #725, #917, #678, .T. ) ;
#956 = LINE ( 'NONE', #57, #44 ) ;
#957 = DIRECTION ( 'NONE',  ( 0.5773502691896366112, 0.5773502691896204020, 0.5773502691896204020 ) ) ;
#958 = CARTESIAN_POINT ( 'NONE',  ( 20.17967916298274744, 138.7740285126873516, 34.69355679643813772 ) ) ;
#959 = ADVANCED_FACE ( 'NONE', ( #305 ), #764, .F. ) ;
#960 = ORIENTED_EDGE ( 'NONE', *, *, #1023, .F. ) ;
#961 = ORIENTED_EDGE ( 'NONE', *, *, #598, .F. ) ;
#962 = DIRECTION ( 'NONE',  ( 0.7071067811865463515, -2.183651513725469796E-15, 0.7071067811865487940 ) ) ;
#963 = FACE_OUTER_BOUND ( 'NONE', #110, .T. ) ;
#964 = LINE ( 'NONE', #781, #1030 ) ;
#965 = ORIENTED_EDGE ( 'NONE', *, *, #740, .F. ) ;
#966 = DIRECTION ( 'NONE',  ( -0.7071067811865451302, -0.000000000000000000, -0.7071067811865500152 ) ) ;
#967 = AXIS2_PLACEMENT_3D ( 'NONE', #132, #413, #516 ) ;
#968 = VECTOR ( 'NONE', #365, 1000.000000000000000 ) ;
#969 = LINE ( 'NONE', #702, #831 ) ;
#970 = VECTOR ( 'NONE', #942, 1000.000000000000000 ) ;
#971 = CARTESIAN_POINT ( 'NONE',  ( 35.84007135754573170, 140.8920625014370387, 34.19355679643813772 ) ) ;
#972 = EDGE_CURVE ( 'NONE', #1084, #1043, #143, .T. ) ;
#973 = ORIENTED_EDGE ( 'NONE', *, *, #902, .F. ) ;
#974 = VERTEX_POINT ( 'NONE', #952 ) ;
#975 = FACE_OUTER_BOUND ( 'NONE', #992, .T. ) ;
#976 = LINE ( 'NONE', #429, #677 ) ;
#977 = FACE_BOUND ( 'NONE', #380, .T. ) ;
#978 = ORIENTED_EDGE ( 'NONE', *, *, #763, .F. ) ;
#979 = DIRECTION ( 'NONE',  ( -1.000000000000000000, 0.000000000000000000, 0.000000000000000000 ) ) ;
#980 = LINE ( 'NONE', #170, #713 ) ;
#981 = CARTESIAN_POINT ( 'NONE',  ( 16.54007135754573099, 153.5740285126873630, 0.000000000000000000 ) ) ;
#982 = VERTEX_POINT ( 'NONE', #487 ) ;
#983 = ADVANCED_FACE ( 'NONE', ( #1026 ), #1053, .T. ) ;
#984 = ORIENTED_EDGE ( 'NONE', *, *, #755, .T. ) ;
#985 = DIRECTION ( 'NONE',  ( -1.000000000000000000, 0.000000000000000000, 0.000000000000000000 ) ) ;
#986 = EDGE_CURVE ( 'NONE', #56, #725, #54, .T. ) ;
#987 = APPLICATION_PROTOCOL_DEFINITION ( 'draft international standard', 'automotive_design', 1998, #107 ) ;
#988 = DIRECTION ( 'NONE',  ( -1.000000000000000000, 0.000000000000000000, 0.000000000000000000 ) ) ;
#989 = VECTOR ( 'NONE', #893, 1000.000000000000227 ) ;
#990 = ORIENTED_EDGE ( 'NONE', *, *, #21, .F. ) ;
#991 = AXIS2_PLACEMENT_3D ( 'NONE', #737, #1004, #370 ) ;
#992 = EDGE_LOOP ( 'NONE', ( #997, #529, #960, #978 ) ) ;
#993 = LINE ( 'NONE', #355, #157 ) ;
#994 = EDGE_CURVE ( 'NONE', #1170, #1154, #476, .T. ) ;
#995 = SHAPE_DEFINITION_REPRESENTATION ( #573, #623 ) ;
#996 = CARTESIAN_POINT ( 'NONE',  ( 51.69443583219228344, 153.0740285126873630, 29.29355679643767019 ) ) ;
#997 = ORIENTED_EDGE ( 'NONE', *, *, #1169, .T. ) ;
#998 = ORIENTED_EDGE ( 'NONE', *, *, #1166, .F. ) ;
#999 = CARTESIAN_POINT ( 'NONE',  ( 35.84007135754573170, 153.5740285126873630, 34.19355679643813772 ) ) ;
#1000 = DIRECTION ( 'NONE',  ( 0.000000000000000000, 0.000000000000000000, -1.000000000000000000 ) ) ;
#1001 = DIRECTION ( 'NONE',  ( 0.000000000000000000, -1.000000000000000000, 0.000000000000000000 ) ) ;
#1002 = ORIENTED_EDGE ( 'NONE', *, *, #268, .T. ) ;
#1003 = EDGE_LOOP ( 'NONE', ( #590, #724, #460, #1042 ) ) ;
#1004 = DIRECTION ( 'NONE',  ( 0.000000000000000000, -1.000000000000000000, 0.000000000000000000 ) ) ;
#1005 = VECTOR ( 'NONE', #861, 1000.000000000000000 ) ;
#1006 = DIRECTION ( 'NONE',  ( 0.7071067811865474617, -0.7071067811865474617, 0.000000000000000000 ) ) ;
#1007 = EDGE_CURVE ( 'NONE', #386, #617, #569, .T. ) ;
#1008 = CARTESIAN_POINT ( 'NONE',  ( 19.67967916298275810, 140.9740285126873687, 0.000000000000000000 ) ) ;
#1009 = EDGE_CURVE ( 'NONE', #617, #33, #128, .T. ) ;
#1010 = VERTEX_POINT ( 'NONE', #1137 ) ;
#1011 = VECTOR ( 'NONE', #786, 1000.000000000000114 ) ;
#1012 = AXIS2_PLACEMENT_3D ( 'NONE', #267, #536, #186 ) ;
#1013 = ORIENTED_EDGE ( 'NONE', *, *, #986, .F. ) ;
#1014 = DIRECTION ( 'NONE',  ( 0.000000000000000000, -1.000000000000000000, 0.000000000000000000 ) ) ;
#1015 = DIRECTION ( 'NONE',  ( -0.5773502691896268413, 0.5773502691896252870, 0.5773502691896252870 ) ) ;
#1016 = EDGE_LOOP ( 'NONE', ( #419, #315, #1013, #849 ) ) ;
#1017 = ORIENTED_EDGE ( 'NONE', *, *, #146, .T. ) ;
#1018 = CARTESIAN_POINT ( 'NONE',  ( 35.84007135754573170, 138.7740285126873516, 34.19355679643813772 ) ) ;
#1019 = DIRECTION ( 'NONE',  ( 1.156482317317870739E-16, -1.000000000000000000, 0.000000000000000000 ) ) ;
#1020 = DIRECTION ( 'NONE',  ( -0.5773502691896257311, 0.5773502691896257311, -0.5773502691896257311 ) ) ;
#1021 = ORIENTED_EDGE ( 'NONE', *, *, #62, .T. ) ;
#1022 = DIRECTION ( 'NONE',  ( -0.000000000000000000, 0.4472135954999932328, 0.8944271909998982029 ) ) ;
#1023 = EDGE_CURVE ( 'NONE', #1055, #917, #586, .T. ) ;
#1024 = EDGE_CURVE ( 'NONE', #281, #1105, #237, .T. ) ;
#1025 = EDGE_CURVE ( 'NONE', #87, #715, #138, .T. ) ;
#1026 = FACE_OUTER_BOUND ( 'NONE', #1003, .T. ) ;
#1027 = ORIENTED_EDGE ( 'NONE', *, *, #880, .F. ) ;
#1028 = ORIENTED_EDGE ( 'NONE', *, *, #763, .T. ) ;
#1029 = DIRECTION ( 'NONE',  ( -0.7071067811865474617, -0.000000000000000000, -0.7071067811865474617 ) ) ;
#1030 = VECTOR ( 'NONE', #226, 1000.000000000000000 ) ;
#1031 = AXIS2_PLACEMENT_3D ( 'NONE', #779, #907, #1112 ) ;
#1032 = CARTESIAN_POINT ( 'NONE',  ( 19.92967916298274389, 139.0240285126873232, 42.54355679643812493 ) ) ;
#1033 = VECTOR ( 'NONE', #550, 1000.000000000000000 ) ;
#1034 = EDGE_CURVE ( 'NONE', #275, #33, #401, .T. ) ;
#1035 = DIRECTION ( 'NONE',  ( 0.000000000000000000, 0.000000000000000000, -1.000000000000000000 ) ) ;
#1036 = CARTESIAN_POINT ( 'NONE',  ( 35.34007135754573170, 139.2740285126873232, 34.69355679643813772 ) ) ;
#1037 = ORIENTED_EDGE ( 'NONE', *, *, #933, .F. ) ;
#1038 = CARTESIAN_POINT ( 'NONE',  ( 16.54007135754573099, 153.0740285126873630, 34.69355679643813772 ) ) ;
#1039 = FACE_OUTER_BOUND ( 'NONE', #373, .T. ) ;
#1040 = EDGE_CURVE ( 'NONE', #1170, #1010, #673, .T. ) ;
#1041 = DIRECTION ( 'NONE',  ( -0.6974565623330585273, -0.1646471600638921839, -0.6974565623330585273 ) ) ;
#1042 = ORIENTED_EDGE ( 'NONE', *, *, #390, .F. ) ;
#1043 = VERTEX_POINT ( 'NONE', #220 ) ;
#1044 = DIRECTION ( 'NONE',  ( 0.000000000000000000, 1.000000000000000000, -0.000000000000000000 ) ) ;
#1045 = DIRECTION ( 'NONE',  ( -0.7071067811865500152, -0.7071067811865450192, -1.837086636568282058E-16 ) ) ;
#1046 = CARTESIAN_POINT ( 'NONE',  ( 19.67967916298277231, 1.962732491145479471E-15, 40.39355679643813346 ) ) ;
#1047 = ADVANCED_FACE ( 'NONE', ( #575 ), #229, .T. ) ;
#1048 = ADVANCED_FACE ( 'NONE', ( #336 ), #877, .T. ) ;
#1049 = ORIENTED_EDGE ( 'NONE', *, *, #611, .F. ) ;
#1050 = CARTESIAN_POINT ( 'NONE',  ( 32.20046355210862288, 140.9740285126873687, 37.19355679643813772 ) ) ;
#1051 = AXIS2_PLACEMENT_3D ( 'NONE', #1121, #477, #37 ) ;
#1052 = VECTOR ( 'NONE', #438, 1000.000000000000000 ) ;
#1053 = PLANE ( 'NONE',  #439 ) ;
#1054 = DIRECTION ( 'NONE',  ( -1.000000000000000000, -3.469446951953612217E-16, 0.000000000000000000 ) ) ;
#1055 = VERTEX_POINT ( 'NONE', #691 ) ;
#1056 = LINE ( 'NONE', #345, #851 ) ;
#1057 = DIRECTION ( 'NONE',  ( 0.000000000000000000, -0.7071067811866064146, 0.7071067811864887309 ) ) ;
#1058 = DIRECTION ( 'NONE',  ( 0.000000000000000000, 0.000000000000000000, 1.000000000000000000 ) ) ;
#1059 = VERTEX_POINT ( 'NONE', #622 ) ;
#1060 = FACE_OUTER_BOUND ( 'NONE', #261, .T. ) ;
#1061 = EDGE_CURVE ( 'NONE', #38, #742, #976, .T. ) ;
#1062 = CARTESIAN_POINT ( 'NONE',  ( 20.17967916298275455, 153.5740285126873630, 34.19355679643813772 ) ) ;
#1063 = DIRECTION ( 'NONE',  ( 0.000000000000000000, 0.000000000000000000, 1.000000000000000000 ) ) ;
#1064 = EDGE_LOOP ( 'NONE', ( #328, #208, #140, #166 ) ) ;
#1065 = DIRECTION ( 'NONE',  ( 0.000000000000000000, 0.000000000000000000, -1.000000000000000000 ) ) ;
#1066 = VECTOR ( 'NONE', #1006, 1000.000000000000114 ) ;
#1067 = EDGE_CURVE ( 'NONE', #715, #360, #440, .T. ) ;
#1068 = PLANE ( 'NONE',  #1143 ) ;
#1069 = VECTOR ( 'NONE', #746, 1000.000000000000114 ) ;
#1070 = LINE ( 'NONE', #348, #155 ) ;
#1071 = ORIENTED_EDGE ( 'NONE', *, *, #621, .F. ) ;
#1072 = DIRECTION ( 'NONE',  ( -0.2655120622211575854, -0.9477191029340978901, 0.1770080414807670144 ) ) ;
#1073 = CARTESIAN_POINT ( 'NONE',  ( 32.20046355210862288, 140.9740285126873687, 40.39355679643813346 ) ) ;
#1074 = EDGE_CURVE ( 'NONE', #1111, #1059, #969, .T. ) ;
#1075 = ADVANCED_FACE ( 'NONE', ( #1157 ), #609, .T. ) ;
#1076 = ORIENTED_EDGE ( 'NONE', *, *, #298, .T. ) ;
#1077 = EDGE_LOOP ( 'NONE', ( #1017, #688, #710, #184 ) ) ;
#1078 = LINE ( 'NONE', #690, #123 ) ;
#1079 = DIRECTION ( 'NONE',  ( 1.000000000000000000, 0.000000000000000000, -0.000000000000000000 ) ) ;
#1080 = CARTESIAN_POINT ( 'NONE',  ( 49.17203727835005367, 153.5740285126873630, 42.29355679643813204 ) ) ;
#1081 = EDGE_CURVE ( 'NONE', #74, #1010, #889, .T. ) ;
#1082 = EDGE_LOOP ( 'NONE', ( #632, #244, #216, #577 ) ) ;
#1083 = ADVANCED_FACE ( 'NONE', ( #963 ), #85, .T. ) ;
#1084 = VERTEX_POINT ( 'NONE', #773 ) ;
#1085 = PLANE ( 'NONE',  #1012 ) ;
#1086 = VECTOR ( 'NONE', #646, 1000.000000000000114 ) ;
#1087 = PLANE ( 'NONE',  #871 ) ;
#1088 = AXIS2_PLACEMENT_3D ( 'NONE', #1141, #430, #862 ) ;
#1089 = CARTESIAN_POINT ( 'NONE',  ( 49.17203727835005367, 138.7740285126873516, 34.69355679643813772 ) ) ;
#1090 = EDGE_LOOP ( 'NONE', ( #410, #369, #1164, #1138 ) ) ;
#1091 = VECTOR ( 'NONE', #1114, 1000.000000000000000 ) ;
#1092 = ORIENTED_EDGE ( 'NONE', *, *, #320, .T. ) ;
#1093 = DIRECTION ( 'NONE',  ( 0.000000000000000000, 0.000000000000000000, 1.000000000000000000 ) ) ;
#1094 = PLANE ( 'NONE',  #473 ) ;
#1095 = LINE ( 'NONE', #482, #1069 ) ;
#1096 = ORIENTED_EDGE ( 'NONE', *, *, #277, .F. ) ;
#1097 = VERTEX_POINT ( 'NONE', #1073 ) ;
#1098 = PLANE ( 'NONE',  #991 ) ;
#1099 = ADVANCED_FACE ( 'NONE', ( #258 ), #1068, .T. ) ;
#1100 = EDGE_CURVE ( 'NONE', #38, #906, #351, .T. ) ;
#1101 = APPLICATION_PROTOCOL_DEFINITION ( 'draft international standard', 'automotive_design', 1998, #801 ) ;
#1102 =( NAMED_UNIT ( * ) SI_UNIT ( $, .STERADIAN. ) SOLID_ANGLE_UNIT ( ) );
#1103 = PLANE ( 'NONE',  #494 ) ;
#1104 = ORIENTED_EDGE ( 'NONE', *, *, #83, .F. ) ;
#1105 = VERTEX_POINT ( 'NONE', #163 ) ;
#1106 = DIRECTION ( 'NONE',  ( 0.000000000000000000, -0.7071067811866064146, 0.7071067811864887309 ) ) ;
#1107 = DIRECTION ( 'NONE',  ( -1.000000000000000000, -0.000000000000000000, -0.000000000000000000 ) ) ;
#1108 = CARTESIAN_POINT ( 'NONE',  ( 20.17967916298274744, 138.7740285126873516, 42.29355679643813204 ) ) ;
#1109 = VECTOR ( 'NONE', #441, 1000.000000000000227 ) ;
#1110 = VECTOR ( 'NONE', #1041, 1000.000000000000000 ) ;
#1111 = VERTEX_POINT ( 'NONE', #147 ) ;
#1112 = DIRECTION ( 'NONE',  ( -1.000000000000000000, 0.000000000000000000, 0.000000000000000000 ) ) ;
#1113 = DIRECTION ( 'NONE',  ( 0.000000000000000000, 0.000000000000000000, 1.000000000000000000 ) ) ;
#1114 = DIRECTION ( 'NONE',  ( -1.000000000000000000, -0.000000000000000000, -0.000000000000000000 ) ) ;
#1115 = CARTESIAN_POINT ( 'NONE',  ( 35.34007135754573170, 139.1073618460206944, 34.52689012977145921 ) ) ;
#1116 = EDGE_CURVE ( 'NONE', #125, #729, #520, .T. ) ;
#1117 = EDGE_CURVE ( 'NONE', #360, #1097, #1162, .T. ) ;
#1118 = ORIENTED_EDGE ( 'NONE', *, *, #894, .F. ) ;
#1119 = PLANE ( 'NONE',  #891 ) ;
#1120 = FACE_OUTER_BOUND ( 'NONE', #606, .T. ) ;
#1121 = CARTESIAN_POINT ( 'NONE',  ( 49.17203727835005367, 138.7740285126873516, 0.000000000000000000 ) ) ;
#1122 = ADVANCED_FACE ( 'NONE', ( #242 ), #686, .T. ) ;
#1123 = EDGE_LOOP ( 'NONE', ( #594, #255, #449, #1159, #823, #470, #854, #354 ) ) ;
#1124 = CARTESIAN_POINT ( 'NONE',  ( 31.70046355210861933, 153.5740285126873630, 34.19355679643813772 ) ) ;
#1125 = DIRECTION ( 'NONE',  ( -1.156482317317870739E-16, 1.000000000000000000, 0.000000000000000000 ) ) ;
#1126 = DIRECTION ( 'NONE',  ( -1.000000000000000000, 0.000000000000000000, 0.000000000000000000 ) ) ;
#1127 = ORIENTED_EDGE ( 'NONE', *, *, #649, .F. ) ;
#1128 = ORIENTED_EDGE ( 'NONE', *, *, #1025, .T. ) ;
#1129 = LINE ( 'NONE', #744, #456 ) ;
#1130 = MECHANICAL_DESIGN_GEOMETRIC_PRESENTATION_REPRESENTATION (  '', ( #233 ), #605 ) ;
#1131 = AXIS2_PLACEMENT_3D ( 'NONE', #525, #174, #335 ) ;
#1132 = CARTESIAN_POINT ( 'NONE',  ( 49.17203727835005367, 139.2740285126873516, 42.79355679643813204 ) ) ;
#1133 = LINE ( 'NONE', #317, #330 ) ;
#1134 = ORIENTED_EDGE ( 'NONE', *, *, #789, .F. ) ;
#1135 = ORIENTED_EDGE ( 'NONE', *, *, #48, .F. ) ;
#1136 = DIRECTION ( 'NONE',  ( -0.7071067811865352493, -0.3162277660168684168, -0.6324555320336744391 ) ) ;
#1137 = CARTESIAN_POINT ( 'NONE',  ( 16.04007135754572744, 153.0740285126873630, 34.19355679643813772 ) ) ;
#1138 = ORIENTED_EDGE ( 'NONE', *, *, #447, .F. ) ;
#1139 = PRESENTATION_STYLE_ASSIGNMENT (( #584 ) ) ;
#1140 = CARTESIAN_POINT ( 'NONE',  ( 32.20046355210862288, 144.1740285126873573, 0.000000000000000000 ) ) ;
#1141 = CARTESIAN_POINT ( 'NONE',  ( 49.17203727835005367, 144.1740285126873573, 0.000000000000000000 ) ) ;
#1142 = ORIENTED_EDGE ( 'NONE', *, *, #292, .F. ) ;
#1143 = AXIS2_PLACEMENT_3D ( 'NONE', #263, #696, #503 ) ;
#1144 = CARTESIAN_POINT ( 'NONE',  ( 35.34007135754573170, 139.2740285126873232, 34.69355679643813772 ) ) ;
#1145 = VECTOR ( 'NONE', #538, 1000.000000000000000 ) ;
#1146 = DIRECTION ( 'NONE',  ( -1.156482317317870739E-16, 1.000000000000000000, 0.000000000000000000 ) ) ;
#1147 = DIRECTION ( 'NONE',  ( 1.000000000000000000, 0.000000000000000000, -0.000000000000000000 ) ) ;
#1148 = EDGE_CURVE ( 'NONE', #729, #374, #980, .T. ) ;
#1149 = ORIENTED_EDGE ( 'NONE', *, *, #113, .F. ) ;
#1150 = ADVANCED_FACE ( 'NONE', ( #599 ), #509, .F. ) ;
#1151 = DIRECTION ( 'NONE',  ( 0.000000000000000000, 0.8944271909998982029, -0.4472135954999932883 ) ) ;
#1152 = CARTESIAN_POINT ( 'NONE',  ( 51.69443583219228344, 139.1073618460206944, 34.52689012977145921 ) ) ;
#1153 = CARTESIAN_POINT ( 'NONE',  ( 19.67967916298275455, 144.1740285126873573, 40.39355679643813346 ) ) ;
#1154 = VERTEX_POINT ( 'NONE', #1062 ) ;
#1155 = PLANE ( 'NONE',  #270 ) ;
#1156 = EDGE_CURVE ( 'NONE', #172, #545, #246, .T. ) ;
#1157 = FACE_OUTER_BOUND ( 'NONE', #524, .T. ) ;
#1158 = CARTESIAN_POINT ( 'NONE',  ( 49.17203727835005367, 138.7740285126873516, 42.29355679643813204 ) ) ;
#1159 = ORIENTED_EDGE ( 'NONE', *, *, #733, .T. ) ;
#1160 = CARTESIAN_POINT ( 'NONE',  ( 16.54007135754573099, 0.000000000000000000, 29.29355679643767019 ) ) ;
#1161 = EDGE_CURVE ( 'NONE', #443, #38, #290, .T. ) ;
#1162 = LINE ( 'NONE', #332, #695 ) ;
#1163 = VECTOR ( 'NONE', #979, 1000.000000000000000 ) ;
#1164 = ORIENTED_EDGE ( 'NONE', *, *, #82, .F. ) ;
#1165 = CARTESIAN_POINT ( 'NONE',  ( 35.84007135754573170, 163.5976353104368002, 22.84077039193713432 ) ) ;
#1166 = EDGE_CURVE ( 'NONE', #705, #63, #16, .T. ) ;
#1167 = DIRECTION ( 'NONE',  ( 3.469446951953612217E-16, -1.000000000000000000, 0.000000000000000000 ) ) ;
#1168 = FACE_OUTER_BOUND ( 'NONE', #1090, .T. ) ;
#1169 = EDGE_CURVE ( 'NONE', #1105, #974, #90, .T. ) ;
#1170 = VERTEX_POINT ( 'NONE', #22 ) ;
#1171 = ORIENTED_EDGE ( 'NONE', *, *, #581, .T. ) ;
#1172 = LINE ( 'NONE', #89, #475 ) ;
#1173 = CARTESIAN_POINT ( 'NONE',  ( 16.54007135754573099, 0.000000000000000000, 34.69355679643813772 ) ) ;
#1174 = LINE ( 'NONE', #384, #873 ) ;
#1175 = EDGE_LOOP ( 'NONE', ( #595, #522, #52, #180 ) ) ;
ENDSEC;
END-ISO-10303-21;
